<svg width="64" height="65" viewBox="0 0 64 65" fill="none" xmlns="http://www.w3.org/2000/svg">
<path fill-rule="evenodd" clip-rule="evenodd" d="M17.3925 26.383C17.313 25.3939 17.2756 24.4708 17.2569 23.6466C17.1774 19.6433 17.6263 16.9587 17.645 16.8456L18.0003 14.7451L19.7161 15.9932C19.8096 16.0591 21.9976 17.6604 24.7279 20.5758C25.0458 20.9149 25.3824 21.2823 25.7284 21.6779L25.6536 21.9181C24.6952 25.0642 24.0921 28.3187 23.9144 31.6626C22.4651 30.212 20.9831 28.9639 19.5711 27.9089C18.8184 27.3485 18.0891 26.8398 17.3925 26.383ZM46.5939 26.383C46.6734 25.3939 46.7108 24.4708 46.7295 23.6466C46.809 19.6433 46.3601 16.9587 46.3414 16.8456L45.9861 14.7451L44.2703 15.9932C44.1768 16.0591 41.9888 17.6604 39.2585 20.5758C38.9406 20.9149 38.604 21.2823 38.258 21.6779L38.3328 21.9228C39.2912 25.0689 39.8943 28.3234 40.072 31.6674C41.5213 30.2167 43.0033 28.9686 44.4152 27.9136C45.168 27.3532 45.8973 26.8445 46.5939 26.3877V26.383Z" fill="#0B0B0B"/>
<path fill-rule="evenodd" clip-rule="evenodd" d="M31.9938 54.1638C21.4418 54.6724 10.8898 45.785 9.54337 25.7731L9.39844 23.6443L11.362 24.4497C11.708 24.591 19.2164 27.7277 25.0791 34.7076C25.0698 34.3826 25.0651 34.0529 25.0651 33.7233C25.0651 25.5188 27.7346 17.8701 31.9984 10.9844C36.2622 17.8654 38.9318 25.5188 38.9318 33.7233C38.9318 34.0529 38.9271 34.3826 38.9178 34.7076C44.7805 27.7277 52.2889 24.591 52.6348 24.4497L54.5984 23.6443L54.4535 25.7731C53.107 45.785 42.5551 54.6724 32.0031 54.1638H31.9938ZM29.6702 45.3282C29.1325 45.3282 28.9128 45.5401 28.9128 46.0582C28.9128 47.3204 30.2967 48.3424 31.9938 48.3424C33.6955 48.3424 35.0747 47.3204 35.0747 46.0582C35.0747 45.5401 34.855 45.3329 34.3173 45.3329C34.0322 45.3423 33.7423 45.3706 33.4618 45.4224L33.4337 45.4271C32.9569 45.5072 32.4753 45.5495 31.9938 45.559C31.5122 45.5495 31.026 45.5072 30.5491 45.4271C30.2593 45.3753 29.96 45.347 29.6655 45.3329L29.6702 45.3282ZM24.13 40.2934C25.4999 40.2934 26.6079 41.4096 26.6079 42.7896C26.6079 44.1696 25.4999 45.2858 24.13 45.2858C22.7602 45.2858 21.6522 44.1696 21.6522 42.7896C21.6522 41.4096 22.7602 40.2934 24.13 40.2934ZM39.8528 40.2934C41.2226 40.2934 42.3307 41.4096 42.3307 42.7896C42.3307 44.1696 41.2226 45.2858 39.8528 45.2858C38.483 45.2858 37.3749 44.1696 37.3749 42.7896C37.3749 41.4096 38.483 40.2934 39.8528 40.2934Z" fill="#0B0B0B"/>
</svg>
