<svg width="64" height="65" viewBox="0 0 64 65" fill="none" xmlns="http://www.w3.org/2000/svg">
<path fill-rule="evenodd" clip-rule="evenodd" d="M44.012 51.5264C45.4476 50.6143 46.6135 49.3396 47.3902 47.833C48.5045 45.8465 48.0436 43.451 46.1359 41.4128C44.0242 39.1442 41.2228 37.7672 37.0511 36.9474H36.9911C35.3543 36.5827 33.679 36.4154 32.0019 36.4497H31.9376C30.2618 36.4157 28.5881 36.5828 26.9527 36.9474H26.8884C22.7167 37.7672 19.9153 39.1442 17.8036 41.4132C15.9125 43.451 15.4512 45.8387 16.569 47.829C17.3452 49.3372 18.5113 50.6132 19.9476 51.5264C22.5324 53.0669 25.4577 53.9901 29.1646 54.44C30.0582 54.5443 30.9578 54.5908 31.8575 54.5791H32.1021C33.0019 54.5908 33.9013 54.5443 34.795 54.44C38.5098 53.9901 41.4351 53.0669 44.012 51.5264ZM22.424 44.9122C22.6962 46.5044 24.0429 47.2129 25.5016 46.5044C26.1986 46.1797 26.7939 45.6731 27.2237 45.0387C27.6536 44.4043 27.902 43.6659 27.9424 42.9022C27.9354 42.0741 27.4937 42.3921 26.9489 42.7842C26.2213 43.308 25.3097 43.9642 25.0048 42.1981C24.4718 39.1093 22.1439 43.193 22.424 44.9122ZM38.5481 46.5044C40.0068 47.2129 41.3534 46.5044 41.6257 44.9122C41.9101 43.193 39.5818 39.1093 39.0453 42.1981C38.7381 43.9646 37.8264 43.3077 37.0992 42.7839C36.5552 42.3919 36.1145 42.0744 36.1077 42.9022C36.1489 43.6656 36.3975 44.4037 36.8272 45.0379C37.2569 45.6722 37.8516 46.179 38.5481 46.5044Z" fill="#0B0B0B"/>
<path fill-rule="evenodd" clip-rule="evenodd" d="M37.5411 16.4885C35.7993 15.8986 33.9817 15.5565 32.1431 15.4735V15.4739H31.8586C30.0188 15.5571 28.2001 15.8987 26.4567 16.4885C25.3916 14.7498 24.5386 12.8914 23.9157 10.9524C23.8778 10.8382 23.8021 10.74 23.701 10.6739C23.5998 10.6077 23.4791 10.5775 23.3585 10.588C23.2378 10.5986 23.1243 10.6494 23.0364 10.7321C22.9484 10.8148 22.8912 10.9247 22.8741 11.0437C22.6523 12.6483 22.6295 14.2738 22.8062 15.8838L22.7939 15.882L22.7939 15.882C21.8422 15.7401 21.5942 15.7031 20.3291 15.4218C12.2181 13.6509 9.56157 13.5753 8.83594 13.8856C10.531 18.3354 13.8011 21.8819 17.8406 23.641C18.5488 23.9124 19.1502 24.403 19.5558 25.0403C19.9614 25.6775 20.1497 26.4275 20.0928 27.1793C20.0767 29.5661 20.0821 31.9228 20.0875 34.2741V34.2741V34.2741V34.2742V34.2742C20.0901 35.416 20.0927 36.5565 20.0928 37.6986C22.3884 36.3982 24.7854 35.7944 26.6245 35.4313H26.6849C28.1574 35.1041 29.6603 34.9308 31.1691 34.9141H32.8764C34.3851 34.9308 35.8881 35.1041 37.3605 35.4313H37.4209C39.2536 35.7916 41.6275 36.3891 43.9059 37.6692C43.9297 34.1852 43.9526 30.7192 43.905 27.1793C43.8488 26.4276 44.0374 25.6779 44.4429 25.0408C44.8484 24.4038 45.4494 23.913 46.1572 23.641C50.1967 21.8819 53.4708 18.3354 55.1658 13.8856C54.4406 13.5753 51.7797 13.6509 43.6687 15.4218C42.3942 15.7047 42.1579 15.7404 41.192 15.8838C41.3723 14.2738 41.3496 12.6477 41.1237 11.0437C41.1097 10.9235 41.0534 10.812 40.9646 10.729C40.8759 10.6459 40.7605 10.5967 40.6388 10.5899C40.5182 10.5748 40.3961 10.603 40.2947 10.6695C40.1932 10.736 40.1191 10.8364 40.0856 10.9524C39.462 12.8915 38.6077 14.7498 37.5411 16.4885ZM25.2641 29.8865C24.4059 29.8719 23.5881 29.5219 22.988 28.9125C22.3879 28.3031 22.0539 27.4833 22.0583 26.6308C22.0682 26.2199 22.1605 25.815 22.3298 25.4398C22.499 25.0646 22.7417 24.7267 23.0439 24.4457C23.6474 23.8705 24.4517 23.5496 25.2881 23.5503C26.3958 23.6246 27.4812 23.8941 28.4939 24.3457C30.0091 25.003 30.8104 25.8267 30.8065 26.7343C30.8021 27.6414 30.0052 28.4495 28.4826 29.1224C27.469 29.5722 26.3838 29.8416 25.2763 29.9183H25.2439L25.2641 29.8865ZM25.2641 24.9073C24.7783 24.9073 24.3117 25.0943 23.9616 25.429C23.791 25.5878 23.6536 25.7785 23.5574 25.9902C23.4612 26.2019 23.408 26.4304 23.401 26.6626C23.405 27.1543 23.6027 27.625 23.9517 27.9738C24.3007 28.3226 24.7734 28.5219 25.2684 28.5291C26.1875 28.4534 27.0873 28.223 27.9294 27.8488C29.0309 27.375 29.4318 26.9095 29.4318 26.7143C29.4318 26.5191 29.0309 26.0579 27.9373 25.5841C27.0944 25.2085 26.1929 24.9795 25.2719 24.9073H25.2641ZM13.1498 16.1986L19.4135 17.6396C19.4799 17.6545 19.5399 17.69 19.5846 17.741C19.6293 17.792 19.6566 17.8558 19.6624 17.9232C19.6682 17.9906 19.6522 18.0581 19.6168 18.1158C19.5815 18.1736 19.5285 18.2187 19.4656 18.2447C18.2192 18.7541 15.9631 19.4904 14.8851 18.6941C13.3424 17.5479 12.8575 16.9111 12.7612 16.5651C12.7496 16.5128 12.7518 16.4584 12.7676 16.4072C12.7834 16.356 12.8123 16.3098 12.8514 16.2729C12.8905 16.236 12.9385 16.2098 12.9908 16.1968C13.0431 16.1838 13.0979 16.1844 13.1498 16.1986ZM41.0447 28.926C40.4431 29.5315 39.6249 29.8763 38.7685 29.8854L38.7926 29.9171H38.7645C37.6572 29.84 36.572 29.5706 35.5583 29.1212C34.0357 28.4483 33.2344 27.6403 33.2344 26.7331C33.2344 25.8255 34.0318 25.0018 35.5504 24.3446C36.5632 23.8925 37.649 23.623 38.7567 23.5491C39.593 23.5486 40.3971 23.8694 41.0005 24.4445C41.3034 24.725 41.5467 25.0628 41.716 25.4381C41.8854 25.8133 41.9774 26.2185 41.9865 26.6297C41.9922 27.0555 41.9117 27.4782 41.7499 27.8726C41.5881 28.2671 41.3483 28.6253 41.0447 28.926ZM40.0709 25.4278C39.7216 25.0923 39.2544 24.9052 38.7685 24.9062H38.7645C37.8424 24.9778 36.9396 25.2068 36.0957 25.583C35.0016 26.0568 34.5968 26.5179 34.6007 26.7131C34.6047 26.9083 35.0056 27.3738 36.1036 27.8476C36.9456 28.222 37.8453 28.452 38.7645 28.5279C39.261 28.523 39.7351 28.3226 40.0828 27.9706C40.2577 27.7999 40.3964 27.5961 40.4908 27.3712C40.5851 27.1463 40.6331 26.905 40.632 26.6614C40.6258 26.429 40.573 26.2003 40.4766 25.9884C40.3803 25.7766 40.2424 25.586 40.0709 25.4278ZM44.6234 17.6384L50.8871 16.1975C50.939 16.1842 50.9934 16.1842 51.0453 16.1975C51.0972 16.2109 51.1448 16.2371 51.1836 16.2737C51.2225 16.3104 51.2513 16.3562 51.2674 16.407C51.2836 16.4577 51.2864 16.5117 51.2757 16.5639C51.1755 16.9099 50.6945 17.5467 49.1479 18.6929C48.0699 19.4893 45.8178 18.7529 44.5709 18.2435C44.508 18.2175 44.455 18.1724 44.4197 18.1146C44.3844 18.0567 44.3685 17.9893 44.3743 17.9219C44.3802 17.8545 44.4075 17.7907 44.4522 17.7397C44.497 17.6888 44.557 17.6533 44.6234 17.6384Z" fill="#0B0B0B"/>
</svg>
