<svg width="64" height="65" viewBox="0 0 64 65" fill="none" xmlns="http://www.w3.org/2000/svg">
<path d="M57.5901 24.3447L48.8322 22.9178L55.5205 20.1294L57.0291 14.1077L55.2644 10.9819L46.6437 8.46875L51.0324 14.7429L51.0585 14.7799L47.6386 15.6331L39.183 9.84104L32.0087 10.6917L24.8344 9.84104L16.378 15.6331L12.958 14.7799L12.9833 14.7429L17.3737 8.46875L8.75218 10.9819L6.97313 14.1077L8.4801 20.1294L15.1675 22.9178L6.4096 24.3447L4.41406 29.7136L10.4175 32.6079L16.0908 30.6139L16.907 36.6516L20.6386 45.3186L22.4539 50.0219L31.2396 56.1758L31.9868 56.6983V56.7092H31.9935L32.0003 56.7042L32.0087 56.7092H32.0138V56.6983L32.7609 56.1758L41.5467 50.0211L43.3619 45.3186L47.091 36.6524L47.9064 30.613L53.5788 32.6079L59.5823 29.7136L57.5901 24.3447ZM9.33425 11.7283L15.2029 10.0177L12.0188 14.5696L8.13558 13.8527L9.33425 11.7283ZM8.04208 14.732L11.462 15.363L9.05543 18.7698L8.04208 14.7311V14.732ZM16.0217 29.7102L10.4815 31.6563L5.5285 29.2693L7.06832 25.1314L16.0217 23.6716V29.7102ZM16.0217 22.3153L9.54146 19.6137L12.4088 15.5548L16.0158 16.4551L16.0217 22.3153ZM40.7026 24.6729L39.8662 27.4663H24.1411L23.3055 24.6729L32.0003 12.1574L40.7018 24.6737L40.7026 24.6729ZM32.3465 36.0938H26.685L24.4166 28.3472H39.5848L37.3164 36.0938H32.3465ZM37.0536 36.9722L34.2418 44.3973L32.0062 46.2299L29.7697 44.3973L26.958 36.9722H37.0536ZM16.8994 21.3006V16.3424L25.0526 10.7581L31.3559 11.5053L31.398 11.5095L31.3786 11.528L22.5171 24.2118L16.8986 21.3006H16.8994ZM21.4591 44.9871L17.7713 36.4152L16.9483 30.348L23.5767 28.6181L25.8823 36.4968L24.0156 40.3839L21.5012 45.0999L21.4591 44.988V44.9871ZM21.9224 46.1869L24.5471 41.2666L31.3112 46.8096L31.083 46.9947L23.0831 49.2092L21.9224 46.1869ZM32.002 55.6323L23.8379 49.9134L32.002 47.6535L40.1652 49.9134L32.0028 55.6323H32.002ZM40.9157 49.2075L32.9168 46.9938L32.6885 46.8087L39.4526 41.264L42.0765 46.1861L40.9157 49.2066V49.2075ZM46.2352 36.4126L42.5474 44.9846L42.5036 45.0965L39.9892 40.3797L38.1174 36.4959L40.4238 28.6164L47.0531 30.3463L46.2352 36.4126ZM47.1028 21.3006L41.4843 24.2118L32.6228 11.528L32.6051 11.5095L32.6472 11.5053L38.9497 10.7581L47.1037 16.3424V21.3006H47.1028ZM54.9502 18.7681L52.5444 15.3605L55.9644 14.7303L54.9502 18.7681ZM48.801 10.0194L54.6705 11.7308L55.87 13.8553L51.9868 14.5713L48.801 10.0194ZM47.9865 16.4551L51.6001 15.5548L54.4667 19.6145L47.9865 22.3162V16.4551ZM53.5274 31.6572L47.9865 29.7111V23.6716L56.9398 25.1314L58.4788 29.2693L53.5274 31.6572Z" fill="#0B0B0B"/>
</svg>
