<svg width="64" height="65" viewBox="0 0 64 65" fill="none" xmlns="http://www.w3.org/2000/svg">
<path d="M22.5442 35.8235C23.9168 35.8235 25.1839 35.3569 26.2047 34.5494L17.8277 26.0078C17.0358 27.0307 16.5782 28.3227 16.5782 29.7403C16.5606 33.0959 19.2356 35.8235 22.5442 35.8235Z" fill="#0B0B0B"/>
<path d="M47.4702 29.7246C47.4702 28.325 47.0126 27.033 46.2207 25.9922L37.8438 34.5337C38.8469 35.3412 40.114 35.8077 41.5042 35.8077C44.7952 35.8257 47.4702 33.0982 47.4702 29.7246Z" fill="#0B0B0B"/>
<path d="M51.6924 20.4453L47.979 24.2316C49.2109 25.7389 49.9501 27.641 49.9501 29.7585C49.9501 34.5137 46.1664 38.3718 41.5027 38.3718C39.4437 38.3718 37.5606 37.6181 36.0824 36.362L32.0171 40.5072L27.9518 36.362C26.4735 37.6181 24.608 38.3718 22.5314 38.3718C17.8677 38.3718 14.084 34.5137 14.084 29.7585C14.084 27.659 14.8232 25.7389 16.0551 24.2316L14.1545 22.2936L12.3418 20.4453C10.23 23.9983 9.01562 28.1435 9.01562 32.5937C9.01562 45.5496 19.3108 56.0291 31.9995 56.0291C44.688 56.0291 54.9832 45.5316 54.9832 32.5937C55.0185 28.1256 53.8042 23.9804 51.6924 20.4453Z" fill="#0B0B0B"/>
<path d="M48.6461 16.4081C44.4753 11.9399 38.5621 9.14062 32.0154 9.14062C25.4687 9.14062 19.5732 11.9399 15.3847 16.4081C14.8216 17.0182 14.2761 17.6643 13.7656 18.3282L31.9979 36.9185L50.23 18.3102C49.7724 17.6642 49.2269 17.0003 48.6461 16.4081ZM32.0154 12.1912C37.4006 12.1912 42.3987 14.3086 46.1471 18.1667L32.0154 32.5761L17.8837 18.1667C21.6498 14.3086 26.6303 12.1912 32.0154 12.1912Z" fill="#0B0B0B"/>
</svg>
