<svg width="9" height="13" viewBox="0 0 9 13" fill="none" xmlns="http://www.w3.org/2000/svg">
<path fill-rule="evenodd" clip-rule="evenodd" d="M8.5 1.00065C7.42163 1.46864 6.50433 2.23762 5.8602 3.21357C5.21607 4.18953 4.87304 5.33018 4.87304 6.49609C4.87304 7.662 5.21607 8.80265 5.8602 9.77861C6.50433 10.7546 7.42163 11.5235 8.5 11.9915C7.67488 12.3512 6.77916 12.524 5.87804 12.4973C4.97692 12.4707 4.09315 12.2452 3.29118 11.8374C2.48922 11.4296 1.78924 10.8497 1.24232 10.14C0.695394 9.43029 0.315364 8.60868 0.129792 7.73506C-0.0557803 6.86143 -0.0422308 5.95781 0.169618 5.09006C0.381466 4.22232 0.786278 3.41233 1.35437 2.71913C1.92246 2.02594 2.63957 1.46701 3.45348 1.08311C4.26739 0.699205 5.15752 0.499993 6.05904 0.500001C6.89874 0.499569 7.72955 0.669975 8.5 1.00065Z" fill="#F5F5F5"/>
</svg>
