<svg width="111" height="47" viewBox="0 0 111 47" fill="none" xmlns="http://www.w3.org/2000/svg">
<path d="M-150.089 8.89621V17.2891H-150.786C-151.31 15.0986 -152.286 13.42 -153.714 12.2533C-155.143 11.0867 -156.762 10.5033 -158.571 10.5033C-160.083 10.5033 -161.47 10.9379 -162.732 11.8069C-163.994 12.676 -164.917 13.8129 -165.5 15.2176C-166.25 17.0153 -166.625 19.0153 -166.625 21.2176C-166.625 23.3843 -166.351 25.3605 -165.804 27.1462C-165.256 28.92 -164.399 30.2653 -163.232 31.1819C-162.065 32.0867 -160.554 32.5391 -158.696 32.5391C-157.173 32.5391 -155.78 32.2057 -154.518 31.5391C-153.244 30.8724 -151.905 29.7236 -150.5 28.0926V30.1819C-151.857 31.5986 -153.274 32.6283 -154.75 33.2712C-156.214 33.9022 -157.929 34.2176 -159.893 34.2176C-162.476 34.2176 -164.774 33.6998 -166.786 32.6641C-168.786 31.6283 -170.333 30.1403 -171.429 28.1998C-172.512 26.2593 -173.054 24.1938 -173.054 22.0033C-173.054 19.6938 -172.452 17.5033 -171.25 15.4319C-170.036 13.3605 -168.405 11.7533 -166.357 10.6105C-164.298 9.46764 -162.113 8.89621 -159.804 8.89621C-158.101 8.89621 -156.304 9.26525 -154.411 10.0033C-153.315 10.4319 -152.619 10.6462 -152.321 10.6462C-151.94 10.6462 -151.613 10.5093 -151.339 10.2355C-151.054 9.94978 -150.869 9.50335 -150.786 8.89621H-150.089ZM-141.524 16.4676C-140.072 16.4676 -138.721 16.8426 -137.471 17.5926C-136.221 18.3426 -135.274 19.4081 -134.631 20.7891C-133.977 22.17 -133.649 23.6819 -133.649 25.3248C-133.649 27.6938 -134.25 29.676 -135.453 31.2712C-136.905 33.1998 -138.911 34.1641 -141.471 34.1641C-143.983 34.1641 -145.917 33.2831 -147.274 31.5212C-148.631 29.7593 -149.31 27.7176 -149.31 25.3962C-149.31 23.0033 -148.62 20.92 -147.239 19.1462C-145.846 17.3605 -143.941 16.4676 -141.524 16.4676ZM-141.453 17.7355C-142.06 17.7355 -142.584 17.9676 -143.024 18.4319C-143.453 18.8843 -143.739 19.7891 -143.881 21.1462C-144.012 22.4914 -144.078 24.3664 -144.078 26.7712C-144.078 28.045 -143.995 29.2355 -143.828 30.3426C-143.697 31.1879 -143.417 31.8307 -142.989 32.2712C-142.56 32.7117 -142.072 32.9319 -141.524 32.9319C-140.989 32.9319 -140.542 32.7831 -140.185 32.4855C-139.721 32.0807 -139.411 31.5153 -139.256 30.7891C-139.018 29.6581 -138.899 27.3724 -138.899 23.9319C-138.899 21.9081 -139.012 20.5212 -139.239 19.7712C-139.465 19.0093 -139.798 18.4557 -140.239 18.1105C-140.548 17.8605 -140.953 17.7355 -141.453 17.7355ZM-126.745 16.9676V19.1641C-125.828 18.1641 -124.983 17.4676 -124.209 17.0748C-123.424 16.67 -122.566 16.4676 -121.638 16.4676C-120.566 16.4676 -119.668 16.7176 -118.941 17.2176C-118.215 17.7176 -117.656 18.4795 -117.263 19.5033C-116.31 18.4319 -115.4 17.6581 -114.531 17.1819C-113.65 16.7057 -112.733 16.4676 -111.781 16.4676C-110.626 16.4676 -109.709 16.7355 -109.031 17.2712C-108.34 17.795 -107.864 18.4676 -107.602 19.2891C-107.328 20.0986 -107.191 21.3962 -107.191 23.1819V30.0212C-107.191 31.3069 -107.078 32.1045 -106.852 32.4141C-106.614 32.7236 -106.126 32.926 -105.388 33.0212V33.6641H-114.013V33.0212C-113.334 32.9617 -112.834 32.6998 -112.513 32.2355C-112.299 31.9141 -112.191 31.176 -112.191 30.0212V22.8426C-112.191 21.3545 -112.251 20.4081 -112.37 20.0033C-112.489 19.5986 -112.68 19.301 -112.941 19.1105C-113.191 18.9081 -113.489 18.8069 -113.834 18.8069C-114.346 18.8069 -114.864 18.9974 -115.388 19.3783C-115.912 19.7474 -116.441 20.3069 -116.977 21.0569V30.0212C-116.977 31.2236 -116.876 31.9795 -116.674 32.2891C-116.4 32.7295 -115.876 32.9736 -115.102 33.0212V33.6641H-123.745V33.0212C-123.281 32.9974 -122.918 32.8843 -122.656 32.6819C-122.382 32.4676 -122.203 32.2176 -122.12 31.9319C-122.025 31.6343 -121.977 30.9974 -121.977 30.0212V22.8426C-121.977 21.3307 -122.037 20.3843 -122.156 20.0033C-122.275 19.6224 -122.477 19.3248 -122.763 19.1105C-123.037 18.8962 -123.334 18.7891 -123.656 18.7891C-124.132 18.7891 -124.566 18.9141 -124.959 19.1641C-125.519 19.5331 -126.114 20.1641 -126.745 21.0569V30.0212C-126.745 31.1998 -126.632 31.9795 -126.406 32.3605C-126.168 32.7295 -125.68 32.9498 -124.941 33.0212V33.6641H-133.549V33.0212C-132.846 32.9498 -132.346 32.7236 -132.049 32.3426C-131.846 32.0807 -131.745 31.3069 -131.745 30.0212V20.5926C-131.745 19.3307 -131.864 18.545 -132.102 18.2355C-132.328 17.926 -132.81 17.7236 -133.549 17.6283V16.9676H-126.745ZM-98.8407 16.9676V19.1641C-97.9241 18.1641 -97.0788 17.4676 -96.305 17.0748C-95.5193 16.67 -94.6621 16.4676 -93.7336 16.4676C-92.6621 16.4676 -91.7633 16.7176 -91.0371 17.2176C-90.311 17.7176 -89.7514 18.4795 -89.3586 19.5033C-88.4062 18.4319 -87.4955 17.6581 -86.6264 17.1819C-85.7455 16.7057 -84.8288 16.4676 -83.8764 16.4676C-82.7217 16.4676 -81.805 16.7355 -81.1264 17.2712C-80.436 17.795 -79.9598 18.4676 -79.6979 19.2891C-79.4241 20.0986 -79.2872 21.3962 -79.2872 23.1819V30.0212C-79.2872 31.3069 -79.1741 32.1045 -78.9479 32.4141C-78.7098 32.7236 -78.2217 32.926 -77.4836 33.0212V33.6641H-86.1086V33.0212C-85.43 32.9617 -84.93 32.6998 -84.6086 32.2355C-84.3943 31.9141 -84.2871 31.176 -84.2871 30.0212V22.8426C-84.2871 21.3545 -84.3467 20.4081 -84.4657 20.0033C-84.5848 19.5986 -84.7752 19.301 -85.0371 19.1105C-85.2871 18.9081 -85.5848 18.8069 -85.93 18.8069C-86.4419 18.8069 -86.9598 18.9974 -87.4836 19.3783C-88.0074 19.7474 -88.5371 20.3069 -89.0729 21.0569V30.0212C-89.0729 31.2236 -88.9717 31.9795 -88.7693 32.2891C-88.4955 32.7295 -87.9717 32.9736 -87.1979 33.0212V33.6641H-95.8407V33.0212C-95.3764 32.9974 -95.0133 32.8843 -94.7514 32.6819C-94.4776 32.4676 -94.2991 32.2176 -94.2157 31.9319C-94.1205 31.6343 -94.0729 30.9974 -94.0729 30.0212V22.8426C-94.0729 21.3307 -94.1324 20.3843 -94.2514 20.0033C-94.3705 19.6224 -94.5729 19.3248 -94.8586 19.1105C-95.1324 18.8962 -95.43 18.7891 -95.7514 18.7891C-96.2276 18.7891 -96.6621 18.9141 -97.055 19.1641C-97.6145 19.5331 -98.2098 20.1641 -98.8407 21.0569V30.0212C-98.8407 31.1998 -98.7276 31.9795 -98.5014 32.3605C-98.2633 32.7295 -97.7752 32.9498 -97.0371 33.0212V33.6641H-105.644V33.0212C-104.942 32.9498 -104.442 32.7236 -104.144 32.3426C-103.942 32.0807 -103.841 31.3069 -103.841 30.0212V20.5926C-103.841 19.3307 -103.96 18.545 -104.198 18.2355C-104.424 17.926 -104.906 17.7236 -105.644 17.6283V16.9676H-98.8407ZM-61.74 16.9676V30.0391C-61.74 31.3129 -61.621 32.1105 -61.3829 32.4319C-61.1448 32.7414 -60.6626 32.9379 -59.9364 33.0212V33.6641H-66.74V31.4319C-67.5376 32.3843 -68.3352 33.0807 -69.1329 33.5212C-69.9305 33.9498 -70.8233 34.1641 -71.8114 34.1641C-72.7519 34.1641 -73.5912 33.8783 -74.3293 33.3069C-75.0555 32.7236 -75.5436 32.045 -75.7936 31.2712C-76.0436 30.4974 -76.1686 29.1462 -76.1686 27.2176V20.5926C-76.1686 19.3307 -76.2876 18.545 -76.5257 18.2355C-76.7519 17.926 -77.2341 17.7236 -77.9722 17.6283V16.9676H-71.1686V28.3783C-71.1686 29.5688 -71.115 30.3367 -71.0079 30.6819C-70.8888 31.0272 -70.7102 31.2891 -70.4722 31.4676C-70.2222 31.6462 -69.9364 31.7355 -69.615 31.7355C-69.1864 31.7355 -68.7995 31.6224 -68.4543 31.3962C-67.9781 31.0867 -67.4067 30.4617 -66.74 29.5212V20.5926C-66.74 19.3307 -66.8591 18.545 -67.0972 18.2355C-67.3233 17.926 -67.8055 17.7236 -68.5436 17.6283V16.9676H-61.74ZM-53.2464 16.9676V19.1283C-52.3893 18.1998 -51.5679 17.5272 -50.7822 17.1105C-49.9964 16.6819 -49.1512 16.4676 -48.2464 16.4676C-47.1631 16.4676 -46.2643 16.7712 -45.55 17.3783C-44.8357 17.9736 -44.3595 18.7176 -44.1214 19.6105C-43.931 20.2891 -43.8357 21.5926 -43.8357 23.5212V30.0212C-43.8357 31.3069 -43.7226 32.1105 -43.4964 32.4319C-43.2583 32.7414 -42.7702 32.9379 -42.0322 33.0212V33.6641H-50.4786V33.0212C-49.8476 32.9379 -49.3952 32.676 -49.1214 32.2355C-48.931 31.9379 -48.8357 31.1998 -48.8357 30.0212V22.5926C-48.8357 21.2236 -48.8893 20.3605 -48.9964 20.0033C-49.1036 19.6462 -49.2881 19.3724 -49.55 19.1819C-49.8 18.9795 -50.0798 18.8783 -50.3893 18.8783C-51.4131 18.8783 -52.3655 19.6105 -53.2464 21.0748V30.0212C-53.2464 31.2712 -53.1333 32.0629 -52.9072 32.3962C-52.6691 32.7295 -52.2345 32.9379 -51.6036 33.0212V33.6641H-60.05V33.0212C-59.3476 32.9498 -58.8476 32.7236 -58.55 32.3426C-58.3476 32.0807 -58.2464 31.3069 -58.2464 30.0212V20.5926C-58.2464 19.3307 -58.3655 18.545 -58.6036 18.2355C-58.8298 17.926 -59.3119 17.7236 -60.05 17.6283V16.9676H-53.2464ZM-38.2529 8.87835C-37.4791 8.87835 -36.8243 9.15216 -36.2886 9.69978C-35.7529 10.2355 -35.485 10.8843 -35.485 11.6462C-35.485 12.4081 -35.7588 13.0569 -36.3064 13.5926C-36.8422 14.1283 -37.491 14.3962 -38.2529 14.3962C-39.0148 14.3962 -39.6636 14.1283 -40.1993 13.5926C-40.735 13.0569 -41.0029 12.4081 -41.0029 11.6462C-41.0029 10.8843 -40.735 10.2355 -40.1993 9.69978C-39.6636 9.15216 -39.0148 8.87835 -38.2529 8.87835ZM-35.7529 16.9676V30.1998C-35.7529 31.3783 -35.616 32.1343 -35.3422 32.4676C-35.0683 32.7891 -34.5326 32.9736 -33.735 33.0212V33.6641H-42.7529V33.0212C-42.0148 32.9974 -41.4672 32.7831 -41.11 32.3783C-40.8719 32.1045 -40.7529 31.3783 -40.7529 30.1998V20.4498C-40.7529 19.2712 -40.8898 18.5212 -41.1636 18.1998C-41.4374 17.8664 -41.9672 17.676 -42.7529 17.6283V16.9676H-35.7529ZM-28.0272 10.8605V16.9676H-24.0629V18.7355H-28.0272V29.0391C-28.0272 30.0033 -27.9855 30.6283 -27.9022 30.9141C-27.8069 31.1879 -27.6462 31.4141 -27.42 31.5926C-27.1938 31.7593 -26.9855 31.8426 -26.795 31.8426C-26.0212 31.8426 -25.2891 31.2533 -24.5986 30.0748L-24.0629 30.4676C-25.0272 32.7533 -26.5926 33.8962 -28.7593 33.8962C-29.8188 33.8962 -30.7176 33.6045 -31.4557 33.0212C-32.1819 32.426 -32.6462 31.7653 -32.8486 31.0391C-32.9676 30.6343 -33.0271 29.5391 -33.0271 27.7533V18.7355H-35.2057V18.1105C-33.7057 17.051 -32.4319 15.9379 -31.3843 14.7712C-30.3248 13.6045 -29.4022 12.301 -28.6164 10.8605H-28.0272ZM-17.3729 34.3426L-22.7657 21.9676C-23.5753 20.0986 -24.1764 18.9498 -24.5693 18.5212C-24.9503 18.0926 -25.4145 17.795 -25.9622 17.6283V16.9676H-17.0872V17.6283C-17.6705 17.6522 -18.0812 17.7653 -18.3193 17.9676C-18.5574 18.17 -18.6764 18.4141 -18.6764 18.6998C-18.6764 19.1522 -18.3788 20.045 -17.7836 21.3783L-14.9264 27.9141L-12.98 22.8605C-12.2776 21.0629 -11.9264 19.8129 -11.9264 19.1105C-11.9264 18.67 -12.0753 18.3188 -12.3729 18.0569C-12.6586 17.795 -13.1705 17.6522 -13.9086 17.6283V16.9676H-8.3193V17.6283C-8.86692 17.6879 -9.31335 17.9022 -9.65859 18.2712C-10.0038 18.6283 -10.5812 19.8605 -11.3907 21.9676L-16.1586 34.3426C-17.361 37.4379 -18.2538 39.3426 -18.8372 40.0569C-19.6586 41.0569 -20.6884 41.5569 -21.9264 41.5569C-22.9145 41.5569 -23.7181 41.2712 -24.3372 40.6998C-24.9443 40.1403 -25.2479 39.4617 -25.2479 38.6641C-25.2479 37.9736 -25.0395 37.4022 -24.6229 36.9498C-24.1943 36.4974 -23.6705 36.2712 -23.0514 36.2712C-22.4562 36.2712 -21.98 36.4617 -21.6229 36.8426C-21.2538 37.2236 -21.0634 37.8129 -21.0514 38.6105C-21.0395 39.0629 -20.986 39.3545 -20.8907 39.4855C-20.7955 39.6164 -20.6586 39.6819 -20.48 39.6819C-20.1943 39.6819 -19.8907 39.5093 -19.5693 39.1641C-19.0931 38.6641 -18.5336 37.5212 -17.8907 35.7355L-17.3729 34.3426ZM-3.47501 33.6641V33.0033H-2.67144C-1.96906 33.0033 -1.43334 32.8962 -1.0643 32.6819C-0.683344 32.4557 -0.403582 32.1522 -0.225011 31.7712C-0.117868 31.5212 -0.0642964 30.7712 -0.0642964 29.5212V13.5926C-0.0642964 12.3545 -0.129773 11.5807 -0.260725 11.2712C-0.391677 10.9617 -0.659534 10.6938 -1.0643 10.4676C-1.45715 10.2295 -1.99287 10.1105 -2.67144 10.1105H-3.47501V9.44978H7.36427C10.2571 9.44978 12.5845 9.84264 14.3464 10.6283C16.5012 11.5926 18.1321 13.051 19.2393 15.0033C20.3583 16.9557 20.9178 19.1641 20.9178 21.6283C20.9178 23.3307 20.644 24.9022 20.0964 26.3426C19.5488 27.7712 18.8405 28.9557 17.9714 29.8962C17.1024 30.8248 16.0964 31.5748 14.9536 32.1462C13.8226 32.7057 12.4357 33.1403 10.7928 33.4498C10.0667 33.5926 8.9238 33.6641 7.36427 33.6641H-3.47501ZM5.75713 10.8248V29.7176C5.75713 30.7176 5.80475 31.3307 5.89999 31.5569C5.99523 31.7831 6.15594 31.9557 6.38213 32.0748C6.70356 32.2533 7.16785 32.3426 7.77499 32.3426C9.76308 32.3426 11.2809 31.6641 12.3286 30.3069C13.7571 28.4736 14.4714 25.6283 14.4714 21.7712C14.4714 18.6641 13.9833 16.1819 13.0071 14.3248C12.2333 12.8724 11.2393 11.8843 10.025 11.3605C9.16785 10.9914 7.74523 10.8129 5.75713 10.8248ZM28.0721 16.9676V20.7533C29.1793 19.0272 30.1495 17.8843 30.9828 17.3248C31.8162 16.7533 32.6197 16.4676 33.3935 16.4676C34.0602 16.4676 34.59 16.676 34.9828 17.0926C35.3876 17.4974 35.59 18.0748 35.59 18.8248C35.59 19.6224 35.3935 20.2414 35.0007 20.6819C34.6197 21.1224 34.1555 21.3426 33.6078 21.3426C32.9769 21.3426 32.4293 21.1403 31.965 20.7355C31.5007 20.3307 31.2269 20.1045 31.1435 20.0569C31.0245 19.9855 30.8876 19.9498 30.7328 19.9498C30.3876 19.9498 30.0602 20.0807 29.7507 20.3426C29.2626 20.7474 28.8935 21.3248 28.6435 22.0748C28.2626 23.2295 28.0721 24.5033 28.0721 25.8962V29.7355L28.09 30.7355C28.09 31.4141 28.1316 31.8486 28.215 32.0391C28.3578 32.3605 28.5662 32.5986 28.84 32.7533C29.1257 32.8962 29.6019 32.9855 30.2685 33.0212V33.6641H21.2507V33.0212C21.9769 32.9617 22.465 32.7653 22.715 32.4319C22.9769 32.0867 23.1078 31.1879 23.1078 29.7355V20.5033C23.1078 19.551 23.0602 18.9438 22.965 18.6819C22.8459 18.3486 22.6733 18.1045 22.4471 17.9498C22.2209 17.795 21.8221 17.6879 21.2507 17.6283V16.9676H28.0721ZM38.8514 8.87835C39.6252 8.87835 40.28 9.15216 40.8157 9.69978C41.3514 10.2355 41.6193 10.8843 41.6193 11.6462C41.6193 12.4081 41.3455 13.0569 40.7978 13.5926C40.2621 14.1283 39.6133 14.3962 38.8514 14.3962C38.0895 14.3962 37.4407 14.1283 36.905 13.5926C36.3693 13.0569 36.1014 12.4081 36.1014 11.6462C36.1014 10.8843 36.3693 10.2355 36.905 9.69978C37.4407 9.15216 38.0895 8.87835 38.8514 8.87835ZM41.3514 16.9676V30.1998C41.3514 31.3783 41.4883 32.1343 41.7621 32.4676C42.0359 32.7891 42.5716 32.9736 43.3693 33.0212V33.6641H34.3514V33.0212C35.0895 32.9974 35.6371 32.7831 35.9943 32.3783C36.2324 32.1045 36.3514 31.3783 36.3514 30.1998V20.4498C36.3514 19.2712 36.2145 18.5212 35.9407 18.1998C35.6669 17.8664 35.1371 17.676 34.3514 17.6283V16.9676H41.3514ZM49.9878 34.1641L44.3628 21.2176C43.6843 19.6581 43.1545 18.67 42.7736 18.2533C42.4997 17.9438 42.095 17.7355 41.5593 17.6283V16.9676H50.4343V17.6283C49.8747 17.6283 49.4938 17.7295 49.2914 17.9319C49.0057 18.1938 48.8628 18.5033 48.8628 18.8605C48.8628 19.301 49.1247 20.1283 49.6486 21.3426L52.3986 27.6105L54.595 22.1998C55.2259 20.6522 55.5414 19.5569 55.5414 18.9141C55.5414 18.545 55.4045 18.2474 55.1307 18.0212C54.8688 17.7831 54.3986 17.6522 53.72 17.6283V16.9676H59.1843V17.6283C58.6605 17.6998 58.2319 17.8962 57.8986 18.2176C57.5652 18.5391 57.0652 19.4855 56.3986 21.0569L50.8271 34.1641H49.9878ZM72.3207 24.7176H63.16C63.2671 26.9319 63.8564 28.6819 64.9278 29.9676C65.7493 30.9557 66.7374 31.4498 67.8921 31.4498C68.6064 31.4498 69.2552 31.2533 69.8386 30.8605C70.4219 30.4557 71.0469 29.7355 71.7136 28.6998L72.3207 29.0926C71.4159 30.9379 70.4159 32.2474 69.3207 33.0212C68.2255 33.7831 66.9576 34.1641 65.5171 34.1641C63.0409 34.1641 61.1659 33.2117 59.8921 31.3069C58.8683 29.7712 58.3564 27.8664 58.3564 25.5926C58.3564 22.8069 59.1064 20.5926 60.6064 18.9498C62.1183 17.295 63.8862 16.4676 65.91 16.4676C67.6005 16.4676 69.0647 17.1641 70.3028 18.5569C71.5528 19.9379 72.2255 21.9914 72.3207 24.7176ZM67.9278 23.5212C67.9278 21.6045 67.8207 20.2891 67.6064 19.5748C67.404 18.8605 67.0826 18.3188 66.6421 17.9498C66.3921 17.7355 66.0588 17.6283 65.6421 17.6283C65.0231 17.6283 64.5171 17.9319 64.1243 18.5391C63.4219 19.5986 63.0707 21.051 63.0707 22.8962V23.5212H67.9278ZM78.6893 16.9676V19.1283C79.5464 18.1998 80.3678 17.5272 81.1536 17.1105C81.9393 16.6819 82.7845 16.4676 83.6893 16.4676C84.7726 16.4676 85.6714 16.7712 86.3857 17.3783C87.1 17.9736 87.5762 18.7176 87.8143 19.6105C88.0047 20.2891 88.1 21.5926 88.1 23.5212V30.0212C88.1 31.3069 88.2131 32.1105 88.4393 32.4319C88.6774 32.7414 89.1655 32.9379 89.9036 33.0212V33.6641H81.4571V33.0212C82.0881 32.9379 82.5405 32.676 82.8143 32.2355C83.0047 31.9379 83.1 31.1998 83.1 30.0212V22.5926C83.1 21.2236 83.0464 20.3605 82.9393 20.0033C82.8321 19.6462 82.6476 19.3724 82.3857 19.1819C82.1357 18.9795 81.8559 18.8783 81.5464 18.8783C80.5226 18.8783 79.5702 19.6105 78.6893 21.0748V30.0212C78.6893 31.2712 78.8024 32.0629 79.0286 32.3962C79.2666 32.7295 79.7012 32.9379 80.3321 33.0212V33.6641H71.8857V33.0212C72.5881 32.9498 73.0881 32.7236 73.3857 32.3426C73.5881 32.0807 73.6893 31.3069 73.6893 30.0212V20.5926C73.6893 19.3307 73.5702 18.545 73.3321 18.2355C73.1059 17.926 72.6238 17.7236 71.8857 17.6283V16.9676H78.6893Z" fill="#0B0B0B"/>
<path d="M97.4266 7.94052V9.83933H94.2183V18.6641H91.963V9.83933H88.7401V7.94052H97.4266ZM104.808 7.94052H108.031V18.6641H105.943V11.4108C105.943 11.2022 105.946 10.9112 105.95 10.5377C105.955 10.1594 105.958 9.86843 105.958 9.66472L103.928 18.6641H101.753L99.7375 9.66472C99.7375 9.86843 99.7399 10.1594 99.7447 10.5377C99.7496 10.9112 99.752 11.2022 99.752 11.4108V18.6641H97.664V7.94052H100.923L102.873 16.3724L104.808 7.94052Z" fill="#0B0B0B"/>
</svg>
