<svg width="286" height="47" viewBox="0 0 286 47" fill="none" xmlns="http://www.w3.org/2000/svg">
<path d="M24.9107 8.89621V17.2891H24.2143C23.6905 15.0986 22.7143 13.42 21.2857 12.2533C19.8571 11.0867 18.2381 10.5033 16.4286 10.5033C14.9167 10.5033 13.5298 10.9379 12.2679 11.8069C11.006 12.676 10.0833 13.8129 9.5 15.2176C8.75 17.0153 8.375 19.0153 8.375 21.2176C8.375 23.3843 8.64881 25.3605 9.19643 27.1462C9.74405 28.92 10.6012 30.2653 11.7679 31.1819C12.9345 32.0867 14.4464 32.5391 16.3036 32.5391C17.8274 32.5391 19.2202 32.2057 20.4821 31.5391C21.756 30.8724 23.0952 29.7236 24.5 28.0926V30.1819C23.1429 31.5986 21.7262 32.6283 20.25 33.2712C18.7857 33.9022 17.0714 34.2176 15.1071 34.2176C12.5238 34.2176 10.2262 33.6998 8.21429 32.6641C6.21429 31.6283 4.66667 30.1403 3.57143 28.1998C2.4881 26.2593 1.94643 24.1938 1.94643 22.0033C1.94643 19.6938 2.54762 17.5033 3.75 15.4319C4.96429 13.3605 6.59524 11.7533 8.64286 10.6105C10.7024 9.46764 12.8869 8.89621 15.1964 8.89621C16.8988 8.89621 18.6964 9.26525 20.5893 10.0033C21.6845 10.4319 22.381 10.6462 22.6786 10.6462C23.0595 10.6462 23.3869 10.5093 23.6607 10.2355C23.9464 9.94978 24.131 9.50335 24.2143 8.89621H24.9107ZM33.4757 16.4676C34.9281 16.4676 36.2793 16.8426 37.5293 17.5926C38.7793 18.3426 39.7257 19.4081 40.3686 20.7891C41.0233 22.17 41.3507 23.6819 41.3507 25.3248C41.3507 27.6938 40.7495 29.676 39.5471 31.2712C38.0948 33.1998 36.0888 34.1641 33.5293 34.1641C31.0174 34.1641 29.0829 33.2831 27.7257 31.5212C26.3686 29.7593 25.69 27.7176 25.69 25.3962C25.69 23.0033 26.3805 20.92 27.7614 19.1462C29.1543 17.3605 31.059 16.4676 33.4757 16.4676ZM33.5471 17.7355C32.94 17.7355 32.4162 17.9676 31.9757 18.4319C31.5471 18.8843 31.2614 19.7891 31.1186 21.1462C30.9876 22.4914 30.9221 24.3664 30.9221 26.7712C30.9221 28.045 31.0055 29.2355 31.1721 30.3426C31.3031 31.1879 31.5829 31.8307 32.0114 32.2712C32.44 32.7117 32.9281 32.9319 33.4757 32.9319C34.0114 32.9319 34.4579 32.7831 34.815 32.4855C35.2793 32.0807 35.5888 31.5153 35.7436 30.7891C35.9817 29.6581 36.1007 27.3724 36.1007 23.9319C36.1007 21.9081 35.9876 20.5212 35.7614 19.7712C35.5352 19.0093 35.2019 18.4557 34.7614 18.1105C34.4519 17.8605 34.0471 17.7355 33.5471 17.7355ZM48.255 16.9676V19.1641C49.1717 18.1641 50.0169 17.4676 50.7907 17.0748C51.5764 16.67 52.4336 16.4676 53.3621 16.4676C54.4336 16.4676 55.3324 16.7176 56.0586 17.2176C56.7848 17.7176 57.3443 18.4795 57.7371 19.5033C58.6895 18.4319 59.6002 17.6581 60.4693 17.1819C61.3502 16.7057 62.2669 16.4676 63.2193 16.4676C64.374 16.4676 65.2907 16.7355 65.9693 17.2712C66.6598 17.795 67.1359 18.4676 67.3979 19.2891C67.6717 20.0986 67.8086 21.3962 67.8086 23.1819V30.0212C67.8086 31.3069 67.9217 32.1045 68.1479 32.4141C68.3859 32.7236 68.874 32.926 69.6121 33.0212V33.6641H60.9871V33.0212C61.6657 32.9617 62.1657 32.6998 62.4871 32.2355C62.7014 31.9141 62.8086 31.176 62.8086 30.0212V22.8426C62.8086 21.3545 62.749 20.4081 62.63 20.0033C62.5109 19.5986 62.3205 19.301 62.0586 19.1105C61.8086 18.9081 61.5109 18.8069 61.1657 18.8069C60.6538 18.8069 60.1359 18.9974 59.6121 19.3783C59.0883 19.7474 58.5586 20.3069 58.0229 21.0569V30.0212C58.0229 31.2236 58.124 31.9795 58.3264 32.2891C58.6002 32.7295 59.124 32.9736 59.8979 33.0212V33.6641H51.255V33.0212C51.7193 32.9974 52.0824 32.8843 52.3443 32.6819C52.6181 32.4676 52.7967 32.2176 52.88 31.9319C52.9752 31.6343 53.0229 30.9974 53.0229 30.0212V22.8426C53.0229 21.3307 52.9633 20.3843 52.8443 20.0033C52.7252 19.6224 52.5229 19.3248 52.2371 19.1105C51.9633 18.8962 51.6657 18.7891 51.3443 18.7891C50.8681 18.7891 50.4336 18.9141 50.0407 19.1641C49.4812 19.5331 48.886 20.1641 48.255 21.0569V30.0212C48.255 31.1998 48.3681 31.9795 48.5943 32.3605C48.8324 32.7295 49.3205 32.9498 50.0586 33.0212V33.6641H41.4514V33.0212C42.1538 32.9498 42.6538 32.7236 42.9514 32.3426C43.1538 32.0807 43.255 31.3069 43.255 30.0212V20.5926C43.255 19.3307 43.136 18.545 42.8979 18.2355C42.6717 17.926 42.1895 17.7236 41.4514 17.6283V16.9676H48.255ZM76.1593 16.9676V19.1641C77.0759 18.1641 77.9212 17.4676 78.695 17.0748C79.4807 16.67 80.3379 16.4676 81.2664 16.4676C82.3379 16.4676 83.2367 16.7176 83.9629 17.2176C84.689 17.7176 85.2486 18.4795 85.6414 19.5033C86.5938 18.4319 87.5045 17.6581 88.3736 17.1819C89.2545 16.7057 90.1712 16.4676 91.1236 16.4676C92.2783 16.4676 93.195 16.7355 93.8736 17.2712C94.564 17.795 95.0402 18.4676 95.3021 19.2891C95.5759 20.0986 95.7128 21.3962 95.7128 23.1819V30.0212C95.7128 31.3069 95.8259 32.1045 96.0521 32.4141C96.2902 32.7236 96.7783 32.926 97.5164 33.0212V33.6641H88.8914V33.0212C89.57 32.9617 90.07 32.6998 90.3914 32.2355C90.6057 31.9141 90.7129 31.176 90.7129 30.0212V22.8426C90.7129 21.3545 90.6533 20.4081 90.5343 20.0033C90.4152 19.5986 90.2248 19.301 89.9629 19.1105C89.7129 18.9081 89.4152 18.8069 89.07 18.8069C88.5581 18.8069 88.0402 18.9974 87.5164 19.3783C86.9926 19.7474 86.4629 20.3069 85.9271 21.0569V30.0212C85.9271 31.2236 86.0283 31.9795 86.2307 32.2891C86.5045 32.7295 87.0283 32.9736 87.8021 33.0212V33.6641H79.1593V33.0212C79.6236 32.9974 79.9867 32.8843 80.2486 32.6819C80.5224 32.4676 80.7009 32.2176 80.7843 31.9319C80.8795 31.6343 80.9271 30.9974 80.9271 30.0212V22.8426C80.9271 21.3307 80.8676 20.3843 80.7486 20.0033C80.6295 19.6224 80.4271 19.3248 80.1414 19.1105C79.8676 18.8962 79.57 18.7891 79.2486 18.7891C78.7724 18.7891 78.3379 18.9141 77.945 19.1641C77.3855 19.5331 76.7902 20.1641 76.1593 21.0569V30.0212C76.1593 31.1998 76.2724 31.9795 76.4986 32.3605C76.7367 32.7295 77.2248 32.9498 77.9629 33.0212V33.6641H69.3557V33.0212C70.0581 32.9498 70.5581 32.7236 70.8557 32.3426C71.0581 32.0807 71.1593 31.3069 71.1593 30.0212V20.5926C71.1593 19.3307 71.0402 18.545 70.8021 18.2355C70.5759 17.926 70.0938 17.7236 69.3557 17.6283V16.9676H76.1593ZM113.26 16.9676V30.0391C113.26 31.3129 113.379 32.1105 113.617 32.4319C113.855 32.7414 114.337 32.9379 115.064 33.0212V33.6641H108.26V31.4319C107.462 32.3843 106.665 33.0807 105.867 33.5212C105.07 33.9498 104.177 34.1641 103.189 34.1641C102.248 34.1641 101.409 33.8783 100.671 33.3069C99.9445 32.7236 99.4564 32.045 99.2064 31.2712C98.9564 30.4974 98.8314 29.1462 98.8314 27.2176V20.5926C98.8314 19.3307 98.7124 18.545 98.4743 18.2355C98.2481 17.926 97.7659 17.7236 97.0278 17.6283V16.9676H103.831V28.3783C103.831 29.5688 103.885 30.3367 103.992 30.6819C104.111 31.0272 104.29 31.2891 104.528 31.4676C104.778 31.6462 105.064 31.7355 105.385 31.7355C105.814 31.7355 106.2 31.6224 106.546 31.3962C107.022 31.0867 107.593 30.4617 108.26 29.5212V20.5926C108.26 19.3307 108.141 18.545 107.903 18.2355C107.677 17.926 107.195 17.7236 106.456 17.6283V16.9676H113.26ZM121.754 16.9676V19.1283C122.611 18.1998 123.432 17.5272 124.218 17.1105C125.004 16.6819 125.849 16.4676 126.754 16.4676C127.837 16.4676 128.736 16.7712 129.45 17.3783C130.164 17.9736 130.64 18.7176 130.879 19.6105C131.069 20.2891 131.164 21.5926 131.164 23.5212V30.0212C131.164 31.3069 131.277 32.1105 131.504 32.4319C131.742 32.7414 132.23 32.9379 132.968 33.0212V33.6641H124.521V33.0212C125.152 32.9379 125.605 32.676 125.879 32.2355C126.069 31.9379 126.164 31.1998 126.164 30.0212V22.5926C126.164 21.2236 126.111 20.3605 126.004 20.0033C125.896 19.6462 125.712 19.3724 125.45 19.1819C125.2 18.9795 124.92 18.8783 124.611 18.8783C123.587 18.8783 122.635 19.6105 121.754 21.0748V30.0212C121.754 31.2712 121.867 32.0629 122.093 32.3962C122.331 32.7295 122.765 32.9379 123.396 33.0212V33.6641H114.95V33.0212C115.652 32.9498 116.152 32.7236 116.45 32.3426C116.652 32.0807 116.754 31.3069 116.754 30.0212V20.5926C116.754 19.3307 116.635 18.545 116.396 18.2355C116.17 17.926 115.688 17.7236 114.95 17.6283V16.9676H121.754ZM136.747 8.87835C137.521 8.87835 138.176 9.15216 138.711 9.69978C139.247 10.2355 139.515 10.8843 139.515 11.6462C139.515 12.4081 139.241 13.0569 138.694 13.5926C138.158 14.1283 137.509 14.3962 136.747 14.3962C135.985 14.3962 135.336 14.1283 134.801 13.5926C134.265 13.0569 133.997 12.4081 133.997 11.6462C133.997 10.8843 134.265 10.2355 134.801 9.69978C135.336 9.15216 135.985 8.87835 136.747 8.87835ZM139.247 16.9676V30.1998C139.247 31.3783 139.384 32.1343 139.658 32.4676C139.932 32.7891 140.467 32.9736 141.265 33.0212V33.6641H132.247V33.0212C132.985 32.9974 133.533 32.7831 133.89 32.3783C134.128 32.1045 134.247 31.3783 134.247 30.1998V20.4498C134.247 19.2712 134.11 18.5212 133.836 18.1998C133.563 17.8664 133.033 17.676 132.247 17.6283V16.9676H139.247ZM146.973 10.8605V16.9676H150.937V18.7355H146.973V29.0391C146.973 30.0033 147.015 30.6283 147.098 30.9141C147.193 31.1879 147.354 31.4141 147.58 31.5926C147.806 31.7593 148.015 31.8426 148.205 31.8426C148.979 31.8426 149.711 31.2533 150.401 30.0748L150.937 30.4676C149.973 32.7533 148.407 33.8962 146.241 33.8962C145.181 33.8962 144.282 33.6045 143.544 33.0212C142.818 32.426 142.354 31.7653 142.151 31.0391C142.032 30.6343 141.973 29.5391 141.973 27.7533V18.7355H139.794V18.1105C141.294 17.051 142.568 15.9379 143.616 14.7712C144.675 13.6045 145.598 12.301 146.384 10.8605H146.973ZM157.627 34.3426L152.234 21.9676C151.425 20.0986 150.824 18.9498 150.431 18.5212C150.05 18.0926 149.585 17.795 149.038 17.6283V16.9676H157.913V17.6283C157.33 17.6522 156.919 17.7653 156.681 17.9676C156.443 18.17 156.324 18.4141 156.324 18.6998C156.324 19.1522 156.621 20.045 157.216 21.3783L160.074 27.9141L162.02 22.8605C162.722 21.0629 163.074 19.8129 163.074 19.1105C163.074 18.67 162.925 18.3188 162.627 18.0569C162.341 17.795 161.83 17.6522 161.091 17.6283V16.9676H166.681V17.6283C166.133 17.6879 165.687 17.9022 165.341 18.2712C164.996 18.6283 164.419 19.8605 163.609 21.9676L158.841 34.3426C157.639 37.4379 156.746 39.3426 156.163 40.0569C155.341 41.0569 154.312 41.5569 153.074 41.5569C152.085 41.5569 151.282 41.2712 150.663 40.6998C150.056 40.1403 149.752 39.4617 149.752 38.6641C149.752 37.9736 149.96 37.4022 150.377 36.9498C150.806 36.4974 151.33 36.2712 151.949 36.2712C152.544 36.2712 153.02 36.4617 153.377 36.8426C153.746 37.2236 153.937 37.8129 153.949 38.6105C153.96 39.0629 154.014 39.3545 154.109 39.4855C154.205 39.6164 154.341 39.6819 154.52 39.6819C154.806 39.6819 155.109 39.5093 155.431 39.1641C155.907 38.6641 156.466 37.5212 157.109 35.7355L157.627 34.3426ZM171.525 33.6641V33.0033H172.329C173.031 33.0033 173.567 32.8962 173.936 32.6819C174.317 32.4557 174.596 32.1522 174.775 31.7712C174.882 31.5212 174.936 30.7712 174.936 29.5212V13.5926C174.936 12.3545 174.87 11.5807 174.739 11.2712C174.608 10.9617 174.34 10.6938 173.936 10.4676C173.543 10.2295 173.007 10.1105 172.329 10.1105H171.525V9.44978H182.364C185.257 9.44978 187.585 9.84264 189.346 10.6283C191.501 11.5926 193.132 13.051 194.239 15.0033C195.358 16.9557 195.918 19.1641 195.918 21.6283C195.918 23.3307 195.644 24.9022 195.096 26.3426C194.549 27.7712 193.84 28.9557 192.971 29.8962C192.102 30.8248 191.096 31.5748 189.954 32.1462C188.823 32.7057 187.436 33.1403 185.793 33.4498C185.067 33.5926 183.924 33.6641 182.364 33.6641H171.525ZM180.757 10.8248V29.7176C180.757 30.7176 180.805 31.3307 180.9 31.5569C180.995 31.7831 181.156 31.9557 181.382 32.0748C181.704 32.2533 182.168 32.3426 182.775 32.3426C184.763 32.3426 186.281 31.6641 187.329 30.3069C188.757 28.4736 189.471 25.6283 189.471 21.7712C189.471 18.6641 188.983 16.1819 188.007 14.3248C187.233 12.8724 186.239 11.8843 185.025 11.3605C184.168 10.9914 182.745 10.8129 180.757 10.8248ZM203.072 16.9676V20.7533C204.179 19.0272 205.15 17.8843 205.983 17.3248C206.816 16.7533 207.62 16.4676 208.394 16.4676C209.06 16.4676 209.59 16.676 209.983 17.0926C210.388 17.4974 210.59 18.0748 210.59 18.8248C210.59 19.6224 210.394 20.2414 210.001 20.6819C209.62 21.1224 209.155 21.3426 208.608 21.3426C207.977 21.3426 207.429 21.1403 206.965 20.7355C206.501 20.3307 206.227 20.1045 206.144 20.0569C206.025 19.9855 205.888 19.9498 205.733 19.9498C205.388 19.9498 205.06 20.0807 204.751 20.3426C204.263 20.7474 203.894 21.3248 203.644 22.0748C203.263 23.2295 203.072 24.5033 203.072 25.8962V29.7355L203.09 30.7355C203.09 31.4141 203.132 31.8486 203.215 32.0391C203.358 32.3605 203.566 32.5986 203.84 32.7533C204.126 32.8962 204.602 32.9855 205.269 33.0212V33.6641H196.251V33.0212C196.977 32.9617 197.465 32.7653 197.715 32.4319C197.977 32.0867 198.108 31.1879 198.108 29.7355V20.5033C198.108 19.551 198.06 18.9438 197.965 18.6819C197.846 18.3486 197.673 18.1045 197.447 17.9498C197.221 17.795 196.822 17.6879 196.251 17.6283V16.9676H203.072ZM213.851 8.87835C214.625 8.87835 215.28 9.15216 215.816 9.69978C216.351 10.2355 216.619 10.8843 216.619 11.6462C216.619 12.4081 216.345 13.0569 215.798 13.5926C215.262 14.1283 214.613 14.3962 213.851 14.3962C213.09 14.3962 212.441 14.1283 211.905 13.5926C211.369 13.0569 211.101 12.4081 211.101 11.6462C211.101 10.8843 211.369 10.2355 211.905 9.69978C212.441 9.15216 213.09 8.87835 213.851 8.87835ZM216.351 16.9676V30.1998C216.351 31.3783 216.488 32.1343 216.762 32.4676C217.036 32.7891 217.572 32.9736 218.369 33.0212V33.6641H209.351V33.0212C210.09 32.9974 210.637 32.7831 210.994 32.3783C211.232 32.1045 211.351 31.3783 211.351 30.1998V20.4498C211.351 19.2712 211.215 18.5212 210.941 18.1998C210.667 17.8664 210.137 17.676 209.351 17.6283V16.9676H216.351ZM224.988 34.1641L219.363 21.2176C218.684 19.6581 218.155 18.67 217.774 18.2533C217.5 17.9438 217.095 17.7355 216.559 17.6283V16.9676H225.434V17.6283C224.875 17.6283 224.494 17.7295 224.291 17.9319C224.006 18.1938 223.863 18.5033 223.863 18.8605C223.863 19.301 224.125 20.1283 224.649 21.3426L227.399 27.6105L229.595 22.1998C230.226 20.6522 230.541 19.5569 230.541 18.9141C230.541 18.545 230.405 18.2474 230.131 18.0212C229.869 17.7831 229.399 17.6522 228.72 17.6283V16.9676H234.184V17.6283C233.66 17.6998 233.232 17.8962 232.899 18.2176C232.565 18.5391 232.065 19.4855 231.399 21.0569L225.827 34.1641H224.988ZM247.321 24.7176H238.16C238.267 26.9319 238.856 28.6819 239.928 29.9676C240.749 30.9557 241.737 31.4498 242.892 31.4498C243.606 31.4498 244.255 31.2533 244.839 30.8605C245.422 30.4557 246.047 29.7355 246.714 28.6998L247.321 29.0926C246.416 30.9379 245.416 32.2474 244.321 33.0212C243.225 33.7831 241.958 34.1641 240.517 34.1641C238.041 34.1641 236.166 33.2117 234.892 31.3069C233.868 29.7712 233.356 27.8664 233.356 25.5926C233.356 22.8069 234.106 20.5926 235.606 18.9498C237.118 17.295 238.886 16.4676 240.91 16.4676C242.6 16.4676 244.065 17.1641 245.303 18.5569C246.553 19.9379 247.225 21.9914 247.321 24.7176ZM242.928 23.5212C242.928 21.6045 242.821 20.2891 242.606 19.5748C242.404 18.8605 242.083 18.3188 241.642 17.9498C241.392 17.7355 241.059 17.6283 240.642 17.6283C240.023 17.6283 239.517 17.9319 239.124 18.5391C238.422 19.5986 238.071 21.051 238.071 22.8962V23.5212H242.928ZM253.689 16.9676V19.1283C254.546 18.1998 255.368 17.5272 256.154 17.1105C256.939 16.6819 257.785 16.4676 258.689 16.4676C259.773 16.4676 260.671 16.7712 261.386 17.3783C262.1 17.9736 262.576 18.7176 262.814 19.6105C263.005 20.2891 263.1 21.5926 263.1 23.5212V30.0212C263.1 31.3069 263.213 32.1105 263.439 32.4319C263.677 32.7414 264.165 32.9379 264.904 33.0212V33.6641H256.457V33.0212C257.088 32.9379 257.54 32.676 257.814 32.2355C258.005 31.9379 258.1 31.1998 258.1 30.0212V22.5926C258.1 21.2236 258.046 20.3605 257.939 20.0033C257.832 19.6462 257.648 19.3724 257.386 19.1819C257.136 18.9795 256.856 18.8783 256.546 18.8783C255.523 18.8783 254.57 19.6105 253.689 21.0748V30.0212C253.689 31.2712 253.802 32.0629 254.029 32.3962C254.267 32.7295 254.701 32.9379 255.332 33.0212V33.6641H246.886V33.0212C247.588 32.9498 248.088 32.7236 248.386 32.3426C248.588 32.0807 248.689 31.3069 248.689 30.0212V20.5926C248.689 19.3307 248.57 18.545 248.332 18.2355C248.106 17.926 247.624 17.7236 246.886 17.6283V16.9676H253.689Z" fill="#0B0B0B"/>
<path d="M272.427 7.94052V9.83933H269.218V18.6641H266.963V9.83933H263.74V7.94052H272.427ZM279.808 7.94052H283.031V18.6641H280.943V11.4108C280.943 11.2022 280.946 10.9112 280.95 10.5377C280.955 10.1594 280.958 9.86843 280.958 9.66472L278.928 18.6641H276.753L274.737 9.66472C274.737 9.86843 274.74 10.1594 274.745 10.5377C274.75 10.9112 274.752 11.2022 274.752 11.4108V18.6641H272.664V7.94052H275.923L277.873 16.3724L279.808 7.94052Z" fill="#0B0B0B"/>
</svg>
