<svg width="1080" height="576" viewBox="0 0 1080 576" fill="none" xmlns="http://www.w3.org/2000/svg">
<mask id="mask0_2_2" style="mask-type:alpha" maskUnits="userSpaceOnUse" x="0" y="0" width="572" height="576">
<rect width="572" height="576" fill="#C4C4C4"/>
</mask>
<g mask="url(#mask0_2_2)">
<rect width="88.9315" height="1570.87" transform="matrix(0.710624 0.703572 -0.710624 0.703572 882.597 -233.622)" fill="#87FFA9"/>
<rect width="88.9315" height="1570.87" transform="matrix(0.710624 0.703572 -0.710624 0.703572 882.597 -485.371)" fill="#87FFA9"/>
<rect width="88.9315" height="1570.87" transform="matrix(0.710624 0.703572 -0.710624 0.703572 882.597 -737.119)" fill="#87FFA9"/>
<rect width="88.9315" height="1570.87" transform="matrix(0.710624 0.703572 -0.710624 0.703572 882.597 18.1259)" fill="#87FFA9"/>
</g>
<mask id="mask1_2_2" style="mask-type:alpha" maskUnits="userSpaceOnUse" x="508" y="0" width="572" height="576">
<rect x="508" width="572" height="576" fill="#C4C4C4"/>
</mask>
<g mask="url(#mask1_2_2)">
<rect width="88.9315" height="1570.87" transform="matrix(0.710624 0.703572 -0.710624 0.703572 1390.6 -233.622)" fill="#87FFA9"/>
<rect width="88.9315" height="1570.87" transform="matrix(0.710624 0.703572 -0.710624 0.703572 1390.6 -485.371)" fill="#87FFA9"/>
<rect width="88.9315" height="1570.87" transform="matrix(0.710624 0.703572 -0.710624 0.703572 1390.6 -737.119)" fill="#87FFA9"/>
<rect width="88.9315" height="1570.87" transform="matrix(0.710624 0.703572 -0.710624 0.703572 1390.6 18.1259)" fill="#87FFA9"/>
</g>
</svg>
