<svg xmlns="http://www.w3.org/2000/svg" width="168" height="168" fill="none" viewBox="0 0 168 168"><path fill="#000" d="M84 168C67.3864 168 51.1459 163.073 37.3321 153.843C23.5184 144.613 12.7519 131.494 6.39416 116.145C0.036396 100.796 -1.62708 83.9068 1.61407 67.6124C4.85523 51.318 12.8555 36.3507 24.6031 24.6031C36.3507 12.8555 51.318 4.85523 67.6124 1.61407C83.9068 -1.62708 100.796 0.036396 116.145 6.39416C131.494 12.7519 144.613 23.5184 153.843 37.3321C163.073 51.1459 168 67.3864 168 84C167.973 106.27 159.115 127.62 143.367 143.367C127.62 159.115 106.27 167.973 84 168Z"/><path fill="#EF692B" stroke="#fff" stroke-linejoin="round" stroke-width="1.731" d="M60.6527 120.509C60.3849 120.839 59.9167 120.926 59.5483 120.713C59.1798 120.501 59.0203 120.052 59.1719 119.655L87.0448 46.6319C87.1351 46.3952 87.3247 46.21 87.5634 46.1251C87.8021 46.0403 88.066 46.0642 88.2854 46.1908L109.629 58.4932C109.849 58.6197 110.002 58.836 110.048 59.0851C110.094 59.3342 110.029 59.591 109.869 59.7878L60.6527 120.509Z"/><path fill="#EF692B" fill-rule="evenodd" d="M57.1179 124.931C59.5582 126.338 62.6588 125.763 64.4324 123.575L113.649 62.8538C114.705 61.5504 115.138 59.8495 114.832 58.1998C114.526 56.5501 113.512 55.1173 112.059 54.2795L90.7149 41.9771C89.2613 41.1392 87.5135 40.9804 85.9326 41.5425C84.3518 42.1046 83.0966 43.3312 82.4983 44.8988L54.6254 117.922C53.621 120.553 54.6776 123.525 57.1179 124.931ZM59.98 119.966L87.8528 46.9426L109.196 59.245L59.98 119.966Z" clip-rule="evenodd"/><path fill="#EF692B" d="M96.7332 40.4465L110.549 48.4229C115.414 51.232 118.048 57.8641 114.203 62.2648L106.774 71.3117L78.6478 55.0729L82.7681 44.1156C84.6771 38.8985 91.8676 37.6374 96.7332 40.4465Z"/></svg>