<svg width="120" height="120" viewBox="0 0 120 120" fill="none" xmlns="http://www.w3.org/2000/svg">
<path d="M60 120C93.1371 120 120 93.1371 120 60C120 26.8629 93.1371 0 60 0C26.8629 0 0 26.8629 0 60C0 93.1371 26.8629 120 60 120Z" fill="#0B0B0B"/>
<path d="M94.6432 42.21L85.6736 31.2274C85.1797 30.6225 84.5619 30.1304 83.8618 29.7844C83.1616 29.4384 82.3955 29.2464 81.6149 29.2215C80.8344 29.1966 80.0576 29.3393 79.3368 29.64C78.6161 29.9406 77.9681 30.3923 77.4367 30.9645L61.4302 48.1832L24.7097 87.3718C23.0935 89.0976 25.2306 91.7239 27.246 90.4899L47.8407 77.9033C48.2272 77.7641 48.5984 77.5855 48.9482 77.3702L93.2484 50.3349C93.9157 49.9288 94.4883 49.3844 94.9274 48.7383C95.3666 48.0923 95.6622 47.3597 95.7944 46.5898C95.9266 45.8198 95.8922 45.0306 95.6936 44.275C95.495 43.5195 95.1368 42.8154 94.6432 42.21Z" fill="#EC672C"/>
</svg>
