<svg width="132" height="132" viewBox="0 0 132 132" fill="none" xmlns="http://www.w3.org/2000/svg">
<path d="M123.123 52.5853C123.633 55.6603 123.918 58.8553 123.918 62.1553L123.933 62.2603V62.4703V62.6803C123.918 66.6103 123.513 70.4653 122.793 74.2603C122.763 74.3653 122.748 74.4703 122.733 74.5753C121.983 78.4003 120.888 82.1503 119.433 85.8103C119.373 85.9303 119.328 86.0353 119.283 86.1553C117.813 89.8003 116.028 93.3703 113.868 96.8353C113.838 96.8953 113.808 96.9403 113.778 97.0003C113.748 97.0453 113.703 97.0903 113.673 97.1503C111.483 100.615 109.068 103.78 106.458 106.675C106.368 106.765 106.293 106.855 106.218 106.945C103.593 109.84 100.743 112.45 97.6983 114.76C97.6233 114.82 97.5333 114.88 97.4583 114.94C94.3833 117.25 91.1283 119.29 87.6633 121C87.5283 121.045 87.4233 121.06 87.3033 121.09L86.9883 121.18H86.9433C86.9283 121.195 86.8983 121.195 86.8683 121.195C86.7933 121.21 86.6283 121.255 86.6283 121.255H86.5983C86.3583 121.27 86.1333 121.27 85.9233 121.255H85.8933H85.8633C85.8183 121.24 85.7583 121.24 85.7133 121.24C85.5633 121.21 85.4433 121.15 85.3083 121.105C85.2483 121.09 85.1283 121.045 85.1283 121.045H85.0983C84.6183 120.79 84.1233 120.52 83.5983 120.235L78.1683 117.28L76.3383 116.29C76.0683 116.14 75.7983 115.99 75.5433 115.855L75.4233 115.795L74.8383 115.48C74.7333 115.42 74.6283 115.345 74.5383 115.27C74.4483 115.195 74.4033 115.12 74.3283 115.045C74.2683 114.985 74.1933 114.925 74.1483 114.85C74.1033 114.79 74.0733 114.715 74.0283 114.655C73.9383 114.52 73.8633 114.37 73.8033 114.205C73.7733 114.115 73.7583 114.01 73.7283 113.92C73.6683 113.665 73.6233 113.38 73.6233 113.08L73.6533 97.6603C73.6533 96.2053 73.5183 94.8853 73.2933 93.7003C73.2783 93.6253 73.2483 93.5653 73.2483 93.4903C73.0083 92.3653 72.6783 91.3603 72.2433 90.5053C72.1983 90.4003 72.1383 90.3103 72.0783 90.2203C71.5533 89.2903 70.9233 88.5103 70.1433 87.8953L69.8433 87.6703L70.2333 87.5803C71.1033 87.3553 71.9433 87.1153 72.7533 86.8753C72.8433 86.8453 72.9183 86.8303 72.9933 86.8003C73.7283 86.5903 74.4333 86.3503 75.1083 86.1103C75.1833 86.0803 75.2583 86.0653 75.3333 86.0353C75.9183 85.8253 76.4883 85.6003 77.0433 85.3753L77.2683 85.2853C77.3433 85.2553 77.4033 85.2103 77.4783 85.1803C78.0933 84.9103 78.7233 84.6103 79.3683 84.2653L79.5483 84.1753C80.2083 83.8303 80.8683 83.4403 81.5283 83.0203C81.5883 82.9753 81.6333 82.9453 81.6933 82.9153C82.3083 82.5253 82.9233 82.1053 83.5383 81.6553C83.5833 81.6103 83.6433 81.5803 83.7033 81.5353C83.7633 81.5053 83.8083 81.4603 83.8683 81.4153C84.5583 80.9053 85.2033 80.3653 85.8183 79.7953C85.8633 79.7653 85.8932 79.7353 85.9232 79.7054L85.9233 79.7053C86.5383 79.1353 87.1383 78.5353 87.6783 77.9203C87.7083 77.8903 87.7233 77.8603 87.7533 77.8303C88.2333 77.2753 88.6983 76.7053 89.1183 76.1053C89.1633 76.0603 89.2083 76.0003 89.2383 75.9553C89.2833 75.8953 89.3133 75.8353 89.3433 75.7903C90.2433 74.4553 91.0383 72.8803 91.7433 71.0653C92.1183 70.1053 92.4783 69.0853 92.7933 68.0053C92.8083 67.9453 92.8383 67.8853 92.8533 67.8253L92.8983 67.6453C93.1683 66.6553 93.3933 65.6353 93.5883 64.5703C93.6033 64.5403 93.6033 64.4954 93.6033 64.4504V64.4503C93.7983 63.2953 93.9633 62.0953 94.0683 60.8653V60.7153C94.1733 59.4853 94.2483 58.2253 94.2483 56.9053V56.6953V56.4703C94.2333 54.6853 94.0383 53.0203 93.6933 51.4453C93.6783 51.3853 93.6633 51.3103 93.6483 51.2503C93.2733 49.6603 92.7333 48.1603 92.0133 46.7803C91.9683 46.6903 91.9083 46.6003 91.8633 46.5103C91.0683 45.0553 90.0933 43.7053 88.9083 42.5053C89.4333 40.9753 89.7483 39.4303 89.8983 37.8703C89.9133 37.8253 89.9133 37.7653 89.9133 37.7203C89.9433 37.4953 89.9883 37.2853 89.9883 37.0603V36.7753C89.5833 37.0303 89.2083 37.3003 88.8333 37.5553C88.7883 37.5853 88.7283 37.6303 88.6833 37.6603C88.0833 38.0803 87.4983 38.5153 86.9583 38.9353L84.2883 41.0953C82.8483 40.8703 81.3933 40.7503 79.9383 40.6753H79.5783C78.2433 40.6153 76.8933 40.6153 75.5283 40.6753H75.2283C73.9683 40.7353 72.6933 40.8553 71.4183 41.0203C71.3133 41.0353 71.1933 41.0353 71.0883 41.0503C70.9833 41.0503 70.8933 41.0953 70.7883 41.0953C69.3783 41.3053 67.9833 41.5903 66.6033 41.9203C66.5283 41.9503 66.4533 41.9653 66.3783 41.9803C64.9833 42.3253 63.5883 42.7153 62.2083 43.1803C62.1483 43.1953 62.0733 43.2253 62.0133 43.2403C60.6483 43.7053 59.2833 44.2153 57.9483 44.8003L57.9476 44.8C57.6478 44.6501 57.348 44.5002 57.0333 44.3353C56.7183 44.1703 56.3883 43.9903 56.0283 43.8103C55.6683 43.6153 55.3083 43.4353 54.9033 43.2253C54.5283 43.0303 54.0483 42.8353 53.5383 42.6403L53.4483 42.6103L53.3883 42.5803C53.3283 42.5503 53.2533 42.5353 53.1933 42.5053C52.9083 42.3853 52.6233 42.2803 52.3083 42.1753C52.0683 42.0853 51.8133 42.0103 51.5583 41.9203C51.2733 41.8303 50.9733 41.7253 50.6583 41.6353C50.4633 41.5753 50.2683 41.5153 50.0583 41.4553C49.7733 41.3653 49.5033 41.2903 49.2033 41.2003C48.9633 41.1403 48.7383 41.0953 48.5133 41.0353C48.1383 40.9453 47.7933 40.8703 47.4633 40.8103C47.2983 40.7803 47.1183 40.7503 46.9533 40.7203C46.5933 40.6753 46.2633 40.6303 45.9483 40.6303C45.8133 40.6153 45.6783 40.6153 45.5583 40.6153C45.3633 40.6153 45.1834 40.6303 45.0034 40.6453L45.0033 40.6453C44.8983 40.6753 44.7633 40.6603 44.6583 40.6753C44.5683 40.6903 44.4933 40.7353 44.4033 40.7503C44.3433 40.7503 44.2833 40.7803 44.2233 40.7953C44.1483 40.8103 44.0883 40.8253 44.0283 40.8403C43.9533 40.8703 43.8783 40.8853 43.8183 40.9003C43.7583 40.9153 43.6833 40.9153 43.6233 40.9453C43.5783 40.9603 43.5183 40.9753 43.4733 40.9903C42.8433 42.8053 42.4083 44.5453 42.1533 46.2253C42.1383 46.2703 42.1233 46.3153 42.1233 46.3603C41.8683 48.0253 41.8083 49.6153 41.9283 51.1153C41.9283 51.1753 41.9433 51.2353 41.9433 51.2953C42.0933 52.8553 42.4233 54.3403 42.9783 55.7203C40.6083 58.8553 39.0333 62.2153 38.2083 65.7853C38.1933 65.8303 38.1783 65.8603 38.1783 65.9053C37.7733 67.6753 37.5483 69.5053 37.5333 71.3953V71.6053V71.8153C37.5483 73.0303 37.5933 74.1853 37.6833 75.3103C37.6983 75.3703 37.6983 75.4303 37.6983 75.4903C37.7883 76.6753 37.9233 77.8003 38.1183 78.8803C38.1333 78.9553 38.1483 79.0153 38.1483 79.0753C38.3433 80.1103 38.5683 81.1303 38.8383 82.0603C38.8533 82.1353 38.8683 82.2253 38.8983 82.3003C38.9283 82.4053 38.9583 82.4803 38.9883 82.5703C39.2433 83.3653 39.5133 84.1303 39.8133 84.8353C39.8433 84.9253 39.8883 85.0003 39.9183 85.0753C40.2483 85.8403 40.5933 86.5453 40.9683 87.1903C41.0133 87.2803 41.0733 87.3703 41.1183 87.4603C41.4783 88.0603 41.8383 88.6003 42.2283 89.0953C42.3033 89.2003 42.3783 89.3203 42.4683 89.4253C42.5283 89.4853 42.6333 89.6053 42.6333 89.6053H42.6783C42.7833 89.6203 42.8733 89.6353 42.9633 89.6503C43.1433 89.6953 43.3233 89.7253 43.5033 89.7553C43.7133 89.7853 43.9083 89.8303 44.1033 89.8603C44.2683 89.8903 44.4333 89.9053 44.5983 89.9203C45.1383 89.9953 45.6933 90.0403 46.2633 90.0853C46.3983 90.1003 46.5483 90.1153 46.6833 90.1153C47.2983 90.1453 47.9433 90.1903 48.6033 90.1903H48.9933C49.6833 90.1903 50.3883 90.1903 51.1083 90.1603H51.4833L61.7433 95.7403L61.4583 96.0553C59.6733 98.0203 58.5483 100.69 58.1433 103.945C57.7833 104.215 57.4233 104.425 57.0783 104.635C57.0033 104.68 56.9433 104.71 56.8683 104.755C56.5833 104.905 56.2983 105.055 56.0133 105.19C55.9383 105.22 55.8633 105.265 55.7883 105.295C55.5783 105.385 55.3533 105.475 55.1433 105.55L54.9183 105.64C54.8433 105.67 54.7533 105.685 54.6783 105.715C54.3783 105.82 54.0783 105.91 53.7483 106C53.6583 106.03 53.5683 106.045 53.4783 106.075C53.1333 106.165 52.7883 106.24 52.4283 106.315C52.3233 106.33 52.2333 106.36 52.1283 106.375C51.8583 106.435 51.5733 106.48 51.2733 106.525C51.1683 106.54 51.0783 106.57 50.9733 106.57C50.8533 106.585 50.7333 106.585 50.6133 106.585C50.3583 106.615 50.0883 106.63 49.8333 106.63C49.7133 106.63 49.5783 106.585 49.4583 106.585L49.4199 106.582C49.2508 106.568 49.0706 106.553 48.9033 106.525C48.8433 106.51 48.7383 106.51 48.7383 106.51L49.2633 106.795L55.7583 110.335C56.5533 110.77 57.3183 111.175 58.0233 111.565V113.545V113.755V115.78V115.99V118.285C58.0383 119.02 58.0383 119.65 58.0383 120.175V120.385V121.48V122.005V122.215C58.0383 122.29 58.0233 122.35 58.0233 122.425C58.0233 122.59 58.0083 122.755 57.9783 122.92C57.9483 122.995 57.9183 123.085 57.9033 123.16C57.8583 123.37 57.7833 123.565 57.6933 123.76C57.6483 123.865 57.5883 123.985 57.5283 124.09C57.4383 124.24 57.3333 124.39 57.2133 124.525C57.1683 124.57 57.1383 124.63 57.0933 124.675C57.0483 124.72 56.9733 124.75 56.9283 124.795C56.8383 124.885 56.7333 124.945 56.6283 125.02C56.5383 125.08 56.4633 125.17 56.3733 125.215C56.2533 125.29 56.1183 125.335 55.9833 125.38C55.8783 125.425 55.7583 125.455 55.6533 125.485C55.5933 125.5 55.5333 125.53 55.4733 125.53C55.3833 125.545 55.3083 125.605 55.2183 125.605H54.9033H54.8583H54.5583H54.4833H54.1833C52.9683 125.35 51.7833 125.035 50.6133 124.69L49.5333 124.33C48.7383 124.075 47.9433 123.79 47.1633 123.49C46.7583 123.34 46.3683 123.175 45.9783 123.01C45.3783 122.755 44.7933 122.5 44.2083 122.215L43.7583 121.99C43.4133 121.81 43.0533 121.645 42.7083 121.465L42.2583 121.24L41.5233 120.835C40.8285 120.467 40.1089 120.075 39.3646 119.669L39.1383 119.545L38.8533 119.395L35.3283 117.475L35.2683 117.445L33.9183 116.71C33.7686 116.635 33.6338 116.561 33.499 116.486L33.4983 116.485C32.9883 116.215 32.4783 115.93 31.9983 115.675C31.1883 115.225 30.4083 114.76 29.6283 114.265C29.4633 114.16 29.2833 114.04 29.1183 113.935C28.1583 113.32 27.2283 112.675 26.3283 111.97C26.2983 111.94 26.2683 111.925 26.2383 111.895C26.1783 111.85 26.1333 111.805 26.0733 111.76C25.7883 111.55 25.5183 111.31 25.2483 111.085C24.6783 110.605 24.1233 110.125 23.5683 109.615C23.4185 109.465 23.2537 109.316 23.0889 109.166L23.0883 109.165C22.2483 108.37 21.4383 107.545 20.6583 106.69C20.5083 106.525 20.3733 106.36 20.2233 106.195C19.5183 105.385 18.8283 104.56 18.1533 103.69C18.0633 103.57 17.9733 103.465 17.8833 103.345C17.7933 103.225 17.7333 103.105 17.6433 103C15.6033 100.255 13.9083 97.3303 12.4983 94.2403C12.4383 94.1203 12.3933 94.0003 12.3333 93.8803C10.8933 90.6253 9.78328 87.1903 9.04828 83.5903C9.01828 83.4853 9.00328 83.3803 8.98828 83.2753C8.26828 79.6453 7.86328 75.8353 7.86328 71.8603V71.6503V71.4403C7.89328 68.2003 8.16328 64.9903 8.68828 61.7953C8.70328 61.7053 8.73328 61.6153 8.73328 61.5253C9.25828 58.3153 10.0233 55.1353 11.0433 52.0153C11.0733 51.9103 11.1183 51.8053 11.1483 51.7003C12.1683 48.6103 13.4283 45.5503 14.9433 42.5653C14.9733 42.5203 14.9883 42.4603 15.0183 42.4003C15.0483 42.3403 15.0783 42.2953 15.1083 42.2353C16.6383 39.2653 18.3483 36.4603 20.2383 33.8053C20.2983 33.7003 20.3733 33.5953 20.4483 33.4903C22.3533 30.8203 24.4533 28.3003 26.7183 25.9603C26.7783 25.9003 26.8533 25.8403 26.9133 25.7653C29.1483 23.4553 31.5483 21.2953 34.1283 19.3303C34.1883 19.2853 34.2333 19.2403 34.2933 19.1953C34.3383 19.1503 34.3983 19.1203 34.4583 19.0753C37.0833 17.0803 39.8133 15.3553 42.6183 13.8703C42.6933 13.8253 42.7833 13.7803 42.8583 13.7353C45.6633 12.2653 48.5433 11.0503 51.4983 10.0903C51.6033 10.0603 51.6933 10.0303 51.7983 10.0003C54.6483 9.08531 57.5733 8.39531 60.5583 7.96031C60.6633 7.94531 60.7533 7.91531 60.8583 7.91531C60.9783 7.90031 61.0833 7.88531 61.1883 7.88531C64.2633 7.48031 67.2633 7.34531 70.1883 7.48031C70.3383 7.49531 70.5033 7.49531 70.6683 7.49531C73.5333 7.64531 76.3383 8.08031 79.0533 8.75531C79.3533 8.81531 79.6383 8.90531 79.9383 8.98031C82.5033 9.67031 84.9933 10.5703 87.4083 11.7403C88.0983 12.0703 88.7733 12.4153 89.4333 12.7753L91.4283 13.8553L96.9633 16.8703L97.6983 17.2753C98.3883 17.6503 99.0633 18.0103 99.6933 18.3553C99.8583 18.4453 100.008 18.5503 100.173 18.6403L100.173 18.6404C100.563 18.8653 100.953 19.0903 101.343 19.3303C101.868 19.6453 102.378 19.9603 102.888 20.2903C103.263 20.5453 103.638 20.8003 104.013 21.0703C104.403 21.3553 104.793 21.6253 105.168 21.9103C105.273 21.9853 105.363 22.0602 105.453 22.1352L105.453 22.1353C105.828 22.4203 106.173 22.7053 106.533 22.9903C106.998 23.3653 107.448 23.7553 107.898 24.1603C108.243 24.4603 108.573 24.7603 108.903 25.0753C109.353 25.4953 109.788 25.9453 110.208 26.3803C110.508 26.6953 110.823 27.0103 111.123 27.3403C111.138 27.3703 111.168 27.4003 111.198 27.4303C111.333 27.5803 111.453 27.7153 111.588 27.8653C111.858 28.1803 112.113 28.4953 112.368 28.8103C112.638 29.1403 112.908 29.4553 113.178 29.7853C113.628 30.3403 114.048 30.9253 114.468 31.5103C114.678 31.7953 114.888 32.0653 115.098 32.3653C115.713 33.2503 116.298 34.1803 116.868 35.1253C118.383 37.6753 119.613 40.3603 120.648 43.1653C120.693 43.2703 120.723 43.3753 120.768 43.4803C121.788 46.3003 122.553 49.2403 123.078 52.3003C123.093 52.3903 123.108 52.4953 123.123 52.5853Z" fill="black"/>
<path d="M123.918 62.1553C123.918 58.8553 123.633 55.6603 123.123 52.5853C123.108 52.4953 123.093 52.3903 123.078 52.3003C122.553 49.2403 121.788 46.3003 120.768 43.4803C120.723 43.3753 120.693 43.2703 120.648 43.1653C119.613 40.3603 118.383 37.6753 116.868 35.1253C116.298 34.1803 115.713 33.2503 115.098 32.3653C114.888 32.0653 114.678 31.7953 114.468 31.5103C114.048 30.9253 113.628 30.3403 113.178 29.7853C112.908 29.4553 112.638 29.1403 112.368 28.8103C112.113 28.4953 111.858 28.1803 111.588 27.8653C111.453 27.7153 111.333 27.5803 111.198 27.4303C111.168 27.4003 111.138 27.3703 111.123 27.3403C110.823 27.0103 110.508 26.6953 110.208 26.3803C109.788 25.9453 109.353 25.4953 108.903 25.0753C108.573 24.7603 108.243 24.4603 107.898 24.1603C107.448 23.7553 106.998 23.3653 106.533 22.9903C106.173 22.7053 105.828 22.4203 105.453 22.1353C105.363 22.0603 105.273 21.9853 105.168 21.9103C104.793 21.6253 104.403 21.3553 104.013 21.0703C103.638 20.8003 103.263 20.5453 102.888 20.2903C102.378 19.9603 101.868 19.6453 101.343 19.3303C100.953 19.0903 100.563 18.8653 100.173 18.6403C100.008 18.5503 99.8583 18.4453 99.6933 18.3553C99.0633 18.0103 98.3883 17.6503 97.6983 17.2753L96.9633 16.8703L91.4283 13.8553L89.4333 12.7753C88.7733 12.4153 88.0983 12.0703 87.4083 11.7403C84.9933 10.5703 82.5033 9.67031 79.9383 8.98031C79.6383 8.90531 79.3533 8.81531 79.0533 8.75531C76.3383 8.08031 73.5333 7.64531 70.6683 7.49531C70.5033 7.49531 70.3383 7.49531 70.1883 7.48031C67.2633 7.34531 64.2633 7.48031 61.1883 7.88531C61.0833 7.88531 60.9783 7.90031 60.8583 7.91531C60.7533 7.91531 60.6633 7.94531 60.5583 7.96031C57.5733 8.39531 54.6483 9.08531 51.7983 10.0003C51.6933 10.0303 51.6033 10.0603 51.4983 10.0903C48.5433 11.0503 45.6633 12.2653 42.8583 13.7353C42.7833 13.7803 42.6933 13.8253 42.6183 13.8703C39.8133 15.3553 37.0833 17.0803 34.4583 19.0753C34.3983 19.1203 34.3383 19.1503 34.2933 19.1953C34.2333 19.2403 34.1883 19.2853 34.1283 19.3303C31.5483 21.2953 29.1483 23.4553 26.9133 25.7653C26.8533 25.8403 26.7783 25.9003 26.7183 25.9603C24.4533 28.3003 22.3533 30.8203 20.4483 33.4903C20.3733 33.5953 20.2983 33.7003 20.2383 33.8053C18.3483 36.4603 16.6383 39.2653 15.1083 42.2353C15.0783 42.2953 15.0483 42.3403 15.0183 42.4003C14.9883 42.4603 14.9733 42.5203 14.9433 42.5653C13.4283 45.5503 12.1683 48.6103 11.1483 51.7003C11.1183 51.8053 11.0733 51.9103 11.0433 52.0153C10.0233 55.1353 9.25828 58.3153 8.73328 61.5253C8.73328 61.6153 8.70328 61.7053 8.68828 61.7953C8.16328 64.9903 7.89328 68.2003 7.86328 71.4403C7.86328 71.5153 7.86328 71.5753 7.86328 71.6503C7.86328 71.7253 7.86328 71.8003 7.86328 71.8603C7.86328 75.8353 8.26828 79.6453 8.98828 83.2753C9.00328 83.3803 9.01828 83.4853 9.04828 83.5903C9.78328 87.1903 10.8933 90.6253 12.3333 93.8803C12.3933 94.0003 12.4383 94.1203 12.4983 94.2403C13.9083 97.3303 15.6033 100.255 17.6433 103C17.7333 103.105 17.7933 103.225 17.8833 103.345C17.9733 103.465 18.0633 103.57 18.1533 103.69C18.8283 104.56 19.5183 105.385 20.2233 106.195C20.3733 106.36 20.5083 106.525 20.6583 106.69C21.4383 107.545 22.2483 108.37 23.0883 109.165C23.2533 109.315 23.4183 109.465 23.5683 109.615C24.1233 110.125 24.6783 110.605 25.2483 111.085C25.5183 111.31 25.7883 111.55 26.0733 111.76C26.1333 111.805 26.1783 111.85 26.2383 111.895C26.2683 111.925 26.2983 111.94 26.3283 111.97C27.2283 112.675 28.1583 113.32 29.1183 113.935C29.2833 114.04 29.4633 114.16 29.6283 114.265C30.4083 114.76 31.1883 115.225 31.9983 115.675C32.4783 115.93 32.9883 116.215 33.4983 116.485C33.6333 116.56 33.7683 116.635 33.9183 116.71L35.2683 117.445L35.3283 117.475L38.8533 119.395L39.1383 119.545C39.9633 119.995 40.7583 120.43 41.5233 120.835L42.2583 121.24C42.4083 121.315 42.5583 121.39 42.7083 121.465C43.0533 121.645 43.4133 121.81 43.7583 121.99C43.9083 122.065 44.0583 122.14 44.2083 122.215C44.7933 122.5 45.3783 122.755 45.9783 123.01C46.3683 123.175 46.7583 123.34 47.1633 123.49C47.9433 123.79 48.7383 124.075 49.5333 124.33C49.8933 124.45 50.2533 124.57 50.6133 124.69C51.7833 125.035 52.9683 125.35 54.1833 125.605C54.2883 125.605 54.3783 125.605 54.4833 125.605C54.5133 125.605 54.5283 125.605 54.5583 125.605C54.6633 125.605 54.7533 125.605 54.8583 125.605H54.9033C55.0083 125.605 55.1133 125.605 55.2183 125.605C55.3083 125.605 55.3833 125.545 55.4733 125.53C55.5333 125.53 55.5933 125.5 55.6533 125.485C55.7583 125.455 55.8783 125.425 55.9833 125.38C56.1183 125.335 56.2533 125.29 56.3733 125.215C56.4633 125.17 56.5383 125.08 56.6283 125.02C56.7333 124.945 56.8383 124.885 56.9283 124.795C56.9733 124.75 57.0483 124.72 57.0933 124.675C57.1383 124.63 57.1683 124.57 57.2133 124.525C57.3333 124.39 57.4383 124.24 57.5283 124.09C57.5883 123.985 57.6483 123.865 57.6933 123.76C57.7833 123.565 57.8583 123.37 57.9033 123.16C57.9183 123.085 57.9483 122.995 57.9783 122.92C58.0083 122.755 58.0233 122.59 58.0233 122.425C58.0233 122.35 58.0383 122.29 58.0383 122.215C58.0383 122.185 58.0383 122.11 58.0383 122.005V121.48C58.0383 121.195 58.0383 120.835 58.0383 120.385V120.175C58.0383 119.65 58.0383 119.02 58.0233 118.285C58.0233 117.49 58.0233 116.74 58.0233 115.99V115.78C58.0233 115.105 58.0233 114.43 58.0233 113.755V113.545C58.0233 112.885 58.0233 112.225 58.0233 111.565C57.3183 111.175 56.5533 110.77 55.7583 110.335L49.2633 106.795L48.7383 106.51C48.7383 106.51 48.8433 106.51 48.9033 106.525C49.0833 106.555 49.2783 106.57 49.4583 106.585C49.5783 106.585 49.7133 106.63 49.8333 106.63C50.0883 106.63 50.3583 106.615 50.6133 106.585C50.7333 106.585 50.8533 106.585 50.9733 106.57C51.0783 106.57 51.1683 106.54 51.2733 106.525C51.5733 106.48 51.8583 106.435 52.1283 106.375C52.2333 106.36 52.3233 106.33 52.4283 106.315C52.7883 106.24 53.1333 106.165 53.4783 106.075C53.5683 106.045 53.6583 106.03 53.7483 106C54.0783 105.91 54.3783 105.82 54.6783 105.715C54.7533 105.685 54.8433 105.67 54.9183 105.64C54.9933 105.61 55.0683 105.58 55.1433 105.55C55.3533 105.475 55.5783 105.385 55.7883 105.295C55.8633 105.265 55.9383 105.22 56.0133 105.19C56.2983 105.055 56.5833 104.905 56.8683 104.755C56.9433 104.71 57.0033 104.68 57.0783 104.635C57.4233 104.425 57.7833 104.215 58.1433 103.945C58.5483 100.69 59.6733 98.0203 61.4583 96.0553L61.7433 95.7403L51.4833 90.1603H51.1083C50.3883 90.1903 49.6833 90.1903 48.9933 90.1903C48.8583 90.1903 48.7383 90.1903 48.6033 90.1903C47.9433 90.1903 47.2983 90.1453 46.6833 90.1153C46.5483 90.1153 46.3983 90.1003 46.2633 90.0853C45.6933 90.0403 45.1383 89.9953 44.5983 89.9203C44.4333 89.9053 44.2683 89.8903 44.1033 89.8603C43.9083 89.8303 43.7133 89.7853 43.5033 89.7553C43.3233 89.7253 43.1433 89.6953 42.9633 89.6503C42.8733 89.6353 42.7833 89.6203 42.6783 89.6053H42.6333C42.6333 89.6053 42.5283 89.4853 42.4683 89.4253C42.3783 89.3203 42.3033 89.2003 42.2283 89.0953C41.8383 88.6003 41.4783 88.0603 41.1183 87.4603C41.0733 87.3703 41.0133 87.2803 40.9683 87.1903C40.5933 86.5453 40.2483 85.8403 39.9183 85.0753C39.8883 85.0003 39.8433 84.9253 39.8133 84.8353C39.5133 84.1303 39.2433 83.3653 38.9883 82.5703C38.9583 82.4803 38.9283 82.4053 38.8983 82.3003C38.8683 82.2253 38.8533 82.1353 38.8383 82.0603C38.5683 81.1303 38.3433 80.1103 38.1483 79.0753C38.1483 79.0153 38.1333 78.9553 38.1183 78.8803C37.9233 77.8003 37.7883 76.6753 37.6983 75.4903C37.6983 75.4303 37.6983 75.3703 37.6833 75.3103C37.5933 74.1853 37.5483 73.0303 37.5333 71.8153C37.5333 71.7403 37.5333 71.6803 37.5333 71.6053C37.5333 71.5303 37.5333 71.4703 37.5333 71.3953C37.5483 69.5053 37.7733 67.6753 38.1783 65.9053C38.1783 65.8603 38.1933 65.8303 38.2083 65.7853C39.0333 62.2153 40.6083 58.8553 42.9783 55.7203C42.4233 54.3403 42.0933 52.8553 41.9433 51.2953C41.9433 51.2353 41.9283 51.1753 41.9283 51.1153C41.8083 49.6153 41.8683 48.0253 42.1233 46.3603C42.1233 46.3153 42.1383 46.2703 42.1533 46.2253C42.4083 44.5453 42.8433 42.8053 43.4733 40.9903C43.5183 40.9753 43.5783 40.9603 43.6233 40.9453C43.6833 40.9153 43.7583 40.9153 43.8183 40.9003C43.8783 40.8853 43.9533 40.8703 44.0283 40.8403C44.0883 40.8253 44.1483 40.8103 44.2233 40.7953C44.2833 40.7803 44.3433 40.7503 44.4033 40.7503C44.4933 40.7353 44.5683 40.6903 44.6583 40.6753C44.7633 40.6603 44.8983 40.6753 45.0033 40.6453C45.1833 40.6303 45.3633 40.6153 45.5583 40.6153C45.6783 40.6153 45.8133 40.6153 45.9483 40.6303C46.2633 40.6303 46.5933 40.6753 46.9533 40.7203C47.1183 40.7503 47.2983 40.7803 47.4633 40.8103C47.7933 40.8703 48.1383 40.9453 48.5133 41.0353C48.7383 41.0953 48.9633 41.1403 49.2033 41.2003C49.5033 41.2903 49.7733 41.3653 50.0583 41.4553C50.2683 41.5153 50.4633 41.5753 50.6583 41.6353C50.9733 41.7253 51.2733 41.8303 51.5583 41.9203C51.8133 42.0103 52.0683 42.0853 52.3083 42.1753C52.6233 42.2803 52.9083 42.3853 53.1933 42.5053C53.2533 42.5353 53.3283 42.5503 53.3883 42.5803L53.4483 42.6103L53.5383 42.6403C54.0483 42.8353 54.5283 43.0303 54.9033 43.2253C55.3083 43.4353 55.6683 43.6153 56.0283 43.8103C56.3883 43.9903 56.7183 44.1703 57.0333 44.3353C57.3483 44.5003 57.6483 44.6503 57.9483 44.8003C59.2833 44.2153 60.6483 43.7053 62.0133 43.2403C62.0733 43.2253 62.1483 43.1953 62.2083 43.1803C63.5883 42.7153 64.9833 42.3253 66.3783 41.9803C66.4533 41.9653 66.5283 41.9503 66.6033 41.9203C67.9833 41.5903 69.3783 41.3053 70.7883 41.0953C70.8933 41.0953 70.9833 41.0503 71.0883 41.0503C71.1933 41.0353 71.3133 41.0353 71.4183 41.0203C72.6933 40.8553 73.9683 40.7353 75.2283 40.6753C75.3333 40.6753 75.4383 40.6753 75.5283 40.6753C76.8933 40.6153 78.2433 40.6153 79.5783 40.6753C79.6983 40.6753 79.8183 40.6753 79.9383 40.6753C81.3933 40.7503 82.8483 40.8703 84.2883 41.0953L86.9583 38.9353C87.4983 38.5153 88.0833 38.0803 88.6833 37.6603C88.7283 37.6303 88.7883 37.5853 88.8333 37.5553C89.2083 37.3003 89.5833 37.0303 89.9883 36.7753C89.9883 36.8653 89.9883 36.9553 89.9883 37.0603C89.9883 37.2853 89.9433 37.4953 89.9133 37.7203C89.9133 37.7653 89.9133 37.8253 89.8983 37.8703C89.7483 39.4303 89.4333 40.9753 88.9083 42.5053C90.0933 43.7053 91.0683 45.0553 91.8633 46.5103C91.9083 46.6003 91.9683 46.6903 92.0133 46.7803C92.7333 48.1603 93.2733 49.6603 93.6483 51.2503C93.6633 51.3103 93.6783 51.3853 93.6933 51.4453C94.0383 53.0203 94.2333 54.6853 94.2483 56.4703C94.2483 56.5453 94.2483 56.6203 94.2483 56.6953C94.2483 56.7703 94.2483 56.8303 94.2483 56.9053C94.2483 58.2253 94.1733 59.4853 94.0683 60.7153C94.0683 60.7603 94.0683 60.8053 94.0683 60.8653C93.9633 62.0953 93.7983 63.2953 93.6033 64.4503C93.6033 64.4953 93.6033 64.5403 93.5883 64.5703C93.3933 65.6353 93.1683 66.6553 92.8983 67.6453C92.8833 67.7053 92.8683 67.7653 92.8533 67.8253C92.8383 67.8853 92.8083 67.9453 92.7933 68.0053C92.4783 69.0853 92.1183 70.1053 91.7433 71.0653C91.0383 72.8803 90.2433 74.4553 89.3433 75.7903C89.3133 75.8353 89.2833 75.8953 89.2383 75.9553C89.2083 76.0003 89.1633 76.0603 89.1183 76.1053C88.6983 76.7053 88.2333 77.2753 87.7533 77.8303C87.7233 77.8603 87.7083 77.8903 87.6783 77.9203C87.1383 78.5353 86.5383 79.1353 85.9233 79.7053C85.8933 79.7353 85.8633 79.7653 85.8183 79.7953C85.2033 80.3653 84.5583 80.9053 83.8683 81.4153C83.8083 81.4603 83.7633 81.5053 83.7033 81.5353C83.6433 81.5803 83.5833 81.6103 83.5383 81.6553C82.9233 82.1053 82.3083 82.5253 81.6933 82.9153C81.6333 82.9453 81.5883 82.9753 81.5283 83.0203C80.8683 83.4403 80.2083 83.8303 79.5483 84.1753C79.4883 84.2053 79.4283 84.2353 79.3683 84.2653C78.7233 84.6103 78.0933 84.9103 77.4783 85.1803C77.4033 85.2103 77.3433 85.2553 77.2683 85.2853C77.1933 85.3153 77.1183 85.3453 77.0433 85.3753C76.4883 85.6003 75.9183 85.8253 75.3333 86.0353C75.2583 86.0653 75.1833 86.0803 75.1083 86.1103C74.4333 86.3503 73.7283 86.5903 72.9933 86.8003C72.9183 86.8303 72.8433 86.8453 72.7533 86.8753C71.9433 87.1153 71.1033 87.3553 70.2333 87.5803L69.8433 87.6703L70.1433 87.8953C70.9233 88.5103 71.5533 89.2903 72.0783 90.2203C72.1383 90.3103 72.1983 90.4003 72.2433 90.5053C72.6783 91.3603 73.0083 92.3653 73.2483 93.4903C73.2483 93.5653 73.2783 93.6253 73.2933 93.7003C73.5183 94.8853 73.6533 96.2053 73.6533 97.6603L73.6233 113.08C73.6233 113.38 73.6683 113.665 73.7283 113.92C73.7583 114.01 73.7733 114.115 73.8033 114.205C73.8633 114.37 73.9383 114.52 74.0283 114.655C74.0733 114.715 74.1033 114.79 74.1483 114.85C74.1933 114.925 74.2683 114.985 74.3283 115.045C74.4033 115.12 74.4483 115.195 74.5383 115.27C74.6283 115.345 74.7333 115.42 74.8383 115.48L75.4233 115.795L75.5433 115.855C75.7983 115.99 76.0683 116.14 76.3383 116.29L78.1683 117.28L83.5983 120.235C84.1233 120.52 84.6183 120.79 85.0983 121.045H85.1283C85.1283 121.045 85.2483 121.09 85.3083 121.105C85.4433 121.15 85.5633 121.21 85.7133 121.24C85.7583 121.24 85.8183 121.24 85.8633 121.255H85.8933H85.9233C86.1333 121.27 86.3583 121.27 86.5983 121.255H86.6283C86.6283 121.255 86.7933 121.21 86.8683 121.195C86.8983 121.195 86.9283 121.195 86.9433 121.18H86.9883C87.0933 121.15 87.1983 121.12 87.3033 121.09C87.4233 121.06 87.5283 121.045 87.6633 121C91.1283 119.29 94.3833 117.25 97.4583 114.94C97.5333 114.88 97.6233 114.82 97.6983 114.76C100.743 112.45 103.593 109.84 106.218 106.945C106.293 106.855 106.368 106.765 106.458 106.675C109.068 103.78 111.483 100.615 113.673 97.1503C113.703 97.0903 113.748 97.0453 113.778 97.0003C113.808 96.9403 113.838 96.8953 113.868 96.8353C116.028 93.3703 117.813 89.8003 119.283 86.1553C119.328 86.0353 119.373 85.9303 119.433 85.8103C120.888 82.1503 121.983 78.4003 122.733 74.5753C122.748 74.4703 122.763 74.3653 122.793 74.2603C123.513 70.4653 123.918 66.6103 123.933 62.6803C123.933 62.6053 123.933 62.5453 123.933 62.4703C123.933 62.3953 123.933 62.3203 123.933 62.2603L123.918 62.1553ZM122.658 53.0653C122.763 53.6953 122.868 54.3103 122.943 54.9553C123.003 55.5103 123.048 56.0653 123.093 56.6203C123.153 57.2653 123.228 57.9103 123.273 58.5703C123.303 59.1253 123.303 59.6953 123.333 60.2503C123.348 60.7903 123.378 61.3303 123.378 61.8703L118.788 59.3803L113.853 56.6953C113.853 56.0953 113.823 55.5103 113.808 54.9103C113.793 54.2953 113.793 53.6803 113.748 53.0653C113.718 52.4953 113.643 51.9403 113.598 51.3703C113.538 50.7403 113.508 50.0953 113.433 49.4803C113.373 48.9553 113.268 48.4453 113.193 47.9203C113.193 47.8153 113.163 47.7253 113.148 47.6203L122.613 52.7653C122.628 52.8703 122.643 52.9753 122.658 53.0653ZM120.663 44.7253C120.813 45.1903 120.948 45.6703 121.083 46.1503C121.278 46.7803 121.473 47.3953 121.638 48.0403C121.773 48.5503 121.863 49.0753 121.983 49.5853C122.118 50.2003 122.283 50.8153 122.403 51.4603C122.433 51.6403 122.463 51.8203 122.493 52.0003L113.043 46.8553C112.998 46.5703 112.968 46.2703 112.908 46.0003C112.818 45.5203 112.698 45.0403 112.593 44.5603C112.458 43.9003 112.323 43.2403 112.158 42.5953C112.038 42.1453 111.903 41.7103 111.783 41.2603C111.603 40.6003 111.423 39.9403 111.213 39.2953C111.138 39.0853 111.063 38.8903 110.988 38.6803L120.288 43.7353C120.408 44.0653 120.543 44.3953 120.663 44.7403V44.7253ZM117.513 37.4203C117.708 37.7953 117.933 38.1703 118.113 38.5603C118.593 39.5353 119.043 40.5253 119.463 41.5303C119.628 41.9203 119.763 42.3253 119.913 42.7303V42.7753L110.643 37.7203C110.448 37.1803 110.268 36.6253 110.058 36.1003C109.878 35.6503 109.668 35.2153 109.473 34.7653C109.218 34.1803 108.978 33.5803 108.693 33.0103C108.288 32.1703 107.853 31.3603 107.388 30.5503L116.448 35.4853C116.823 36.1153 117.168 36.7753 117.513 37.4353V37.4203ZM111.153 28.2253C111.333 28.4353 111.513 28.6303 111.693 28.8403C112.008 29.2003 112.308 29.5603 112.608 29.9353C112.968 30.3853 113.313 30.8503 113.658 31.3153C113.943 31.6903 114.213 32.0653 114.483 32.4553C114.828 32.9503 115.158 33.4603 115.488 33.9853C115.548 34.0753 115.608 34.1653 115.668 34.2703L106.728 29.4103C106.323 28.7203 105.903 28.0603 105.468 27.4003C105.363 27.2353 105.243 27.0853 105.138 26.9203C104.808 26.4403 104.478 25.9453 104.133 25.4803C103.998 25.3003 103.863 25.1203 103.713 24.9403C103.383 24.5053 103.068 24.0853 102.723 23.6653L111.123 28.2253H111.153ZM110.148 26.8603H110.133C110.133 26.8603 110.013 26.7253 109.953 26.6653C110.013 26.7403 110.088 26.8003 110.148 26.8603ZM103.683 21.3103C103.683 21.3103 103.758 21.3703 103.803 21.4003C103.743 21.3553 103.698 21.3253 103.638 21.2953L103.683 21.3253V21.3103ZM104.718 22.3003C104.808 22.3753 104.913 22.4353 105.003 22.5103C105.378 22.7953 105.753 23.0953 106.113 23.3953C106.533 23.7403 106.953 24.1003 107.358 24.4603C107.718 24.7753 108.078 25.1053 108.423 25.4353C108.813 25.8103 109.203 26.1853 109.593 26.5753L101.448 22.1503C101.448 22.1503 101.313 22.0003 101.253 21.9253C101.088 21.7453 100.908 21.5653 100.743 21.3703C100.398 20.9953 100.053 20.6203 99.6933 20.2603C99.4983 20.0653 99.3033 19.8853 99.1233 19.7053C98.7783 19.3603 98.4183 19.0303 98.0583 18.7003L98.0283 18.6703L104.733 22.3153L104.718 22.3003ZM101.613 22.6153H101.583C101.343 22.3153 101.103 22.0303 100.863 21.7603C101.028 21.9403 101.178 22.1053 101.343 22.2853C101.433 22.3903 101.523 22.5103 101.628 22.6153H101.613ZM97.2333 18.2353C97.3683 18.3553 97.5033 18.4753 97.6383 18.5953C97.4883 18.4603 97.3233 18.3253 97.1733 18.1903L97.2333 18.2203V18.2353ZM84.4533 10.6903C84.6183 10.7503 84.7683 10.8253 84.9333 10.8853H84.9633C84.7833 10.8253 84.6033 10.7503 84.4233 10.6753H84.4533V10.6903ZM83.6433 10.7953C83.9283 10.9003 84.1983 11.0053 84.4833 11.1103C85.3533 11.4553 86.2083 11.8303 87.0483 12.2203C87.0783 12.2353 87.1233 12.2503 87.1533 12.2653L91.0683 14.4103C91.2633 14.5303 91.4583 14.6653 91.6533 14.7853C91.5633 14.7553 91.4883 14.7403 91.3983 14.7103C90.7383 14.5153 90.0633 14.3203 89.3883 14.1553L82.3833 10.3453C82.7883 10.4803 83.2083 10.6153 83.6133 10.7803L83.6433 10.7953ZM89.9883 14.7103H89.9583C89.7483 14.6503 89.5233 14.5903 89.2983 14.5453C89.5233 14.6053 89.7483 14.6503 89.9883 14.7103ZM87.8133 14.1853C87.7083 14.1553 87.5883 14.1253 87.4833 14.1103C87.6033 14.1403 87.7083 14.1703 87.8133 14.1853ZM80.7183 9.41531C80.8083 9.44531 80.9133 9.47531 81.0033 9.49031H81.0483C80.9133 9.46031 80.7633 9.43031 80.6283 9.38531C80.6283 9.38531 80.6883 9.38531 80.7033 9.40031L80.7183 9.41531ZM77.5533 8.62031C77.8833 8.69531 78.2283 8.75531 78.5583 8.84531H78.5733C78.2283 8.77031 77.8833 8.69531 77.5383 8.62031H77.5533ZM72.1083 8.18531C72.8433 8.24531 73.5783 8.33531 74.2983 8.42531C74.5683 8.45531 74.8383 8.50031 75.1083 8.53031C76.0683 8.68031 77.0283 8.86031 77.9883 9.07031C78.0933 9.10031 78.1983 9.13031 78.3033 9.14531C78.5283 9.20531 78.7683 9.26531 78.9933 9.32531L86.8233 13.5853C86.6133 13.5403 86.4033 13.5103 86.2083 13.4653C86.0883 13.4503 85.9833 13.4353 85.8633 13.4203C85.0983 13.3003 84.3183 13.1953 83.5383 13.1053C83.3433 13.0903 83.1633 13.0603 82.9683 13.0453C82.1583 12.9703 81.3483 12.8953 80.5233 12.8653L71.8383 8.12531C71.9283 8.12531 72.0033 8.12531 72.0933 8.14031L72.1083 8.18531ZM63.2733 8.24531C63.7533 8.20031 64.2333 8.14031 64.6983 8.11031C65.4033 8.06531 66.0933 8.05031 66.7833 8.03531C67.2483 8.03531 67.7133 7.99031 68.1783 7.99031C68.3433 7.99031 68.5233 7.99031 68.6883 7.99031C69.1833 7.99031 69.6633 8.02031 70.1583 8.05031L78.9333 12.8203C78.7383 12.8203 78.5433 12.8203 78.3333 12.8203C78.1683 12.8203 77.9883 12.8353 77.8233 12.8353C77.1183 12.8353 76.3983 12.8803 75.6933 12.9103C75.3033 12.9253 74.8983 12.9403 74.5083 12.9703C73.5183 13.0453 72.5133 13.1503 71.4933 13.2853C71.3883 13.2853 71.2683 13.3003 71.1633 13.3153L62.0433 8.35031C62.4483 8.30531 62.8533 8.26031 63.2583 8.21531L63.2733 8.24531ZM53.1333 10.1953C53.4033 10.1203 53.6733 10.0153 53.9433 9.94031C55.0833 9.62531 56.2233 9.34031 57.3783 9.10031C57.6633 9.04031 57.9633 8.99531 58.2633 8.95031C59.1183 8.78531 59.9733 8.62031 60.8433 8.50031L70.0533 13.5103C69.6933 13.5703 69.3483 13.6453 68.9883 13.7053C68.4333 13.8103 67.8633 13.9003 67.3083 14.0203C66.6933 14.1553 66.0783 14.3203 65.4633 14.4703C64.9233 14.6053 64.3833 14.7253 63.8433 14.8753C63.2133 15.0553 62.5983 15.2653 61.9833 15.4603C61.9383 15.4753 61.8933 15.4903 61.8483 15.5053L52.4733 10.4053C52.6833 10.3453 52.9083 10.2703 53.1183 10.2103L53.1333 10.1953ZM44.0133 13.7803C44.6433 13.4653 45.2883 13.1803 45.9183 12.8953C46.3683 12.6853 46.8033 12.4753 47.2533 12.2803C47.9283 11.9953 48.6183 11.7403 49.3083 11.4853C49.7283 11.3203 50.1483 11.1553 50.5683 11.0053C50.9133 10.8853 51.2733 10.7953 51.6183 10.6753L60.9933 15.7753C60.8133 15.8353 60.6483 15.8953 60.4683 15.9553C59.8233 16.1803 59.1933 16.4353 58.5633 16.6903C58.0833 16.8853 57.6033 17.0503 57.1383 17.2453C56.4633 17.5303 55.7883 17.8603 55.1283 18.1753C54.7083 18.3703 54.2883 18.5503 53.8833 18.7603C53.5683 18.9103 53.2683 19.0903 52.9683 19.2553L43.4583 14.0803C43.6533 13.9903 43.8333 13.8703 44.0133 13.7803ZM36.5283 18.2953C36.9333 18.0103 37.3233 17.7103 37.7283 17.4403C38.3283 17.0353 38.9283 16.6753 39.5433 16.3003C39.9783 16.0303 40.3983 15.7453 40.8483 15.4903C41.4483 15.1453 42.0633 14.8303 42.6783 14.5003L42.8283 14.4253L52.3383 19.6003C52.0683 19.7503 51.7833 19.9003 51.5133 20.0503C51.2433 20.2003 50.9733 20.3353 50.7033 20.5003C49.6533 21.1153 48.6033 21.7753 47.5683 22.4653C47.4483 22.5403 47.3433 22.6303 47.2233 22.7203C46.3383 23.3203 45.4533 23.9503 44.5833 24.6103L41.1333 22.7353L35.0283 19.4203C35.5383 19.0453 36.0483 18.6853 36.5583 18.3253L36.5283 18.2953ZM28.8783 24.5653C29.1783 24.2803 29.4933 24.0103 29.8083 23.7253C30.4233 23.1703 31.0233 22.6003 31.6533 22.0603C31.9833 21.7753 32.3433 21.5053 32.6883 21.2203C33.2883 20.7253 33.8883 20.2303 34.5183 19.7503L38.1033 21.7003L44.1033 24.9553C43.5933 25.3453 43.1133 25.7653 42.6033 26.1703C42.2133 26.4853 41.8233 26.8003 41.4333 27.1153C40.8633 27.5953 40.3233 28.1053 39.7833 28.6153C39.4083 28.9603 39.0183 29.2903 38.6433 29.6503C38.1033 30.1753 37.5783 30.7153 37.0533 31.2553L37.0233 31.2853L27.4083 26.0503C27.8883 25.5553 28.3683 25.0453 28.8783 24.5653ZM21.4983 32.9353C21.9483 32.3203 22.4283 31.7353 22.9083 31.1503C23.2083 30.7753 23.4933 30.3853 23.8083 30.0103C24.6033 29.0503 25.4283 28.1203 26.2683 27.2203C26.4483 27.0403 26.6283 26.8603 26.8083 26.6803C26.8833 26.5903 26.9733 26.5153 27.0633 26.4253L36.6783 31.6603C36.4533 31.8853 36.2283 32.1103 36.0183 32.3353C35.4633 32.9353 34.9233 33.5653 34.3833 34.1953C34.1883 34.4203 33.9783 34.6453 33.7833 34.8703C33.7533 34.8703 33.7233 34.8703 33.6783 34.9003C33.6033 34.9303 33.5133 34.9753 33.4383 35.0203C33.2883 35.0803 33.1383 35.1403 32.9733 35.2453C32.8533 35.6053 32.7483 35.9653 32.6283 36.3253C32.1483 36.9253 31.6683 37.5253 31.2033 38.1403C31.0683 38.3203 30.9483 38.5153 30.8133 38.6953C30.7233 38.8153 30.6483 38.9353 30.5583 39.0553L20.9133 33.8053C21.1083 33.5353 21.3033 33.2353 21.4983 32.9653V32.9353ZM16.4883 40.8103C16.7733 40.2853 17.0583 39.7303 17.3583 39.2203C17.6883 38.6503 18.0483 38.0953 18.3933 37.5403C18.7083 37.0303 19.0233 36.5053 19.3383 36.0103C19.7133 35.4403 20.1033 34.9003 20.4933 34.3453C20.5533 34.2703 20.5983 34.1953 20.6433 34.1203L30.2883 39.3703C29.8533 39.9853 29.4183 40.5853 28.9983 41.2153C28.7433 41.6053 28.5183 41.9953 28.2633 42.3853C27.8283 43.0753 27.3933 43.7503 26.9883 44.4553C26.7183 44.9053 26.4783 45.3853 26.2233 45.8353C25.8783 46.4653 25.5183 47.0953 25.1883 47.7403L22.3983 46.2253L15.5583 42.5053C15.8583 41.9353 16.1733 41.3803 16.4733 40.8253L16.4883 40.8103ZM11.7033 51.7153C11.9283 51.0403 12.1383 50.3653 12.3933 49.6903C12.5733 49.1953 12.7983 48.7003 12.9933 48.2203C13.2633 47.5453 13.5183 46.8553 13.8183 46.1953C14.0283 45.7303 14.2533 45.2803 14.4783 44.8153C14.7783 44.1553 15.0783 43.4953 15.4083 42.8503L18.1983 44.3653L25.0533 48.1003C24.6783 48.8203 24.3483 49.5553 24.0183 50.2903C23.8383 50.6953 23.6283 51.0853 23.4483 51.4753C23.0883 52.3003 22.7583 53.1253 22.4283 53.9653C22.2933 54.3103 22.1283 54.6553 22.0083 55.0153C21.7533 55.7053 21.5283 56.4103 21.2883 57.1153L11.6583 51.8803L11.7033 51.7303V51.7153ZM9.33328 61.0303C9.40828 60.5653 9.49828 60.1153 9.58828 59.6503C9.76828 58.7053 9.96328 57.7753 10.1883 56.8453C10.3083 56.3503 10.4583 55.8553 10.5933 55.3603C10.7883 54.6553 10.9533 53.9503 11.1783 53.2603C11.2683 52.9453 11.4033 52.6303 11.4933 52.3153L21.1233 57.5503C21.0033 57.8953 20.8833 58.2403 20.7633 58.5853C20.7183 58.7203 20.6883 58.8553 20.6583 58.9903C20.3433 60.0553 20.0283 61.1203 19.7733 62.2003C19.6683 62.6503 19.5783 63.1153 19.4733 63.5803C19.3083 64.3453 19.1283 65.0953 18.9933 65.8753C18.9333 66.1753 18.9033 66.4903 18.8433 66.7903L9.24328 61.5703C9.27328 61.3903 9.28828 61.2103 9.31828 61.0303H9.33328ZM8.47828 69.2053C8.49328 68.7553 8.49328 68.3053 8.52328 67.8553C8.56828 67.0303 8.65828 66.2053 8.74828 65.3803C8.79328 64.9753 8.80828 64.5553 8.86828 64.1503C8.95828 63.4753 9.07828 62.8003 9.18328 62.1103L18.7833 67.3303V67.4503C18.6483 68.1553 18.5283 68.8603 18.4383 69.5803C18.3633 70.1353 18.3333 70.6903 18.2883 71.2453C18.2283 71.9353 18.1383 72.6253 18.0933 73.3303C18.0633 73.9003 18.0483 74.4703 18.0333 75.0403C18.0183 75.6103 17.9733 76.1653 17.9733 76.7353L8.37328 71.5003C8.37328 70.7203 8.41828 69.9553 8.44828 69.1753L8.47828 69.2053ZM9.46828 82.8553C9.31828 82.0753 9.15328 81.3103 9.03328 80.5153C8.94328 79.8853 8.88328 79.2253 8.82328 78.5803C8.73328 77.8003 8.62828 77.0203 8.56828 76.2253C8.52328 75.5653 8.52328 74.8753 8.49328 74.2003C8.46328 73.5253 8.43328 72.8653 8.43328 72.1753L13.0233 74.6803L17.9583 77.3653C17.9583 78.8503 18.0033 80.3203 18.1083 81.7753C18.1083 81.9553 18.1533 82.1203 18.1683 82.3003C18.2733 83.5753 18.3933 84.8503 18.5733 86.0803C18.6483 86.5753 18.7533 87.0403 18.8433 87.5203C18.8883 87.7753 18.9333 88.0303 18.9783 88.2853L9.52828 83.1403C9.51328 83.0353 9.48328 82.9453 9.46828 82.8403V82.8553ZM12.2883 92.4703C12.1083 92.0203 11.9583 91.5553 11.7933 91.1053C11.4783 90.2953 11.1633 89.4853 10.8933 88.6453C10.7283 88.1203 10.5933 87.5653 10.4433 87.0103C10.2183 86.2303 9.99328 85.4503 9.79828 84.6553C9.73828 84.4303 9.70828 84.1903 9.66328 83.9503L19.0983 89.0803C19.1733 89.4703 19.2333 89.8603 19.3233 90.2503C19.4433 90.7903 19.6083 91.3153 19.7433 91.8553C19.9533 92.6653 20.1483 93.4753 20.4033 94.2703C20.5833 94.8253 20.7933 95.3503 20.9733 95.9053C21.2283 96.6553 21.4833 97.4053 21.7833 98.1253C21.8583 98.3053 21.9333 98.4703 22.0083 98.6503L12.8283 93.6553C12.6483 93.2503 12.4383 92.8753 12.2733 92.4703H12.2883ZM18.0333 103.24L18.0033 103.21L18.0333 103.24ZM13.9983 96.1453C13.8483 95.8603 13.7283 95.5453 13.5783 95.2453C13.4883 95.0653 13.4133 94.8853 13.3383 94.7203L22.5033 99.7153L22.5333 99.7603C22.8483 100.45 23.1483 101.155 23.4933 101.83C23.7633 102.37 24.0783 102.895 24.3783 103.42C24.7383 104.065 25.0983 104.725 25.4883 105.355C25.8183 105.88 26.1783 106.39 26.5233 106.915C26.7033 107.185 26.8833 107.47 27.0783 107.74L18.3183 102.97C16.6833 100.795 15.2433 98.5303 13.9983 96.1303V96.1453ZM25.7133 110.725C25.4133 110.47 25.0983 110.23 24.7983 109.975C24.6033 109.81 24.4233 109.63 24.2433 109.465C23.7933 109.06 23.3433 108.64 22.8933 108.205C22.6383 107.95 22.3983 107.695 22.1433 107.44C21.7833 107.065 21.4233 106.69 21.0633 106.3C20.8233 106.03 20.5833 105.76 20.3433 105.475C20.0583 105.145 19.7883 104.815 19.5033 104.47L28.0383 109.12C28.6983 109.975 29.3733 110.815 30.0633 111.61C30.2583 111.835 30.4683 112.06 30.6783 112.285C31.1883 112.855 31.7133 113.41 32.2383 113.95C32.4933 114.205 32.7633 114.445 33.0183 114.7L33.0633 114.745L25.7133 110.755V110.725ZM49.6083 123.805C49.2933 123.7 48.9783 123.595 48.6633 123.475C47.7633 123.16 46.8933 122.815 46.0233 122.44C45.7983 122.35 45.5733 122.26 45.3483 122.155C44.6883 121.855 44.0583 121.51 43.4133 121.18L41.3583 120.07C40.8933 119.8 40.4433 119.5 39.9933 119.215C40.2333 119.29 40.4733 119.365 40.7133 119.44C41.7633 119.74 42.8133 120.01 43.8933 120.25L51.4083 124.345C50.8083 124.18 50.1933 124.015 49.6083 123.82V123.805ZM56.4033 124.585L46.8333 119.38C46.8333 119.38 46.8783 119.35 46.9083 119.335L51.7233 121.945L56.4933 124.54C56.4933 124.54 56.4483 124.57 56.4183 124.585H56.4033ZM56.8983 124.135C56.8983 124.135 56.8683 124.18 56.8533 124.21L47.2083 118.96V118.93C47.2983 118.825 47.3883 118.72 47.4633 118.6L57.0783 123.835C57.0183 123.94 56.9733 124.045 56.8983 124.135ZM57.3633 123.325C57.3483 123.4 57.2883 123.445 57.2733 123.505L47.6433 118.27C47.6433 118.27 47.7033 118.15 47.7333 118.09C47.7333 118.075 47.7483 118.06 47.7483 118.045C47.7633 118 47.7783 117.955 47.7933 117.895L57.4083 123.13C57.4083 123.13 57.3933 123.265 57.3633 123.325ZM57.5433 122.455C57.5433 122.455 57.5133 122.575 57.4983 122.65L47.9133 117.43C47.9283 117.34 47.9433 117.25 47.9583 117.145L57.5583 122.365C57.5583 122.365 57.5583 122.425 57.5583 122.44L57.5433 122.455ZM53.1933 112.645C53.1933 112.645 53.0733 112.675 52.9983 112.675L47.9583 109.93V109.795L53.1933 112.645ZM47.9583 109.06V108.97L54.3483 112.45C54.3483 112.45 54.2583 112.465 54.2133 112.48L47.9583 109.075V109.06ZM51.2433 112.84C51.1383 112.84 51.0333 112.855 50.9283 112.87L47.9733 111.265V111.07L51.2433 112.855V112.84ZM49.5633 112.915C49.5633 112.915 49.4133 112.915 49.3533 112.915L47.9733 112.165V112.045L49.5633 112.915ZM48.0633 113.455C48.0633 113.455 48.1983 113.455 48.2583 113.455L57.5283 118.495V119.05C57.5283 119.35 57.5283 119.62 57.5283 119.875L47.9733 114.685C47.9733 114.325 47.9733 113.905 47.9733 113.455C48.0033 113.455 48.0333 113.455 48.0483 113.455H48.0633ZM49.5933 113.455C49.9083 113.455 50.2233 113.455 50.5233 113.425C50.6583 113.425 50.7783 113.395 50.9133 113.395C51.3183 113.365 51.7083 113.35 52.1133 113.305L57.5133 116.245C57.5133 116.755 57.5133 117.265 57.5133 117.775L49.5783 113.455H49.5933ZM53.2683 113.155H53.3433C53.5533 113.11 53.7783 113.08 53.9883 113.035C54.0933 113.02 54.1833 112.99 54.2883 112.975C54.5733 112.915 54.8433 112.87 55.0983 112.81H55.1283L57.5283 114.115C57.5283 114.565 57.5283 115.015 57.5283 115.465L53.2833 113.155H53.2683ZM56.1783 112.51C56.1783 112.51 56.2833 112.48 56.3283 112.465L57.4683 112.105L57.5283 112.135C57.5283 112.495 57.5283 112.87 57.5283 113.245L56.1933 112.51H56.1783ZM56.2833 111.925L47.9733 107.41C47.9733 107.26 47.9733 107.11 47.9733 106.96L53.8533 110.155L56.8083 111.76L56.2833 111.925ZM48.0033 115.99C48.0033 115.81 48.0033 115.6 48.0033 115.345L57.5583 120.535C57.5583 120.775 57.5583 120.985 57.5583 121.18L48.0033 115.99ZM57.5583 111.52L57.0483 111.685L47.9583 106.75C47.9583 106.6 47.9583 106.45 47.9583 106.3L57.5583 111.52ZM30.1233 101.845L29.8683 101.26L39.0933 106.285L39.3483 106.87L30.1083 101.845H30.1233ZM39.1533 107.515C39.1533 107.515 39.1083 107.515 39.0933 107.515C38.8383 107.515 38.5683 107.515 38.2983 107.515L30.8283 103.45C30.7233 103.255 30.6333 103.045 30.5283 102.835L39.1533 107.515ZM39.0033 104.875C38.9433 104.77 38.8833 104.665 38.8083 104.545C38.6433 104.275 38.4633 103.99 38.2683 103.72C38.1783 103.6 38.1033 103.48 38.0283 103.36C37.9083 103.195 37.7733 103.03 37.6533 102.88C37.5633 102.76 37.4733 102.64 37.3683 102.52C37.2633 102.385 37.1583 102.265 37.0533 102.145C36.9333 102.01 36.8133 101.875 36.6933 101.74C36.6183 101.665 36.5583 101.605 36.4833 101.53C36.4383 101.485 36.4083 101.455 36.3633 101.41C36.2433 101.29 36.1083 101.185 35.9883 101.08C35.9133 101.02 35.8383 100.96 35.7633 100.9C35.7183 100.87 35.6733 100.825 35.6283 100.795C35.5383 100.735 35.4483 100.675 35.3583 100.615C35.3133 100.585 35.2683 100.555 35.2383 100.54C35.1933 100.51 35.1333 100.465 35.0883 100.435C35.0733 100.435 35.0583 100.42 35.0433 100.405L33.7833 99.7153C33.7833 99.7153 33.6633 99.6103 33.6033 99.5653C33.4983 99.4903 33.4083 99.4153 33.3183 99.3253C33.2283 99.2503 33.1383 99.1903 33.0483 99.1003C33.0483 99.1003 33.0333 99.1003 33.0183 99.0703C32.9283 98.9653 32.8533 98.8753 32.7783 98.7703C32.7033 98.6803 32.6433 98.5753 32.5833 98.4853C32.5383 98.3803 32.4783 98.2903 32.4333 98.2003C32.4333 98.2003 32.4033 98.0653 32.4033 97.9903V97.9603C32.4033 97.9603 32.4333 97.8703 32.4483 97.8253C32.4783 97.7803 32.5083 97.7353 32.5683 97.6753C32.6133 97.6303 32.6433 97.5853 32.7183 97.5403C32.7633 97.4953 32.8383 97.4653 32.9133 97.4353L32.9583 97.4053C32.9583 97.4053 33.0933 97.3453 33.1533 97.3153H33.1983C33.2883 97.4203 33.3783 97.5103 33.4683 97.6303C33.5883 97.7803 33.7083 97.9303 33.8283 98.0653C34.1283 98.4103 34.4433 98.7103 34.7583 98.9953C35.1333 99.3253 35.5383 99.6253 35.9433 99.8803C36.0183 99.9253 36.0933 99.9853 36.1683 100.03C36.1683 100.03 36.2433 100.075 36.2883 100.09L44.5533 104.59L46.4283 105.61L46.5483 105.67C46.7433 105.775 46.9383 105.85 47.1333 105.94C47.2383 105.985 47.3283 106.045 47.4333 106.075L46.0083 106.54C45.7983 106.615 45.5583 106.69 45.3183 106.75C45.2433 106.78 45.1383 106.795 45.0633 106.81C44.8083 106.87 44.5383 106.945 44.2533 107.005C44.1633 107.02 44.0733 107.035 43.9683 107.065C43.6683 107.125 43.3533 107.17 43.0383 107.23C42.9783 107.23 42.9333 107.245 42.8733 107.26C42.8283 107.26 42.7833 107.275 42.7233 107.29H42.7083C42.7083 107.29 42.6033 107.305 42.5583 107.305H42.3933C42.3933 107.305 42.2883 107.335 42.2283 107.35C42.1233 107.35 42.0033 107.35 41.8833 107.38C41.5983 107.41 41.2833 107.425 40.9983 107.455C40.9083 107.455 40.8033 107.47 40.7133 107.47C40.5483 107.47 40.3983 107.5 40.2483 107.5L39.5883 105.97C39.4383 105.625 39.2433 105.25 39.0333 104.875H39.0033ZM47.4483 110.965L41.8533 107.92C41.9583 107.92 42.0783 107.92 42.1683 107.89L47.4483 110.755V110.965ZM43.7883 107.65C43.7883 107.65 43.9083 107.62 43.9833 107.62L47.4483 109.51V109.645L43.7883 107.65ZM47.4483 108.76L44.9583 107.41L45.0783 107.38L47.4483 108.67V108.76ZM46.8933 106.825L47.4183 106.66H47.4333C47.4333 106.81 47.4333 106.975 47.4333 107.125L46.8783 106.825H46.8933ZM40.5933 108.025L47.4633 111.76V111.88L40.4583 108.07V108.04C40.4583 108.04 40.5483 108.04 40.5933 108.04V108.025ZM51.1083 106.015H51.0483L43.1283 101.71C43.0533 101.575 42.9633 101.47 42.8883 101.335L51.3933 105.97C51.2883 105.985 51.2133 106 51.1083 106.015ZM52.7283 105.73C52.6383 105.745 52.5483 105.76 52.4583 105.775L43.1883 100.735C43.2933 100.705 43.3833 100.675 43.4883 100.645L52.8033 105.715H52.7133L52.7283 105.73ZM53.7333 105.49L44.3733 100.405C44.4783 100.375 44.5833 100.345 44.6883 100.315L54.0633 105.415C53.9583 105.445 53.8383 105.475 53.7333 105.505V105.49ZM54.9033 105.13L45.4533 99.9853C45.5583 99.9403 45.6633 99.8953 45.7533 99.8503L55.2183 104.995C55.1133 105.04 55.0083 105.085 54.9033 105.13ZM56.2083 104.575C56.1183 104.62 56.0133 104.65 55.9083 104.695L46.4283 99.5353C46.4283 99.5353 46.4883 99.5053 46.5183 99.4753C46.6233 99.4153 46.7283 99.3553 46.8483 99.2803L56.3733 104.47C56.3733 104.47 56.2683 104.53 56.2083 104.56V104.575ZM56.8983 104.2L47.3283 98.9953C47.5083 98.8753 47.7033 98.7703 47.8833 98.6503L57.4983 103.885C57.3033 104.005 57.1083 104.095 56.8983 104.2ZM57.7383 103.51L48.1383 98.2903C48.2583 97.4053 48.4383 96.5803 48.6633 95.7853L58.2933 101.02C58.0533 101.815 57.8583 102.625 57.7383 103.51ZM58.4733 100.51L48.8433 95.2753C48.9333 94.9903 49.0233 94.6903 49.1283 94.4053C49.4433 94.5253 49.7433 94.6453 50.0583 94.7503C50.5083 94.9153 50.9583 95.0653 51.4083 95.1853C51.6783 95.2603 51.9483 95.3353 52.2183 95.3953C52.7283 95.5303 53.2383 95.6353 53.7483 95.7253C53.9433 95.7553 54.1383 95.8003 54.3333 95.8303C54.4233 95.8303 54.5133 95.8453 54.6033 95.8603L59.3433 98.4403C59.0133 99.0853 58.7283 99.7753 58.4883 100.51H58.4733ZM50.3133 92.0803C50.3133 92.0803 50.3883 91.9753 50.4333 91.9153L57.0933 95.5303C57.0933 95.5303 56.9883 95.5303 56.9283 95.5303C56.8233 95.5303 56.7183 95.5303 56.6133 95.5153L50.3133 92.0953V92.0803ZM60.7383 96.2203C60.3183 96.7303 59.9433 97.3003 59.6133 97.8853L56.2083 96.0253C56.2083 96.0253 56.3433 96.0253 56.4183 96.0253C57.0033 96.0703 57.6033 96.1003 58.2183 96.1303C58.3683 96.1303 58.5033 96.1303 58.6533 96.1303C59.2983 96.1453 59.9583 96.1453 60.6483 96.1303L60.7383 96.1903V96.2203ZM51.3033 90.7453L60.2583 95.6203C60.1833 95.6203 60.1083 95.6203 60.0333 95.6203L51.2433 90.8353C51.2433 90.8353 51.2883 90.7753 51.3033 90.7453ZM51.1233 90.9853L59.6283 95.6053C59.4333 95.6053 59.2233 95.6053 59.0433 95.6053H58.9683L50.9433 91.2403C51.0033 91.1653 51.0633 91.0603 51.1383 90.9853H51.1233ZM50.7033 91.5403L58.1283 95.5753C58.1283 95.5753 58.0083 95.5753 57.9483 95.5753L50.6583 91.6153L50.7033 91.5553V91.5403ZM50.6283 90.7603C50.6283 90.7603 50.5233 90.9103 50.4633 90.9853L50.0583 90.7603C50.2533 90.7603 50.4333 90.7603 50.6133 90.7603H50.6283ZM49.2933 90.7603L50.2533 91.2853L50.2083 91.3453L49.1283 90.7603C49.1283 90.7603 49.2333 90.7603 49.2933 90.7603ZM48.0033 90.7303C48.1083 90.7303 48.2133 90.7303 48.3183 90.7303L49.9833 91.6453C49.9833 91.6453 49.9083 91.7503 49.8633 91.8103L47.8683 90.7303C47.8683 90.7303 47.9433 90.7303 47.9883 90.7303H48.0033ZM42.6483 91.0753L43.3533 91.4653L45.1833 92.4553L45.7233 92.7553L46.6833 93.2803C47.0583 93.4903 47.4483 93.6703 47.8383 93.8503C48.0933 93.9703 48.3333 94.0603 48.5883 94.1653L48.6483 94.1953C48.5283 94.5103 48.4383 94.8403 48.3333 95.1703C48.2883 95.2903 48.2583 95.4103 48.2133 95.5303C47.9583 96.4003 47.7483 97.3153 47.6133 98.2903C47.3583 98.4403 47.1033 98.5753 46.8333 98.7253C46.7883 98.7553 46.7283 98.7853 46.6833 98.8153C46.4133 98.9653 46.1433 99.1003 45.8733 99.2203C45.8133 99.2503 45.7533 99.2653 45.6933 99.2953C45.4233 99.4153 45.1533 99.5353 44.8683 99.6403C44.7933 99.6703 44.7183 99.7003 44.6433 99.7303C44.5683 99.7603 44.4633 99.7753 44.3883 99.8053C44.1783 99.8803 43.9383 99.9403 43.7133 100C43.6383 100.015 43.5783 100.045 43.5033 100.06C43.1733 100.15 42.8283 100.24 42.4533 100.33C42.3783 100.345 42.3033 100.36 42.2283 100.375C42.1233 100.24 42.0183 100.12 41.8983 99.9853C41.7633 99.8353 41.6433 99.6853 41.5083 99.5353C41.2683 99.2953 41.0283 99.0703 40.7733 98.8603C40.3683 98.5153 39.9483 98.2003 39.4983 97.9453C39.3633 97.8703 39.2283 97.7953 39.0933 97.7203L39.0483 97.6903L38.2233 97.2403L37.0533 96.6103L36.3183 96.2053L30.7833 93.1903C30.2433 92.9053 29.7333 92.6203 29.2383 92.3503L28.7883 92.1103C28.6833 92.0503 28.5933 92.0053 28.4883 91.9603C28.3683 91.9003 28.2333 91.8403 28.1133 91.7803C28.0533 91.7503 27.9933 91.7203 27.9333 91.6903C27.8133 91.6303 27.6933 91.6003 27.5733 91.5403C27.4683 91.4953 27.3483 91.4503 27.2433 91.4053C27.0783 91.3453 26.9133 91.3003 26.7633 91.2553H26.7183C26.6283 91.2253 26.5383 91.1803 26.4633 91.1653C26.2233 91.1053 25.9833 91.0603 25.7583 91.0453L24.3483 91.0153C24.1233 91.0453 23.9283 91.0753 23.7333 91.1203C23.6283 91.1353 23.5383 91.1653 23.4483 91.1803C23.2833 91.2253 23.1333 91.2553 22.9983 91.3003C22.9083 91.3303 22.8333 91.3603 22.7583 91.3903C22.5633 91.4653 22.3983 91.5553 22.2783 91.6453C22.1583 91.7353 22.0683 91.8403 21.9933 91.9303C21.9033 92.0503 21.8433 92.1553 21.8283 92.2603C21.8133 92.3353 21.8133 92.3953 21.8133 92.4553C21.8133 92.5603 21.8133 92.6353 21.8433 92.7103C21.8433 92.7253 21.8433 92.7553 21.8583 92.7703C21.9033 92.8753 21.9783 92.9803 22.0383 93.0853C22.0983 93.1753 22.1583 93.2803 22.2183 93.3703C22.2183 93.3853 22.2483 93.4003 22.2483 93.4153L22.2783 93.4453C22.3533 93.5503 22.4283 93.6403 22.5033 93.7453C22.5333 93.7753 22.5633 93.8053 22.5933 93.8353C22.6683 93.9103 22.7283 93.9703 22.8033 94.0453C22.8783 94.1053 22.9383 94.1803 23.0133 94.2253C23.0433 94.2553 23.0883 94.2703 23.1183 94.3003C23.2233 94.3753 23.3283 94.4653 23.4333 94.5253L23.9433 94.8403L25.1883 95.5153C25.1883 95.5153 25.2783 95.5753 25.3233 95.6053C25.3983 95.6653 25.4733 95.7253 25.5333 95.7853C25.6833 95.9203 25.8483 96.0553 25.9983 96.2203C26.0583 96.2803 26.1333 96.3553 26.1933 96.4153C26.4183 96.6403 26.6283 96.8803 26.8533 97.1653C26.9433 97.2853 27.0183 97.3903 27.1083 97.5103C27.3333 97.7953 27.5433 98.0803 27.7383 98.3653C27.8133 98.4703 27.8883 98.5753 27.9633 98.6953C28.1433 98.9653 28.3083 99.2353 28.4583 99.5053C28.5183 99.6103 28.5783 99.7003 28.6233 99.8053C28.7583 100.06 28.8933 100.315 28.9983 100.57L29.6733 102.145C29.8683 102.745 30.1383 103.27 30.4233 103.78C30.4983 103.9 30.5733 104.02 30.6483 104.14C30.8883 104.5 31.1583 104.845 31.4433 105.16C31.6233 105.355 31.8183 105.535 32.0133 105.715C32.2383 105.91 32.4633 106.105 32.7183 106.285C32.9733 106.465 33.2283 106.615 33.4833 106.75L34.9833 107.56C36.5133 108.4 38.1933 109.3 39.8283 110.2L42.9633 111.895L43.3383 112.09L43.7583 112.315C43.7583 112.315 43.8783 112.375 43.9533 112.405C44.0733 112.465 44.2083 112.525 44.3283 112.585C44.3733 112.615 44.4183 112.63 44.4783 112.66C44.6583 112.735 44.8383 112.81 45.0333 112.885C45.1683 112.93 45.2883 112.975 45.4233 113.02C45.6333 113.08 45.8283 113.14 46.0383 113.185C46.0833 113.185 46.1283 113.2 46.1733 113.215C46.2933 113.245 46.4133 113.275 46.5183 113.29C46.7283 113.335 46.9383 113.35 47.1633 113.38C47.2683 113.38 47.3583 113.41 47.4633 113.41C47.4633 113.965 47.4633 114.43 47.4633 114.85V115.06C47.4633 115.525 47.4633 115.87 47.4633 116.14V116.665C47.4633 116.665 47.4633 116.8 47.4483 116.875C47.4483 117.085 47.4033 117.31 47.3433 117.505C47.3433 117.55 47.3133 117.595 47.2983 117.64C47.1783 118.015 46.9833 118.375 46.7283 118.705C46.6833 118.75 46.6533 118.81 46.6083 118.855C46.5633 118.9 46.4883 118.93 46.4433 118.975C46.3983 119.02 46.3383 119.05 46.2933 119.095C46.2633 119.11 46.2333 119.14 46.2033 119.155C46.0833 119.245 45.9633 119.335 45.8283 119.41C45.7683 119.44 45.6933 119.44 45.6333 119.47C45.4983 119.515 45.3633 119.56 45.2283 119.59C45.1533 119.605 45.0783 119.65 44.9883 119.665H44.9733C44.8833 119.68 44.7783 119.665 44.6883 119.68C44.6883 119.68 44.6283 119.68 44.6133 119.68C44.5383 119.68 44.4483 119.68 44.3733 119.68C44.2533 119.68 44.1483 119.695 44.0283 119.68C42.8283 119.425 41.6433 119.11 40.4883 118.765C40.1283 118.66 39.7683 118.525 39.4083 118.42C38.7783 118.21 38.1633 117.985 37.5333 117.76C37.2933 117.58 37.0383 117.43 36.7983 117.25C36.7683 117.22 36.7383 117.205 36.7083 117.19C35.7933 116.485 34.9233 115.72 34.0533 114.925C33.8883 114.775 33.7233 114.625 33.5733 114.475C32.7483 113.695 31.9533 112.87 31.1733 112.015C31.0233 111.85 30.8883 111.685 30.7383 111.52C29.9433 110.62 29.1633 109.675 28.4133 108.7C28.3383 108.595 28.2783 108.49 28.2033 108.385C26.0883 105.55 24.3333 102.505 22.9083 99.2953C22.8783 99.2203 22.8483 99.1603 22.8033 99.0853C21.3783 95.8303 20.2983 92.3953 19.5783 88.7803C19.5783 88.7203 19.5633 88.6753 19.5483 88.6153C18.8433 85.0453 18.4683 81.3253 18.4533 77.4403C18.4533 77.3653 18.4533 77.2903 18.4533 77.2303C18.4533 77.1553 18.4533 77.0953 18.4533 77.0203C18.4683 73.7053 18.7683 70.4203 19.2933 67.1803C19.2933 67.1353 19.2933 67.1053 19.3083 67.0603C19.8483 63.7903 20.6433 60.5803 21.6933 57.4153V57.3703C22.7283 54.3103 23.9733 51.2803 25.4583 48.3253C25.4883 48.2653 25.5033 48.2053 25.5333 48.1603C25.5633 48.1003 25.5933 48.0553 25.6233 47.9953C27.5283 44.3053 29.7183 40.8553 32.1783 37.6303C31.8933 38.6803 31.6833 39.7003 31.5333 40.6903C31.5333 40.7803 31.5033 40.8553 31.4883 40.9453C31.2483 42.6253 31.2033 44.2153 31.3383 45.7303C31.3383 45.8203 31.3533 45.9103 31.3683 46.0003C31.3983 46.3153 31.4133 46.6303 31.4733 46.9303C31.6533 48.0853 31.9533 49.1803 32.3733 50.2453C31.2183 51.7453 30.2583 53.3203 29.4783 54.9553C29.4183 55.0603 29.3733 55.1803 29.3133 55.2853C28.5633 56.9053 27.9933 58.6003 27.6033 60.3403C27.5883 60.4303 27.5733 60.5053 27.5433 60.5953C27.1833 62.3053 26.9733 64.0603 26.9583 65.8753C26.9583 65.9503 26.9583 66.0103 26.9583 66.0853C26.9583 66.1603 26.9583 66.2203 26.9583 66.2953C26.9583 67.5853 27.0183 68.8153 27.1233 70.0153C27.1233 70.1053 27.1383 70.1953 27.1533 70.2853C27.2583 71.4553 27.4083 72.5653 27.5883 73.6303C27.6033 73.7203 27.6183 73.8253 27.6333 73.9153C27.8133 74.8753 28.0233 75.7903 28.2783 76.6453C28.3083 76.7203 28.3233 76.8103 28.3383 76.9003C28.3683 76.9903 28.3983 77.0653 28.4283 77.1553C28.7133 78.0703 29.0433 78.9103 29.3733 79.7053C29.4183 79.8103 29.4633 79.9153 29.5083 80.0203C29.8383 80.7703 30.1983 81.4753 30.5733 82.1203C30.6483 82.2403 30.7083 82.3603 30.7683 82.4653C31.0533 82.9303 31.3683 83.3653 31.6833 83.7703C31.7733 83.8753 31.8483 84.0103 31.9383 84.1153C32.0583 84.2503 32.1933 84.3853 32.3133 84.5203C32.5383 84.7753 32.7783 85.0303 33.0333 85.2703C33.1533 85.3903 33.2883 85.4953 33.4083 85.6003C33.4533 85.6453 33.5133 85.6903 33.5583 85.7353C33.7833 85.9303 34.0083 86.1253 34.2483 86.3053C34.3083 86.3503 34.3683 86.3953 34.4433 86.4403C34.5333 86.5153 34.6233 86.5753 34.7283 86.6503C34.9533 86.8153 35.1933 86.9653 35.4183 87.1153C35.4783 87.1603 35.5533 87.1903 35.6133 87.2353C35.7783 87.3403 35.9433 87.4303 36.1083 87.5353C36.1983 87.5803 36.2733 87.6403 36.3483 87.6853L37.8483 88.4953C38.4333 88.8103 39.0483 89.1553 39.6783 89.4853C40.6383 90.0103 41.6133 90.5353 42.5733 91.0603L42.6483 91.0753ZM41.4333 50.8153L31.9233 45.6403C31.8033 44.2303 31.8333 42.7453 32.0433 41.2003L41.6433 46.4203C41.4183 47.9503 41.3583 49.4203 41.4333 50.8153ZM27.5433 66.5803L32.1333 69.0703L37.0683 71.7553C37.0683 72.7453 37.0983 73.7053 37.1583 74.6353C37.1583 74.7703 37.1883 74.8903 37.1883 75.0253L27.6933 69.8503C27.6783 69.5953 27.6333 69.3403 27.6183 69.0703C27.6033 68.7253 27.6033 68.3503 27.5883 67.9903C27.5733 67.5253 27.5583 67.0603 27.5433 66.5803ZM40.9083 88.0753C40.9833 88.1953 41.0583 88.3303 41.1333 88.4503L32.4033 83.6953C32.2383 83.5003 32.0883 83.2603 31.9233 83.0503L40.7583 87.8503C40.7583 87.8503 40.8483 87.9853 40.8933 88.0603L40.9083 88.0753ZM40.0083 86.4253C40.0533 86.5153 40.0983 86.6203 40.1433 86.7103L31.0983 81.7903C30.9033 81.4453 30.6933 81.1153 30.4983 80.7403C30.4533 80.6503 30.4083 80.5453 30.3633 80.4403L39.5583 85.4503C39.7083 85.7803 39.8433 86.1103 39.9933 86.4253H40.0083ZM39.1383 84.4303L29.8983 79.4053C29.8233 79.2403 29.7483 79.0903 29.6733 78.9103C29.5683 78.6403 29.4783 78.3553 29.3733 78.0853C29.2983 77.9053 29.2383 77.7103 29.1783 77.5153L38.4933 82.5853C38.6883 83.2303 38.8983 83.8453 39.1233 84.4303H39.1383ZM37.7283 79.3603C37.7583 79.5553 37.8033 79.7503 37.8333 79.9453C37.8933 80.2753 37.9833 80.5753 38.0583 80.8903C38.1183 81.1603 38.1783 81.4453 38.2533 81.7153L32.8083 78.7453L28.8783 76.6003C28.6533 75.8803 28.4583 75.1153 28.2933 74.3203C28.2933 74.2903 28.2933 74.2603 28.2933 74.2303V74.2003L37.7433 79.3453L37.7283 79.3603ZM37.6083 78.5653L28.1433 73.4203C28.0533 72.8803 27.9483 72.3553 27.8733 71.8003C27.8433 71.5303 27.8283 71.2303 27.7983 70.9603C27.7983 70.8403 27.7683 70.7053 27.7683 70.5853L37.2633 75.7603C37.3083 76.3153 37.3533 76.8703 37.4133 77.3953C37.4583 77.7253 37.5183 78.0253 37.5633 78.3403C37.5633 78.4153 37.5933 78.4903 37.6083 78.5803V78.5653ZM37.6683 66.1453C37.5933 66.5203 37.5033 66.8803 37.4433 67.2553C37.3833 67.5853 37.3533 67.9153 37.3083 68.2453C37.2633 68.6053 37.2033 68.9803 37.1733 69.3403C37.1433 69.6853 37.1433 70.0453 37.1133 70.3903C37.1133 70.6303 37.0833 70.8703 37.0833 71.1103L33.5133 69.1603L27.5283 65.9053C27.5283 65.5153 27.5583 65.1253 27.5733 64.7503C27.5733 64.4503 27.5883 64.1653 27.6183 63.8653C27.6483 63.4753 27.7083 63.0853 27.7683 62.6953C27.8133 62.3953 27.8283 62.0953 27.8733 61.8103C27.9333 61.4803 28.0083 61.1653 28.0683 60.8353L37.6683 66.0553V66.1303V66.1453ZM39.1833 61.3003C39.0633 61.5553 38.9733 61.8253 38.8683 62.0953C38.7183 62.4703 38.5683 62.8453 38.4333 63.2353C38.3433 63.5203 38.2683 63.8053 38.1783 64.1053C38.0733 64.4803 37.9533 64.8553 37.8483 65.2303C37.8183 65.3353 37.8033 65.4403 37.7733 65.5303L28.1733 60.3103C28.2183 60.1453 28.2333 59.9803 28.2783 59.8153C28.3683 59.4553 28.4883 59.1103 28.5933 58.7503C28.6833 58.4503 28.7583 58.1353 28.8633 57.8353C28.9833 57.4903 29.1183 57.1603 29.2533 56.8303C29.3733 56.5303 29.4783 56.2153 29.6133 55.9153C29.6733 55.7803 29.7333 55.6603 29.7933 55.5253L39.4383 60.7753C39.3483 60.9553 39.2583 61.1353 39.1833 61.3303V61.3003ZM41.1633 57.6103C41.0583 57.7903 40.9533 57.9703 40.8483 58.1353C40.5933 58.5553 40.3233 58.9903 40.0983 59.4253C39.9783 59.6503 39.8733 59.8903 39.7533 60.1153C39.7233 60.1603 39.7083 60.2203 39.6783 60.2653L30.0333 55.0153L30.0933 54.9103C30.2433 54.6103 30.3783 54.2953 30.5283 53.9953C30.7083 53.6503 30.9183 53.3203 31.1283 52.9753C31.2933 52.7053 31.4283 52.4203 31.6083 52.1503C31.9533 51.6103 32.3133 51.0853 32.7033 50.5603L42.4083 55.8403C41.9733 56.4103 41.5683 56.9953 41.1783 57.5953L41.1633 57.6103ZM42.2283 55.0603L32.9133 49.9903C32.4483 48.8203 32.1483 47.5753 31.9833 46.2703L41.4783 51.4303C41.5983 52.6903 41.8383 53.9053 42.2283 55.0453V55.0603ZM41.7183 45.9403L32.1183 40.7203C32.3283 39.3703 32.6583 37.9753 33.1083 36.5203C33.2883 36.2803 33.4683 36.0403 33.6633 35.8153L43.0083 40.9003C42.4083 42.6553 41.9883 44.3353 41.7183 45.9403ZM48.3483 38.8903C49.2033 38.5303 50.0583 38.1703 50.9283 37.8553C50.0583 38.1703 49.2033 38.5303 48.3483 38.8903ZM61.1133 42.8953C60.0633 43.2703 59.0133 43.6903 57.9783 44.1253L48.5433 38.9953C49.4283 38.6203 50.3283 38.2603 51.2433 37.9453C51.4983 37.8553 51.7533 37.7803 52.0083 37.7053L61.3833 42.8053C61.2933 42.8353 61.2033 42.8653 61.0983 42.8953H61.1133ZM65.6733 41.5303C65.2233 41.6503 64.7583 41.7553 64.3083 41.8753C63.6333 42.0703 62.9733 42.2953 62.3133 42.5053L52.9383 37.4053C52.9383 37.4053 53.0583 37.3753 53.1183 37.3453C53.5533 37.2103 53.9733 37.0603 54.4083 36.9403C54.9933 36.7753 55.5933 36.6403 56.1783 36.5053C56.2533 36.4903 56.3283 36.4603 56.4033 36.4453L65.7183 41.5153H65.6733V41.5303ZM68.9883 40.8103C68.5083 40.9003 68.0133 40.9753 67.5333 41.0803C67.2483 41.1403 66.9783 41.2153 66.6933 41.2753L57.3933 36.2203C57.3933 36.2203 57.5283 36.1903 57.5883 36.1753C58.1133 36.0703 58.6533 35.9953 59.1783 35.8903C59.7183 35.8003 60.2583 35.6803 60.7983 35.6053L70.0083 40.6153C69.6633 40.6753 69.3183 40.7503 68.9583 40.8103H68.9883ZM74.2083 40.1053C73.7883 40.1353 73.3683 40.1953 72.9633 40.2403C72.3633 40.3003 71.7633 40.3453 71.1633 40.4353L62.0433 35.4853C62.3583 35.4553 62.6883 35.4103 63.0033 35.3803C63.4833 35.3353 63.9633 35.2753 64.4433 35.2453C64.7433 35.2303 65.0433 35.2303 65.3433 35.2153L74.3283 40.1053C74.3283 40.1053 74.2533 40.1053 74.2233 40.1053H74.2083ZM77.2683 39.9703C76.9233 39.9703 76.5933 40.0003 76.2483 40.0153C76.0533 40.0153 75.8583 40.0303 75.6783 40.0453L66.7233 35.1703C67.0383 35.1703 67.3683 35.1403 67.6833 35.1403C68.3733 35.1403 69.0633 35.1853 69.7533 35.2303L78.5433 40.0153C78.1233 40.0153 77.7033 39.9853 77.2833 39.9853L77.2683 39.9703ZM80.2833 40.0453C80.2833 40.0453 80.1933 40.0453 80.1483 40.0453C80.1183 40.0453 80.0733 40.0453 80.0433 40.0453L71.3883 35.3353C72.2583 35.4103 73.1433 35.5003 73.9983 35.6353L82.4883 40.2553C81.7533 40.1803 81.0183 40.0903 80.2833 40.0453ZM84.2433 40.4353L74.6583 35.2153L76.7583 33.5203L86.3433 38.7403L84.2433 40.4503V40.4353ZM88.1733 37.3453C87.6933 37.6903 87.2433 38.0203 86.7933 38.3653L77.2233 33.1603C77.5983 32.8603 77.9883 32.5753 78.4083 32.2903C78.4833 32.2303 78.5583 32.1853 78.6483 32.1403L88.2033 37.3303H88.1883L88.1733 37.3453ZM89.6583 36.3553C89.3433 36.5653 89.0433 36.7753 88.7433 36.9703H88.7133L79.1583 31.7953L79.2783 31.7203C79.4733 31.6003 79.6533 31.4653 79.8483 31.3453C80.1183 31.1653 80.4183 31.0003 80.7033 30.8203L80.7483 30.7903L90.0333 35.8453C90.0333 35.9353 90.0333 36.0403 90.0333 36.1303C89.9133 36.2053 89.7783 36.2803 89.6583 36.3703V36.3553ZM89.1633 29.8903C89.2233 30.1003 89.2683 30.3253 89.3283 30.5353L85.3383 28.3603L85.3983 28.3303C85.5933 28.2553 85.7733 28.1953 85.9683 28.1503L89.1633 29.8903ZM86.9133 27.9103C86.9133 27.9103 87.0633 27.8803 87.1383 27.8653L88.7883 28.7653C88.7883 28.7653 88.8333 28.9003 88.8633 28.9753L86.9133 27.9103ZM89.5383 31.3753C89.6133 31.7203 89.6583 32.0653 89.7183 32.4103L83.6583 29.1103C83.7633 29.0503 83.8683 29.0053 83.9733 28.9453C84.0933 28.8853 84.2283 28.8103 84.3483 28.7653C84.4233 28.7353 84.4983 28.7053 84.5733 28.6753L89.5233 31.3753H89.5383ZM99.7083 37.5253L94.0383 34.4353C94.2483 34.3303 94.4433 34.2403 94.6383 34.1503C94.7133 34.1203 94.7733 34.0903 94.8333 34.0603C95.2383 33.8803 95.6283 33.7303 95.9883 33.6103C96.0633 33.5803 96.1383 33.5653 96.2133 33.5353C96.5433 33.4303 96.8433 33.3553 97.1433 33.2953C97.2333 33.2803 97.3383 33.2503 97.4283 33.2353C97.4733 33.2353 97.5033 33.2353 97.5483 33.2353C97.6233 33.2353 97.6983 33.2353 97.7733 33.2203C97.8033 33.2203 97.8333 33.2203 97.8633 33.2203H97.9083C98.0133 33.2203 98.1033 33.2203 98.2083 33.2203L98.5233 33.3853C99.0633 34.7803 99.4533 36.1603 99.7083 37.5403V37.5253ZM94.0533 33.8353C93.8583 33.9253 93.6633 34.0303 93.4683 34.1353L90.2283 32.3803C90.1833 32.1553 90.1533 31.9303 90.1083 31.7053L94.0533 33.8503V33.8353ZM89.9133 30.8653C89.8683 30.6553 89.8083 30.4453 89.7483 30.2203L95.3583 33.2653H95.3133C95.1483 33.3553 94.9683 33.4303 94.7883 33.5053L89.9283 30.8503L89.9133 30.8653ZM92.5383 34.6303C92.3583 34.7353 92.1783 34.8403 91.9983 34.9453C91.7433 35.0953 91.4883 35.2303 91.2333 35.3803C91.0983 35.4553 90.9633 35.5453 90.8283 35.6203L90.5283 35.4553C90.5283 34.7953 90.4683 34.1353 90.3933 33.4603L92.5383 34.6303ZM90.5133 36.4453C90.6033 36.3853 90.6933 36.3253 90.7983 36.2653C90.8583 36.2353 90.9033 36.1903 90.9633 36.1603C91.6383 35.7403 92.3433 35.3353 93.0933 34.9153C93.1533 34.8853 93.2133 34.8403 93.2733 34.8103L99.8583 38.3953C100.068 39.8053 100.143 41.2003 100.068 42.5953L90.4683 37.3753C90.4983 37.0603 90.5133 36.7603 90.5133 36.4453ZM96.4083 32.9203C96.4083 32.9203 96.3183 32.9503 96.2883 32.9653C96.2583 32.9653 96.2433 32.9653 96.2133 32.9803L89.4933 29.3203C89.4933 29.3203 89.4483 29.1853 89.4183 29.1103L96.4083 32.9203ZM85.1883 30.6403L89.8533 33.1753C89.9433 33.8503 90.0033 34.5253 90.0333 35.2003L81.3033 30.4603C81.3033 30.4603 81.3633 30.4153 81.4083 30.4003C81.6333 30.2653 81.8733 30.1303 82.0983 30.0103C82.3983 29.8303 82.7133 29.6653 83.0283 29.4853L85.1883 30.6703V30.6403ZM90.1083 39.8053C90.1833 39.4453 90.2733 39.0853 90.3183 38.7103C90.3183 38.6803 90.3183 38.6503 90.3183 38.6203C90.3483 38.4553 90.3483 38.2753 90.3783 38.0953L99.9783 43.3153C99.8433 44.7103 99.5733 46.0903 99.1533 47.4553L97.6833 46.6453C96.6333 46.0153 95.4783 45.4003 94.3083 44.8153L89.4633 42.1753C89.7333 41.3953 89.9433 40.6003 90.1083 39.7903V39.8053ZM91.2183 44.3503C91.1583 44.2603 91.0833 44.1853 91.0233 44.1103C90.9033 43.9453 90.7833 43.7953 90.6483 43.6453L99.0633 48.2203C99.4983 48.6553 99.9033 49.1203 100.293 49.6003C100.413 49.7503 100.518 49.9153 100.623 50.0653C100.878 50.3953 101.118 50.7253 101.343 51.0703L92.3283 46.1653C91.9833 45.5353 91.6233 44.9353 91.2033 44.3503H91.2183ZM94.1733 50.9653C94.1733 50.9653 94.1583 50.8453 94.1433 50.8003C94.0383 50.3503 93.9033 49.9153 93.7533 49.4803C93.7083 49.3453 93.6783 49.1953 93.6333 49.0603C93.4383 48.4903 93.2283 47.9503 92.9883 47.4103C92.9583 47.3353 92.9283 47.2753 92.8983 47.2003L102.003 52.1503C102.093 52.3153 102.198 52.4803 102.288 52.6453C102.408 52.8703 102.498 53.1103 102.603 53.3503C102.753 53.6803 102.903 53.9953 103.038 54.3403C103.128 54.5953 103.203 54.8653 103.293 55.1203C103.398 55.4353 103.503 55.7503 103.593 56.0653L94.1883 50.9503L94.1733 50.9653ZM94.7883 56.5003C94.7883 56.1253 94.7583 55.7803 94.7433 55.4203C94.7433 55.1353 94.7433 54.8353 94.7133 54.5503C94.6833 54.1453 94.6233 53.7553 94.5783 53.3503C94.5483 53.1103 94.5333 52.8553 94.4883 52.6303C94.4433 52.3303 94.3683 52.0453 94.3083 51.7453L103.743 56.8753L103.773 56.9803C103.848 57.3253 103.938 57.6553 103.998 58.0153C104.043 58.3153 104.073 58.6303 104.118 58.9303C104.163 59.2903 104.223 59.6353 104.253 59.9953C104.283 60.3103 104.283 60.6553 104.298 60.9703C104.298 61.2103 104.313 61.4353 104.328 61.6753L94.7883 56.4853V56.5003ZM104.343 62.3503C104.343 63.2353 104.313 64.0903 104.268 64.9453C104.268 65.0503 104.268 65.1553 104.268 65.2453C104.268 65.4103 104.238 65.5603 104.223 65.7253L94.6383 60.5053C94.6533 60.2503 94.6833 60.0103 94.6983 59.7553C94.7283 59.3803 94.7283 58.9753 94.7433 58.5853C94.7583 58.1053 94.7883 57.6253 94.7883 57.1453L104.358 62.3503H104.343ZM94.4133 62.6203C94.4583 62.3203 94.4733 62.0053 94.5033 61.7053C94.5183 61.5103 94.5483 61.3003 94.5633 61.0903L104.148 66.3103C104.103 66.8953 104.058 67.4803 103.983 68.0503C103.938 68.3653 103.878 68.6503 103.833 68.9653C103.803 69.1453 103.773 69.3253 103.743 69.5053L94.1433 64.2853C94.2333 63.7303 94.3383 63.1903 94.4133 62.6353V62.6203ZM93.8283 65.9653C93.8733 65.7403 93.9333 65.5303 93.9783 65.3053C94.0083 65.1403 94.0233 64.9753 94.0683 64.8103L103.668 70.0303C103.623 70.2553 103.593 70.4953 103.563 70.7203C103.488 71.0803 103.398 71.4103 103.323 71.7703C103.233 72.1903 103.128 72.6103 103.023 73.0153L93.4083 67.7803C93.5733 67.1953 93.7083 66.5803 93.8433 65.9653H93.8283ZM92.5683 70.3903C92.6433 70.1653 92.7183 69.9253 92.7933 69.7003C92.9583 69.2203 93.1233 68.7553 93.2583 68.2603L102.453 73.2553L102.888 73.4953C102.738 74.0203 102.573 74.5303 102.408 75.0253C102.333 75.2503 102.258 75.4903 102.183 75.7153C102.123 75.8803 102.063 76.0153 102.003 76.1803L92.3583 70.9303C92.4333 70.7503 92.5083 70.5853 92.5683 70.3903ZM91.5033 72.9403C91.5633 72.8053 91.6383 72.6703 91.7133 72.5203C91.8783 72.1453 92.0433 71.7253 92.1933 71.3203L101.838 76.5703C101.673 76.9753 101.523 77.4103 101.343 77.8003C101.268 77.9653 101.193 78.1003 101.118 78.2653C101.013 78.5053 100.893 78.7153 100.773 78.9403L91.1283 73.6903C91.2483 73.4503 91.3833 73.1953 91.5033 72.9403ZM90.3333 75.1303C90.4683 74.9053 90.6183 74.6953 90.7533 74.4553C90.8283 74.3203 90.8883 74.1703 90.9633 74.0353L100.608 79.2853C100.533 79.4203 100.473 79.5553 100.413 79.6903C100.293 79.9153 100.143 80.1253 100.008 80.3503C99.8133 80.6653 99.6183 80.9953 99.4233 81.2953L89.7783 76.0453C89.9733 75.7603 90.1533 75.4453 90.3333 75.1453V75.1303ZM88.4133 77.8453C88.5483 77.6803 88.6683 77.5153 88.8033 77.3353C89.0583 77.0203 89.3133 76.7053 89.5383 76.3753L99.1833 81.6253C99.0033 81.8803 98.7933 82.1353 98.5983 82.3903C98.4483 82.5853 98.2983 82.7953 98.1333 82.9903C98.0433 83.0953 97.9383 83.2003 97.8483 83.3053L88.2183 78.0703C88.2783 77.9953 88.3533 77.9203 88.4283 77.8453H88.4133ZM86.7783 79.6003C86.8833 79.4953 87.0033 79.4053 87.1083 79.3003C87.3783 79.0303 87.6333 78.7303 87.8883 78.4453L97.5183 83.6803C97.4283 83.7853 97.3383 83.8903 97.2483 83.9803C97.1133 84.1153 96.9933 84.2653 96.8733 84.4003C96.6033 84.6703 96.3033 84.9253 96.0183 85.1953L86.4183 79.9753C86.5533 79.8553 86.6733 79.7353 86.8083 79.6153L86.7783 79.6003ZM85.0833 81.1003C85.2783 80.9503 85.4733 80.8003 85.6533 80.6353C85.7733 80.5303 85.8783 80.4253 85.9983 80.3203L95.5983 85.5403C95.5983 85.5403 95.4933 85.6453 95.4333 85.6903C95.3583 85.7503 95.2683 85.8103 95.1933 85.8853C94.7883 86.2303 94.3683 86.5603 93.9483 86.8753L84.3633 81.6703C84.6033 81.4903 84.8433 81.2803 85.0833 81.0853V81.1003ZM82.5183 82.9903C82.9683 82.6903 83.4183 82.3753 83.8833 82.0453L89.9733 85.3603L93.4533 87.2503C93.2283 87.4153 93.0033 87.5653 92.7783 87.7153C92.5833 87.8503 92.3733 88.0003 92.1783 88.1353C92.0433 88.2253 91.9083 88.3003 91.7733 88.3903L82.2333 83.2003C82.3383 83.1403 82.4283 83.0653 82.5333 82.9903H82.5183ZM80.1333 84.4453C80.3433 84.3253 80.5533 84.2203 80.7633 84.1003C81.0633 83.9203 81.3633 83.7403 81.6633 83.5453L91.2033 88.7353C91.2033 88.7353 91.1133 88.7953 91.0683 88.8253C90.9183 88.9153 90.7533 89.0203 90.6033 89.1103C90.2733 89.3053 89.9433 89.4703 89.6283 89.6503L80.1183 84.4753H80.1483L80.1333 84.4453ZM78.5433 85.2553C78.7533 85.1503 78.9633 85.0603 79.1883 84.9403C79.2933 84.8953 79.3983 84.8353 79.4883 84.7753L88.9833 89.9503C88.5033 90.1903 88.0233 90.4153 87.5433 90.6253L78.0783 85.4803C78.2283 85.4053 78.3783 85.3303 78.5433 85.2553ZM77.2833 85.8403C77.2833 85.8403 77.3433 85.8253 77.3583 85.8103L78.3783 86.3653L86.7783 90.9403C86.6433 91.0003 86.5083 91.0453 86.3583 91.1053C86.1483 91.1803 85.9383 91.2703 85.7283 91.3453C85.6083 91.3903 85.4883 91.4203 85.3683 91.4653L75.9633 86.3503C76.4133 86.1853 76.8333 86.0053 77.2683 85.8403H77.2833ZM74.3883 86.9203H74.4483C74.7333 86.8003 75.0183 86.7103 75.2883 86.6053L84.6933 91.7203C84.4983 91.7953 84.3033 91.8553 84.0933 91.9303C83.7933 92.0353 83.4633 92.1253 83.1483 92.2153L83.0583 92.2453L73.6833 87.1453C73.9233 87.0703 74.1633 86.9953 74.3883 86.9203ZM71.2383 87.8653C71.8533 87.7003 72.4683 87.5203 73.0533 87.3403L82.4133 92.4403H82.3683C81.7833 92.6203 81.1833 92.7853 80.5683 92.9353L71.2383 87.8653ZM72.5883 89.8903C72.4833 89.7103 72.3933 89.5303 72.2733 89.3503C72.2283 89.2753 72.1683 89.2003 72.1083 89.1403L80.3283 93.6103C80.7933 93.9703 81.1833 94.4053 81.5583 94.8853L72.6633 90.0403C72.6633 90.0403 72.6033 89.9353 72.5733 89.8903H72.5883ZM73.8333 93.3253C73.8033 93.2053 73.7733 93.1003 73.7433 92.9803C73.6833 92.7553 73.6383 92.5153 73.5783 92.2903C73.5333 92.1403 73.4733 91.9903 73.4283 91.8403C73.3533 91.6303 73.2933 91.4203 73.2183 91.2103C73.1733 91.1053 73.1283 91.0003 73.0833 90.8953L82.2333 95.8753C82.6533 96.6253 82.9833 97.4653 83.2383 98.4403L73.8183 93.3253H73.8333ZM74.1483 95.5753C74.1183 95.2753 74.1033 94.9903 74.0733 94.7053C74.0583 94.5253 74.0133 94.3603 73.9983 94.1953C73.9983 94.1353 73.9833 94.0603 73.9683 94.0003L83.4033 99.1303C83.6283 100.195 83.7483 101.365 83.7783 102.655L74.2383 97.4653C74.2383 96.9703 74.2233 96.5053 74.1933 96.0403C74.1933 95.8753 74.1633 95.7253 74.1483 95.5753ZM77.0583 115.135H77.0283L74.3133 113.665C74.3133 113.665 74.3133 113.62 74.2983 113.59L77.1183 115.12H77.0733L77.0583 115.135ZM83.7483 118.09L78.3333 115.15C79.4733 114.565 80.6133 113.965 81.7083 113.305C81.9483 113.17 82.1583 113.005 82.3983 112.87C82.8633 112.585 83.3133 112.285 83.7633 112V118.09H83.7483ZM83.7483 111.385C81.8283 112.645 79.8333 113.815 77.7783 114.85L74.1933 112.9L74.2233 98.1403L83.7633 103.33V111.385H83.7483ZM83.8533 98.7853C83.6133 97.6603 83.2533 96.6553 82.7883 95.7853C82.7283 95.6653 82.6683 95.5603 82.6083 95.4553C82.1433 94.6603 81.6033 93.9703 80.9583 93.4003C81.6933 93.2053 82.3983 93.0103 83.0883 92.8003C83.1783 92.7703 83.2683 92.7403 83.3433 92.7253C84.0333 92.5153 84.6933 92.3053 85.3233 92.0803C85.4133 92.0503 85.4883 92.0203 85.5783 91.9903C86.2083 91.7653 86.8233 91.5253 87.4233 91.2853C87.4983 91.2553 87.5733 91.2253 87.6483 91.1953C87.7233 91.1653 87.7833 91.1203 87.8583 91.0903C88.4133 90.8503 88.9833 90.5653 89.5683 90.2653C89.6433 90.2203 89.7183 90.1903 89.7933 90.1453C90.4383 89.8003 91.0983 89.4253 91.7583 89.0053C91.8333 88.9603 91.8933 88.9153 91.9683 88.8703C92.6433 88.4503 93.3033 88.0003 93.9933 87.5053C94.0533 87.4603 94.1133 87.4303 94.1583 87.3853C94.2183 87.3403 94.2633 87.2953 94.3233 87.2653C94.9533 86.8003 95.5533 86.3053 96.1233 85.7953C96.1833 85.7353 96.2433 85.6753 96.3183 85.6153C96.9183 85.0753 97.4883 84.4903 98.0283 83.9053C98.0883 83.8453 98.1483 83.7703 98.2083 83.7103C98.7333 83.1103 99.2283 82.4953 99.6783 81.8503C99.7083 81.8053 99.7533 81.7453 99.7983 81.7003C99.8283 81.6553 99.8583 81.5953 99.9033 81.5353C100.338 80.9053 100.728 80.2303 101.118 79.4953C101.178 79.3903 101.223 79.2703 101.283 79.1653C101.673 78.4003 102.033 77.6053 102.363 76.7353C102.408 76.6303 102.453 76.5103 102.498 76.4053C102.828 75.5203 103.143 74.6053 103.428 73.6303C103.443 73.5703 103.473 73.5103 103.488 73.4503C103.503 73.3903 103.518 73.3153 103.533 73.2553C103.818 72.2203 104.043 71.1403 104.238 70.0153C104.253 69.9253 104.268 69.8353 104.283 69.7453C104.478 68.6203 104.628 67.4503 104.718 66.2353C104.718 66.1453 104.733 66.0553 104.748 65.9803C104.838 64.8103 104.898 63.6253 104.913 62.3953C104.913 62.3203 104.913 62.2603 104.913 62.1853C104.913 62.1103 104.913 62.0353 104.913 61.9603C104.913 60.0853 104.688 58.3303 104.313 56.6803C104.298 56.5903 104.268 56.4853 104.253 56.3953C103.863 54.7753 103.278 53.2753 102.528 51.8803C102.468 51.7603 102.393 51.6403 102.333 51.5353C101.568 50.2003 100.653 48.9553 99.5583 47.8303C100.113 46.2853 100.443 44.7103 100.578 43.1053C100.578 43.0153 100.593 42.9403 100.608 42.8503C100.728 41.3053 100.653 39.7153 100.383 38.1103C100.368 38.0203 100.353 37.9303 100.338 37.8403C100.053 36.2203 99.5883 34.5853 98.9133 32.9053C98.7483 32.7253 98.5533 32.5603 98.3733 32.3953C96.6183 30.7753 93.9033 29.6803 91.4433 28.6303C90.4383 28.1953 89.4933 27.7753 88.6683 27.3253C88.5333 27.2953 88.3833 27.2953 88.2333 27.2803H88.1883C88.0533 27.2803 87.9183 27.2803 87.7683 27.2803C87.7233 27.2803 87.6633 27.2803 87.6183 27.2803C87.4983 27.2803 87.3933 27.2803 87.2733 27.3103C87.1833 27.3103 87.0783 27.3553 86.9883 27.3703C86.7633 27.4153 86.5383 27.4603 86.2833 27.5203C86.1933 27.5503 86.1033 27.5803 86.0133 27.6103C85.6383 27.7303 85.2483 27.8803 84.8283 28.0453C84.7533 28.0753 84.6633 28.1053 84.5883 28.1503C84.1383 28.3453 83.6883 28.5703 83.1933 28.8253C83.1183 28.8553 83.0583 28.8853 82.9983 28.9303C82.9383 28.9603 82.8783 29.0053 82.8033 29.0353C82.1283 29.3953 81.4833 29.7703 80.8533 30.1603C80.7783 30.2053 80.7183 30.2503 80.6583 30.2803C79.9833 30.6853 79.3383 31.1053 78.7383 31.5253C78.6783 31.5703 78.6033 31.6153 78.5433 31.6603C77.8833 32.1253 77.2383 32.5753 76.6533 33.0553L74.1033 35.1253C72.8433 34.9303 71.5683 34.8103 70.2933 34.7353C70.1283 34.7353 69.9633 34.7353 69.7983 34.7203C68.4933 34.6453 67.1733 34.6453 65.8383 34.6903C65.6883 34.6903 65.5533 34.6903 65.4033 34.6903C64.0383 34.7503 62.6583 34.8553 61.2783 35.0503C61.1733 35.0503 61.0533 35.0653 60.9483 35.0803C60.8433 35.0803 60.7533 35.1253 60.6483 35.1253C59.3583 35.3203 58.0683 35.5753 56.7783 35.8603C56.6733 35.8903 56.5683 35.9203 56.4633 35.9353C55.0833 36.2653 53.7183 36.6403 52.3683 37.0903C52.2633 37.1203 52.1733 37.1503 52.0683 37.1803C50.6283 37.6603 49.2033 38.1703 47.8083 38.7853L46.9833 38.3353L46.8633 38.2753C46.8633 38.2753 46.7733 38.2303 46.7283 38.2003C46.5483 38.0953 46.3533 38.0053 46.1433 37.9003L46.0233 37.8403L45.8733 37.7653C45.5733 37.6153 45.2583 37.4503 44.9283 37.2853C44.5233 37.0903 44.0283 36.8803 43.4733 36.6553C43.1883 36.5503 42.9033 36.4303 42.5733 36.3253C42.2583 36.2203 41.8983 36.1003 41.5533 35.9803C41.0733 35.8303 40.5633 35.6653 40.0083 35.5003C39.7233 35.4103 39.4683 35.3353 39.1683 35.2603C38.9283 35.1853 38.7033 35.1403 38.4633 35.0953C38.3133 35.0653 38.1783 35.0203 38.0283 34.9903C37.8033 34.9453 37.5933 34.9003 37.3833 34.8703C37.0083 34.8103 36.6483 34.7503 36.3033 34.7203C36.1383 34.7203 35.9883 34.7053 35.8233 34.6903C35.4783 34.6903 35.1483 34.6903 34.8333 34.7053C34.7733 34.7053 34.7283 34.7053 34.6683 34.7053C35.4933 33.7453 36.3483 32.8153 37.2183 31.9003L37.2933 31.8253C39.5733 29.4553 42.0333 27.2503 44.6733 25.2253C44.7333 25.1803 44.7783 25.1353 44.8383 25.1053C44.8983 25.0603 44.9583 25.0303 45.0033 24.9853C47.5683 23.0503 50.2383 21.3553 52.9683 19.9003C53.0133 19.8703 53.0733 19.8403 53.1183 19.8253C55.9083 18.3403 58.7883 17.1103 61.7433 16.1353C61.8033 16.1203 61.8783 16.0903 61.9383 16.0753C64.8633 15.1153 67.8633 14.3953 70.9383 13.9453C71.0433 13.9453 71.1333 13.9003 71.2383 13.9003C71.3433 13.8853 71.4483 13.8853 71.5683 13.8703C74.4933 13.4803 77.3583 13.3603 80.1633 13.4503C80.2833 13.4503 80.3883 13.4503 80.5083 13.4503C83.2983 13.5703 86.0283 13.9303 88.6833 14.5453C88.8933 14.5903 89.1033 14.6653 89.3283 14.7103C90.8133 15.0853 92.2683 15.5203 93.6933 16.0453C93.8733 16.1053 94.0533 16.1653 94.2333 16.2403C94.5333 16.4503 94.8183 16.6603 95.1033 16.8853C95.2833 17.0203 95.4483 17.1553 95.6133 17.2903C95.7933 17.4403 95.9883 17.5753 96.1683 17.7253C96.6333 18.1003 97.0833 18.4903 97.5183 18.8803C97.8483 19.1803 98.1933 19.4803 98.5233 19.7953C98.9583 20.2153 99.3933 20.6503 99.8133 21.0853C100.113 21.4003 100.428 21.7153 100.728 22.0303C101.163 22.4953 101.568 22.9903 101.988 23.4853C102.258 23.8003 102.528 24.1153 102.783 24.4453C103.218 25.0003 103.638 25.5853 104.058 26.1703C104.268 26.4553 104.478 26.7403 104.688 27.0253C105.303 27.9103 105.888 28.8253 106.443 29.7703C106.503 29.8753 106.548 29.9803 106.608 30.0703C108.093 32.6053 109.308 35.2903 110.313 38.0803C110.343 38.1553 110.373 38.2303 110.388 38.2903C111.393 41.1103 112.128 44.0653 112.638 47.1253C112.638 47.1853 112.653 47.2453 112.668 47.3053C113.148 50.3053 113.418 53.4253 113.418 56.6353C113.418 56.7103 113.418 56.7853 113.418 56.8453C113.418 56.9203 113.418 56.9803 113.418 57.0553C113.403 61.0603 112.983 65.0053 112.233 68.8753V68.9503C111.453 72.8353 110.343 76.6453 108.858 80.3503V80.3953H108.843C107.373 84.0703 105.543 87.6553 103.353 91.1503C101.163 94.6453 98.7333 97.8253 96.1083 100.75L96.0783 100.78C93.4233 103.735 90.5583 106.39 87.4833 108.745C87.4533 108.775 87.4233 108.79 87.3933 108.82C86.3883 109.585 85.3833 110.32 84.3333 111.01V103.135C84.3483 101.62 84.2133 100.255 83.9733 99.0103C83.9583 98.9203 83.9433 98.8303 83.9283 98.7403L83.8533 98.7853ZM87.6333 120.43L84.2583 118.6V111.655C84.6333 111.415 85.0083 111.19 85.3683 110.95C85.6533 110.755 85.9233 110.53 86.1933 110.335C86.5983 110.035 87.0033 109.735 87.4083 109.42L96.9933 114.625C94.0533 116.83 90.9333 118.78 87.6183 120.415L87.6333 120.43ZM97.4883 114.265L87.9033 109.06C88.2183 108.82 88.5483 108.595 88.8633 108.34C89.1783 108.085 89.4783 107.8 89.7783 107.545C90.5883 106.87 91.3983 106.195 92.1783 105.475C92.5083 105.175 92.8233 104.83 93.1383 104.53C93.8733 103.825 94.6083 103.12 95.3133 102.37C95.5983 102.07 95.8683 101.74 96.1533 101.425L105.783 106.66C103.218 109.48 100.443 112.015 97.4733 114.265H97.4883ZM106.128 106.285L96.4983 101.05C97.0983 100.375 97.7133 99.7153 98.2983 99.0103C98.6583 98.5603 99.0033 98.0803 99.3633 97.6303C99.9333 96.8953 100.518 96.1753 101.073 95.4103C101.448 94.8853 101.808 94.3153 102.168 93.7753C102.648 93.0703 103.143 92.3803 103.608 91.6453L113.253 96.8953C111.093 100.315 108.693 103.435 106.113 106.3L106.128 106.285ZM118.128 87.7003C118.023 87.9553 117.933 88.2103 117.813 88.4653C117.258 89.6803 116.658 90.8803 116.028 92.0653C115.953 92.2153 115.878 92.3803 115.803 92.5303C115.083 93.8803 114.303 95.2003 113.493 96.5203L103.848 91.2703C104.388 90.4003 104.868 89.5303 105.363 88.6603C105.603 88.2253 105.888 87.8053 106.113 87.3553C106.638 86.3803 107.103 85.3903 107.583 84.4003C107.763 84.0103 107.988 83.6203 108.168 83.2303C108.558 82.3903 108.888 81.5203 109.233 80.6653L118.878 85.9153C118.638 86.5003 118.413 87.1003 118.158 87.6853L118.128 87.7003ZM122.013 75.8053C121.803 76.7653 121.533 77.7253 121.278 78.6703C121.158 79.1503 121.053 79.6303 120.918 80.0953C120.618 81.1453 120.243 82.1803 119.883 83.2153C119.748 83.5753 119.658 83.9503 119.508 84.3253C119.358 84.7303 119.163 85.1353 119.013 85.5403L109.368 80.2903C109.518 79.9303 109.683 79.5703 109.818 79.2103C109.833 79.1503 109.863 79.1053 109.878 79.0603C110.403 77.6503 110.883 76.2253 111.303 74.7853C111.453 74.2753 111.558 73.7653 111.693 73.2553C111.948 72.3253 112.203 71.3953 112.413 70.4503C112.503 70.0603 112.548 69.6703 112.623 69.2803L122.238 74.5003C122.148 74.9353 122.088 75.3703 121.998 75.8053H122.013ZM123.348 65.1103C123.318 65.7403 123.318 66.3853 123.273 67.0153C123.213 67.8853 123.093 68.7553 122.988 69.6253C122.913 70.2253 122.883 70.8403 122.793 71.4403C122.673 72.2953 122.493 73.1203 122.343 73.9603L112.728 68.7403C112.728 68.7403 112.743 68.6503 112.758 68.6053C112.923 67.7503 113.103 66.8803 113.223 66.0253C113.313 65.3803 113.373 64.7203 113.433 64.0753C113.523 63.2353 113.643 62.3953 113.703 61.5553C113.748 60.8803 113.763 60.1903 113.793 59.5153C113.823 58.8103 113.868 58.1053 113.883 57.4003L123.438 62.5903C123.438 63.4303 123.378 64.2703 123.348 65.1103Z" fill="#EF692B"/>
</svg>
