<svg width="132" height="132" viewBox="0 0 132 132" fill="none" xmlns="http://www.w3.org/2000/svg">
<path d="M118.019 24.0249V24.0638L118.084 24.1026L123.485 27.0428L123.2 27.535C122.241 29.2059 121.166 30.7991 120.065 32.3405C120.001 32.4311 119.936 32.5088 119.871 32.5995C118.796 34.0891 117.656 35.5138 116.452 36.8739C116.374 36.9516 116.309 37.0422 116.231 37.12C114.988 38.5059 113.693 39.853 112.333 41.0964V41.8736V42.0937V42.845V43.0522V43.8035V43.9848V44.1662C112.307 49.399 111.646 54.7484 110.442 60.059C110.429 60.1367 110.403 60.2015 110.39 60.2792C109.146 65.6415 107.333 70.9391 105.001 76.0425C104.963 76.1461 104.924 76.2367 104.872 76.3404C102.54 81.3919 99.6909 86.262 96.3621 90.7566C96.3362 90.7954 96.2973 90.8473 96.2714 90.8861C96.2326 90.925 96.1937 90.9768 96.1678 91.0156C93.4737 94.6294 90.0671 98.5411 85.8964 102.284C85.8316 102.336 85.7798 102.375 85.728 102.427C81.5314 106.17 76.5446 109.732 70.6901 112.633C70.6124 112.672 70.5476 112.711 70.4699 112.75C64.6542 115.613 57.9966 117.827 50.4063 118.928C50.3157 118.941 50.238 118.967 50.1473 118.967C50.0566 118.98 49.966 119.006 49.8753 119.006C46.0284 119.524 42.2074 119.654 38.4641 119.421C38.3216 119.421 38.1921 119.395 38.0496 119.395C34.3581 119.123 30.7443 118.501 27.2471 117.504C27.001 117.426 26.7549 117.374 26.5088 117.296C23.1412 116.286 19.8901 114.939 16.7814 113.268L7.92188 108.45C8.49179 108.346 9.04875 108.268 9.61866 108.191C9.70933 108.178 9.8 108.152 9.89067 108.152C10.3699 108.087 10.8621 108.035 11.3543 107.971C11.445 107.958 11.5356 107.932 11.6263 107.932C12.0408 107.88 12.4682 107.828 12.8957 107.763L13.1677 107.724C13.2583 107.712 13.3361 107.686 13.4267 107.686C16.5742 107.219 19.6828 106.403 22.6878 105.276C22.7526 105.263 22.8044 105.238 22.8692 105.212C25.8871 104.059 28.8273 102.569 31.638 100.769C31.6899 100.743 31.7287 100.704 31.7805 100.678C33.6068 99.4996 35.3943 98.1784 37.117 96.7277C36.7284 96.5205 36.3269 96.3003 35.9124 96.0801L35.757 96.0024L35.2777 95.7433C33.8011 94.9403 32.2209 94.0854 30.7573 93.2823L30.4982 93.1399L28.7755 92.1943H28.7496C28.2574 91.9223 27.7782 91.6244 27.3119 91.3136C27.1824 91.2229 27.0528 91.1193 26.9233 91.0286C26.5865 90.7954 26.2627 90.5623 25.9519 90.3033C25.7835 90.1608 25.6281 90.0183 25.4726 89.8758C25.2006 89.6427 24.9416 89.3966 24.6825 89.1505C24.6307 89.0987 24.5659 89.0469 24.5141 88.995L24.2033 88.6453C23.9701 88.3863 23.737 88.1402 23.5168 87.8682C23.3614 87.6868 23.2059 87.5055 23.0634 87.3112C22.8562 87.0392 22.649 86.7542 22.4547 86.4693C22.3122 86.275 22.1827 86.0807 22.0531 85.8735C21.8589 85.5626 21.6775 85.2517 21.4962 84.9279C21.3796 84.7207 21.263 84.5264 21.1594 84.3192C20.9781 83.9565 20.8097 83.5809 20.6413 83.2053L20.6413 83.2052C20.5636 83.0239 20.4729 82.8426 20.3952 82.6612C20.1621 82.0913 19.9419 81.5084 19.7605 80.9126C20.2527 80.8608 20.719 80.8349 21.1983 80.7961C21.3019 80.7831 21.3926 80.7702 21.4962 80.7702C21.8589 80.7443 22.2345 80.7054 22.5971 80.6665C22.6878 80.6536 22.7655 80.6406 22.8562 80.6406L22.9211 80.6345C23.1733 80.6105 23.4347 80.5857 23.6852 80.55C23.7758 80.537 23.8795 80.537 23.9701 80.5241C24.0608 80.5111 24.1385 80.4982 24.2292 80.4852C24.7214 80.4075 25.2265 80.3168 25.7187 80.2002C25.7964 80.1873 25.8612 80.1614 25.9389 80.1484C26.3923 80.0448 26.8326 79.9153 27.273 79.7858L25.1099 78.6071L24.1903 78.1019L23.5297 77.7393C23.0893 77.5061 22.649 77.26 22.2345 77.0398C21.7811 76.7937 21.3407 76.5217 20.9133 76.2368C20.7838 76.159 20.6672 76.0684 20.5377 75.9777C20.46 75.9259 20.3823 75.8611 20.3045 75.8093C20.0584 75.6409 19.8382 75.4596 19.6051 75.2783C19.4885 75.1746 19.359 75.084 19.2424 74.9804C18.8668 74.6565 18.4912 74.3198 18.1285 73.9701L18.0897 73.9312C17.714 73.5556 17.3643 73.167 17.0275 72.7655C16.9369 72.6489 16.8333 72.5194 16.7426 72.4028C16.4965 72.0919 16.2633 71.7811 16.0302 71.4572L15.7582 71.0687C15.4603 70.6283 15.1883 70.1879 14.9292 69.7346L14.9033 69.6957C14.7608 69.4366 14.6184 69.1646 14.4888 68.8926C14.437 68.802 14.3852 68.7113 14.3464 68.6206C14.2816 68.4911 14.2298 68.3616 14.165 68.2321C14.1003 68.0896 14.0355 67.9341 13.9707 67.7917C13.8153 67.429 13.6599 67.0404 13.5174 66.6518C13.4656 66.4964 13.4008 66.341 13.349 66.1855C13.1677 65.6674 13.0122 65.1364 12.8698 64.5665C12.7273 64.0225 12.6237 63.4526 12.52 62.8826L12.4423 62.3775C12.3776 61.9501 12.3258 61.5226 12.2869 61.0822C12.261 60.9009 12.248 60.7325 12.2351 60.5512C12.1962 59.9554 12.1703 59.3466 12.1703 58.7378V58.1549C13.1806 58.6083 14.2168 58.958 15.266 59.23C15.4732 59.2818 15.6675 59.3336 15.8618 59.3725C16.7167 59.5668 17.5715 59.6963 18.4394 59.774C18.5689 59.787 18.6855 59.7999 18.815 59.7999C19.7605 59.8776 20.7061 59.8776 21.6646 59.7999C19.8382 58.686 18.2451 57.2612 16.911 55.6033C16.8203 55.4997 16.7426 55.3831 16.6649 55.2795C15.3308 53.5438 14.2945 51.5621 13.5692 49.412C13.5433 49.3213 13.5174 49.2436 13.4915 49.1659C12.792 46.9769 12.4035 44.6065 12.3905 42.1326V41.9513V41.7699C12.4035 40.5135 12.52 39.2442 12.7143 37.9748C12.7143 37.9101 12.7402 37.8453 12.7402 37.7805C12.9604 36.4594 13.2713 35.1512 13.6858 33.8689C13.7117 33.8041 13.7376 33.7393 13.7635 33.6616C14.2039 32.3275 14.7349 31.0322 15.3696 29.7758L24.2292 34.5942C24.8638 35.3195 25.5244 36.006 26.185 36.6925L26.185 36.6925C26.3793 36.8998 26.5865 37.0941 26.7808 37.2883C27.273 37.7805 27.7782 38.2598 28.2963 38.739C28.5035 38.9333 28.7108 39.1276 28.918 39.3089C29.5915 39.9177 30.278 40.5135 30.9904 41.0834C31.0034 41.0964 31.0293 41.1223 31.0552 41.1353C31.7805 41.7181 32.5318 42.2751 33.283 42.8191C33.5032 42.9745 33.7364 43.13 33.9566 43.2854C34.1249 43.402 34.2933 43.5056 34.4617 43.6222C35.0834 43.8942 35.7181 44.1532 36.3528 44.3993C36.7282 44.5417 37.1165 44.6841 37.5048 44.8264L37.5056 44.8267C38.2698 45.0987 39.0599 45.3578 39.85 45.5909L40.8991 45.9018C41.7022 46.122 42.5053 46.3163 43.3213 46.4976C43.4897 46.5365 43.658 46.5883 43.8264 46.6272C44.0078 46.666 44.1761 46.7178 44.3445 46.7567C44.3834 46.7826 44.4222 46.7826 44.4611 46.7826C45.575 47.0028 46.7149 47.1971 47.8547 47.3525C48.2303 47.4043 48.6059 47.4432 48.9816 47.482C49.7976 47.5727 50.6395 47.6504 51.4684 47.7152C51.8959 47.754 52.3104 47.767 52.7378 47.7929C53.5797 47.8317 54.4216 47.8447 55.2765 47.8447H56.4293C57.6468 47.8188 58.8773 47.767 60.1078 47.6634C60.0172 47.1323 59.9524 46.6401 59.8876 46.135C59.8747 46.0443 59.8488 45.9536 59.8488 45.8759C59.784 45.3967 59.7322 44.9045 59.6933 44.4382V44.1921L59.6903 44.1541C59.6525 43.6882 59.6156 43.2342 59.6156 42.7802V42.5859V42.4046C59.6545 38.2209 60.7295 34.1668 62.5688 30.5141C62.6206 30.4235 62.6724 30.3199 62.7242 30.2292C64.6153 26.5636 67.2965 23.3643 70.4828 20.9033C70.5346 20.8645 70.5994 20.8127 70.6642 20.7608C73.8117 18.3776 77.4384 16.7455 81.3112 16.1497C81.3889 16.1368 81.4796 16.0979 81.5573 16.0979C81.648 16.085 81.7516 16.072 81.8423 16.072C82.4122 16.0073 82.995 15.9554 83.5649 15.9295C83.7333 15.9166 83.9147 15.9166 84.096 15.9166C84.653 15.9036 85.2099 15.9166 85.7539 15.9554C85.8705 15.9684 85.9741 15.9684 86.0907 15.9684C86.544 16.0073 86.9974 16.072 87.4378 16.1368C87.6061 16.1627 87.7875 16.1886 87.9559 16.2274H87.9818C88.1372 16.2663 88.2926 16.2922 88.4481 16.3311C88.9403 16.4347 89.4325 16.5642 89.9247 16.7067C90.0671 16.7455 90.2096 16.7844 90.3521 16.8362C90.935 17.0305 91.5178 17.2507 92.0877 17.5098C92.1914 17.5616 92.3079 17.6134 92.4116 17.6652C92.554 17.7299 92.6836 17.7947 92.8131 17.8595C92.9685 17.9372 93.1369 18.0019 93.2923 18.0926L95.015 19.0252L95.2223 19.1418C95.9476 19.5433 96.7118 19.9448 97.4631 20.3593L98.3697 20.8515C99.6909 20.3593 100.986 19.8024 102.268 19.1936C102.32 19.1677 102.385 19.1418 102.437 19.1159C103.939 18.3905 105.416 17.5745 106.854 16.6808C106.906 16.6549 106.944 16.616 106.996 16.5901C108.434 15.6964 109.833 14.7379 111.18 13.6887L111.517 13.4297L120.376 18.248L120.247 18.6625C119.729 20.4241 119.029 22.1209 118.187 23.7399C118.135 23.8306 118.084 23.9342 118.019 24.0249Z" fill="black"/>
<path d="M118.019 24.0638V24.0249C118.084 23.9342 118.135 23.8306 118.187 23.7399C119.029 22.1209 119.729 20.4241 120.247 18.6625L120.376 18.248L111.517 13.4297L111.18 13.6887C109.833 14.7379 108.434 15.6964 106.996 16.5901C106.944 16.616 106.906 16.6549 106.854 16.6808C105.416 17.5745 103.939 18.3905 102.437 19.1159C102.385 19.1418 102.32 19.1677 102.268 19.1936C100.986 19.8024 99.6909 20.3593 98.3697 20.8515L97.4631 20.3593C96.7118 19.9448 95.9476 19.5433 95.2223 19.1418L95.015 19.0252L93.2923 18.0926C93.1369 18.0019 92.9685 17.9372 92.8131 17.8595C92.6836 17.7947 92.554 17.7299 92.4116 17.6652C92.3079 17.6134 92.1914 17.5616 92.0877 17.5098C91.5178 17.2507 90.935 17.0305 90.3521 16.8362C90.2096 16.7844 90.0671 16.7455 89.9247 16.7067C89.4325 16.5642 88.9403 16.4347 88.4481 16.3311C88.2926 16.2922 88.1372 16.2663 87.9818 16.2274H87.9559C87.7875 16.1886 87.6061 16.1627 87.4378 16.1368C86.9974 16.072 86.544 16.0073 86.0907 15.9684C85.9741 15.9684 85.8705 15.9684 85.7539 15.9554C85.2099 15.9166 84.653 15.9036 84.096 15.9166C83.9147 15.9166 83.7333 15.9166 83.5649 15.9295C82.995 15.9554 82.4122 16.0073 81.8423 16.072C81.7516 16.072 81.648 16.085 81.5573 16.0979C81.4796 16.0979 81.3889 16.1368 81.3112 16.1497C77.4384 16.7455 73.8117 18.3776 70.6642 20.7608C70.5994 20.8127 70.5346 20.8645 70.4828 20.9033C67.2965 23.3643 64.6153 26.5636 62.7242 30.2292C62.6724 30.3199 62.6206 30.4235 62.5688 30.5141C60.7295 34.1668 59.6545 38.2209 59.6156 42.4046C59.6156 42.4694 59.6156 42.5212 59.6156 42.5859C59.6156 42.6507 59.6156 42.7155 59.6156 42.7802C59.6156 43.2465 59.6545 43.7128 59.6933 44.1921C59.6933 44.2698 59.6933 44.3605 59.6933 44.4382C59.7322 44.9045 59.784 45.3967 59.8488 45.8759C59.8488 45.9536 59.8747 46.0443 59.8876 46.135C59.9524 46.6401 60.0172 47.1323 60.1078 47.6634C58.8773 47.767 57.6468 47.8188 56.4293 47.8447C56.0407 47.8447 55.6651 47.8447 55.2765 47.8447C54.4216 47.8447 53.5797 47.8317 52.7378 47.7929C52.3104 47.767 51.8959 47.754 51.4684 47.7152C50.6395 47.6504 49.7976 47.5727 48.9816 47.482C48.6059 47.4432 48.2303 47.4043 47.8547 47.3525C46.7149 47.1971 45.575 47.0028 44.4611 46.7826C44.4222 46.7826 44.3834 46.7826 44.3445 46.7567C44.1761 46.7178 44.0078 46.666 43.8264 46.6272C43.658 46.5883 43.4897 46.5365 43.3213 46.4976C42.5053 46.3163 41.7022 46.122 40.8991 45.9018C40.5494 45.7982 40.1997 45.6946 39.85 45.5909C39.0599 45.3578 38.2698 45.0987 37.5056 44.8267C37.117 44.6843 36.7284 44.5418 36.3528 44.3993C35.7181 44.1532 35.0834 43.8942 34.4617 43.6222C34.2933 43.5056 34.1249 43.402 33.9566 43.2854C33.7364 43.13 33.5032 42.9745 33.283 42.8191C32.5318 42.2751 31.7805 41.7181 31.0552 41.1353C31.0293 41.1223 31.0034 41.0964 30.9904 41.0834C30.278 40.5135 29.5915 39.9177 28.918 39.3089C28.7108 39.1276 28.5035 38.9333 28.2963 38.739C27.7782 38.2598 27.273 37.7805 26.7808 37.2883C26.5865 37.0941 26.3793 36.8998 26.185 36.6925C25.5244 36.006 24.8638 35.3195 24.2292 34.5942L15.3696 29.7758C14.7349 31.0322 14.2039 32.3275 13.7635 33.6616C13.7376 33.7393 13.7117 33.8041 13.6858 33.8689C13.2713 35.1512 12.9604 36.4594 12.7402 37.7805C12.7402 37.8453 12.7143 37.9101 12.7143 37.9748C12.52 39.2442 12.4035 40.5135 12.3905 41.7699C12.3905 41.8347 12.3905 41.8865 12.3905 41.9513C12.3905 42.016 12.3905 42.0808 12.3905 42.1326C12.4035 44.6065 12.792 46.9769 13.4915 49.1659C13.5174 49.2436 13.5433 49.3213 13.5692 49.412C14.2945 51.5621 15.3308 53.5438 16.6649 55.2795C16.7426 55.3831 16.8203 55.4997 16.911 55.6033C18.2451 57.2612 19.8382 58.686 21.6646 59.7999C20.7061 59.8776 19.7605 59.8776 18.815 59.7999C18.6855 59.7999 18.5689 59.787 18.4394 59.774C17.5715 59.6963 16.7167 59.5668 15.8618 59.3725C15.6675 59.3336 15.4732 59.2818 15.266 59.23C14.2168 58.958 13.1806 58.6083 12.1703 58.1549V58.7378C12.1703 59.3466 12.1962 59.9554 12.2351 60.5512C12.248 60.7325 12.261 60.9009 12.2869 61.0822C12.3258 61.5226 12.3776 61.9501 12.4423 62.3775C12.4682 62.5459 12.4941 62.7143 12.52 62.8826C12.6237 63.4526 12.7273 64.0225 12.8698 64.5665C13.0122 65.1364 13.1677 65.6674 13.349 66.1855C13.4008 66.341 13.4656 66.4964 13.5174 66.6518C13.6599 67.0404 13.8153 67.429 13.9707 67.7917C14.0355 67.9341 14.1003 68.0896 14.165 68.2321C14.2298 68.3616 14.2816 68.4911 14.3464 68.6206C14.3852 68.7113 14.437 68.802 14.4888 68.8926C14.6184 69.1646 14.7608 69.4366 14.9033 69.6957L14.9292 69.7346C15.1883 70.1879 15.4603 70.6283 15.7582 71.0687C15.8489 71.1982 15.9395 71.3277 16.0302 71.4572C16.2633 71.7811 16.4965 72.0919 16.7426 72.4028C16.8333 72.5194 16.9369 72.6489 17.0275 72.7655C17.3643 73.167 17.714 73.5556 18.0897 73.9312C18.1026 73.9441 18.1156 73.9571 18.1285 73.9701C18.4912 74.3198 18.8668 74.6565 19.2424 74.9804C19.359 75.084 19.4885 75.1746 19.6051 75.2783C19.8382 75.4596 20.0584 75.6409 20.3045 75.8093C20.3823 75.8611 20.46 75.9259 20.5377 75.9777C20.6672 76.0684 20.7838 76.159 20.9133 76.2368C21.3407 76.5217 21.7811 76.7937 22.2345 77.0398C22.649 77.26 23.0893 77.5061 23.5297 77.7393L24.1903 78.1019L25.1099 78.6071L27.273 79.7858C26.8326 79.9153 26.3923 80.0448 25.9389 80.1484C25.8612 80.1614 25.7964 80.1873 25.7187 80.2002C25.2265 80.3168 24.7214 80.4075 24.2292 80.4852C24.1385 80.4981 24.0608 80.5111 23.9701 80.5241C23.8795 80.537 23.7758 80.537 23.6852 80.55C23.4132 80.5888 23.1282 80.6147 22.8562 80.6406C22.7655 80.6406 22.6878 80.6536 22.5971 80.6665C22.2345 80.7054 21.8589 80.7442 21.4962 80.7702C21.3926 80.7702 21.3019 80.7831 21.1983 80.7961C20.719 80.8349 20.2527 80.8608 19.7605 80.9126C19.9419 81.5084 20.1621 82.0913 20.3952 82.6612C20.4729 82.8426 20.5636 83.0239 20.6413 83.2052C20.8097 83.5809 20.9781 83.9565 21.1594 84.3192C21.263 84.5264 21.3796 84.7207 21.4962 84.9279C21.6775 85.2517 21.8589 85.5626 22.0531 85.8735C22.1827 86.0807 22.3122 86.275 22.4547 86.4693C22.649 86.7542 22.8562 87.0392 23.0634 87.3112C23.2059 87.5055 23.3614 87.6868 23.5168 87.8682C23.737 88.1402 23.9701 88.3863 24.2033 88.6453C24.3069 88.7619 24.4105 88.8785 24.5141 88.995C24.5659 89.0469 24.6307 89.0987 24.6825 89.1505C24.9416 89.3966 25.2006 89.6427 25.4726 89.8758C25.6281 90.0183 25.7835 90.1608 25.9519 90.3033C26.2627 90.5623 26.5865 90.7954 26.9233 91.0286C27.0528 91.1193 27.1824 91.2229 27.3119 91.3136C27.7782 91.6244 28.2574 91.9223 28.7496 92.1943H28.7755L30.4982 93.1399L30.7573 93.2823C32.2209 94.0854 33.8011 94.9403 35.2777 95.7433L35.757 96.0024L35.9124 96.0801C36.3269 96.3003 36.7284 96.5205 37.117 96.7277C35.3943 98.1784 33.6068 99.4996 31.7805 100.678C31.7287 100.704 31.6899 100.743 31.638 100.769C28.8273 102.569 25.8871 104.059 22.8692 105.212C22.8044 105.238 22.7526 105.263 22.6878 105.276C19.6828 106.403 16.5742 107.219 13.4267 107.686C13.3361 107.686 13.2583 107.712 13.1677 107.724C13.077 107.737 12.9863 107.75 12.8957 107.763C12.4682 107.828 12.0408 107.88 11.6263 107.932C11.5356 107.932 11.445 107.958 11.3543 107.971C10.8621 108.035 10.3699 108.087 9.89067 108.152C9.8 108.152 9.70933 108.178 9.61866 108.191C9.04875 108.268 8.49179 108.346 7.92188 108.45L16.7814 113.268C19.8901 114.939 23.1412 116.286 26.5088 117.296C26.7549 117.374 27.001 117.426 27.2471 117.504C30.7443 118.501 34.3581 119.123 38.0496 119.395C38.1921 119.395 38.3216 119.421 38.4641 119.421C42.2074 119.654 46.0284 119.524 49.8753 119.006C49.966 119.006 50.0566 118.98 50.1473 118.967C50.238 118.967 50.3157 118.941 50.4063 118.928C57.9966 117.827 64.6542 115.613 70.4699 112.75C70.5476 112.711 70.6124 112.672 70.6901 112.633C76.5446 109.732 81.5314 106.17 85.728 102.427C85.7798 102.375 85.8316 102.336 85.8964 102.284C90.0671 98.5411 93.4737 94.6294 96.1678 91.0156C96.1937 90.9768 96.2326 90.925 96.2714 90.8861C96.2973 90.8473 96.3362 90.7954 96.3621 90.7566C99.6909 86.262 102.54 81.3919 104.872 76.3404C104.924 76.2368 104.963 76.1461 105.001 76.0425C107.333 70.9391 109.146 65.6415 110.39 60.2792C110.403 60.2015 110.429 60.1367 110.442 60.059C111.646 54.7484 112.307 49.399 112.333 44.1662C112.333 44.1014 112.333 44.0496 112.333 43.9848C112.333 43.9201 112.333 43.8553 112.333 43.8035C112.333 43.5574 112.333 43.2983 112.333 43.0522C112.333 42.9875 112.333 42.9098 112.333 42.845C112.333 42.5989 112.333 42.3398 112.333 42.0937C112.333 42.016 112.333 41.9513 112.333 41.8736C112.333 41.6145 112.333 41.3555 112.333 41.0964C113.693 39.853 114.988 38.5059 116.231 37.12C116.309 37.0422 116.374 36.9516 116.452 36.8739C117.656 35.5138 118.796 34.0891 119.871 32.5995C119.936 32.5088 120.001 32.4311 120.065 32.3405C121.166 30.7991 122.241 29.2059 123.2 27.535L123.485 27.0428L118.084 24.1026L118.019 24.0638ZM117.812 23.5327L115.208 22.1209C115.208 22.1209 115.312 22.0561 115.364 22.0302C115.441 21.9784 115.519 21.9395 115.597 21.9007C116.97 21.0588 118.33 20.165 119.625 19.1806C119.146 20.6831 118.537 22.1338 117.812 23.5457V23.5327ZM103.654 24.3876L103.46 24.2839L100.364 22.6001C101.517 23.0794 102.605 23.6752 103.654 24.3876ZM104.496 25.0222C104.574 25.0741 104.639 25.1259 104.717 25.1906C104.691 25.2165 104.678 25.2424 104.652 25.2554L104.445 25.1388L98.564 21.9395C98.836 22.0172 99.108 22.1338 99.38 22.2245L104.496 25.0093V25.0222ZM104.82 25.5404L106.258 26.3305C105.092 26.7838 103.901 27.1983 102.696 27.561C103.434 26.9392 104.134 26.2527 104.807 25.5533L104.82 25.5404ZM110.338 24.1933C109.794 24.4394 109.237 24.6725 108.68 24.9057L106.439 23.6881C106.737 23.3125 107.022 22.9369 107.307 22.5483L110.351 24.2062L110.338 24.1933ZM114.91 21.7711C114.91 21.7711 114.807 21.8359 114.755 21.8618L109.483 18.9863C109.483 18.9863 109.535 18.8957 109.561 18.8439L114.923 21.7582L114.91 21.7711ZM109.69 18.5719C109.69 18.5719 109.729 18.4941 109.742 18.4553L115.351 21.4991C115.351 21.4991 115.273 21.551 115.221 21.5769L109.69 18.5589V18.5719ZM114.431 22.0561C114.353 22.095 114.288 22.1468 114.211 22.1856L109.224 19.4785C109.263 19.4138 109.289 19.349 109.328 19.2843L114.431 22.0561ZM106.219 26.8356C106.374 26.7708 106.543 26.7061 106.698 26.6413L110.066 28.4676C109.988 28.5713 109.91 28.6878 109.82 28.7914L106.206 26.8227L106.219 26.8356ZM109.638 29.0635C109.198 29.6334 108.745 30.2033 108.278 30.7602L103.072 27.9236C104.004 27.6387 104.924 27.3278 105.83 26.991L109.638 29.0635ZM107.1 26.4988C107.579 26.3046 108.058 26.1103 108.538 25.903L111.011 27.2501C110.778 27.5869 110.519 27.8977 110.286 28.2345L107.113 26.5118L107.1 26.4988ZM107.942 25.2165L106.051 24.1803C106.115 24.1026 106.18 24.0249 106.245 23.9472L108.304 25.0611C108.188 25.1129 108.071 25.1518 107.955 25.2036L107.942 25.2165ZM112.074 25.6828C112.009 25.7864 111.944 25.8901 111.879 25.9937L110.247 25.1C110.377 25.0352 110.519 24.9704 110.649 24.9057L112.074 25.6828ZM111.011 24.7373C111.892 24.2839 112.747 23.8047 113.589 23.3125C113.162 24.0249 112.695 24.7243 112.242 25.4108L111.011 24.7373ZM111.698 26.2657C111.646 26.3434 111.607 26.4082 111.555 26.4859L109.587 25.4108C109.69 25.359 109.781 25.3202 109.885 25.2683L111.711 26.2527L111.698 26.2657ZM111.374 26.7579C111.322 26.8356 111.258 26.9133 111.193 26.991L108.887 25.7346C108.991 25.6828 109.107 25.631 109.211 25.5792L111.361 26.7449L111.374 26.7579ZM110.467 28.7008L113.2 30.1903C113.11 30.2939 113.006 30.3846 112.915 30.4882L110.234 29.0246C110.312 28.921 110.39 28.8044 110.467 28.7008ZM110.662 28.4417C110.739 28.3381 110.817 28.2215 110.908 28.1179L113.706 29.6334C113.615 29.737 113.524 29.8406 113.434 29.9442L110.662 28.4417ZM111.309 27.561C111.309 27.561 111.361 27.4962 111.387 27.4573L114.224 28.9987L114.133 29.1023L111.296 27.561H111.309ZM111.581 27.1983C111.633 27.1206 111.698 27.0428 111.763 26.9651L114.625 28.5194C114.56 28.5972 114.496 28.6749 114.431 28.7526L111.581 27.1983ZM111.957 26.6931C112.009 26.6154 112.061 26.5507 112.112 26.4729L115.001 28.0402C114.949 28.105 114.897 28.1827 114.845 28.2474L111.957 26.6802V26.6931ZM112.281 26.2009C112.346 26.0973 112.41 25.9937 112.475 25.8901L115.402 27.4832C115.325 27.5869 115.26 27.6775 115.195 27.7811L112.281 26.2009ZM112.643 25.6181C113.136 24.8798 113.615 24.1285 114.068 23.3514L117.047 24.9704C116.594 25.7346 116.102 26.4859 115.584 27.2112L112.643 25.6051V25.6181ZM116.659 24.5689C116.115 24.271 115.597 23.986 115.079 23.714C114.768 23.5457 114.457 23.3773 114.159 23.2089C114.224 23.0923 114.301 22.9887 114.366 22.8851L117.319 24.4912C117.255 24.6078 117.203 24.7114 117.138 24.828L116.659 24.5689ZM113.9 22.3799C112.98 22.898 112.048 23.3643 111.115 23.8177L107.722 21.9654C108.214 21.253 108.68 20.5147 109.107 19.7505L113.913 22.367L113.9 22.3799ZM107.566 25.359C107.165 25.5144 106.763 25.6958 106.349 25.8512L105.856 25.5792C105.675 25.4108 105.494 25.2295 105.299 25.0741C105.494 24.8668 105.675 24.6466 105.856 24.4394L107.566 25.372V25.359ZM102.877 27.9884L108.201 30.8768C108.071 31.0322 107.942 31.1747 107.812 31.3302L102.113 28.2345C102.372 28.1568 102.618 28.0661 102.877 27.9884ZM108.576 31.0841L110.973 32.3923C110.817 32.5347 110.675 32.6772 110.519 32.8067L108.188 31.5374C108.317 31.382 108.447 31.2395 108.576 31.0841ZM108.68 30.9545C109.146 30.3976 109.6 29.8406 110.053 29.2707L112.708 30.7084C112.19 31.2395 111.659 31.7705 111.102 32.2627L108.693 30.9545H108.68ZM112.98 30.8639L113.991 31.4079C113.162 31.7058 112.333 31.9778 111.478 32.2239C111.996 31.7835 112.501 31.3302 112.98 30.8509V30.8639ZM113.213 30.6178C113.304 30.5141 113.408 30.4235 113.498 30.3199L114.871 31.0711C114.716 31.1359 114.56 31.2006 114.392 31.2654L113.213 30.6178ZM113.732 30.0738C113.822 29.9701 113.926 29.8795 114.016 29.7758L115.739 30.7084C115.584 30.7732 115.415 30.838 115.26 30.9027L113.732 30.0738ZM114.47 29.2577C114.638 29.0635 114.794 28.8692 114.949 28.6749C115.001 28.6101 115.053 28.5453 115.117 28.4806C115.182 28.3899 115.26 28.3122 115.338 28.2215L118.084 29.7111C117.578 29.9442 117.073 30.1774 116.555 30.3976L114.47 29.2577ZM115.545 27.9625C115.623 27.8718 115.687 27.7682 115.752 27.6646L118.835 29.3484C118.705 29.4132 118.563 29.4779 118.433 29.5427L115.532 27.9625H115.545ZM115.946 27.4055C116.477 26.6802 116.957 25.9419 117.423 25.1647L122.008 27.6646C121.089 28.1956 120.156 28.7008 119.21 29.18L115.946 27.4055ZM111.478 14.0773L119.703 18.5589C119.599 18.6366 119.495 18.7014 119.392 18.7791C118.161 18.1185 116.788 17.3673 115.415 16.616C114.664 16.2015 113.913 15.8 113.188 15.3985C112.553 15.0488 111.944 14.7249 111.374 14.4141C111.413 14.2975 111.452 14.1939 111.491 14.0903L111.478 14.0773ZM111.309 14.5566L118.913 18.6884L119.236 18.8698C118.071 19.7376 116.879 20.5536 115.648 21.3049L109.872 18.1574C110.429 16.9916 110.908 15.7871 111.296 14.5436L111.309 14.5566ZM110.882 14.4659C110.493 15.6575 110.04 16.8362 109.496 17.9631L107.437 16.8362C108.615 16.0979 109.768 15.3078 110.882 14.4659ZM107.113 17.0305L109.366 18.261C109.366 18.261 109.328 18.3387 109.315 18.3646L106.996 17.1082C106.996 17.1082 107.074 17.0564 107.126 17.0305H107.113ZM106.659 17.3025L109.146 18.6625C108.602 19.7376 107.994 20.7868 107.32 21.7971L102.877 19.3749C104.16 18.7402 105.429 18.0538 106.659 17.3025ZM102.126 19.7505L106.918 22.354C106.53 22.911 106.115 23.4679 105.688 23.999C105.675 24.0249 105.649 24.0379 105.636 24.0638C105.416 24.3358 105.209 24.5948 104.976 24.8539C104.924 24.815 104.872 24.7761 104.82 24.7373C104.729 24.6596 104.626 24.5819 104.535 24.5041C104.043 24.1285 103.538 23.7658 103.007 23.442C102.903 23.3773 102.8 23.3255 102.709 23.2607C102.515 23.1441 102.333 23.0275 102.139 22.9239L101.673 22.6649L100.416 21.9784C100.287 21.9136 100.17 21.8489 100.041 21.7711L99.7816 21.6287C99.4837 21.4603 99.1728 21.3049 98.862 21.1365C99.9629 20.709 101.051 20.2427 102.126 19.7376V19.7505ZM98.1366 20.9422C98.1366 20.9422 98.02 20.981 97.9553 21.0069C97.5278 20.7738 97.1004 20.5407 96.66 20.3075C96.5046 20.178 96.3621 20.0355 96.2067 19.906L98.1237 20.9422H98.1366ZM91.5567 17.4838C91.7251 17.5616 91.9064 17.6263 92.0748 17.704C91.8676 17.6134 91.6603 17.5357 91.4531 17.4579C91.479 17.4579 91.5049 17.4838 91.5308 17.4838H91.5567ZM89.7692 16.8492L89.8469 16.8751C90.0153 16.9269 90.1837 16.9787 90.3521 17.0305C90.391 17.0305 90.4169 17.0564 90.4557 17.0694C90.1967 16.9787 89.9376 16.901 89.6786 16.8233C89.7045 16.8233 89.7304 16.8362 89.7692 16.8492ZM89.7951 17.1989C89.8988 17.2248 90.0024 17.2507 90.093 17.2896C90.65 17.4709 91.194 17.6781 91.738 17.9113L91.7769 17.9372C93.383 18.6496 94.8985 19.6081 96.2844 20.7868L89.6008 17.1471C89.6008 17.1471 89.7304 17.173 89.7822 17.1989H89.7951ZM88.4869 16.5254C88.4869 16.5254 88.6035 16.5513 88.6683 16.5642C88.6035 16.5513 88.5258 16.5383 88.461 16.5124H88.4869V16.5254ZM83.7333 16.4217C83.9276 16.4217 84.1219 16.4088 84.3032 16.4088C84.8991 16.4088 85.4949 16.4217 86.0907 16.4735C86.1166 16.4735 86.1425 16.4735 86.1555 16.4735C86.5699 16.5124 86.9715 16.5901 87.386 16.6549L94.6912 20.6313C94.6912 20.6313 94.5617 20.6313 94.5099 20.6313C94.1084 20.6054 93.7068 20.5795 93.2923 20.5795C93.1369 20.5795 92.9685 20.5925 92.8001 20.5925C92.6706 20.5925 92.5281 20.5925 92.3986 20.6054C91.738 20.6313 91.0774 20.6831 90.4039 20.7738L82.5546 16.4994C82.9562 16.4606 83.3447 16.4347 83.7463 16.4217H83.7333ZM71.0527 20.994C71.7392 20.4888 72.4387 20.0096 73.164 19.5822C73.2417 19.5304 73.3195 19.5044 73.3972 19.4526C73.9671 19.1288 74.537 18.805 75.1328 18.533C75.3141 18.4423 75.4955 18.3776 75.6898 18.2999C76.182 18.0797 76.6871 17.8595 77.1923 17.6781C77.4384 17.5875 77.6974 17.5227 77.9565 17.445C78.4098 17.3025 78.8632 17.1471 79.3165 17.0305C79.6274 16.9528 79.9512 16.901 80.275 16.8492C80.6765 16.7715 81.078 16.6678 81.4925 16.616L89.4584 20.9551C89.29 20.981 89.1346 21.0329 88.9662 21.0588C88.6035 21.1365 88.2279 21.2012 87.8782 21.2919C87.5025 21.3955 87.1399 21.5121 86.7772 21.6287C86.4275 21.7452 86.0777 21.8359 85.728 21.9654C85.3654 22.095 85.0027 22.2633 84.653 22.4188C84.3162 22.5613 83.9794 22.6908 83.6427 22.8592C83.2929 23.0275 82.9432 23.2218 82.6065 23.4161C82.2826 23.5845 81.9588 23.7529 81.648 23.9472C81.3112 24.1544 80.9744 24.3876 80.6377 24.6078C80.3398 24.8021 80.0289 24.9963 79.7439 25.2165C79.6015 25.3202 79.459 25.4367 79.3165 25.5404L71.0398 21.0458H71.0657L71.0527 20.994ZM63.2553 30.0349C63.4107 29.7629 63.5403 29.4779 63.6957 29.2059C63.9418 28.7785 64.2267 28.377 64.4858 27.9625C64.6412 27.7293 64.7707 27.4962 64.9262 27.276C65.25 26.8097 65.5997 26.3693 65.9494 25.9289C66.079 25.7735 66.1826 25.6051 66.3121 25.4497C66.7654 24.9057 67.2447 24.3876 67.7239 23.8824C67.7628 23.8436 67.7887 23.8047 67.8276 23.7658C68.6954 22.8851 69.628 22.082 70.5994 21.3308L78.8761 25.8383C78.8761 25.8383 78.7854 25.916 78.7466 25.9419C78.4616 26.1621 78.1767 26.3823 77.9047 26.6154C77.5938 26.8874 77.2959 27.1853 76.998 27.4703C76.7389 27.7164 76.4669 27.9495 76.2208 28.2086C75.9229 28.5194 75.6509 28.8433 75.366 29.1671C75.1328 29.4261 74.8997 29.6722 74.6795 29.9442C74.3945 30.2939 74.1225 30.6566 73.8505 31.0193C73.6562 31.2783 73.449 31.5244 73.2676 31.7964C72.9697 32.2239 72.6977 32.6643 72.4257 33.1047C72.2832 33.3249 72.1408 33.5321 72.0112 33.7652C71.7781 34.1668 71.5709 34.5813 71.3636 34.9957L63.0351 30.4623C63.0999 30.3328 63.1776 30.1903 63.2553 30.0608V30.0349ZM60.056 41.1741C60.069 40.8373 60.0819 40.5006 60.1078 40.1638C60.1467 39.7234 60.2244 39.296 60.2892 38.8686C60.341 38.5318 60.3798 38.1821 60.4316 37.8453C60.5094 37.4308 60.6259 37.0163 60.7295 36.6019C60.8073 36.2651 60.872 35.9154 60.9756 35.5786C61.0922 35.1641 61.2347 34.7626 61.3772 34.3611C61.4808 34.0372 61.5844 33.7005 61.701 33.3767C61.8564 32.9622 62.0378 32.5736 62.2191 32.1721C62.3486 31.8612 62.4652 31.5503 62.6206 31.2524C62.6983 31.0841 62.802 30.9157 62.8926 30.7473L71.2211 35.2807C71.1305 35.462 71.0268 35.6434 70.9362 35.8247C70.8196 36.0708 70.716 36.3298 70.6124 36.5889C70.4051 37.0552 70.1979 37.5215 70.0165 38.0007C69.9 38.3116 69.8093 38.6354 69.6927 38.9592C69.5503 39.3867 69.3948 39.8141 69.2653 40.2415C69.1617 40.5783 69.0969 40.941 69.0192 41.2777C68.9156 41.7052 68.799 42.1197 68.7213 42.5471C68.6565 42.9098 68.6177 43.2724 68.5529 43.6351C68.4881 44.0625 68.4104 44.477 68.3716 44.9045C68.3327 45.2801 68.3327 45.6557 68.3068 46.0313C68.2938 46.3422 68.255 46.6531 68.255 46.9769L65.263 45.3448L60.0042 42.4823C60.0042 42.0549 60.0431 41.6145 60.069 41.1871L60.056 41.1741ZM68.5011 50.8626C68.5529 51.2642 68.5918 51.6528 68.6695 52.0672L60.5093 47.6504C60.4187 47.223 60.3798 46.8214 60.3151 46.4199L68.4881 50.8626H68.5011ZM60.2503 45.8759C60.2114 45.6298 60.1596 45.3708 60.1337 45.1247C60.1208 44.9822 60.1337 44.8526 60.1078 44.7102L68.3198 49.1788C68.3327 49.3731 68.3198 49.5674 68.3457 49.7746C68.3586 49.956 68.3975 50.1503 68.4234 50.3445L60.2373 45.8889L60.2503 45.8759ZM60.0172 43.0393L68.242 47.5079C68.242 47.8706 68.2809 48.2462 68.2939 48.6218L60.0819 44.1532C60.056 43.7776 60.0301 43.402 60.0301 43.0393H60.0172ZM49.2795 47.8836C49.7458 47.9354 50.1991 47.9872 50.6654 48.026C51.2871 48.0778 51.9088 48.0908 52.5306 48.1167C52.9709 48.1297 53.4113 48.1685 53.8647 48.1815C54.5512 48.1815 55.2377 48.1815 55.9241 48.1556C56.3127 48.1556 56.7013 48.1556 57.0899 48.1426C58.1261 48.1037 59.1493 48.026 60.1985 47.9224L68.3586 52.3522C67.167 52.4429 65.9883 52.4817 64.8096 52.4947C64.6283 52.4947 64.4599 52.4947 64.2785 52.4947C63.1776 52.4947 62.0896 52.4558 61.0145 52.391C60.7554 52.3781 60.4964 52.3651 60.2373 52.3392C59.2011 52.2615 58.1779 52.1579 57.1546 52.0284C56.8438 51.9895 56.5459 51.9377 56.248 51.8989C55.2636 51.7564 54.2921 51.588 53.3207 51.3937C52.9839 51.3289 52.6601 51.2512 52.3363 51.1735C52.2456 51.1606 52.1679 51.1347 52.0772 51.1087L44.9922 47.2618C45.3548 47.3266 45.7175 47.3784 46.0802 47.4432C46.5594 47.5209 47.0387 47.6115 47.5179 47.6763C48.1008 47.754 48.6966 47.8058 49.2795 47.8706V47.8836ZM39.85 46.0443C40.3551 46.1997 40.8732 46.3422 41.3784 46.4847C41.8965 46.6142 42.4146 46.7308 42.9327 46.8473C43.0622 46.8732 43.1918 46.9121 43.3342 46.938L50.1343 50.6554H50.0955C49.5774 50.5 49.0722 50.3575 48.5671 50.2021C47.8935 49.9948 47.233 49.7876 46.5724 49.5544C46.119 49.399 45.6786 49.2436 45.2253 49.0752C44.4611 48.7902 43.7099 48.4794 42.9716 48.1556C42.5182 47.9613 42.0649 47.754 41.6245 47.5468C40.8732 47.1971 40.122 46.8214 39.3966 46.4329C38.6324 46.0313 37.8812 45.6039 37.1429 45.1635C37.5703 45.3189 37.9848 45.4614 38.4122 45.6039C38.8915 45.7593 39.3707 45.9018 39.8629 46.0443H39.85ZM24.2162 35.0734C24.9027 35.8636 25.6021 36.6278 26.3145 37.3661C26.5606 37.6122 26.8067 37.8453 27.0528 38.0914C27.545 38.5836 28.0372 39.0628 28.5553 39.5291C28.8791 39.827 29.2159 40.0991 29.5397 40.384C29.9931 40.7726 30.4335 41.1612 30.8998 41.5368C31.2106 41.7829 31.5215 42.029 31.8323 42.2621C31.5862 42.1326 31.3272 42.016 31.0811 41.8865L28.8144 40.656C26.9233 39.568 25.097 38.3505 23.3484 37.0293C23.6074 36.3687 23.8924 35.7081 24.2162 35.0605V35.0734ZM23.2707 36.0708C23.193 36.2651 23.1153 36.4594 23.0375 36.6537L22.9987 36.7573C22.649 36.4853 22.2992 36.2262 21.9625 35.9542C21.8718 35.8765 21.7682 35.7988 21.6775 35.7211C21.1335 35.2677 20.6025 34.8144 20.0714 34.3481C19.9289 34.2186 19.7864 34.102 19.644 33.9725C19.1518 33.5191 18.6725 33.0658 18.1933 32.5995C18.0508 32.457 17.9083 32.3275 17.7788 32.185C17.3514 31.7576 16.9369 31.3172 16.5224 30.8639L23.8406 34.8403C23.6463 35.2418 23.452 35.6563 23.2707 36.0708ZM14.3334 33.1047C14.3982 32.9104 14.4759 32.729 14.5536 32.5347C14.6572 32.2498 14.7608 31.9778 14.8774 31.6928C15.0717 31.2265 15.2789 30.7732 15.4991 30.3199L15.7582 30.4623C16.2763 31.0581 16.8073 31.641 17.3643 32.2109C17.5586 32.4182 17.7529 32.6125 17.9601 32.8067C18.4523 33.2989 18.9575 33.7911 19.4626 34.2704C19.6699 34.4647 19.8642 34.646 20.0714 34.8403C20.7708 35.462 21.4703 36.0838 22.1956 36.6666C22.2086 36.6796 22.2345 36.6925 22.2474 36.7055C22.4417 36.8609 22.649 37.0034 22.8432 37.1588C22.7914 37.2883 22.7396 37.4179 22.6878 37.5474C22.6101 37.7676 22.5453 37.9748 22.4676 38.195L22.4288 38.3116L14.1132 33.7911C14.1909 33.5709 14.2557 33.3508 14.3334 33.1306V33.1047ZM13.1677 37.4567C13.2195 37.1847 13.2842 36.9127 13.3361 36.6537C13.3879 36.4335 13.4267 36.2133 13.4785 35.9931C13.5433 35.747 13.6081 35.5009 13.6728 35.2548C13.7376 35.0216 13.7894 34.7755 13.8671 34.5424C13.906 34.4129 13.9578 34.2833 13.9966 34.1668L22.3122 38.6872C22.2733 38.8038 22.2345 38.9074 22.2086 39.024C22.1438 39.2442 22.079 39.4773 22.0272 39.6975C21.9495 39.9695 21.8718 40.2545 21.807 40.5265C21.7552 40.7467 21.7034 40.9798 21.6646 41.213C21.5998 41.485 21.535 41.7699 21.4832 42.0549C21.4703 42.1456 21.4573 42.2362 21.4314 42.3269L13.1288 37.8194C13.1418 37.7028 13.1547 37.5863 13.1806 37.4697L13.1677 37.4567ZM12.792 40.9798C12.792 40.7855 12.792 40.5912 12.818 40.397C12.8309 40.0991 12.8698 39.8011 12.8957 39.5162C12.9086 39.3219 12.9216 39.1276 12.9475 38.9333C12.9734 38.6872 13.0252 38.4541 13.0511 38.208L21.3537 42.7155V42.7543C21.3019 43.0263 21.263 43.2983 21.2242 43.5833C21.1983 43.8294 21.1724 44.0625 21.1465 44.3086C21.1206 44.5806 21.0946 44.8397 21.0687 45.1117C21.0558 45.3708 21.0428 45.6168 21.0428 45.8759C21.0428 46.0313 21.0299 46.1738 21.0299 46.3292L12.7661 41.8347C12.7661 41.5627 12.7791 41.2777 12.792 41.0057V40.9798ZM13.7894 48.7902C13.7246 48.5959 13.6728 48.3887 13.621 48.1815C13.5562 47.9613 13.4915 47.7281 13.4397 47.5079C13.3879 47.3007 13.349 47.0934 13.2972 46.8732C13.2454 46.6401 13.1936 46.4199 13.1547 46.1868C13.1159 45.9666 13.09 45.7464 13.0511 45.5391C13.0122 45.306 12.9734 45.0728 12.9475 44.8397C12.9216 44.6195 12.9086 44.3864 12.8827 44.1662C12.8568 43.933 12.8309 43.6999 12.818 43.4667C12.805 43.2336 12.805 43.0004 12.792 42.7673C12.792 42.6378 12.792 42.5212 12.792 42.3917L21.0299 46.8732C21.0299 47.2877 21.0687 47.6893 21.0946 48.1037C21.1206 48.4923 21.1206 48.8939 21.1594 49.2824C21.1983 49.684 21.276 50.0855 21.3407 50.4741C21.4055 50.8626 21.4444 51.2642 21.5221 51.6528C21.5998 52.0413 21.7164 52.417 21.82 52.7926C21.8848 53.0257 21.9366 53.2589 22.0013 53.4791L13.906 49.0752C13.8671 48.9716 13.8412 48.8809 13.8023 48.7773L13.7894 48.7902ZM17.1571 55.1888L17.1053 55.124C16.9498 54.9298 16.7944 54.7355 16.6519 54.5412C16.5483 54.3987 16.4447 54.2433 16.3411 54.0878C16.1986 53.8806 16.069 53.6863 15.9395 53.4791C15.8359 53.3236 15.7452 53.1553 15.6546 52.9998C15.538 52.7926 15.4085 52.5853 15.2919 52.3781C15.2012 52.2097 15.1235 52.0284 15.0328 51.86C14.9292 51.6528 14.8126 51.4455 14.722 51.2253C14.6443 51.044 14.5665 50.8626 14.4888 50.6813C14.3982 50.4611 14.3075 50.2539 14.2168 50.0337C14.178 49.9301 14.1521 49.8264 14.1132 49.7358L22.1697 54.1137C22.2733 54.4376 22.4029 54.7484 22.5324 55.0593C22.6619 55.409 22.7785 55.7587 22.921 56.0955C23.0893 56.4841 23.2966 56.8467 23.4909 57.2094C23.6463 57.5073 23.7888 57.8311 23.9572 58.1161C24.1774 58.5047 24.4364 58.8544 24.6825 59.2171C24.7084 59.243 24.7214 59.2818 24.7473 59.3207L17.1571 55.1888ZM21.1853 58.9451C21.0946 58.8803 21.004 58.8155 20.9133 58.7508C20.6543 58.5694 20.4082 58.3881 20.1621 58.1938C20.0455 58.1031 19.9419 58.0125 19.8382 57.9218C19.6181 57.7405 19.4108 57.5721 19.2036 57.3778C19.087 57.2742 18.9834 57.1576 18.8668 57.054C18.6725 56.8726 18.4782 56.6913 18.2969 56.497C18.2192 56.4193 18.1544 56.3286 18.0767 56.2509L25.3949 60.2274C25.6281 60.5253 25.8871 60.8232 26.1462 61.1081C26.3145 61.3024 26.457 61.5097 26.6384 61.691C26.8715 61.9371 27.1435 62.1573 27.3896 62.4034L22.2863 59.6315C21.9107 59.4113 21.548 59.1912 21.1983 58.9451H21.1853ZM22.0661 60.2274L29.9024 64.4888C29.0087 64.5276 28.1279 64.4888 27.2471 64.424L19.6958 60.318C20.4859 60.318 21.263 60.318 22.0661 60.2274ZM18.6725 60.2662L26.0037 64.2556C25.3301 64.152 24.6696 64.0095 24.009 63.8282L17.1441 60.0978C17.6493 60.1755 18.1544 60.2274 18.6725 60.2662ZM14.7997 68.5041C13.906 66.6907 13.2583 64.696 12.8957 62.5718C12.8827 62.4682 12.8568 62.3645 12.8439 62.248C12.7791 61.8205 12.7273 61.3931 12.6884 60.9527C12.6884 60.8232 12.6625 60.6937 12.6496 60.5512C12.6107 60.0978 12.5978 59.6315 12.5848 59.1523L20.8097 63.6339C20.8097 64.411 20.8485 65.1752 20.9263 65.9265C20.9651 66.3669 21.0428 66.7814 21.1076 67.2088C21.1465 67.4938 21.1853 67.7787 21.2371 68.0637C21.3407 68.6465 21.4832 69.2035 21.6387 69.7734C21.6646 69.8641 21.6905 69.9547 21.7034 70.0454C21.9754 70.991 22.2733 71.9106 22.6619 72.7914L14.7867 68.5041H14.7997ZM24.0349 77.3507L20.9133 75.6539C18.5818 74.0478 16.6519 71.8847 15.2271 69.3201L23.0505 73.5815C23.8535 75.2264 24.8638 76.729 26.0555 78.0631C25.356 77.8688 24.6825 77.6356 24.0219 77.3507H24.0349ZM26.5736 80.4075C26.7679 80.3427 26.9751 80.2909 27.1694 80.2261C27.3248 80.1743 27.4803 80.1096 27.6357 80.0448L35.7958 84.4875C35.6015 84.5394 35.4202 84.6171 35.213 84.6689C34.9928 84.7336 34.7467 84.7596 34.5265 84.8114L26.4829 80.4334L26.5736 80.4075ZM37.0911 83.5161C37.4279 83.5679 37.7776 83.6068 38.1273 83.6456C37.7776 83.6197 37.4408 83.5679 37.104 83.5161H37.0911ZM37.5185 83.9306C37.1558 84.0731 36.7802 84.1637 36.4176 84.2933L34.5783 83.2959C34.8503 83.3736 35.1352 83.4384 35.4202 83.5161C35.6404 83.5679 35.8606 83.6456 36.0937 83.6845C36.5341 83.7752 36.9875 83.827 37.4408 83.8917L37.5315 83.9435L37.5185 83.9306ZM36.6507 83.27L29.3066 79.2677C29.4361 79.1899 29.5786 79.1381 29.7081 79.0604L37.7905 83.4513C37.4019 83.4125 37.0393 83.3348 36.6636 83.27H36.6507ZM35.9124 83.0498L36.1585 83.1793C35.9772 83.1405 35.7958 83.0887 35.6145 83.0498C35.3036 82.9721 35.0057 82.8944 34.6949 82.8037C34.4617 82.7389 34.2415 82.6612 34.0084 82.5835C33.7364 82.4928 33.4773 82.4022 33.2183 82.2986C32.9851 82.2079 32.752 82.1172 32.5318 82.0136C32.2857 81.897 32.0396 81.7804 31.7935 81.6509C30.6666 81.081 29.6174 80.4075 28.646 79.6174C28.8144 79.5397 28.9698 79.449 29.1382 79.3583L35.9254 83.0498H35.9124ZM28.361 79.3842C28.2704 79.3065 28.1927 79.2417 28.102 79.164C28.3092 79.1899 28.5035 79.2288 28.7108 79.2547C28.5942 79.3065 28.4776 79.3454 28.3481 79.3842H28.361ZM25.0452 80.7702C25.2783 80.7183 25.5115 80.6795 25.7317 80.6277C25.7835 80.6277 25.8353 80.6147 25.8871 80.6018L33.8529 84.9409C33.5032 85.0056 33.1665 85.0963 32.8038 85.1481L24.8379 80.822C24.9027 80.822 24.9675 80.7961 25.0322 80.7831L25.0452 80.7702ZM23.9054 80.9774L31.7805 85.2647C31.664 85.2647 31.5474 85.2906 31.4308 85.2906L23.5556 81.0033C23.6722 80.9903 23.7888 80.9903 23.9054 80.9644V80.9774ZM22.3251 81.1328C22.4158 81.1328 22.4935 81.1199 22.5842 81.1069L30.4335 85.3813C30.3169 85.3813 30.2133 85.4072 30.0967 85.4072H30.0449L22.1827 81.1328C22.1827 81.1328 22.2733 81.1328 22.3122 81.1328H22.3251ZM21.276 81.1587L29.2289 85.4849C29.0734 85.4978 28.918 85.5108 28.7496 85.5238L20.7579 81.1717C20.9263 81.1717 21.1076 81.1717 21.276 81.1587ZM25.6281 89.5779H25.641C25.641 89.5779 25.6799 89.6168 25.7058 89.6427C25.6799 89.6168 25.654 89.6038 25.6281 89.5779ZM28.5035 91.4431C28.0631 91.184 27.6357 90.925 27.2212 90.6271C27.1046 90.5493 27.001 90.4587 26.8845 90.381C26.742 90.2773 26.5995 90.1478 26.457 90.0312L31.7805 92.9326C30.6277 92.5441 29.5397 92.0518 28.4906 91.4431H28.5035ZM24.7343 88.464C24.4753 88.2049 24.2162 87.9459 23.9701 87.6609C23.9054 87.5832 23.8406 87.5184 23.7758 87.4537C23.3484 86.9356 22.9598 86.3916 22.5842 85.8217C22.4547 85.6274 22.351 85.4331 22.2215 85.2388C21.9625 84.8114 21.7164 84.3839 21.4962 83.9435C21.3926 83.7363 21.2889 83.542 21.1853 83.3348C20.9004 82.726 20.6413 82.1043 20.4082 81.4566L28.4517 85.8346C28.6719 86.5211 28.918 87.1817 29.203 87.8164C29.2548 87.9459 29.3195 88.0884 29.3713 88.2179C29.6563 88.8396 29.9542 89.4484 30.291 90.0183C30.3428 90.096 30.3946 90.1737 30.4335 90.2514C30.7702 90.8084 31.1329 91.3524 31.5085 91.8705C31.5474 91.9094 31.5733 91.9612 31.6121 92.013C31.7028 92.1296 31.7935 92.2461 31.8841 92.3627L24.7343 88.464ZM33.6846 93.645C33.568 93.5284 33.4514 93.4119 33.3348 93.2953C33.2442 93.2046 33.1665 93.101 33.0758 93.0103C32.9463 92.8679 32.8038 92.7254 32.6743 92.57C32.5188 92.3886 32.3634 92.2073 32.2209 92.013C32.0137 91.7539 31.8194 91.4819 31.6251 91.2099C31.4826 91.0156 31.3531 90.8214 31.2236 90.6271C31.0293 90.3292 30.8609 90.0312 30.6796 89.7204C30.563 89.5261 30.4464 89.3318 30.3428 89.1246C30.1615 88.7748 29.9931 88.4122 29.8247 88.0495C29.747 87.8682 29.6563 87.6998 29.5786 87.5184C29.3454 86.9615 29.1382 86.4045 28.9439 85.8087C29.2289 85.8217 29.5397 85.8087 29.8376 85.8087C29.9672 85.8087 30.0967 85.8087 30.2262 85.8087C30.55 85.8087 30.8609 85.8087 31.1847 85.7828C31.2883 85.7828 31.4049 85.7569 31.5085 85.7569C31.8453 85.731 32.1821 85.7051 32.5188 85.6662C32.6095 85.6662 32.7131 85.6533 32.8038 85.6403C32.8944 85.6403 32.9722 85.6015 33.0628 85.5885C33.555 85.5108 34.0472 85.4201 34.5394 85.3036C34.6301 85.2777 34.7078 85.2517 34.7985 85.2388C35.3684 85.0963 35.9383 84.915 36.4953 84.6948C36.573 84.6689 36.6507 84.63 36.7284 84.6041C37.3501 84.3451 37.9719 84.0601 38.5677 83.6974L37.2724 82.998L35.6922 82.1431C34.1249 81.2883 32.4929 80.3945 31.0034 79.5915C30.55 79.3454 30.1226 79.1122 29.7081 78.892C29.0605 78.8402 28.4258 78.7625 27.8041 78.6459C27.5968 78.6071 27.4026 78.5553 27.1953 78.5035H27.1435C26.8197 78.1667 26.4829 77.8299 26.185 77.4672C26.1203 77.4025 26.0684 77.3248 26.0166 77.2471C25.7317 76.9103 25.4597 76.5606 25.2006 76.1979C25.1099 76.0684 25.0193 75.9388 24.9286 75.8093C24.6825 75.4596 24.4623 75.0969 24.2421 74.7213C24.1774 74.6177 24.1126 74.5141 24.0608 74.4104C23.7888 73.9441 23.5427 73.4649 23.3225 72.9597C23.2707 72.8432 23.2189 72.7266 23.1671 72.5971C22.9987 72.1955 22.8303 71.794 22.6749 71.3925C22.6231 71.2371 22.5583 71.0816 22.5065 70.9262C22.351 70.4729 22.2086 70.0066 22.079 69.5273C22.0531 69.4496 22.0272 69.3719 22.0143 69.2812C21.8718 68.7243 21.7552 68.1673 21.6516 67.5974C21.6257 67.4419 21.5998 67.2865 21.5739 67.1311C21.5091 66.6907 21.4444 66.2374 21.4055 65.784C21.3926 65.6156 21.3667 65.4343 21.3537 65.2659C21.3148 64.6701 21.276 64.0613 21.276 63.4396C22.0661 63.7764 22.8692 64.0613 23.6981 64.2945C23.9183 64.3592 24.1385 64.411 24.3587 64.4629C25.2913 64.6831 26.2498 64.8385 27.2212 64.9162C27.3507 64.9162 27.4803 64.9162 27.6098 64.9421C28.7108 65.0069 29.8376 64.9939 30.9645 64.8773L31.4697 64.8255L31.0422 64.5794C29.0346 63.4137 27.3119 61.8982 25.8871 60.1108C25.8094 60.0072 25.7317 59.9165 25.654 59.8129C24.3457 58.0902 23.3095 56.1343 22.6101 53.9972C22.5842 53.9324 22.5583 53.8547 22.5324 53.7899C21.8459 51.6398 21.4703 49.3342 21.4573 46.9121C21.4573 46.8473 21.4573 46.7826 21.4573 46.7308C21.4573 46.679 21.4573 46.6142 21.4573 46.5494C21.4573 45.2542 21.5868 43.9719 21.7941 42.6766C21.7941 42.6248 21.807 42.5859 21.82 42.5341C22.0402 41.2389 22.351 39.9436 22.7655 38.6743L22.8044 38.5706C22.9339 38.1821 23.0634 37.7935 23.2059 37.4179C23.6074 37.7287 24.009 38.0266 24.4235 38.3245C24.6437 38.4929 24.8768 38.6484 25.097 38.8038C25.6669 39.1924 26.2368 39.5809 26.8197 39.9436C27.0528 40.0861 27.273 40.2415 27.5062 40.384C27.7134 40.5135 27.9207 40.6431 28.1279 40.7596C28.7108 41.1094 29.2807 41.4461 29.8765 41.757H29.9154V41.7829L31.1718 42.4694L33.1535 43.5444L34.112 44.0625C34.6042 44.3345 35.0964 44.6065 35.5886 44.8656L35.8476 45.0081L36.9486 45.6039L37.4279 45.8629C37.8812 46.1091 38.3086 46.3422 38.7231 46.5624H38.749C38.749 46.5624 38.8008 46.6012 38.8267 46.6142C39.6168 47.0416 40.4069 47.4432 41.223 47.8188C41.4043 47.8965 41.5727 47.9872 41.754 48.0649C42.57 48.4405 43.386 48.7902 44.215 49.127C44.3575 49.1788 44.5129 49.2436 44.6554 49.2954C45.4196 49.5933 46.1968 49.8783 46.9739 50.1373C47.1164 50.1891 47.2459 50.228 47.3884 50.2798C48.2433 50.5518 49.1111 50.8108 49.9789 51.044C50.1732 51.0958 50.3675 51.1476 50.5618 51.1994C50.9244 51.2901 51.3001 51.3807 51.6627 51.4714C51.857 51.5232 52.0643 51.5621 52.2586 51.6009C52.5953 51.6787 52.9321 51.7564 53.2689 51.8211H53.3077C54.2144 52.0025 55.1211 52.1579 56.0407 52.2874C56.235 52.3133 56.4293 52.3392 56.6365 52.3651C57.5432 52.4817 58.4628 52.5853 59.3825 52.6631C59.5379 52.6631 59.6933 52.689 59.8488 52.689C60.6907 52.7537 61.5456 52.7926 62.4004 52.8055C62.5559 52.8055 62.7113 52.8055 62.8667 52.8185C63.7993 52.8314 64.7448 52.8185 65.6904 52.7796C65.8976 52.7796 66.1049 52.7667 66.3121 52.7537C67.2836 52.7019 68.255 52.6501 69.2394 52.5465C69.1099 51.9377 69.0192 51.3289 68.9415 50.7461C68.9415 50.6813 68.9285 50.6295 68.9156 50.5647C68.8508 50.0466 68.799 49.5285 68.7601 49.0234C68.7601 48.9716 68.7601 48.9068 68.7472 48.842C68.7213 48.4017 68.7083 47.9613 68.7083 47.5338C68.7083 47.4691 68.7083 47.4043 68.7083 47.3525C68.7083 47.3007 68.7083 47.2359 68.7083 47.1712C68.7861 38.8038 73.0474 30.9157 79.3424 26.0325C79.3683 26.0066 79.4072 25.9807 79.4331 25.9678C82.5806 23.5457 86.2332 21.8748 90.1319 21.279C90.2096 21.279 90.3003 21.2401 90.378 21.2271C91.0515 21.1365 91.7121 21.0847 92.3727 21.0588C92.554 21.0588 92.7224 21.0588 92.9038 21.0458C93.4607 21.0458 94.0047 21.0458 94.5487 21.0847C94.6653 21.0847 94.7689 21.0847 94.8855 21.0976C95.5202 21.1494 96.1419 21.2401 96.7636 21.3567C96.9191 21.3826 97.0745 21.4214 97.217 21.4603C97.2688 21.4603 97.3206 21.4862 97.3594 21.4991C97.3594 21.4991 97.3854 21.5251 97.3983 21.5251L104.483 25.3849C103.59 26.3693 102.631 27.3149 101.621 28.1827L107.631 31.4597C107.462 31.654 107.294 31.8483 107.126 32.0425C105.843 33.4932 104.522 34.9051 103.097 36.2262C103.11 36.563 103.097 36.8998 103.097 37.2365C103.097 37.2883 103.097 37.3402 103.097 37.392C103.097 37.6769 103.097 37.9489 103.097 38.2339C103.097 38.2857 103.097 38.3375 103.097 38.3893C103.097 38.5966 103.097 38.8038 103.097 39.011C103.097 39.0758 103.097 39.1406 103.097 39.1924C103.097 39.2442 103.097 39.3089 103.097 39.3737C103.072 44.6713 102.411 50.0725 101.168 55.422L101.142 55.5256C98.6547 66.2115 93.8752 76.716 87.1917 85.7569C87.1658 85.7958 87.1269 85.8476 87.101 85.8864C87.0751 85.9253 87.0362 85.9771 86.9974 86.016C84.3421 89.5909 80.9744 93.4507 76.8685 97.1552L76.7778 97.2329C72.5941 100.989 67.6203 104.551 61.7787 107.465C61.7398 107.491 61.688 107.504 61.6492 107.53C55.8076 110.432 49.1111 112.685 41.4561 113.786C41.3654 113.786 41.2877 113.812 41.1971 113.825C41.1064 113.838 41.0157 113.851 40.925 113.864C37.2854 114.356 33.6716 114.512 30.1355 114.317C30.019 114.317 29.8895 114.304 29.7729 114.291C26.7161 114.11 23.7111 113.67 20.7838 112.983C21.0817 112.944 21.3667 112.918 21.6646 112.88C21.7552 112.88 21.8459 112.867 21.9366 112.854C22.0272 112.854 22.1049 112.828 22.1956 112.815C25.3431 112.349 28.4388 111.545 31.4438 110.419C31.5085 110.393 31.5862 110.367 31.651 110.341C34.7467 109.162 37.7387 107.647 40.6012 105.807C40.653 105.769 40.7178 105.73 40.7696 105.691C43.6839 103.8 46.4688 101.585 49.0722 99.0462L49.409 98.7354L40.5494 93.917L40.1349 93.9688C39.5909 94.0336 39.0469 94.0724 38.5159 94.0984C38.3345 94.0984 38.1661 94.0984 37.9848 94.0984C37.6221 94.0984 37.2724 94.0984 36.9227 94.0984C36.7155 94.0984 36.5082 94.0725 36.3139 94.0595C35.9901 94.0336 35.6793 94.0077 35.3684 93.9688C35.1611 93.9429 34.941 93.9041 34.7337 93.8782C34.4358 93.8264 34.1379 93.7745 33.84 93.7227C33.7882 93.7227 33.7234 93.6968 33.6716 93.6839L33.6846 93.645ZM103.603 37.107C103.603 36.9516 103.603 36.7961 103.603 36.6537L111.84 41.1353C111.84 41.2907 111.84 41.4461 111.84 41.6015L103.603 37.12V37.107ZM111.853 42.1067C111.853 42.1974 111.853 42.288 111.853 42.3658C111.853 42.4176 111.853 42.4694 111.853 42.5212V42.56L103.603 38.0784C103.603 37.923 103.603 37.7805 103.603 37.6251L111.853 42.1067ZM38.1014 96.4428L38.205 96.3521C38.4122 96.1708 38.6324 95.9894 38.8397 95.7951C39.2542 95.4195 39.6557 95.0309 40.0702 94.6424L47.5309 98.7095C47.2589 98.7224 46.9739 98.7483 46.7019 98.7483C46.5335 98.7483 46.3781 98.7483 46.2097 98.7483C45.7046 98.7483 45.1994 98.7095 44.6943 98.6577C44.6036 98.6577 44.5129 98.6577 44.4093 98.6318C43.8264 98.567 43.2565 98.4634 42.6866 98.3468C42.5571 98.3209 42.4275 98.282 42.298 98.2561C41.8317 98.1396 41.3654 98.023 40.8991 97.8676C40.7955 97.8287 40.679 97.8028 40.5753 97.7639C40.4976 97.738 40.4328 97.6992 40.3551 97.6733L38.0884 96.4428H38.1014ZM40.1868 94.5258C40.1868 94.5258 40.2645 94.4481 40.3033 94.4092L48.1396 98.6706C48.036 98.6706 47.9324 98.6706 47.8417 98.6836L40.1868 94.5258ZM35.5497 95.0439C35.2518 94.8107 34.9669 94.5647 34.6819 94.3186C34.9798 94.3704 35.2777 94.4092 35.5756 94.4481C35.7311 94.461 35.8865 94.474 36.0549 94.4869C36.5082 94.5258 36.9616 94.5517 37.4279 94.5517C37.5962 94.5517 37.7776 94.5517 37.946 94.5517C38.49 94.5517 39.0469 94.5258 39.6039 94.474C38.9822 95.0698 38.3345 95.6397 37.6869 96.2096L35.5497 95.0439ZM32.6095 100.652C32.8815 100.471 33.1535 100.277 33.4385 100.082C33.6975 99.9011 33.9566 99.7198 34.2156 99.5384C34.4876 99.3442 34.7467 99.1369 35.0187 98.9426C35.2777 98.7483 35.5368 98.554 35.7958 98.3598C36.0678 98.1525 36.3398 97.9194 36.6118 97.6992C36.8579 97.5049 37.104 97.3106 37.3372 97.1034C37.4019 97.0515 37.4667 96.9868 37.5315 96.935L37.6351 96.9868C37.8035 97.0775 37.9848 97.1552 38.1662 97.2458C38.4252 97.3754 38.6843 97.5049 38.9433 97.6215C39.0728 97.6733 39.2024 97.7251 39.3319 97.7769C39.5521 97.8676 39.7593 97.9582 39.9795 98.0359C40.0961 98.0748 40.2127 98.1266 40.3292 98.1655C40.5106 98.2302 40.679 98.282 40.8603 98.3339C41.1582 98.4245 41.4691 98.5152 41.7799 98.6059C41.9742 98.6577 42.1685 98.6965 42.3757 98.7483C42.6736 98.8131 42.9845 98.8779 43.2954 98.9297C43.5026 98.9685 43.6969 98.9944 43.9041 99.0203C44.215 99.0592 44.5388 99.0981 44.8626 99.124C45.0569 99.1369 45.2642 99.1628 45.4585 99.1758C45.8082 99.2017 46.1708 99.2017 46.5206 99.2017C46.6889 99.2017 46.8703 99.2017 47.0387 99.2017C47.4661 99.2017 47.9065 99.1628 48.3469 99.124H48.3728C47.4272 100.044 46.4558 100.898 45.4714 101.714L45.4455 101.74C45.044 102.064 44.6424 102.388 44.2409 102.699C44.1373 102.777 44.0337 102.867 43.93 102.945C43.5544 103.23 43.1788 103.502 42.7902 103.787C42.6607 103.891 42.5182 103.994 42.3887 104.085C42.0649 104.318 41.7281 104.538 41.3913 104.758C41.1971 104.888 41.0028 105.03 40.8085 105.16C40.7178 105.225 40.6271 105.276 40.5365 105.328L32.2986 100.847C32.4023 100.782 32.5188 100.704 32.6224 100.639L32.6095 100.652ZM24.1903 105.16C24.5012 105.03 24.7991 104.901 25.1099 104.758C25.382 104.642 25.654 104.525 25.926 104.396C26.2239 104.253 26.5218 104.111 26.8197 103.955C27.0917 103.826 27.3637 103.696 27.6357 103.554C27.9336 103.398 28.2186 103.243 28.5035 103.087C28.7755 102.945 29.0475 102.802 29.3195 102.647C29.6045 102.492 29.8895 102.31 30.1744 102.155C30.4464 101.999 30.7184 101.844 30.9775 101.676C31.2624 101.507 31.5344 101.326 31.8194 101.145L31.8971 101.093L40.1349 105.574C40.0443 105.626 39.9536 105.691 39.8629 105.743C39.6427 105.885 39.4226 106.028 39.2024 106.157C38.9044 106.339 38.5936 106.507 38.2957 106.675C38.0496 106.818 37.8164 106.96 37.5703 107.09C37.2983 107.232 37.0263 107.375 36.7543 107.517C36.4694 107.66 36.1974 107.815 35.9124 107.958C35.6793 108.074 35.4332 108.191 35.2 108.294C34.8762 108.45 34.5653 108.605 34.2415 108.748C34.0084 108.851 33.7752 108.942 33.5421 109.046C33.2053 109.188 32.8815 109.331 32.5447 109.473C32.3116 109.564 32.0655 109.654 31.8323 109.745C31.7287 109.784 31.6121 109.823 31.5085 109.862L23.3743 105.432C23.6463 105.328 23.9183 105.225 24.1903 105.108V105.16ZM14.3204 107.996C14.6313 107.945 14.9422 107.893 15.253 107.841C15.5639 107.789 15.8618 107.712 16.1727 107.647C16.4706 107.582 16.7685 107.517 17.0664 107.452C17.3773 107.375 17.6881 107.297 17.999 107.219C18.2969 107.142 18.5818 107.077 18.8798 106.986C19.1906 106.896 19.5015 106.805 19.8123 106.714C20.0973 106.623 20.3823 106.546 20.6672 106.455C20.9781 106.352 21.2889 106.248 21.5998 106.144C21.8848 106.041 22.1568 105.95 22.4417 105.846C22.5712 105.795 22.7137 105.743 22.8432 105.691L30.9775 110.108C30.9775 110.108 30.8868 110.147 30.8479 110.16C30.6148 110.237 30.3816 110.315 30.1615 110.393C29.8117 110.509 29.462 110.639 29.1252 110.742C28.8791 110.82 28.646 110.885 28.3999 110.95C28.0631 111.053 27.7134 111.157 27.3766 111.248C27.1176 111.312 26.8585 111.377 26.5995 111.442C26.2627 111.52 25.9389 111.61 25.6021 111.688C25.3301 111.753 25.0581 111.805 24.7861 111.856C24.4623 111.921 24.1385 111.999 23.8147 112.051C23.5168 112.102 23.2189 112.141 22.921 112.193C22.6231 112.245 22.3381 112.297 22.0402 112.336L14.1003 108.009C14.178 107.996 14.2557 107.984 14.3334 107.971L14.3204 107.996ZM13.1029 108.191L21.004 112.491C20.732 112.53 20.46 112.556 20.2009 112.595L12.2869 108.294C12.5589 108.256 12.818 108.243 13.1029 108.204V108.191ZM11.1082 108.424C11.1082 108.424 11.1989 108.424 11.2377 108.411C11.3284 108.411 11.4191 108.385 11.4968 108.385L19.1777 112.556C19.074 112.53 18.9575 112.504 18.8539 112.465C18.1803 112.284 17.4938 112.077 16.8333 111.856L10.5901 108.463C10.7714 108.45 10.9398 108.437 11.1212 108.424H11.1082ZM9.17828 108.566C9.41142 108.566 9.65752 108.528 9.90362 108.515L14.7608 111.157C13.6599 110.755 12.5719 110.315 11.4968 109.836L9.16532 108.566H9.17828ZM16.7685 113.074L12.8957 110.963C13.2454 111.105 13.621 111.222 13.9707 111.364L17.0275 113.035C16.9369 113.048 16.8462 113.061 16.7555 113.074H16.7685ZM16.0172 112.284L15.0199 111.74C15.7323 111.986 16.4317 112.232 17.1571 112.452L17.9472 112.88C17.7399 112.906 17.5197 112.944 17.3125 112.983L16.0302 112.284H16.0172ZM24.0737 115.962C23.7629 115.846 23.4391 115.742 23.1282 115.626C22.8303 115.509 22.5453 115.392 22.2604 115.276C21.9107 115.133 21.5609 115.004 21.2242 114.861C21.0299 114.784 20.8485 114.693 20.6672 114.602C19.6958 114.175 18.7243 113.709 17.7788 113.229C18.0378 113.229 18.3098 113.203 18.5818 113.178C18.6984 113.178 18.802 113.178 18.9186 113.152H18.9316L24.0996 115.962H24.0737ZM36.0419 118.708C35.7311 118.669 35.4072 118.643 35.0964 118.605C34.7208 118.553 34.3451 118.501 33.9825 118.436C33.6716 118.384 33.3607 118.346 33.0499 118.294C32.6743 118.229 32.3116 118.164 31.936 118.087C31.6251 118.035 31.3272 117.97 31.0163 117.918C30.6537 117.84 30.291 117.75 29.9283 117.672C29.6174 117.607 29.3195 117.543 29.0087 117.465C28.646 117.374 28.2833 117.271 27.9207 117.167C27.8559 117.154 27.7782 117.128 27.7134 117.115L21.0558 113.488C23.8147 114.11 26.6254 114.525 29.4879 114.719L37.0004 118.812C36.6766 118.786 36.3657 118.747 36.0419 118.708ZM48.6966 118.644C48.3728 118.682 48.049 118.721 47.7252 118.76C47.3366 118.799 46.961 118.825 46.5724 118.864C46.2486 118.89 45.9118 118.916 45.588 118.941C45.2124 118.967 44.8367 118.98 44.4611 118.993C44.1243 119.006 43.8005 119.019 43.4638 119.032C43.0881 119.032 42.7125 119.032 42.3369 119.032C42.0131 119.032 41.6763 119.032 41.3525 119.032C40.9769 119.032 40.6012 119.006 40.2256 119.006C39.9018 119.006 39.578 118.993 39.2542 118.967C39.0728 118.967 38.8915 118.941 38.7102 118.928L31.107 114.797C31.923 114.822 32.752 114.848 33.568 114.848C33.6716 114.848 33.7623 114.848 33.8659 114.848C34.7467 114.848 35.6404 114.784 36.5341 114.732C36.8709 114.706 37.2077 114.706 37.5444 114.68C38.205 114.628 38.8656 114.538 39.5262 114.473C40.0961 114.408 40.666 114.369 41.2359 114.291L49.1499 118.592C49.0075 118.605 48.852 118.631 48.7095 118.644H48.6966ZM69.343 112.776C68.4622 113.19 67.5426 113.579 66.623 113.968C66.3769 114.071 66.1308 114.188 65.8847 114.291C64.7578 114.745 63.605 115.172 62.4263 115.574C62.3616 115.6 62.3098 115.626 62.245 115.639C59.7451 116.48 57.1158 117.193 54.3569 117.75C53.8776 117.84 53.3854 117.918 52.9062 117.996C51.9995 118.164 51.0928 118.333 50.1473 118.475L42.1814 114.149C42.7255 114.071 43.2565 113.955 43.7876 113.864C44.4482 113.747 45.1217 113.644 45.7693 113.514C46.5206 113.359 47.233 113.178 47.9583 112.996C48.58 112.841 49.2147 112.711 49.8235 112.543C50.5488 112.349 51.2353 112.115 51.9347 111.908C52.5176 111.727 53.1134 111.558 53.6833 111.377C54.3828 111.144 55.0434 110.885 55.7169 110.626C56.2609 110.419 56.8179 110.237 57.3489 110.017C58.0225 109.745 58.6571 109.447 59.3177 109.162C59.8229 108.942 60.341 108.722 60.8332 108.502C61.157 108.346 61.4549 108.191 61.7658 108.035L69.9647 112.504C69.7575 112.608 69.5632 112.711 69.343 112.815V112.776ZM85.1322 102.323C84.7307 102.686 84.3291 103.049 83.9147 103.398C83.4872 103.761 83.0209 104.111 82.5676 104.473C82.1661 104.797 81.7645 105.134 81.3501 105.445C80.8579 105.82 80.3398 106.183 79.8216 106.559C79.4201 106.844 79.0315 107.142 78.6171 107.427C78.0601 107.815 77.4643 108.178 76.8814 108.553C76.4928 108.812 76.1172 109.072 75.7027 109.318C75.0551 109.719 74.3686 110.095 73.6821 110.483C73.3195 110.691 72.9827 110.898 72.6071 111.105C71.9335 111.468 71.2211 111.817 70.5087 112.167L62.3098 107.699C62.4393 107.634 62.5688 107.569 62.6983 107.504C63.1646 107.258 63.6568 107.038 64.1102 106.779C64.7319 106.442 65.3148 106.092 65.9106 105.73C66.338 105.471 66.7914 105.238 67.2188 104.966C67.8146 104.603 68.3845 104.214 68.9544 103.826C69.343 103.567 69.7575 103.308 70.1461 103.049C70.703 102.66 71.2341 102.258 71.7781 101.857C72.1537 101.585 72.5423 101.313 72.892 101.041C73.4619 100.601 73.993 100.16 74.537 99.7198C74.8479 99.4737 75.1717 99.2276 75.4696 98.9685C76.0006 98.5281 76.4928 98.0748 76.985 97.6215L85.2747 102.129C85.2747 102.129 85.1711 102.22 85.1193 102.271L85.1322 102.323ZM95.1446 91.5726C94.8466 91.9612 94.5487 92.3498 94.2379 92.7513C94.0047 93.0492 93.7457 93.3471 93.4996 93.658C93.1628 94.0595 92.839 94.461 92.4893 94.8755C92.2302 95.1864 91.9453 95.4843 91.6733 95.7951C91.3106 96.1967 90.9609 96.6112 90.5852 97.0127C90.2873 97.3365 89.9765 97.6474 89.6656 97.9712C89.29 98.3727 88.9144 98.7613 88.5258 99.1628C88.189 99.4996 87.8393 99.8234 87.4896 100.16C87.101 100.536 86.7124 100.924 86.2979 101.3C86.0907 101.494 85.8576 101.689 85.6503 101.883L77.3607 97.3754C77.4772 97.2717 77.5938 97.1681 77.7104 97.0645C78.1119 96.6889 78.5005 96.3132 78.8891 95.9376C79.3036 95.5361 79.731 95.1475 80.1196 94.746C80.4693 94.3963 80.7931 94.0465 81.1299 93.6839C81.4796 93.3083 81.8552 92.9456 82.192 92.57C82.5287 92.2073 82.8266 91.8446 83.1505 91.4949C83.4743 91.1322 83.7981 90.7695 84.109 90.4198C84.4198 90.0442 84.7177 89.6815 85.0156 89.3189C85.3006 88.9691 85.5985 88.6324 85.8576 88.2827C86.1425 87.92 86.4145 87.5703 86.6865 87.2076C86.9326 86.8838 87.1917 86.56 87.4248 86.2491L95.7404 90.7825C95.5461 91.0415 95.3388 91.3136 95.1316 91.5726H95.1446ZM104.095 76.9232C103.9 77.3248 103.693 77.7133 103.499 78.1149C103.227 78.6718 102.955 79.2158 102.67 79.7598C102.437 80.2002 102.204 80.6147 101.958 81.0551C101.686 81.5473 101.427 82.0525 101.142 82.5447C100.87 83.0109 100.585 83.4772 100.313 83.9435C100.054 84.3839 99.7945 84.8373 99.5225 85.2647C99.2117 85.7569 98.8879 86.2491 98.564 86.7283C98.305 87.1299 98.0459 87.5314 97.7869 87.92C97.4372 88.4251 97.0874 88.9173 96.7248 89.4225C96.4787 89.7722 96.2326 90.1219 95.9865 90.4716L87.658 85.9382C87.9429 85.5626 88.202 85.1611 88.4869 84.7725C88.8107 84.3192 89.1346 83.8788 89.4325 83.4254C89.7174 83.0109 89.9894 82.5835 90.2614 82.1561C90.5723 81.6898 90.8832 81.2235 91.1811 80.7442C91.4401 80.3298 91.6862 79.9023 91.9453 79.4749C92.2432 78.9827 92.5411 78.4905 92.826 77.9983C93.0721 77.5838 93.2923 77.1434 93.5255 76.7289C93.8104 76.2238 94.0954 75.7186 94.3674 75.2005C94.6005 74.7602 94.8078 74.3068 95.028 73.8664C95.287 73.3613 95.5461 72.8561 95.7922 72.351C95.9088 72.0919 96.0253 71.8329 96.1419 71.5868L104.47 76.1202C104.341 76.3922 104.237 76.6512 104.108 76.9232H104.095ZM107.67 68.1543C107.67 68.1543 107.644 68.2191 107.631 68.245C107.307 69.2035 106.957 70.162 106.582 71.1075C106.491 71.3536 106.374 71.5997 106.284 71.8458C105.999 72.5712 105.701 73.3095 105.39 74.0348C105.248 74.3845 105.079 74.7213 104.924 75.0581C104.82 75.3042 104.704 75.5503 104.587 75.7834L96.2585 71.25C96.2973 71.1723 96.3362 71.0816 96.375 71.0039C96.8802 69.89 97.3594 68.7761 97.8128 67.6492C97.9682 67.2736 98.1236 66.8979 98.2791 66.5094C98.4734 66.0172 98.6417 65.512 98.8231 65.0198C99.0044 64.5276 99.1987 64.0225 99.3671 63.5303C99.5355 63.0381 99.678 62.5459 99.8463 62.0537C100.015 61.5485 100.183 61.0304 100.339 60.5253C100.481 60.0331 100.611 59.5409 100.753 59.0487C100.896 58.5306 101.051 58.0125 101.18 57.4944C101.31 57.0022 101.414 56.5229 101.53 56.0307C101.556 55.9271 101.582 55.8105 101.608 55.7069L109.91 60.2274C109.289 62.8826 108.55 65.525 107.657 68.1414L107.67 68.1543ZM111.827 45.8759C111.827 46.2645 111.827 46.6401 111.802 47.0287C111.776 47.6763 111.711 48.3369 111.672 48.9975C111.646 49.3472 111.633 49.6969 111.594 50.0466C111.53 50.759 111.439 51.4585 111.361 52.1709C111.322 52.4688 111.296 52.7667 111.258 53.0646C111.154 53.8676 111.024 54.6578 110.895 55.4608C110.856 55.6681 110.83 55.8753 110.791 56.0955C110.623 57.0281 110.442 57.9607 110.247 58.9062C110.234 58.9839 110.221 59.0616 110.208 59.1264C110.157 59.3595 110.092 59.5797 110.053 59.8129L101.75 55.2924C101.815 55.0204 101.88 54.7484 101.945 54.4764C102.048 53.9842 102.139 53.505 102.23 53.0128C102.333 52.4817 102.45 51.9507 102.54 51.4326C102.631 50.9404 102.696 50.4482 102.774 49.9689C102.851 49.4379 102.942 48.9198 103.02 48.3887C103.084 47.8965 103.136 47.4043 103.188 46.9121C103.253 46.394 103.318 45.8629 103.369 45.3448C103.408 44.8526 103.434 44.3604 103.473 43.8683C103.512 43.3501 103.551 42.832 103.577 42.3139C103.603 41.8217 103.603 41.3295 103.616 40.8373C103.616 40.4358 103.641 40.0213 103.654 39.6198L111.905 44.1014C111.905 44.6972 111.879 45.293 111.866 45.9018L111.827 45.8759ZM107.903 41.3554L103.641 39.0369C103.641 38.9333 103.641 38.8297 103.641 38.7261C103.641 38.6872 103.641 38.6613 103.641 38.6225L111.892 43.104C111.892 43.2465 111.892 43.389 111.892 43.5185L107.916 41.3554H107.903ZM112.061 40.7337L103.706 36.1874C104.976 35.0216 106.18 33.7652 107.346 32.47L115.674 37.0034C114.522 38.2857 113.33 39.5421 112.061 40.7337ZM116.011 36.6019L107.683 32.0685C107.812 31.926 107.929 31.7835 108.058 31.641L110.519 32.9751C111.866 32.5995 113.188 32.1591 114.496 31.6799C114.573 31.654 114.664 31.6151 114.742 31.5892C115.247 31.3949 115.765 31.2136 116.27 30.9934L119.236 32.5995C118.226 33.9725 117.151 35.3066 116.024 36.5889L116.011 36.6019ZM119.638 32.0685L117.06 30.6696C117.565 30.4494 118.058 30.2033 118.55 29.9701C118.628 29.9313 118.705 29.9054 118.783 29.8665C119.988 29.2836 121.179 28.6619 122.345 27.9754C121.503 29.3873 120.596 30.7343 119.638 32.0685ZM122.164 27.561C121.464 27.1853 120.713 26.7708 119.936 26.3564C119.133 25.916 118.304 25.4756 117.488 25.0222C117.553 24.9057 117.63 24.8021 117.682 24.6984L122.552 27.3537C122.423 27.4314 122.28 27.4962 122.151 27.5739L122.164 27.561ZM122.967 27.0947L117.889 24.3358C117.889 24.3358 117.928 24.2451 117.954 24.2062L123.109 27.004L122.967 27.0947Z" fill="#EF692B"/>
</svg>
