<svg xmlns="http://www.w3.org/2000/svg" width="54" height="55" fill="none" viewBox="0 0 54 55"><path fill="#000" d="M50.6968 26.0133C50.6968 24.6632 50.5803 23.3561 50.3716 22.0982C50.3655 22.0613 50.3593 22.0184 50.3532 21.9816C50.1384 20.7297 49.8255 19.527 49.4082 18.3733C49.3898 18.3304 49.3775 18.2874 49.3591 18.2444C48.9357 17.0969 48.4325 15.9985 47.8127 14.9553C47.5795 14.5687 47.3402 14.1882 47.0886 13.8262C47.0027 13.7034 46.9168 13.593 46.8309 13.4764C46.659 13.2371 46.4872 12.9977 46.3031 12.7707C46.1927 12.6357 46.0822 12.5068 45.9717 12.3718C45.8674 12.2429 45.7631 12.1141 45.6526 11.9852C45.5974 11.9238 45.5483 11.8686 45.4931 11.8073C45.4808 11.795 45.4685 11.7827 45.4624 11.7704C45.3397 11.6354 45.2108 11.5066 45.0881 11.3777C44.9163 11.1997 44.7383 11.0156 44.5542 10.8438C44.4192 10.715 44.2842 10.5922 44.1431 10.4695C43.959 10.3038 43.7749 10.1443 43.5846 9.99085C43.4374 9.87426 43.2962 9.75767 43.1428 9.64107C43.106 9.61039 43.0692 9.57971 43.0262 9.54902C42.8728 9.43243 42.7133 9.32197 42.5537 9.20538C42.4003 9.09492 42.2469 8.9906 42.0935 8.88628C41.8848 8.75128 41.6762 8.62241 41.4614 8.49355C41.3019 8.39536 41.1423 8.30331 40.9828 8.21127C40.9153 8.17445 40.8539 8.13149 40.7864 8.09467C40.5287 7.95353 40.2525 7.80626 39.9702 7.65285L39.6696 7.48716L37.4052 6.25372L36.589 5.8119C36.319 5.66462 36.0429 5.52348 35.7606 5.38848C34.7726 4.90983 33.754 4.54164 32.7046 4.25936C32.5819 4.22868 32.4653 4.19186 32.3426 4.16731C31.2319 3.89117 30.0843 3.71321 28.9123 3.65185C28.8448 3.65185 28.7773 3.65185 28.7159 3.64571C27.5193 3.59048 26.292 3.64571 25.034 3.8114C24.9911 3.8114 24.9481 3.81753 24.899 3.82367C24.856 3.82367 24.8192 3.83594 24.7763 3.84208C23.5551 4.02004 22.3585 4.30232 21.1926 4.67664C21.1496 4.68892 21.1128 4.70119 21.0698 4.71346C19.8609 5.1062 18.6827 5.60325 17.5352 6.20463C17.5045 6.22304 17.4677 6.24145 17.437 6.25986C16.2895 6.86737 15.1727 7.57307 14.0988 8.38923C14.0742 8.40763 14.0497 8.41991 14.0313 8.43832C14.0067 8.45673 13.9883 8.47514 13.9638 8.49355C12.9083 9.29743 11.9264 10.1811 11.0121 11.1261C10.9876 11.1568 10.9569 11.1813 10.9323 11.2059C10.0057 12.1632 9.14661 13.1941 8.36727 14.2864C8.33659 14.3294 8.30591 14.3723 8.28136 14.4153C7.50816 15.5014 6.8086 16.649 6.18268 17.864C6.17041 17.8885 6.15813 17.9069 6.14586 17.9315C6.13359 17.956 6.12745 17.9806 6.11518 17.999C5.49539 19.2201 4.97993 20.472 4.56264 21.7361C4.55037 21.7791 4.53196 21.822 4.51969 21.865C4.10241 23.1414 3.78944 24.4423 3.57467 25.7555C3.57467 25.7923 3.56239 25.8292 3.55626 25.866C3.34148 27.1731 3.23102 28.4863 3.21875 29.8117C3.21875 29.8424 3.21875 29.867 3.21875 29.8977C3.21875 29.9283 3.21875 29.959 3.21875 29.9836C3.21875 31.6097 3.38444 33.1684 3.67899 34.6534C3.68512 34.6964 3.69126 34.7394 3.70353 34.7823C4.00422 36.2551 4.45832 37.6603 5.04743 38.992C5.07197 39.041 5.09038 39.0901 5.11493 39.1392C5.69176 40.4033 6.38518 41.6 7.21975 42.7229C7.25657 42.7659 7.28111 42.815 7.31793 42.8641C7.35475 42.9132 7.39157 42.9561 7.42839 43.0052C7.70453 43.3611 7.98681 43.6986 8.27523 44.03C8.33659 44.0975 8.39182 44.165 8.45318 44.2325C8.77228 44.5823 9.10365 44.9198 9.4473 45.245C9.5148 45.3064 9.5823 45.3678 9.64367 45.4291C9.87072 45.6378 10.0978 45.8342 10.331 46.0305C10.4414 46.1226 10.5519 46.2207 10.6685 46.3067C10.693 46.3251 10.7114 46.3435 10.736 46.3619C10.7482 46.3742 10.7605 46.3803 10.7728 46.3926C11.141 46.681 11.5214 46.9449 11.9142 47.1965C11.9817 47.2394 12.0553 47.2885 12.1228 47.3315C12.4419 47.534 12.761 47.7242 13.0924 47.9083C13.2887 48.0126 13.4974 48.1292 13.706 48.2397C13.7613 48.2703 13.8165 48.301 13.8779 48.3317L14.4301 48.6324L14.4547 48.6447L15.8968 49.4301L16.0134 49.4915C16.3509 49.6756 16.6761 49.8536 16.9891 50.0192L17.2897 50.1849C17.3511 50.2156 17.4125 50.2463 17.4738 50.277C17.615 50.3506 17.7623 50.4181 17.9034 50.4918C17.9648 50.5224 18.0261 50.5531 18.0875 50.5838C18.3268 50.7004 18.5661 50.8047 18.8116 50.909C18.9711 50.9765 19.1307 51.044 19.2964 51.1054C19.6155 51.2281 19.9407 51.3447 20.2659 51.4491C20.4132 51.4981 20.5605 51.5472 20.7078 51.5963C21.1864 51.7375 21.6712 51.8663 22.1683 51.9706C22.2112 51.9706 22.248 51.9706 22.291 51.9706C22.3033 51.9706 22.3094 51.9706 22.3217 51.9706C22.3646 51.9706 22.4014 51.9706 22.4444 51.9706H22.4628C22.5058 51.9706 22.5487 51.9706 22.5917 51.9706C22.6285 51.9706 22.6592 51.9461 22.696 51.94C22.7205 51.94 22.7451 51.9277 22.7696 51.9216C22.8126 51.9093 22.8617 51.897 22.9046 51.8786C22.9599 51.8602 23.0151 51.8418 23.0642 51.8111C23.101 51.7927 23.1317 51.7559 23.1685 51.7313C23.2115 51.7006 23.2544 51.6761 23.2912 51.6393C23.3096 51.6209 23.3403 51.6086 23.3587 51.5902C23.3772 51.5718 23.3894 51.5472 23.4078 51.5288C23.4569 51.4736 23.4999 51.4122 23.5367 51.3509C23.5612 51.3079 23.5858 51.2588 23.6042 51.2159C23.641 51.1361 23.6717 51.0563 23.6901 50.9704C23.6962 50.9397 23.7085 50.9029 23.7208 50.8722C23.7331 50.8047 23.7392 50.7372 23.7392 50.6697C23.7392 50.639 23.7453 50.6145 23.7453 50.5838C23.7453 50.5715 23.7453 50.5408 23.7453 50.4979V50.2831C23.7453 50.1665 23.7453 50.0192 23.7453 49.8351V49.7492C23.7453 49.5345 23.7453 49.2767 23.7392 48.976C23.7392 48.6508 23.7392 48.344 23.7392 48.0372V47.9512C23.7392 47.6751 23.7392 47.399 23.7392 47.1228V47.0369C23.7392 46.7669 23.7392 46.4969 23.7392 46.2269C23.4508 46.0673 23.1378 45.9017 22.8126 45.7237L20.1555 44.2755L19.9407 44.1589C19.9407 44.1589 19.9837 44.1589 20.0082 44.165C20.0819 44.1773 20.1616 44.1834 20.2353 44.1896C20.2844 44.1896 20.3396 44.208 20.3887 44.208C20.493 44.208 20.6035 44.2018 20.7078 44.1896C20.7569 44.1896 20.806 44.1896 20.855 44.1834C20.898 44.1834 20.9348 44.1712 20.9778 44.165C21.1005 44.1466 21.2171 44.1282 21.3276 44.1037C21.3705 44.0975 21.4073 44.0852 21.4503 44.0791C21.5976 44.0484 21.7387 44.0177 21.8798 43.9809C21.9167 43.9687 21.9535 43.9625 21.9903 43.9502C22.1253 43.9134 22.248 43.8766 22.3708 43.8337C22.4014 43.8214 22.4383 43.8152 22.469 43.803C22.4996 43.7907 22.5303 43.7784 22.561 43.7661C22.6469 43.7355 22.739 43.6987 22.8249 43.6618C22.8555 43.6496 22.8862 43.6311 22.9169 43.6189C23.0335 43.5636 23.1501 43.5023 23.2667 43.4409C23.2974 43.4225 23.3219 43.4102 23.3526 43.3918C23.4937 43.3059 23.641 43.22 23.7883 43.1095C23.954 41.7779 24.4142 40.6856 25.1445 39.8817L25.2611 39.7529L21.0637 37.4701H20.9103C20.6157 37.4824 20.3273 37.4824 20.045 37.4824C19.9898 37.4824 19.9407 37.4824 19.8855 37.4824C19.6155 37.4824 19.3516 37.464 19.1 37.4517C19.0448 37.4517 18.9834 37.4456 18.9282 37.4394C18.695 37.421 18.468 37.4026 18.247 37.3719C18.1795 37.3658 18.112 37.3596 18.0445 37.3474C17.9648 37.3351 17.885 37.3167 17.7991 37.3044C17.7254 37.2921 17.6518 37.2799 17.5782 37.2615C17.5413 37.2553 17.5045 37.2492 17.4616 37.243H17.4432C17.4432 37.243 17.4002 37.194 17.3757 37.1694C17.3388 37.1265 17.3082 37.0774 17.2775 37.0344C17.1179 36.8319 16.9706 36.611 16.8234 36.3655C16.805 36.3287 16.7804 36.2919 16.762 36.2551C16.6086 35.9912 16.4675 35.7028 16.3324 35.3898C16.3202 35.3591 16.3018 35.3285 16.2895 35.2916C16.1668 35.0032 16.0563 34.6903 15.952 34.365C15.9397 34.3282 15.9274 34.2975 15.9152 34.2546C15.9029 34.2239 15.8968 34.1871 15.8906 34.1564C15.7802 33.7759 15.6881 33.3586 15.6083 32.9352C15.6083 32.9107 15.6022 32.8861 15.5961 32.8555C15.5163 32.4136 15.4611 31.9534 15.4242 31.4686C15.4242 31.4441 15.4242 31.4195 15.4181 31.395C15.3813 30.9347 15.3629 30.4622 15.3567 29.9652C15.3567 29.9345 15.3567 29.9099 15.3567 29.8793C15.3567 29.8486 15.3567 29.824 15.3567 29.7933C15.3629 29.0201 15.4549 28.2715 15.6206 27.5474C15.6206 27.529 15.6268 27.5167 15.6329 27.4983C15.9704 26.0378 16.6147 24.6632 17.5843 23.3807C17.3572 22.8161 17.2222 22.2086 17.1609 21.5704C17.1609 21.5459 17.1547 21.5213 17.1547 21.4968C17.1056 20.8831 17.1302 20.2327 17.2345 19.5515C17.2345 19.5331 17.2407 19.5147 17.2468 19.4963C17.3511 18.809 17.5291 18.0972 17.7868 17.3547C17.8052 17.3485 17.8298 17.3424 17.8482 17.3362C17.8727 17.324 17.9034 17.324 17.9279 17.3178C17.9525 17.3117 17.9832 17.3056 18.0139 17.2933C18.0384 17.2872 18.0629 17.281 18.0936 17.2749C18.1182 17.2687 18.1427 17.2565 18.1673 17.2565C18.2041 17.2503 18.2348 17.2319 18.2716 17.2258C18.3145 17.2196 18.3698 17.2258 18.4127 17.2135C18.4864 17.2074 18.56 17.2012 18.6398 17.2012C18.6889 17.2012 18.7441 17.2012 18.7993 17.2074C18.9282 17.2074 19.0632 17.2258 19.2105 17.2442C19.278 17.2565 19.3516 17.2687 19.4191 17.281C19.5541 17.3056 19.6953 17.3362 19.8487 17.3731C19.9407 17.3976 20.0328 17.416 20.1309 17.4406C20.2537 17.4774 20.3641 17.5081 20.4807 17.5449C20.5666 17.5694 20.6464 17.594 20.7262 17.6185C20.8551 17.6553 20.9778 17.6983 21.0944 17.7351C21.1987 17.7719 21.303 17.8026 21.4012 17.8394C21.5301 17.8824 21.6467 17.9253 21.7633 17.9744C21.7878 17.9867 21.8185 17.9928 21.843 18.0051L21.8676 18.0174L21.9044 18.0297C22.113 18.1094 22.3094 18.1892 22.4628 18.269C22.6285 18.3549 22.7758 18.4285 22.923 18.5083C23.0703 18.582 23.2053 18.6556 23.3342 18.7231C23.4631 18.7906 23.5858 18.852 23.7085 18.9133C24.2547 18.674 24.8131 18.4654 25.3715 18.2751C25.3961 18.269 25.4267 18.2567 25.4513 18.2506C26.0158 18.0603 26.5865 17.9008 27.1572 17.7597C27.1879 17.7535 27.2186 17.7474 27.2493 17.7351C27.8138 17.6001 28.3845 17.4835 28.9614 17.3976C29.0043 17.3976 29.0411 17.3792 29.0841 17.3792C29.1271 17.3731 29.1761 17.3731 29.2191 17.3669C29.7407 17.2994 30.2623 17.2503 30.7778 17.2258C30.8207 17.2258 30.8637 17.2258 30.9005 17.2258C31.4589 17.2012 32.0112 17.2012 32.5574 17.2258C32.6064 17.2258 32.6555 17.2258 32.7046 17.2258C33.2999 17.2565 33.8951 17.3056 34.4842 17.3976L35.5765 16.514C35.7974 16.3421 36.0368 16.1642 36.2822 15.9923C36.3006 15.9801 36.3252 15.9617 36.3436 15.9494C36.497 15.8451 36.6504 15.7346 36.8161 15.6303C36.8161 15.6671 36.8161 15.7039 36.8161 15.7469C36.8161 15.8389 36.7977 15.9248 36.7854 16.0169C36.7854 16.0353 36.7854 16.0598 36.7793 16.0783C36.7179 16.7165 36.589 17.3485 36.3743 17.9744C36.859 18.4654 37.2579 19.0176 37.5831 19.6129C37.6016 19.6497 37.6261 19.6865 37.6445 19.7233C37.9391 20.2879 38.16 20.9015 38.3134 21.552C38.3195 21.5766 38.3257 21.6072 38.3318 21.6318C38.4729 22.2761 38.5527 22.9573 38.5589 23.6875C38.5589 23.7182 38.5589 23.7489 38.5589 23.7796C38.5589 23.8103 38.5589 23.8348 38.5589 23.8655C38.5589 24.4055 38.5282 24.921 38.4852 25.4242C38.4852 25.4426 38.4852 25.461 38.4852 25.4855C38.4423 25.9887 38.3748 26.4796 38.295 26.9521C38.295 26.9705 38.295 26.989 38.2888 27.0012C38.2091 27.4369 38.117 27.8542 38.0066 28.2592C38.0004 28.2838 37.9943 28.3083 37.9882 28.3329C37.982 28.3574 37.9697 28.3819 37.9636 28.4065C37.8347 28.8483 37.6875 29.2656 37.5341 29.6583C37.2456 30.4009 36.9204 31.0452 36.5522 31.5913C36.5399 31.6097 36.5277 31.6343 36.5093 31.6588C36.497 31.6772 36.4786 31.7018 36.4602 31.7202C36.2883 31.9657 36.0981 32.1988 35.9017 32.4259C35.8895 32.4382 35.8833 32.4504 35.8711 32.4627C35.6502 32.7143 35.4047 32.9598 35.1531 33.193C35.1408 33.2052 35.1285 33.2175 35.1101 33.2298C34.8585 33.463 34.5947 33.6839 34.3124 33.8925C34.2878 33.9109 34.2694 33.9293 34.2449 33.9416C34.2203 33.96 34.1958 33.9723 34.1774 33.9907C33.9258 34.1748 33.6742 34.3466 33.4226 34.5062C33.3981 34.5184 33.3796 34.5307 33.3551 34.5491C33.0851 34.7209 32.8151 34.8805 32.5451 35.0216C32.5205 35.0339 32.496 35.0462 32.4714 35.0585C32.2076 35.1996 31.9498 35.3223 31.6982 35.4328C31.6676 35.4451 31.643 35.4635 31.6123 35.4757C31.5817 35.488 31.551 35.5003 31.5203 35.5126C31.2932 35.6046 31.06 35.6967 30.8207 35.7826C30.79 35.7948 30.7594 35.801 30.7287 35.8132C30.4525 35.9114 30.1641 36.0096 29.8634 36.0955C29.8327 36.1078 29.8021 36.1139 29.7652 36.1262C29.4339 36.2244 29.0902 36.3226 28.7343 36.4146L28.5748 36.4514L28.6975 36.5435C29.0166 36.7951 29.2743 37.1142 29.4891 37.4946C29.5137 37.5315 29.5382 37.5683 29.5566 37.6112C29.7346 37.961 29.8696 38.3722 29.9678 38.8324C29.9678 38.8631 29.98 38.8876 29.9862 38.9183C30.0782 39.4031 30.1334 39.9431 30.1334 40.5383L30.1212 46.8467C30.1212 46.9694 30.1396 47.086 30.1641 47.1903C30.1764 47.2271 30.1825 47.2701 30.1948 47.3069C30.2193 47.3744 30.25 47.4358 30.2868 47.491C30.3053 47.5155 30.3175 47.5462 30.3359 47.5708C30.3544 47.6015 30.385 47.626 30.4096 47.6506C30.4403 47.6812 30.4587 47.7119 30.4955 47.7426C30.5323 47.7733 30.5753 47.804 30.6182 47.8285L30.8575 47.9574L30.9066 47.9819C31.011 48.0372 31.1214 48.0985 31.2319 48.1599L31.9805 48.5649L34.2019 49.7738C34.4167 49.8904 34.6192 50.0008 34.8156 50.1052H34.8279C34.8279 50.1052 34.877 50.1236 34.9015 50.1297C34.9567 50.1481 35.0058 50.1727 35.0672 50.1849C35.0856 50.1849 35.1101 50.1849 35.1285 50.1911H35.1408H35.1531C35.239 50.1972 35.3311 50.1972 35.4292 50.1911H35.4415C35.4415 50.1911 35.509 50.1727 35.5397 50.1665C35.552 50.1665 35.5642 50.1665 35.5704 50.1604H35.5888C35.6317 50.1481 35.6747 50.1358 35.7177 50.1236C35.7667 50.1113 35.8097 50.1052 35.8649 50.0867C37.2825 49.3872 38.6141 48.5526 39.8721 47.6076C39.9027 47.5831 39.9396 47.5585 39.9702 47.534C41.216 46.5889 42.3819 45.5212 43.4558 44.3368C43.4865 44.3 43.5171 44.2632 43.554 44.2264C44.6217 43.042 45.6097 41.7472 46.5056 40.3297C46.5179 40.3052 46.5363 40.2868 46.5486 40.2683C46.5608 40.2438 46.5731 40.2254 46.5854 40.2008C47.469 38.7833 48.1993 37.3228 48.8007 35.8317C48.8191 35.7826 48.8375 35.7396 48.862 35.6905C49.4573 34.1932 49.9052 32.6591 50.2121 31.0943C50.2182 31.0513 50.2243 31.0084 50.2366 30.9654C50.5312 29.4129 50.6968 27.8358 50.703 26.228C50.703 26.1973 50.703 26.1728 50.703 26.1421C50.703 26.1114 50.703 26.0808 50.703 26.0562L50.6968 26.0133ZM50.1814 22.2945C50.2243 22.5523 50.2673 22.8039 50.298 23.0677C50.3225 23.2948 50.3409 23.5218 50.3593 23.7489C50.3839 24.0128 50.4146 24.2766 50.433 24.5466C50.4453 24.7737 50.4453 25.0069 50.4575 25.2339C50.4637 25.4548 50.4759 25.6757 50.4759 25.8967L48.5982 24.878L46.5793 23.7796C46.5793 23.5341 46.567 23.2948 46.5608 23.0493C46.5547 22.7977 46.5547 22.5461 46.5363 22.2945C46.524 22.0613 46.4933 21.8343 46.4749 21.6011C46.4504 21.3434 46.4381 21.0795 46.4074 20.8279C46.3829 20.6131 46.3399 20.4045 46.3092 20.1897C46.3092 20.1468 46.297 20.1099 46.2908 20.067L50.163 22.1718C50.1691 22.2148 50.1752 22.2577 50.1814 22.2945ZM49.3652 18.8826C49.4266 19.0729 49.4818 19.2692 49.5371 19.4656C49.6168 19.7233 49.6966 19.9749 49.7641 20.2388C49.8193 20.4474 49.8561 20.6622 49.9052 20.8709C49.9605 21.1225 50.028 21.3741 50.0771 21.6379C50.0893 21.7116 50.1016 21.7852 50.1139 21.8588L46.2479 19.754C46.2295 19.6374 46.2172 19.5147 46.1927 19.4042C46.1558 19.2079 46.1067 19.0115 46.0638 18.8151C46.0086 18.5451 45.9533 18.2751 45.8858 18.0113C45.8367 17.8272 45.7815 17.6492 45.7324 17.4651C45.6588 17.1951 45.5851 16.9251 45.4992 16.6612C45.4686 16.5753 45.4379 16.4955 45.4072 16.4096L49.2118 18.4776C49.2609 18.6126 49.3161 18.7476 49.3652 18.8888V18.8826ZM48.0766 15.8942C48.1563 16.0476 48.2484 16.201 48.322 16.3605C48.5184 16.7594 48.7025 17.1644 48.8743 17.5756C48.9418 17.7351 48.997 17.9008 49.0584 18.0665V18.0849L45.266 16.0169C45.1863 15.796 45.1126 15.5689 45.0267 15.3542C44.9531 15.1701 44.8672 14.9921 44.7874 14.808C44.6831 14.5687 44.5849 14.3232 44.4683 14.09C44.3026 13.7464 44.1247 13.415 43.9344 13.0836L47.6409 15.1026C47.7943 15.3603 47.9354 15.6303 48.0766 15.9003V15.8942ZM45.4747 12.1325C45.5483 12.2184 45.622 12.2982 45.6956 12.3841C45.8245 12.5314 45.9472 12.6786 46.0699 12.8321C46.2172 13.0161 46.3583 13.2064 46.4995 13.3966C46.6161 13.55 46.7265 13.7034 46.837 13.863C46.9781 14.0655 47.1131 14.2741 47.2481 14.4889C47.2727 14.5257 47.2972 14.5625 47.3218 14.6055L43.6644 12.6173C43.4987 12.335 43.3269 12.065 43.149 11.795C43.106 11.7275 43.0569 11.6661 43.014 11.5986C42.8789 11.4022 42.7439 11.1997 42.6028 11.0095C42.5476 10.9359 42.4923 10.8622 42.431 10.7886C42.296 10.6106 42.1671 10.4388 42.026 10.267L45.4624 12.1325H45.4747ZM45.0635 11.5741H45.0574C45.0574 11.5741 45.0083 11.5188 44.9838 11.4943C45.0083 11.525 45.039 11.5495 45.0635 11.5741ZM42.4187 9.30356C42.4187 9.30356 42.4494 9.32811 42.4678 9.34038C42.4433 9.32197 42.4248 9.3097 42.4003 9.29743L42.4187 9.3097V9.30356ZM42.8421 9.70857C42.8789 9.73926 42.9219 9.7638 42.9587 9.79448C43.1121 9.91108 43.2655 10.0338 43.4128 10.1565C43.5846 10.2977 43.7565 10.445 43.9222 10.5922C44.0694 10.7211 44.2167 10.8561 44.3578 10.9911C44.5174 11.1445 44.6769 11.2979 44.8365 11.4575L41.5044 9.64721C41.5044 9.64721 41.4491 9.58584 41.4246 9.55516C41.3571 9.48152 41.2835 9.40788 41.216 9.32811C41.0748 9.1747 40.9337 9.02129 40.7864 8.87401C40.7066 8.79423 40.6269 8.7206 40.5532 8.64696C40.4121 8.50582 40.2648 8.37082 40.1175 8.23581L40.1053 8.22354L42.8483 9.71471L42.8421 9.70857ZM41.5719 9.83744H41.5596C41.4614 9.71471 41.3632 9.59812 41.265 9.48766C41.3326 9.5613 41.3939 9.6288 41.4614 9.70244C41.4982 9.74539 41.5351 9.79448 41.578 9.83744H41.5719ZM39.78 8.04558C39.8352 8.09467 39.8905 8.14377 39.9457 8.19286C39.8843 8.13763 39.8168 8.0824 39.7555 8.02717L39.78 8.03944V8.04558ZM34.5517 4.95892C34.6192 4.98347 34.6806 5.01415 34.7481 5.0387H34.7604C34.6867 5.01415 34.6131 4.98347 34.5394 4.95279H34.5517V4.95892ZM34.2203 5.00188C34.3369 5.04483 34.4474 5.08779 34.564 5.13074C34.9199 5.27188 35.2697 5.4253 35.6133 5.58484C35.6256 5.59098 35.644 5.59712 35.6563 5.60325L37.2579 6.48077C37.3377 6.52987 37.4175 6.58509 37.4972 6.63419C37.4604 6.62191 37.4297 6.61578 37.3929 6.6035C37.1229 6.52373 36.8468 6.44395 36.5706 6.37645L33.7049 4.81778C33.8706 4.87301 34.0424 4.92824 34.2081 4.99574L34.2203 5.00188ZM36.8161 6.6035H36.8038C36.7179 6.57896 36.6259 6.55441 36.5338 6.536C36.6259 6.56055 36.7179 6.57896 36.8161 6.6035ZM35.9263 6.38873C35.8833 6.37645 35.8342 6.36418 35.7913 6.35804C35.8404 6.37032 35.8833 6.38259 35.9263 6.38873ZM33.0237 4.43732C33.0605 4.44959 33.1035 4.46187 33.1403 4.468H33.1587C33.1035 4.45573 33.0421 4.44346 32.9869 4.42505C32.9869 4.42505 33.0115 4.42505 33.0176 4.43118L33.0237 4.43732ZM31.7289 4.11208C31.8639 4.14277 32.0051 4.16731 32.1401 4.20413H32.1462C32.0051 4.17345 31.8639 4.14277 31.7228 4.11208H31.7289ZM29.5014 3.93413C29.8021 3.95867 30.1028 3.99549 30.3973 4.03231C30.5078 4.04458 30.6182 4.06299 30.7287 4.07527C31.1214 4.13663 31.5142 4.21027 31.9069 4.29618C31.9498 4.30845 31.9928 4.32073 32.0358 4.32686C32.1278 4.35141 32.226 4.37595 32.318 4.4005L35.5213 6.14327C35.4354 6.12486 35.3495 6.11258 35.2697 6.09417C35.2206 6.08804 35.1776 6.0819 35.1285 6.07576C34.8156 6.02667 34.4965 5.98372 34.1774 5.9469C34.0976 5.94076 34.024 5.92849 33.9442 5.92235C33.6128 5.89167 33.2815 5.86099 32.944 5.84871L29.3909 3.90958C29.4277 3.90958 29.4584 3.90958 29.4952 3.91572L29.5014 3.93413ZM25.887 3.95867C26.0833 3.94026 26.2797 3.91572 26.4699 3.90344C26.7584 3.88503 27.0406 3.8789 27.3229 3.87276C27.5132 3.87276 27.7034 3.85435 27.8936 3.85435C27.9611 3.85435 28.0348 3.85435 28.1023 3.85435C28.3048 3.85435 28.5011 3.86662 28.7036 3.8789L32.2935 5.8303C32.2137 5.8303 32.1339 5.8303 32.048 5.8303C31.9805 5.8303 31.9069 5.83644 31.8394 5.83644C31.551 5.83644 31.2564 5.85485 30.968 5.86712C30.8085 5.87326 30.6428 5.8794 30.4832 5.89167C30.0782 5.92235 29.6671 5.96531 29.2498 6.02054C29.2068 6.02054 29.1577 6.02667 29.1148 6.03281L25.3838 4.00163C25.5495 3.98322 25.7152 3.96481 25.8808 3.9464L25.887 3.95867ZM21.7387 4.75642C21.8492 4.72573 21.9596 4.68278 22.0701 4.6521C22.5365 4.52323 23.0028 4.40664 23.4753 4.30845C23.5919 4.28391 23.7147 4.2655 23.8374 4.24709C24.1872 4.17959 24.5369 4.11208 24.8929 4.06299L28.6607 6.11258C28.5134 6.13713 28.3723 6.16781 28.225 6.19236C27.9979 6.23531 27.7647 6.27213 27.5377 6.32122C27.2861 6.37645 27.0345 6.44395 26.7829 6.50532C26.562 6.56055 26.3411 6.60964 26.1202 6.67101C25.8624 6.74464 25.6108 6.83055 25.3592 6.91033C25.3408 6.91647 25.3224 6.9226 25.304 6.92874L21.4687 4.84233C21.5546 4.81778 21.6467 4.7871 21.7326 4.76255L21.7387 4.75642ZM18.0077 6.22304C18.2654 6.09417 18.5293 5.97758 18.7871 5.86099C18.9711 5.77508 19.1491 5.68917 19.3332 5.60939C19.6093 5.4928 19.8916 5.38848 20.1739 5.28416C20.3457 5.21665 20.5175 5.14915 20.6894 5.08779C20.8305 5.0387 20.9778 5.00188 21.1189 4.95279L24.9542 7.0392C24.8806 7.06374 24.8131 7.08829 24.7395 7.11283C24.4756 7.20488 24.2179 7.3092 23.9601 7.41352C23.7638 7.4933 23.5674 7.5608 23.3771 7.64057C23.101 7.75717 22.8249 7.89217 22.5549 8.02104C22.383 8.10081 22.2112 8.17445 22.0455 8.26036C21.9167 8.32172 21.7939 8.39536 21.6712 8.46286L17.7807 6.34577C17.8604 6.30895 17.9341 6.25986 18.0077 6.22304ZM14.9456 8.07013C15.1113 7.95353 15.2708 7.8308 15.4365 7.72035C15.682 7.55466 15.9274 7.40739 16.179 7.25397C16.357 7.14352 16.5288 7.02692 16.7129 6.9226C16.9584 6.78146 17.21 6.6526 17.4616 6.51759L17.5229 6.48691L21.4135 8.604C21.303 8.66537 21.1864 8.72673 21.076 8.7881C20.9655 8.84946 20.855 8.90469 20.7446 8.97219C20.315 9.22379 19.8855 9.49379 19.4621 9.77607C19.413 9.80676 19.37 9.84358 19.3209 9.88039C18.9589 10.1259 18.5968 10.3836 18.2409 10.6536L16.8295 9.88653L14.332 8.53036C14.5406 8.37695 14.7492 8.22968 14.9579 8.0824L14.9456 8.07013ZM11.816 10.6352C11.9387 10.5186 12.0676 10.4081 12.1964 10.2915C12.448 10.0645 12.6935 9.8313 12.9512 9.61039C13.0862 9.4938 13.2335 9.38334 13.3747 9.26674C13.6201 9.06424 13.8656 8.86174 14.1233 8.66537L15.5899 9.46311L18.0445 10.7947C17.8359 10.9543 17.6395 11.1261 17.4309 11.2918C17.2713 11.4207 17.1118 11.5495 16.9522 11.6784C16.719 11.8748 16.4981 12.0834 16.2772 12.292C16.1238 12.4332 15.9643 12.5682 15.8108 12.7155C15.5899 12.9302 15.3752 13.1511 15.1604 13.3721L15.1481 13.3843L11.2146 11.2427C11.411 11.0402 11.6073 10.8316 11.816 10.6352ZM8.79683 14.0594C8.98092 13.8078 9.17729 13.5684 9.37366 13.3291C9.49639 13.1757 9.61298 13.0161 9.74185 12.8627C10.0671 12.47 10.4046 12.0895 10.7482 11.7213C10.8219 11.6477 10.8955 11.5741 10.9691 11.5004C10.9998 11.4636 11.0367 11.4329 11.0735 11.3961L15.007 13.5377C14.9149 13.6298 14.8229 13.7218 14.737 13.8139C14.5099 14.0594 14.289 14.3171 14.0681 14.5748C13.9883 14.6669 13.9024 14.7589 13.8226 14.851C13.8103 14.851 13.7981 14.851 13.7797 14.8632C13.749 14.8755 13.7122 14.8939 13.6815 14.9123C13.6201 14.9369 13.5588 14.9614 13.4913 15.0044C13.4422 15.1516 13.3992 15.2989 13.3501 15.4462C13.1537 15.6917 12.9574 15.9371 12.7671 16.1887C12.7119 16.2624 12.6628 16.3421 12.6076 16.4158C12.5708 16.4649 12.5401 16.514 12.5033 16.563L8.5575 14.4153C8.63728 14.3048 8.71705 14.1821 8.79683 14.0716V14.0594ZM6.74724 17.281C6.86383 17.0662 6.98042 16.8392 7.10315 16.6305C7.23816 16.3974 7.38543 16.1703 7.52657 15.9433C7.65544 15.7346 7.78431 15.5198 7.91317 15.3173C8.06658 15.0841 8.22613 14.8632 8.38568 14.6362C8.41023 14.6055 8.42864 14.5748 8.44705 14.5441L12.3928 16.6919C12.2149 16.9435 12.0369 17.189 11.8651 17.4467C11.7608 17.6062 11.6687 17.7658 11.5644 17.9253C11.3864 18.2076 11.2085 18.4838 11.0428 18.7722C10.9323 18.9563 10.8341 19.1526 10.7298 19.3367C10.5887 19.5945 10.4414 19.8522 10.3064 20.1161L9.16502 19.4963L6.36677 17.9744C6.4895 17.7413 6.61837 17.5142 6.7411 17.2872L6.74724 17.281ZM4.78969 21.7423C4.88174 21.4661 4.96765 21.19 5.07197 20.9138C5.14561 20.7113 5.23766 20.5088 5.31743 20.3124C5.42789 20.0363 5.53221 19.754 5.65494 19.484C5.74085 19.2938 5.8329 19.1097 5.92495 18.9195C6.04768 18.6495 6.17041 18.3794 6.30541 18.1156L7.4468 18.7354L10.2512 20.2634C10.0978 20.5579 9.96276 20.8586 9.82776 21.1593C9.75412 21.325 9.66821 21.4845 9.59457 21.6441C9.4473 21.9816 9.31229 22.3191 9.17729 22.6627C9.12206 22.8039 9.05456 22.945 9.00547 23.0923C8.90115 23.3746 8.8091 23.663 8.71092 23.9514L4.77128 21.8098L4.78969 21.7484V21.7423ZM3.82013 25.553C3.85081 25.3628 3.88763 25.1787 3.92445 24.9885C3.99809 24.6019 4.07786 24.2214 4.16991 23.8409C4.219 23.6384 4.28036 23.4359 4.33559 23.2334C4.41537 22.945 4.48287 22.6566 4.57492 22.3743C4.61174 22.2454 4.66696 22.1166 4.70378 21.9877L8.64342 24.1293C8.59432 24.2705 8.54523 24.4116 8.49614 24.5528C8.47773 24.608 8.46546 24.6632 8.45318 24.7185C8.32432 25.1541 8.19545 25.5898 8.09113 26.0317C8.04818 26.2158 8.01136 26.406 7.9684 26.5962C7.9009 26.9092 7.82726 27.216 7.77203 27.5351C7.74749 27.6578 7.73521 27.7867 7.71067 27.9094L3.78331 25.7739C3.79558 25.7003 3.80172 25.6267 3.81399 25.553H3.82013ZM3.47035 28.8974C3.47648 28.7133 3.47648 28.5292 3.48876 28.3451C3.50717 28.0076 3.54398 27.6701 3.5808 27.3326C3.59921 27.1669 3.60535 26.9951 3.6299 26.8294C3.66671 26.5533 3.71581 26.2771 3.75876 25.9948L7.68612 28.1303V28.1794C7.63089 28.4679 7.5818 28.7563 7.54498 29.0508C7.5143 29.2779 7.50203 29.5049 7.48362 29.732C7.45907 30.0143 7.42225 30.2965 7.40384 30.5849C7.39157 30.8181 7.38543 31.0513 7.3793 31.2845C7.37316 31.5177 7.35475 31.7447 7.35475 31.9779L3.42739 29.8363C3.42739 29.5172 3.4458 29.2042 3.45807 28.8851L3.47035 28.8974ZM3.87536 34.4816C3.81399 34.1625 3.74649 33.8496 3.6974 33.5243C3.66058 33.2666 3.63603 32.9966 3.61149 32.7327C3.57467 32.4136 3.53171 32.0945 3.50717 31.7693C3.48876 31.4993 3.48876 31.217 3.47648 30.9409C3.46421 30.6647 3.45194 30.3947 3.45194 30.1124L5.32971 31.1372L7.34861 32.2357C7.34861 32.8432 7.36702 33.4446 7.40998 34.0398C7.40998 34.1134 7.42839 34.1809 7.43453 34.2546C7.47748 34.7762 7.52657 35.2978 7.60021 35.801C7.63089 36.0035 7.67385 36.1937 7.71067 36.3901C7.72908 36.4944 7.74749 36.5987 7.7659 36.703L3.8999 34.5982C3.89376 34.5553 3.88149 34.5184 3.87536 34.4755V34.4816ZM5.02902 38.4151C4.95538 38.231 4.89401 38.0408 4.82651 37.8567C4.69765 37.5253 4.56878 37.194 4.45832 36.8503C4.39082 36.6355 4.33559 36.4085 4.27423 36.1814C4.18218 35.8623 4.09013 35.5432 4.01036 35.218C3.98581 35.126 3.97354 35.0278 3.95513 34.9296L7.81499 37.0283C7.84567 37.1878 7.87022 37.3474 7.90704 37.5069C7.95613 37.7278 8.02363 37.9426 8.07886 38.1635C8.16477 38.4949 8.24454 38.8263 8.34886 39.1515C8.4225 39.3786 8.50841 39.5933 8.58205 39.8204C8.68637 40.1272 8.79069 40.434 8.91342 40.7286C8.9441 40.8022 8.97479 40.8697 9.00547 40.9434L5.24993 38.8999C5.17629 38.7342 5.09038 38.5808 5.02288 38.4151H5.02902ZM7.3793 42.8211L7.36702 42.8089L7.3793 42.8211ZM5.72858 39.9186C5.66721 39.802 5.61812 39.6731 5.55676 39.5504C5.51994 39.4767 5.48925 39.4031 5.45857 39.3356L9.20797 41.3791L9.22025 41.3975C9.34911 41.6797 9.47184 41.9682 9.61298 42.2443C9.72344 42.4652 9.85231 42.68 9.97504 42.8948C10.1223 43.1586 10.2696 43.4286 10.4291 43.6864C10.5641 43.9012 10.7114 44.1098 10.8526 44.3246C10.9262 44.435 10.9998 44.5516 11.0796 44.6621L7.49589 42.7107C6.82701 41.8209 6.23791 40.8943 5.72858 39.9124V39.9186ZM10.5212 45.8832C10.3985 45.7789 10.2696 45.6807 10.1469 45.5764C10.0671 45.5089 9.99345 45.4353 9.91981 45.3678C9.73571 45.2021 9.55162 45.0303 9.36752 44.8523C9.2632 44.748 9.16502 44.6437 9.0607 44.5393C8.91342 44.3859 8.76615 44.2325 8.61887 44.073C8.52069 43.9625 8.4225 43.8521 8.32432 43.7355C8.20772 43.6005 8.09727 43.4655 7.98067 43.3243L11.4723 45.2266C11.7423 45.5764 12.0185 45.9201 12.3008 46.2453C12.3805 46.3373 12.4665 46.4294 12.5524 46.5214C12.761 46.7546 12.9758 46.9817 13.1906 47.2026C13.2949 47.3069 13.4053 47.4051 13.5097 47.5094L13.5281 47.5278L10.5212 45.8955V45.8832ZM20.2966 51.2343C20.1678 51.1913 20.0389 51.1484 19.91 51.0993C19.5418 50.9704 19.1859 50.8293 18.83 50.6758C18.738 50.639 18.6459 50.6022 18.5539 50.5593C18.2839 50.4365 18.0261 50.2954 17.7623 50.1604L16.9216 49.7063C16.7313 49.5958 16.5472 49.4731 16.3631 49.3565C16.4613 49.3872 16.5595 49.4179 16.6577 49.4486C17.0872 49.5713 17.5168 49.6817 17.9586 49.7799L21.033 51.4552C20.7875 51.3877 20.536 51.3202 20.2966 51.2404V51.2343ZM23.0765 51.5534L19.1614 49.424C19.1614 49.424 19.1798 49.4117 19.1921 49.4056L21.1619 50.4733L23.1133 51.535C23.1133 51.535 23.0949 51.5472 23.0826 51.5534H23.0765ZM23.279 51.3693C23.279 51.3693 23.2667 51.3877 23.2606 51.4L19.3148 49.2522V49.2399C19.3516 49.1969 19.3884 49.154 19.4191 49.1049L23.3526 51.2465C23.3281 51.2895 23.3096 51.3325 23.279 51.3693ZM23.4692 51.0379C23.4631 51.0686 23.4385 51.087 23.4324 51.1115L19.4927 48.9699C19.4927 48.9699 19.5173 48.9208 19.5296 48.8963C19.5296 48.8901 19.5357 48.884 19.5357 48.8779C19.5418 48.8594 19.548 48.841 19.5541 48.8165L23.4876 50.9581C23.4876 50.9581 23.4815 51.0134 23.4692 51.0379ZM23.5428 50.682C23.5428 50.682 23.5306 50.7311 23.5244 50.7618L19.6032 48.6263C19.6093 48.5894 19.6155 48.5526 19.6216 48.5097L23.549 50.6452C23.549 50.6452 23.549 50.6697 23.549 50.6758L23.5428 50.682ZM21.7633 46.6687C21.7633 46.6687 21.7142 46.681 21.6835 46.681L19.6216 45.558V45.5028L21.7633 46.6687ZM19.6216 45.2021V45.1653L22.2358 46.5889C22.2358 46.5889 22.1989 46.5951 22.1805 46.6012L19.6216 45.2082V45.2021ZM20.9655 46.7485C20.9226 46.7485 20.8796 46.7546 20.8366 46.7608L19.6278 46.1042V46.0244L20.9655 46.7546V46.7485ZM20.2782 46.7792C20.2782 46.7792 20.2169 46.7792 20.1923 46.7792L19.6278 46.4723V46.4233L20.2782 46.7792ZM19.6646 47.0001C19.6646 47.0001 19.7198 47.0001 19.7443 47.0001L23.5367 49.062V49.289C23.5367 49.4117 23.5367 49.5222 23.5367 49.6265L19.6278 47.5033C19.6278 47.356 19.6278 47.1842 19.6278 47.0001C19.64 47.0001 19.6523 47.0001 19.6584 47.0001H19.6646ZM20.2905 47.0001C20.4194 47.0001 20.5482 47.0001 20.671 46.9878C20.7262 46.9878 20.7753 46.9755 20.8305 46.9755C20.9962 46.9633 21.1557 46.9571 21.3214 46.9387L23.5306 48.1415C23.5306 48.3501 23.5306 48.5588 23.5306 48.7674L20.2844 47.0001H20.2905ZM21.7939 46.8774H21.8246C21.9105 46.8589 22.0026 46.8467 22.0885 46.8283C22.1314 46.8221 22.1683 46.8099 22.2112 46.8037C22.3278 46.7792 22.4383 46.7608 22.5426 46.7362H22.5549L23.5367 47.2701C23.5367 47.4542 23.5367 47.6383 23.5367 47.8224L21.8001 46.8774H21.7939ZM22.9844 46.6135C22.9844 46.6135 23.0274 46.6012 23.0458 46.5951L23.5122 46.4478L23.5367 46.4601C23.5367 46.6073 23.5367 46.7608 23.5367 46.9142L22.9906 46.6135H22.9844ZM23.0274 46.3742L19.6278 44.5271C19.6278 44.4657 19.6278 44.4043 19.6278 44.343L22.0333 45.6501L23.2421 46.3067L23.0274 46.3742ZM19.64 48.0372C19.64 47.9635 19.64 47.8776 19.64 47.7733L23.549 49.8965C23.549 49.9947 23.549 50.0806 23.549 50.1604L19.64 48.0372ZM23.549 46.2085L23.3403 46.276L19.6216 44.2571C19.6216 44.1957 19.6216 44.1343 19.6216 44.073L23.549 46.2085ZM12.3253 42.2504L12.221 42.0111L15.9949 44.0668L16.0993 44.3062L12.3192 42.2504H12.3253ZM16.0195 44.57C16.0195 44.57 16.0011 44.57 15.9949 44.57C15.8906 44.57 15.7802 44.57 15.6697 44.57L12.6137 42.907C12.5708 42.8273 12.534 42.7414 12.491 42.6554L16.0195 44.57ZM15.9581 43.49C15.9336 43.4471 15.909 43.4041 15.8783 43.355C15.8108 43.2445 15.7372 43.128 15.6574 43.0175C15.6206 42.9684 15.5899 42.9193 15.5593 42.8702C15.5102 42.8027 15.4549 42.7352 15.4058 42.6739C15.369 42.6248 15.3322 42.5757 15.2892 42.5266C15.2463 42.4713 15.2033 42.4223 15.1604 42.3732C15.1113 42.3179 15.0622 42.2627 15.0131 42.2075C14.9824 42.1768 14.9579 42.1523 14.9272 42.1216C14.9088 42.1032 14.8965 42.0909 14.8781 42.0725C14.829 42.0234 14.7738 41.9804 14.7247 41.9375C14.694 41.9129 14.6633 41.8884 14.6326 41.8638C14.6142 41.8516 14.5958 41.8332 14.5774 41.8209C14.5406 41.7963 14.5038 41.7718 14.467 41.7472C14.4485 41.735 14.4301 41.7227 14.4179 41.7166C14.3995 41.7043 14.3749 41.6859 14.3565 41.6736C14.3504 41.6736 14.3442 41.6675 14.3381 41.6613L13.8226 41.3791C13.8226 41.3791 13.7735 41.3361 13.749 41.3177C13.706 41.287 13.6692 41.2563 13.6324 41.2195C13.5956 41.1888 13.5588 41.1643 13.5219 41.1275C13.5219 41.1275 13.5158 41.1275 13.5097 41.1152C13.4728 41.0722 13.4422 41.0354 13.4115 40.9925C13.3808 40.9556 13.3562 40.9127 13.3317 40.8759C13.3133 40.8329 13.2887 40.7961 13.2703 40.7593C13.2703 40.7593 13.2581 40.704 13.2581 40.6734V40.6611C13.2581 40.6611 13.2703 40.6243 13.2765 40.6059C13.2887 40.5874 13.301 40.569 13.3256 40.5445C13.344 40.5261 13.3562 40.5077 13.3869 40.4893C13.4053 40.4709 13.436 40.4586 13.4667 40.4463L13.4851 40.434C13.4851 40.434 13.5403 40.4095 13.5649 40.3972H13.5833C13.6201 40.4402 13.6569 40.477 13.6938 40.5261C13.7428 40.5874 13.7919 40.6488 13.841 40.704C13.9638 40.8452 14.0926 40.9679 14.2215 41.0845C14.3749 41.2195 14.5406 41.3422 14.7063 41.4466C14.737 41.465 14.7676 41.4895 14.7983 41.5079C14.7983 41.5079 14.829 41.5263 14.8474 41.5325L18.2286 43.3734L18.9957 43.7907L19.0448 43.8152C19.1246 43.8582 19.2043 43.8889 19.2841 43.9257C19.3271 43.9441 19.3639 43.9687 19.4068 43.9809L18.8239 44.1712C18.738 44.2018 18.6398 44.2325 18.5416 44.2571C18.5109 44.2693 18.468 44.2755 18.4373 44.2816C18.3329 44.3062 18.2225 44.3368 18.1059 44.3614C18.0691 44.3675 18.0323 44.3737 17.9893 44.3859C17.8666 44.4105 17.7377 44.4289 17.6088 44.4534C17.5843 44.4534 17.5659 44.4596 17.5413 44.4657C17.5229 44.4657 17.5045 44.4718 17.48 44.478H17.4738C17.4738 44.478 17.4309 44.4841 17.4125 44.4841H17.345C17.345 44.4841 17.302 44.4964 17.2775 44.5025C17.2345 44.5025 17.1854 44.5025 17.1363 44.5148C17.0197 44.5271 16.8909 44.5332 16.7743 44.5455C16.7375 44.5455 16.6945 44.5516 16.6577 44.5516C16.5902 44.5516 16.5288 44.5639 16.4675 44.5639L16.1974 43.938C16.1361 43.7968 16.0563 43.6434 15.9704 43.49H15.9581ZM19.413 45.9814L17.1241 44.7357C17.167 44.7357 17.2161 44.7357 17.2529 44.7234L19.413 45.8955V45.9814ZM17.9157 44.6253C17.9157 44.6253 17.9648 44.613 17.9954 44.613L19.413 45.3862V45.4414L17.9157 44.6253ZM19.413 45.0794L18.3943 44.5271L18.4434 44.5148L19.413 45.0425V45.0794ZM19.1859 44.2878L19.4007 44.2203H19.4068C19.4068 44.2816 19.4068 44.3491 19.4068 44.4105L19.1798 44.2878H19.1859ZM16.6086 44.7787L19.4191 46.3067V46.3558L16.5534 44.7971V44.7848C16.5534 44.7848 16.5902 44.7848 16.6086 44.7848V44.7787ZM20.9103 43.9564H20.8857L17.6457 42.1952C17.615 42.14 17.5782 42.097 17.5475 42.0418L21.0269 43.938C20.9839 43.9441 20.9532 43.9502 20.9103 43.9564ZM21.573 43.8398C21.5362 43.8459 21.4994 43.8521 21.4626 43.8582L17.6702 41.7963C17.7132 41.7841 17.75 41.7718 17.7929 41.7595L21.6037 43.8337H21.5669L21.573 43.8398ZM21.9842 43.7416L18.155 41.6613C18.1979 41.6491 18.2409 41.6368 18.2839 41.6245L22.1192 43.7109C22.0762 43.7232 22.0271 43.7355 21.9842 43.7477V43.7416ZM22.4628 43.5943L18.5968 41.4895C18.6398 41.4711 18.6827 41.4527 18.7195 41.4343L22.5917 43.5391C22.5487 43.5575 22.5058 43.5759 22.4628 43.5943ZM22.9967 43.3673C22.9599 43.3857 22.9169 43.398 22.874 43.4164L18.9957 41.3054C18.9957 41.3054 19.0202 41.2931 19.0325 41.2809C19.0755 41.2563 19.1184 41.2318 19.1675 41.2011L23.0642 43.3243C23.0642 43.3243 23.0212 43.3489 22.9967 43.3611V43.3673ZM23.279 43.2139L19.3639 41.0845C19.4375 41.0354 19.5173 40.9925 19.5909 40.9434L23.5244 43.085C23.4447 43.1341 23.3649 43.1709 23.279 43.2139ZM23.6226 42.9316L19.6953 40.7961C19.7443 40.434 19.818 40.0965 19.91 39.7713L23.8497 41.9129C23.7515 42.2382 23.6717 42.5695 23.6226 42.9316ZM23.9233 41.7043L19.9837 39.5626C20.0205 39.4461 20.0573 39.3233 20.1003 39.2067C20.2291 39.2558 20.3519 39.3049 20.4807 39.3479C20.6648 39.4154 20.8489 39.4767 21.033 39.5258C21.1435 39.5565 21.2539 39.5872 21.3644 39.6117C21.573 39.667 21.7817 39.7099 21.9903 39.7467C22.0701 39.759 22.1499 39.7774 22.2296 39.7897C22.2664 39.7897 22.3033 39.7958 22.3401 39.802L24.2792 40.8574C24.1442 41.1213 24.0276 41.4036 23.9294 41.7043H23.9233ZM20.585 38.2556C20.585 38.2556 20.6157 38.2126 20.6341 38.1881L23.3587 39.667C23.3587 39.667 23.3158 39.667 23.2912 39.667C23.2483 39.667 23.2053 39.667 23.1624 39.6608L20.585 38.2617V38.2556ZM24.8499 39.9492C24.6781 40.1579 24.5247 40.3911 24.3897 40.6304L22.9967 39.8695C22.9967 39.8695 23.0519 39.8695 23.0826 39.8695C23.3219 39.8879 23.5674 39.9002 23.819 39.9124C23.8803 39.9124 23.9356 39.9124 23.9969 39.9124C24.2608 39.9186 24.5308 39.9186 24.8131 39.9124L24.8499 39.937V39.9492ZM20.9901 37.7094L24.6535 39.7038C24.6229 39.7038 24.5922 39.7038 24.5615 39.7038L20.9655 37.7462C20.9655 37.7462 20.9839 37.7217 20.9901 37.7094ZM20.9164 37.8076L24.3958 39.6977C24.316 39.6977 24.2301 39.6977 24.1565 39.6977H24.1258L20.8428 37.9119C20.8673 37.8812 20.8919 37.8383 20.9226 37.8076H20.9164ZM20.7446 38.0347L23.7822 39.6854C23.7822 39.6854 23.7331 39.6854 23.7085 39.6854L20.7262 38.0653L20.7446 38.0408V38.0347ZM20.7139 37.7156C20.7139 37.7156 20.671 37.7769 20.6464 37.8076L20.4807 37.7156C20.5605 37.7156 20.6341 37.7156 20.7078 37.7156H20.7139ZM20.1678 37.7156L20.5605 37.9303L20.5421 37.9549L20.1003 37.7156C20.1003 37.7156 20.1432 37.7156 20.1678 37.7156ZM19.64 37.7033C19.683 37.7033 19.7259 37.7033 19.7689 37.7033L20.45 38.0776C20.45 38.0776 20.4194 38.1206 20.4009 38.1451L19.5848 37.7033C19.5848 37.7033 19.6155 37.7033 19.6339 37.7033H19.64ZM17.4493 37.8444L17.7377 38.004L18.4864 38.409L18.7073 38.5317L19.1 38.7465C19.2534 38.8324 19.413 38.906 19.5725 38.9797C19.6768 39.0288 19.775 39.0656 19.8793 39.1085L19.9039 39.1208C19.8548 39.2497 19.818 39.3847 19.775 39.5197C19.7566 39.5688 19.7443 39.6179 19.7259 39.667C19.6216 40.0229 19.5357 40.3972 19.4805 40.7961C19.3762 40.8574 19.2718 40.9127 19.1614 40.974C19.143 40.9863 19.1184 40.9986 19.1 41.0109C18.9896 41.0722 18.8791 41.1275 18.7686 41.1765C18.7441 41.1888 18.7195 41.195 18.695 41.2072C18.5845 41.2563 18.4741 41.3054 18.3575 41.3484C18.3268 41.3606 18.2961 41.3729 18.2654 41.3852C18.2348 41.3975 18.1918 41.4036 18.1611 41.4159C18.0752 41.4466 17.977 41.4711 17.885 41.4956C17.8543 41.5018 17.8298 41.5141 17.7991 41.5202C17.6641 41.557 17.5229 41.5938 17.3695 41.6306C17.3388 41.6368 17.3082 41.6429 17.2775 41.6491C17.2345 41.5938 17.1916 41.5447 17.1425 41.4895C17.0872 41.4281 17.0381 41.3668 16.9829 41.3054C16.8847 41.2072 16.7866 41.1152 16.6822 41.0293C16.5165 40.8881 16.3447 40.7593 16.1606 40.6549C16.1054 40.6243 16.0502 40.5936 15.9949 40.5629L15.9765 40.5506L15.639 40.3665L15.1604 40.1088L14.8597 39.9431L12.5953 38.7097C12.3744 38.5931 12.1658 38.4765 11.9633 38.366L11.7792 38.2678C11.7362 38.2433 11.6994 38.2249 11.6564 38.2065C11.6073 38.1819 11.5521 38.1574 11.503 38.1328C11.4785 38.1206 11.4539 38.1083 11.4294 38.096C11.3803 38.0715 11.3312 38.0592 11.2821 38.0347C11.2392 38.0163 11.1901 37.9978 11.1471 37.9794C11.0796 37.9549 11.0121 37.9365 10.9507 37.9181H10.9323C10.8955 37.9058 10.8587 37.8874 10.828 37.8812C10.7298 37.8567 10.6316 37.8383 10.5396 37.8322L9.96276 37.8199C9.87072 37.8322 9.79094 37.8444 9.71117 37.8628C9.66821 37.869 9.63139 37.8812 9.59457 37.8874C9.52707 37.9058 9.46571 37.9181 9.41048 37.9365C9.37366 37.9487 9.34298 37.961 9.31229 37.9733C9.23252 38.004 9.16502 38.0408 9.11593 38.0776C9.06683 38.1144 9.03001 38.1574 8.99933 38.1942C8.96251 38.2433 8.93797 38.2863 8.93183 38.3292C8.92569 38.3599 8.92569 38.3844 8.92569 38.409C8.92569 38.4519 8.92569 38.4826 8.93797 38.5133C8.93797 38.5194 8.93797 38.5317 8.9441 38.5379C8.96251 38.5808 8.9932 38.6238 9.01774 38.6667C9.04229 38.7035 9.06683 38.7465 9.09138 38.7833C9.09138 38.7894 9.10365 38.7956 9.10365 38.8017L9.11593 38.814C9.14661 38.8569 9.17729 38.8938 9.20797 38.9367C9.22025 38.949 9.23252 38.9613 9.24479 38.9735C9.27548 39.0042 9.30002 39.0288 9.3307 39.0595C9.36139 39.084 9.38593 39.1147 9.41662 39.1331C9.42889 39.1454 9.4473 39.1515 9.45957 39.1638C9.50253 39.1945 9.54548 39.2313 9.58844 39.2558L9.79708 39.3847L10.3064 39.6608C10.3064 39.6608 10.3432 39.6854 10.3616 39.6977C10.3923 39.7222 10.423 39.7467 10.4475 39.7713C10.5089 39.8265 10.5764 39.8817 10.6378 39.9492C10.6623 39.9738 10.693 40.0045 10.7176 40.029C10.8096 40.1211 10.8955 40.2193 10.9876 40.3358C11.0244 40.3849 11.0551 40.4279 11.0919 40.477C11.1839 40.5936 11.2698 40.7102 11.3496 40.8268C11.3803 40.8697 11.411 40.9127 11.4417 40.9618C11.5153 41.0722 11.5828 41.1827 11.6442 41.2931C11.6687 41.3361 11.6933 41.3729 11.7117 41.4159C11.7669 41.5202 11.8221 41.6245 11.8651 41.7288L12.1412 42.3732C12.221 42.6186 12.3315 42.8334 12.448 43.042C12.4787 43.0911 12.5094 43.1402 12.5401 43.1893C12.6383 43.3366 12.7487 43.4777 12.8653 43.6066C12.939 43.6864 13.0187 43.76 13.0985 43.8337C13.1906 43.9134 13.2826 43.9932 13.3869 44.0668C13.4913 44.1405 13.5956 44.2018 13.6999 44.2571L14.3135 44.5884C14.9395 44.9321 15.6268 45.3003 16.2956 45.6685L17.5782 46.3619L17.7316 46.4417L17.9034 46.5337C17.9034 46.5337 17.9525 46.5583 17.9832 46.5705C18.0323 46.5951 18.0875 46.6196 18.1366 46.6442C18.155 46.6564 18.1734 46.6626 18.1979 46.6749C18.2716 46.7055 18.3452 46.7362 18.425 46.7669C18.4802 46.7853 18.5293 46.8037 18.5845 46.8221C18.6705 46.8467 18.7502 46.8712 18.8361 46.8896C18.8546 46.8896 18.873 46.8958 18.8914 46.9019C18.9405 46.9142 18.9896 46.9264 19.0325 46.9326C19.1184 46.951 19.2043 46.9571 19.2964 46.9694C19.3393 46.9694 19.3762 46.9817 19.4191 46.9817C19.4191 47.2087 19.4191 47.399 19.4191 47.5708V47.6567C19.4191 47.8469 19.4191 47.9881 19.4191 48.0985V48.3133C19.4191 48.3133 19.4191 48.3685 19.413 48.3992C19.413 48.4851 19.3946 48.5772 19.37 48.6569C19.37 48.6754 19.3577 48.6938 19.3516 48.7122C19.3025 48.8656 19.2227 49.0129 19.1184 49.1479C19.1 49.1663 19.0877 49.1908 19.0693 49.2092C19.0509 49.2276 19.0202 49.2399 19.0018 49.2583C18.9834 49.2767 18.9589 49.289 18.9405 49.3074C18.9282 49.3135 18.9159 49.3258 18.9036 49.332C18.8546 49.3688 18.8055 49.4056 18.7502 49.4363C18.7257 49.4486 18.695 49.4485 18.6705 49.4608C18.6152 49.4792 18.56 49.4976 18.5048 49.5099C18.4741 49.516 18.4434 49.5345 18.4066 49.5406H18.4004C18.3636 49.5467 18.3207 49.5406 18.2839 49.5467C18.2839 49.5467 18.2593 49.5467 18.2532 49.5467C18.2225 49.5467 18.1857 49.5467 18.155 49.5467C18.1059 49.5467 18.0629 49.5529 18.0139 49.5467C17.5229 49.4424 17.0381 49.3135 16.5656 49.1724C16.4184 49.1295 16.2711 49.0742 16.1238 49.0313C15.8661 48.9454 15.6145 48.8533 15.3567 48.7613C15.2586 48.6876 15.1542 48.6263 15.0561 48.5526C15.0438 48.5403 15.0315 48.5342 15.0192 48.5281C14.6449 48.2397 14.289 47.9267 13.9331 47.6015C13.8656 47.5401 13.7981 47.4787 13.7367 47.4174C13.3992 47.0983 13.074 46.7608 12.7549 46.411C12.6935 46.3435 12.6383 46.276 12.5769 46.2085C12.2517 45.8403 11.9326 45.4537 11.6258 45.0548C11.5951 45.0119 11.5705 44.9689 11.5398 44.9259C10.6746 43.7661 9.95663 42.5204 9.37366 41.2072C9.36139 41.1765 9.34911 41.152 9.3307 41.1213C8.74774 39.7897 8.30591 38.3844 8.01136 36.9055C8.01136 36.881 8.00522 36.8626 7.99908 36.838C7.71067 35.3776 7.55726 33.8557 7.55112 32.2663C7.55112 32.2357 7.55112 32.205 7.55112 32.1804C7.55112 32.1498 7.55112 32.1252 7.55112 32.0945C7.55726 30.7384 7.67999 29.3945 7.89476 28.069C7.89476 28.0506 7.89476 28.0383 7.9009 28.0199C8.12181 26.6821 8.44705 25.3689 8.8766 24.0741V24.0557C9.30002 22.8039 9.80935 21.5643 10.4169 20.3554C10.4291 20.3309 10.4353 20.3063 10.4475 20.2879C10.4598 20.2634 10.4721 20.2449 10.4844 20.2204C11.2637 18.7108 12.1596 17.2994 13.166 15.9801C13.0494 16.4096 12.9635 16.8269 12.9021 17.2319C12.9021 17.2687 12.8899 17.2994 12.8837 17.3362C12.7856 18.0235 12.7671 18.674 12.8224 19.2938C12.8224 19.3306 12.8285 19.3674 12.8346 19.4042C12.8469 19.5331 12.8531 19.662 12.8776 19.7847C12.9512 20.2572 13.074 20.7052 13.2458 21.1409C12.7733 21.7545 12.3805 22.3989 12.0614 23.0677C12.0369 23.1107 12.0185 23.1598 11.9939 23.2027C11.6871 23.8655 11.4539 24.5589 11.2944 25.2707C11.2882 25.3076 11.2821 25.3382 11.2698 25.3751C11.1226 26.0746 11.0367 26.7926 11.0305 27.5351C11.0305 27.5658 11.0305 27.5903 11.0305 27.621C11.0305 27.6517 11.0305 27.6762 11.0305 27.7069C11.0305 28.2347 11.0551 28.7379 11.098 29.2288C11.098 29.2656 11.1042 29.3024 11.1103 29.3392C11.1532 29.8179 11.2146 30.272 11.2882 30.7077C11.2944 30.7445 11.3005 30.7875 11.3067 30.8243C11.3803 31.217 11.4662 31.5913 11.5705 31.9411C11.5828 31.9718 11.5889 32.0086 11.5951 32.0454C11.6073 32.0823 11.6196 32.1129 11.6319 32.1498C11.7485 32.5241 11.8835 32.8677 12.0185 33.193C12.0369 33.2359 12.0553 33.2789 12.0737 33.3218C12.2087 33.6287 12.356 33.9171 12.5094 34.1809C12.5401 34.23 12.5646 34.2791 12.5892 34.3221C12.7058 34.5123 12.8346 34.6903 12.9635 34.856C13.0003 34.8989 13.031 34.9541 13.0678 34.9971C13.1169 35.0523 13.1722 35.1075 13.2212 35.1628C13.3133 35.2671 13.4115 35.3714 13.5158 35.4696C13.5649 35.5187 13.6201 35.5616 13.6692 35.6046C13.6876 35.623 13.7122 35.6414 13.7306 35.6598C13.8226 35.7396 13.9147 35.8194 14.0129 35.893C14.0374 35.9114 14.0619 35.9298 14.0926 35.9482C14.1294 35.9789 14.1663 36.0035 14.2092 36.0342C14.3013 36.1017 14.3995 36.163 14.4915 36.2244C14.516 36.2428 14.5467 36.2551 14.5713 36.2735C14.6388 36.3164 14.7063 36.3533 14.7738 36.3962C14.8106 36.4146 14.8413 36.4392 14.872 36.4576L15.4856 36.7889C15.7249 36.9178 15.9765 37.059 16.2343 37.194C16.627 37.4087 17.0259 37.6235 17.4186 37.8383L17.4493 37.8444ZM16.9522 21.3741L13.0617 19.257C13.0126 18.6801 13.0249 18.0726 13.1108 17.4406L17.0381 19.5761C16.9461 20.202 16.9216 20.8034 16.9522 21.3741ZM11.2698 27.8235L13.1476 28.8422L15.1665 29.9406C15.1665 30.3456 15.1788 30.7384 15.2033 31.1188C15.2033 31.1741 15.2156 31.2231 15.2156 31.2784L11.3312 29.1613C11.3251 29.057 11.3067 28.9526 11.3005 28.8422C11.2944 28.701 11.2944 28.5476 11.2882 28.4004C11.2821 28.2101 11.276 28.0199 11.2698 27.8235ZM16.7375 36.6171C16.7681 36.6662 16.7988 36.7214 16.8295 36.7705L13.2581 34.8253C13.1906 34.7455 13.1292 34.6473 13.0617 34.5614L16.6761 36.5251C16.6761 36.5251 16.7129 36.5803 16.7313 36.611L16.7375 36.6171ZM16.3693 35.9421C16.3877 35.9789 16.4061 36.0219 16.4245 36.0587L12.7242 34.0459C12.6444 33.9048 12.5585 33.7698 12.4787 33.6164C12.4603 33.5796 12.4419 33.5366 12.4235 33.4936L16.1852 35.5432C16.2465 35.6782 16.3018 35.8132 16.3631 35.9421H16.3693ZM16.0134 35.126L12.2333 33.0702C12.2026 33.0027 12.1719 32.9414 12.1412 32.8677C12.0983 32.7573 12.0614 32.6407 12.0185 32.5302C11.9878 32.4566 11.9633 32.3768 11.9387 32.297L15.7495 34.3712C15.8293 34.635 15.9152 34.8866 16.0072 35.126H16.0134ZM15.4365 33.0518C15.4488 33.1316 15.4672 33.2114 15.4795 33.2911C15.504 33.4261 15.5408 33.5489 15.5715 33.6777C15.5961 33.7882 15.6206 33.9048 15.6513 34.0153L13.4237 32.8002L11.816 31.9227C11.7239 31.6282 11.6442 31.3152 11.5767 30.99C11.5767 30.9777 11.5767 30.9654 11.5767 30.9531V30.9409L15.4427 33.0457L15.4365 33.0518ZM15.3874 32.7266L11.5153 30.6218C11.4785 30.4009 11.4355 30.1861 11.4048 29.959C11.3926 29.8486 11.3864 29.7258 11.3742 29.6154C11.3742 29.5663 11.3619 29.5111 11.3619 29.462L15.2463 31.5791C15.2647 31.8061 15.2831 32.0332 15.3077 32.2479C15.3261 32.3829 15.3506 32.5057 15.369 32.6345C15.369 32.6652 15.3813 32.6959 15.3874 32.7327V32.7266ZM15.412 27.6456C15.3813 27.799 15.3445 27.9463 15.3199 28.0997C15.2954 28.2347 15.2831 28.3697 15.2647 28.5047C15.2463 28.6519 15.2217 28.8054 15.2095 28.9526C15.1972 29.0938 15.1972 29.2411 15.1849 29.3822C15.1849 29.4804 15.1727 29.5786 15.1727 29.6767L13.7122 28.879L11.2637 27.5474C11.2637 27.3878 11.276 27.2283 11.2821 27.0749C11.2821 26.9521 11.2882 26.8355 11.3005 26.7128C11.3128 26.5533 11.3373 26.3937 11.3619 26.2342C11.3803 26.1114 11.3864 25.9887 11.4048 25.8721C11.4294 25.7371 11.4601 25.6082 11.4846 25.4732L15.412 27.6087V27.6394V27.6456ZM16.0318 25.6635C15.9827 25.7678 15.9459 25.8783 15.9029 25.9887C15.8415 26.1421 15.7802 26.2955 15.7249 26.4551C15.6881 26.5717 15.6574 26.6883 15.6206 26.811C15.5777 26.9644 15.5286 27.1178 15.4856 27.2712C15.4733 27.3142 15.4672 27.3571 15.4549 27.394L11.5276 25.2585C11.546 25.191 11.5521 25.1235 11.5705 25.056C11.6073 24.9087 11.6564 24.7675 11.6994 24.6203C11.7362 24.4975 11.7669 24.3687 11.8098 24.2459C11.8589 24.1048 11.9142 23.9698 11.9694 23.8348C12.0185 23.7121 12.0614 23.5832 12.1167 23.4605C12.1412 23.4052 12.1658 23.3561 12.1903 23.3009L16.1361 25.4487C16.0993 25.5223 16.0624 25.596 16.0318 25.6757V25.6635ZM16.8418 24.1539C16.7988 24.2275 16.7559 24.3012 16.7129 24.3687C16.6086 24.5405 16.4981 24.7185 16.4061 24.8964C16.357 24.9885 16.314 25.0866 16.2649 25.1787C16.2527 25.1971 16.2465 25.2216 16.2343 25.2401L12.2885 23.0923L12.313 23.0493C12.3744 22.9266 12.4296 22.7977 12.491 22.675C12.5646 22.5339 12.6505 22.3989 12.7365 22.2577C12.804 22.1473 12.8592 22.0307 12.9328 21.9202C13.074 21.6993 13.2212 21.4845 13.3808 21.2697L17.3511 23.4298C17.1732 23.663 17.0075 23.9023 16.8479 24.1478L16.8418 24.1539ZM17.2775 23.1107L13.4667 21.0366C13.2765 20.5579 13.1537 20.0486 13.0862 19.5147L16.9706 21.6257C17.0197 22.1411 17.1179 22.6382 17.2775 23.1046V23.1107ZM17.0688 19.3797L13.1415 17.2442C13.2274 16.6919 13.3624 16.1212 13.5465 15.526C13.6201 15.4278 13.6938 15.3296 13.7735 15.2376L17.5966 17.3178C17.3511 18.0358 17.1793 18.7231 17.0688 19.3797ZM19.7812 16.4955C20.1309 16.3483 20.4807 16.201 20.8366 16.0721C20.4807 16.201 20.1309 16.3483 19.7812 16.4955ZM25.0033 18.134C24.5738 18.2874 24.1442 18.4592 23.7208 18.6372L19.8609 16.5385C20.223 16.3851 20.5912 16.2378 20.9655 16.1089C21.0698 16.0721 21.1741 16.0414 21.2785 16.0108L25.1138 18.0972C25.077 18.1094 25.0401 18.1217 24.9972 18.134H25.0033ZM26.8688 17.5756C26.6847 17.6247 26.4945 17.6676 26.3104 17.7167C26.0343 17.7965 25.7642 17.8885 25.4942 17.9744L21.6589 15.888C21.6589 15.888 21.708 15.8758 21.7326 15.8635C21.9105 15.8083 22.0823 15.7469 22.2603 15.6978C22.4996 15.6303 22.7451 15.5751 22.9844 15.5198C23.0151 15.5137 23.0458 15.5014 23.0765 15.4953L26.8872 17.5694H26.8688V17.5756ZM28.225 17.281C28.0286 17.3178 27.8261 17.3485 27.6297 17.3915C27.5132 17.416 27.4027 17.4467 27.2861 17.4712L23.4815 15.4032C23.4815 15.4032 23.5367 15.391 23.5612 15.3848C23.776 15.3419 23.9969 15.3112 24.2117 15.2682C24.4326 15.2314 24.6535 15.1823 24.8745 15.1516L28.6423 17.2012C28.5011 17.2258 28.36 17.2565 28.2127 17.281H28.225ZM30.3605 16.9926C30.1887 17.0049 30.0168 17.0294 29.8512 17.0478C29.6057 17.0724 29.3602 17.0908 29.1148 17.1276L25.3838 15.1026C25.5127 15.0903 25.6477 15.0719 25.7765 15.0596C25.9729 15.0412 26.1693 15.0166 26.3656 15.0044C26.4884 14.9982 26.6111 14.9982 26.7338 14.9921L30.4096 16.9926C30.4096 16.9926 30.3789 16.9926 30.3666 16.9926H30.3605ZM31.6123 16.9374C31.4712 16.9374 31.3362 16.9496 31.1951 16.9558C31.1153 16.9558 31.0355 16.9619 30.9619 16.9681L27.2984 14.9737C27.4272 14.9737 27.5622 14.9614 27.6911 14.9614C27.9734 14.9614 28.2557 14.9798 28.5379 14.9982L32.1339 16.9558C31.9621 16.9558 31.7903 16.9435 31.6185 16.9435L31.6123 16.9374ZM32.8458 16.9681C32.8458 16.9681 32.809 16.9681 32.7905 16.9681C32.7783 16.9681 32.7599 16.9681 32.7476 16.9681L29.2068 15.0412C29.5627 15.0719 29.9248 15.1087 30.2746 15.1639L33.7478 17.054C33.4471 17.0233 33.1465 16.9865 32.8458 16.9681ZM34.4658 17.1276L30.5446 14.9921L31.4037 14.2987L35.3249 16.4342L34.4658 17.1337V17.1276ZM36.0736 15.8635C35.8772 16.0046 35.6931 16.1396 35.509 16.2808L31.5939 14.1514C31.7473 14.0287 31.9069 13.9121 32.0787 13.7955C32.1094 13.7709 32.1401 13.7525 32.1769 13.7341L36.0858 15.8573H36.0797L36.0736 15.8635ZM36.6811 15.4585C36.5522 15.5444 36.4295 15.6303 36.3068 15.7101H36.2945L32.3855 13.593L32.4346 13.5623C32.5144 13.5132 32.588 13.458 32.6678 13.4089C32.7783 13.3352 32.901 13.2677 33.0176 13.1941L33.036 13.1818L36.8345 15.2498C36.8345 15.2867 36.8345 15.3296 36.8345 15.3664C36.7854 15.3971 36.7302 15.4278 36.6811 15.4646V15.4585ZM36.4786 12.8136C36.5031 12.8996 36.5215 12.9916 36.5461 13.0775L34.9138 12.1877L34.9383 12.1754C35.0181 12.1448 35.0917 12.1202 35.1715 12.1018L36.4786 12.8136ZM35.5581 12.0036C35.5581 12.0036 35.6195 11.9914 35.6502 11.9852L36.3252 12.3534C36.3252 12.3534 36.3436 12.4086 36.3558 12.4393L35.5581 12.0036ZM36.632 13.4212C36.6627 13.5623 36.6811 13.7034 36.7056 13.8446L34.2265 12.4945C34.2694 12.47 34.3124 12.4516 34.3554 12.427C34.4044 12.4025 34.4597 12.3718 34.5088 12.3534C34.5394 12.3411 34.5701 12.3289 34.6008 12.3166L36.6259 13.4212H36.632ZM40.7925 15.9371L38.4729 14.673C38.5589 14.63 38.6386 14.5932 38.7184 14.5564C38.7491 14.5441 38.7736 14.5319 38.7982 14.5196C38.9639 14.446 39.1234 14.3846 39.2707 14.3355C39.3014 14.3232 39.3321 14.3171 39.3627 14.3048C39.4977 14.2619 39.6205 14.2312 39.7432 14.2066C39.78 14.2005 39.823 14.1882 39.8598 14.1821C39.8782 14.1821 39.8905 14.1821 39.9089 14.1821C39.9396 14.1821 39.9702 14.1821 40.0009 14.1759C40.0132 14.1759 40.0255 14.1759 40.0377 14.1759H40.0562C40.0991 14.1759 40.1359 14.1759 40.1789 14.1759L40.3078 14.2434C40.5287 14.8141 40.6882 15.3787 40.7925 15.9433V15.9371ZM38.4791 14.4275C38.3993 14.4644 38.3195 14.5073 38.2398 14.5503L36.9143 13.8323C36.8959 13.7403 36.8836 13.6482 36.8652 13.5562L38.4791 14.4337V14.4275ZM36.7854 13.2125C36.767 13.1266 36.7424 13.0407 36.7179 12.9486L39.013 14.1944H38.9945C38.927 14.2312 38.8534 14.2619 38.7798 14.2925L36.7915 13.2064L36.7854 13.2125ZM37.8593 14.7528C37.7857 14.7957 37.712 14.8387 37.6384 14.8816C37.5341 14.943 37.4297 14.9982 37.3254 15.0596C37.2702 15.0903 37.215 15.1271 37.1597 15.1578L37.037 15.0903C37.037 14.8203 37.0125 14.5503 36.9818 14.2741L37.8593 14.7528ZM37.0309 15.4953C37.0677 15.4707 37.1045 15.4462 37.1475 15.4217C37.172 15.4094 37.1904 15.391 37.215 15.3787C37.4911 15.2069 37.7795 15.0412 38.0863 14.8694C38.1109 14.8571 38.1354 14.8387 38.16 14.8264L40.8539 16.293C40.9398 16.8699 40.9705 17.4406 40.9398 18.0113L37.0125 15.8758C37.0247 15.7469 37.0309 15.6242 37.0309 15.4953ZM39.4425 14.0532C39.4425 14.0532 39.4057 14.0655 39.3934 14.0716C39.3811 14.0716 39.375 14.0716 39.3627 14.0778L36.6136 12.5805C36.6136 12.5805 36.5952 12.5252 36.5829 12.4945L39.4425 14.0532ZM34.8524 13.1205L36.7609 14.1575C36.7977 14.4337 36.8222 14.7098 36.8345 14.986L33.2631 13.0468C33.2631 13.0468 33.2876 13.0284 33.306 13.0223C33.3981 12.9671 33.4962 12.9118 33.5883 12.8627C33.711 12.7891 33.8399 12.7216 33.9688 12.648L34.8524 13.1327V13.1205ZM36.8652 16.8699C36.8959 16.7226 36.9327 16.5753 36.9511 16.4219C36.9511 16.4096 36.9511 16.3974 36.9511 16.3851C36.9634 16.3176 36.9634 16.2439 36.9756 16.1703L40.903 18.3058C40.8478 18.8765 40.7373 19.4411 40.5655 19.9995L39.9641 19.6681C39.5346 19.4104 39.062 19.1588 38.5834 18.9195L36.6013 17.8394C36.7118 17.5203 36.7977 17.1951 36.8652 16.8637V16.8699ZM37.3193 18.7292C37.2947 18.6924 37.264 18.6617 37.2395 18.631C37.1904 18.5635 37.1413 18.5022 37.0861 18.4408L40.5287 20.3124C40.7066 20.4904 40.8723 20.6806 41.0319 20.877C41.081 20.9384 41.1239 21.0059 41.1669 21.0672C41.2712 21.2022 41.3694 21.3372 41.4614 21.4784L37.7734 19.4717C37.6322 19.214 37.485 18.9686 37.3131 18.7292H37.3193ZM38.5282 21.4354C38.5282 21.4354 38.522 21.3863 38.5159 21.3679C38.4729 21.1838 38.4177 21.0059 38.3563 20.8279C38.3379 20.7727 38.3257 20.7113 38.3073 20.6561C38.2275 20.4229 38.1416 20.202 38.0434 19.9811C38.0311 19.9504 38.0188 19.9258 38.0066 19.8952L41.7314 21.9202C41.7682 21.9877 41.8112 22.0552 41.848 22.1227C41.8971 22.2148 41.9339 22.3129 41.9769 22.4111C42.0382 22.5461 42.0996 22.675 42.1548 22.8161C42.1917 22.9205 42.2223 23.0309 42.2592 23.1352C42.3021 23.2641 42.3451 23.393 42.3819 23.5218L38.5343 21.4293L38.5282 21.4354ZM38.7798 23.6998C38.7798 23.5464 38.7675 23.4052 38.7614 23.258C38.7614 23.1414 38.7614 23.0186 38.7491 22.902C38.7368 22.7364 38.7123 22.5768 38.6939 22.4111C38.6816 22.3129 38.6754 22.2086 38.657 22.1166C38.6386 21.9938 38.6079 21.8773 38.5834 21.7545L42.4433 23.8532L42.4555 23.8962C42.4862 24.0373 42.523 24.1723 42.5476 24.3196C42.566 24.4423 42.5783 24.5712 42.5967 24.6939C42.6151 24.8412 42.6396 24.9823 42.6519 25.1296C42.6642 25.2585 42.6642 25.3996 42.6703 25.5285C42.6703 25.6267 42.6764 25.7187 42.6826 25.8169L38.7798 23.6937V23.6998ZM42.6887 26.093C42.6887 26.4551 42.6764 26.8049 42.658 27.1546C42.658 27.1976 42.658 27.2406 42.658 27.2774C42.658 27.3449 42.6458 27.4062 42.6396 27.4737L38.7184 25.3382C38.7245 25.2339 38.7368 25.1357 38.7429 25.0314C38.7552 24.878 38.7552 24.7123 38.7614 24.5528C38.7675 24.3564 38.7798 24.16 38.7798 23.9637L42.6949 26.093H42.6887ZM38.6264 26.2035C38.6448 26.0808 38.6509 25.9519 38.6632 25.8292C38.6693 25.7494 38.6816 25.6635 38.6877 25.5776L42.6089 27.7131C42.5905 27.9524 42.5721 28.1917 42.5414 28.4249C42.523 28.5538 42.4985 28.6704 42.4801 28.7992C42.4678 28.8729 42.4555 28.9465 42.4433 29.0201L38.5159 26.8846C38.5527 26.6576 38.5957 26.4367 38.6264 26.2096V26.2035ZM38.387 27.5719C38.4054 27.4799 38.43 27.394 38.4484 27.3019C38.4607 27.2344 38.4668 27.1669 38.4852 27.0994L42.4126 29.2349C42.3942 29.327 42.3819 29.4251 42.3696 29.5172C42.3389 29.6645 42.3021 29.7995 42.2714 29.9468C42.2346 30.1186 42.1917 30.2904 42.1487 30.4561L38.2152 28.3144C38.2827 28.0751 38.3379 27.8235 38.3932 27.5719H38.387ZM37.8716 29.3822C37.9022 29.2901 37.9329 29.192 37.9636 29.0999C38.0311 28.9035 38.0986 28.7133 38.1538 28.5108L41.9155 30.5543L42.0935 30.6524C42.0321 30.8672 41.9646 31.0759 41.8971 31.2784C41.8664 31.3704 41.8357 31.4686 41.8051 31.5606C41.7805 31.6282 41.756 31.6834 41.7314 31.7509L37.7857 29.6031C37.8163 29.5295 37.847 29.462 37.8716 29.3822ZM37.4359 30.4254C37.4604 30.3702 37.4911 30.3149 37.5218 30.2536C37.5893 30.1002 37.6568 29.9283 37.7182 29.7627L41.6639 31.9104C41.5964 32.0761 41.5351 32.2541 41.4614 32.4136C41.4307 32.4811 41.4001 32.5364 41.3694 32.6039C41.3264 32.702 41.2773 32.788 41.2282 32.88L37.2825 30.7322C37.3316 30.634 37.3868 30.5297 37.4359 30.4254ZM36.9572 31.3213C37.0125 31.2293 37.0738 31.1434 37.129 31.0452C37.1597 30.99 37.1843 30.9286 37.215 30.8734L41.1607 33.0211C41.13 33.0764 41.1055 33.1316 41.081 33.1868C41.0319 33.2789 40.9705 33.3648 40.9153 33.4568C40.8355 33.5857 40.7557 33.7207 40.6759 33.8434L36.7302 31.6957C36.8099 31.5791 36.8836 31.4502 36.9572 31.3275V31.3213ZM36.1718 32.432C36.227 32.3645 36.2761 32.297 36.3313 32.2234C36.4356 32.0945 36.5399 31.9657 36.632 31.8307L40.5778 33.9784C40.5041 34.0828 40.4182 34.1871 40.3384 34.2914C40.2771 34.3712 40.2157 34.4571 40.1482 34.5369C40.1114 34.5798 40.0684 34.6228 40.0316 34.6657L36.092 32.5241C36.1165 32.4934 36.1472 32.4627 36.1779 32.432H36.1718ZM35.5029 33.15C35.5458 33.107 35.5949 33.0702 35.6379 33.0273C35.7483 32.9168 35.8527 32.7941 35.957 32.6775L39.8966 34.8191C39.8598 34.8621 39.823 34.905 39.7862 34.9419C39.7309 34.9971 39.6818 35.0585 39.6327 35.1137C39.5223 35.2241 39.3996 35.3285 39.283 35.4389L35.3556 33.3034C35.4108 33.2543 35.4599 33.2052 35.5151 33.1561L35.5029 33.15ZM34.8095 33.7637C34.8892 33.7023 34.969 33.6409 35.0426 33.5734C35.0917 33.5305 35.1347 33.4875 35.1838 33.4446L39.1111 35.5801C39.1111 35.5801 39.0682 35.623 39.0436 35.6414C39.013 35.666 38.9761 35.6905 38.9454 35.7212C38.7798 35.8623 38.6079 35.9973 38.4361 36.1262L34.5149 33.9968C34.6131 33.9232 34.7113 33.8373 34.8095 33.7575V33.7637ZM33.7601 34.5369C33.9442 34.4141 34.1283 34.2853 34.3185 34.1503L36.81 35.5064L38.2336 36.2796C38.1416 36.3471 38.0495 36.4085 37.9575 36.4699C37.8777 36.5251 37.7918 36.5864 37.712 36.6417C37.6568 36.6785 37.6016 36.7092 37.5463 36.746L33.6435 34.6228C33.6865 34.5982 33.7233 34.5675 33.7662 34.5369H33.7601ZM32.7844 35.1321C32.8703 35.083 32.9562 35.04 33.0421 34.991C33.1649 34.9173 33.2876 34.8437 33.4103 34.7639L37.3131 36.8871C37.3131 36.8871 37.2763 36.9117 37.2579 36.924C37.1965 36.9608 37.129 37.0037 37.0677 37.0405C36.9327 37.1203 36.7977 37.1878 36.6688 37.2615L32.7783 35.1444H32.7905L32.7844 35.1321ZM32.1339 35.4635C32.2198 35.4205 32.3058 35.3837 32.3978 35.3346C32.4408 35.3162 32.4837 35.2916 32.5205 35.2671L36.4049 37.3842C36.2086 37.4824 36.0122 37.5744 35.8158 37.6603L31.9437 35.5555C32.0051 35.5248 32.0664 35.4941 32.1339 35.4635ZM31.6185 35.7028C31.6185 35.7028 31.643 35.6967 31.6492 35.6905L32.0664 35.9176L35.5029 37.7892C35.4476 37.8137 35.3924 37.8322 35.3311 37.8567C35.2451 37.8874 35.1592 37.9242 35.0733 37.9549C35.0242 37.9733 34.9751 37.9856 34.926 38.004L31.0785 35.9114C31.2626 35.8439 31.4344 35.7703 31.6123 35.7028H31.6185ZM30.4341 36.1446H30.4587C30.5753 36.0955 30.6919 36.0587 30.8023 36.0158L34.6499 38.1083C34.5701 38.139 34.4904 38.1635 34.4044 38.1942C34.2817 38.2372 34.1467 38.274 34.0178 38.3108L33.981 38.3231L30.1457 36.2367C30.2439 36.206 30.3421 36.1753 30.4341 36.1446ZM29.1455 36.5312C29.3971 36.4637 29.6487 36.3901 29.888 36.3164L33.7172 38.4028H33.6987C33.4594 38.4765 33.214 38.544 32.9624 38.6054L29.1455 36.5312ZM29.6977 37.3596C29.6548 37.286 29.618 37.2124 29.5689 37.1387C29.5505 37.108 29.5259 37.0774 29.5014 37.0528L32.8642 38.8815C33.0544 39.0288 33.214 39.2067 33.3674 39.4031L29.7284 37.421C29.7284 37.421 29.7039 37.3781 29.6916 37.3596H29.6977ZM30.2071 38.7649C30.1948 38.7158 30.1825 38.6729 30.1703 38.6238C30.1457 38.5317 30.1273 38.4335 30.1028 38.3415C30.0843 38.2801 30.0598 38.2188 30.0414 38.1574C30.0107 38.0715 29.9862 37.9856 29.9555 37.8997C29.9371 37.8567 29.9187 37.8137 29.9002 37.7708L33.6435 39.8081C33.8153 40.1149 33.9503 40.4586 34.0547 40.8574L30.2009 38.7649H30.2071ZM30.3359 39.6854C30.3237 39.5626 30.3175 39.4461 30.3053 39.3295C30.2991 39.2558 30.2807 39.1883 30.2746 39.1208C30.2746 39.0963 30.2684 39.0656 30.2623 39.041L34.1222 41.1397C34.2142 41.5754 34.2633 42.0541 34.2756 42.5818L30.3728 40.4586C30.3728 40.2561 30.3666 40.0658 30.3544 39.8756C30.3544 39.8081 30.3421 39.7467 30.3359 39.6854ZM31.5264 47.6874H31.5142L30.4034 47.086C30.4034 47.086 30.4034 47.0676 30.3973 47.0553L31.551 47.6812H31.5326L31.5264 47.6874ZM34.2633 48.8963L32.048 47.6935C32.5144 47.4542 32.9808 47.2087 33.4287 46.9387C33.5269 46.8835 33.6128 46.816 33.711 46.7608C33.9012 46.6442 34.0853 46.5214 34.2694 46.4048V48.8963H34.2633ZM34.2633 46.1532C33.4778 46.6687 32.6617 47.1474 31.821 47.5708L30.3544 46.773L30.3666 40.7347L34.2694 42.8579V46.1532H34.2633ZM34.3063 40.9986C34.2081 40.5383 34.0608 40.1272 33.8706 39.7713C33.846 39.7222 33.8215 39.6792 33.7969 39.6363C33.6067 39.3111 33.3858 39.0288 33.1219 38.7956C33.4226 38.7158 33.711 38.636 33.9933 38.5501C34.0301 38.5378 34.0669 38.5256 34.0976 38.5194C34.3799 38.4335 34.6499 38.3476 34.9076 38.2556C34.9445 38.2433 34.9751 38.231 35.012 38.2188C35.2697 38.1267 35.5213 38.0285 35.7667 37.9303C35.7974 37.9181 35.8281 37.9058 35.8588 37.8935C35.8895 37.8812 35.914 37.8628 35.9447 37.8506C36.1718 37.7524 36.4049 37.6358 36.6443 37.5131C36.6749 37.4946 36.7056 37.4824 36.7363 37.464C37.0002 37.3228 37.2702 37.1694 37.5402 36.9976C37.5709 36.9792 37.5954 36.9608 37.6261 36.9424C37.9022 36.7705 38.1723 36.5864 38.4545 36.3839C38.4791 36.3655 38.5036 36.3533 38.522 36.3349C38.5466 36.3164 38.565 36.298 38.5895 36.2858C38.8473 36.0955 39.0927 35.893 39.3259 35.6844C39.3505 35.6598 39.375 35.6353 39.4057 35.6107C39.6511 35.3898 39.8843 35.1505 40.1053 34.9112C40.1298 34.8866 40.1543 34.856 40.1789 34.8314C40.3937 34.5859 40.5962 34.3343 40.7803 34.0705C40.7925 34.0521 40.8109 34.0275 40.8294 34.0091C40.8416 33.9907 40.8539 33.9662 40.8723 33.9416C41.0503 33.6839 41.2098 33.4077 41.3694 33.107C41.3939 33.0641 41.4123 33.015 41.4369 32.972C41.5964 32.6591 41.7437 32.3338 41.8787 31.9779C41.8971 31.935 41.9155 31.8859 41.9339 31.8429C42.0689 31.4809 42.1978 31.1066 42.3144 30.7077C42.3205 30.6831 42.3328 30.6586 42.3389 30.634C42.3451 30.6095 42.3512 30.5788 42.3573 30.5543C42.4739 30.1308 42.566 29.689 42.6458 29.2288C42.6519 29.192 42.658 29.1551 42.6642 29.1183C42.7439 28.6581 42.8053 28.1794 42.8421 27.6824C42.8421 27.6456 42.8483 27.6087 42.8544 27.5781C42.8912 27.0994 42.9158 26.6146 42.9219 26.1114C42.9219 26.0808 42.9219 26.0562 42.9219 26.0255C42.9219 25.9948 42.9219 25.9642 42.9219 25.9335C42.9219 25.1664 42.8299 24.4484 42.6764 23.7734C42.6703 23.7366 42.658 23.6937 42.6519 23.6568C42.4923 22.9941 42.253 22.3804 41.9462 21.8098C41.9217 21.7607 41.891 21.7116 41.8664 21.6686C41.5535 21.1225 41.1791 20.6131 40.7312 20.1529C40.9582 19.5208 41.0932 18.8765 41.1485 18.2199C41.1485 18.1831 41.1546 18.1524 41.1607 18.1156C41.2098 17.4835 41.1791 16.833 41.0687 16.1764C41.0625 16.1396 41.0564 16.1028 41.0503 16.066C40.9337 15.4032 40.7434 14.7344 40.4673 14.0471C40.3998 13.9734 40.32 13.9059 40.2464 13.8384C39.5284 13.1757 38.4177 12.7277 37.4113 12.2982C37.0002 12.1202 36.6136 11.9484 36.2761 11.7643C36.2208 11.752 36.1595 11.752 36.0981 11.7459H36.0797C36.0245 11.7459 35.9692 11.7459 35.9079 11.7459C35.8895 11.7459 35.8649 11.7459 35.8465 11.7459C35.7974 11.7459 35.7545 11.7459 35.7054 11.7582C35.6686 11.7582 35.6256 11.7766 35.5888 11.7827C35.4967 11.8011 35.4047 11.8195 35.3004 11.8441C35.2635 11.8563 35.2267 11.8686 35.1899 11.8809C35.0365 11.93 34.877 11.9914 34.7051 12.0589C34.6744 12.0711 34.6376 12.0834 34.6069 12.1018C34.4229 12.1816 34.2388 12.2736 34.0363 12.378C34.0056 12.3902 33.981 12.4025 33.9565 12.4209C33.9319 12.4332 33.9074 12.4516 33.8767 12.4639C33.6006 12.6111 33.3367 12.7645 33.079 12.9241C33.0483 12.9425 33.0237 12.9609 32.9992 12.9732C32.723 13.1389 32.4592 13.3107 32.2137 13.4825C32.1892 13.5009 32.1585 13.5193 32.1339 13.5377C31.8639 13.728 31.6001 13.9121 31.3607 14.1084L30.3175 14.9553C29.8021 14.8755 29.2805 14.8264 28.7589 14.7957C28.6914 14.7957 28.6239 14.7957 28.5564 14.7896C28.0225 14.7589 27.4825 14.7589 26.9363 14.7773C26.875 14.7773 26.8197 14.7773 26.7584 14.7773C26.1999 14.8019 25.6354 14.8448 25.0708 14.9246C25.0279 14.9246 24.9788 14.9307 24.9358 14.9369C24.8929 14.9369 24.856 14.9553 24.8131 14.9553C24.2854 15.0351 23.7576 15.1394 23.2299 15.256C23.1869 15.2682 23.144 15.2805 23.101 15.2867C22.5365 15.4217 21.978 15.5751 21.4257 15.7592C21.3828 15.7714 21.346 15.7837 21.303 15.796C20.7139 15.9923 20.1309 16.201 19.5602 16.4526L19.2227 16.2685L19.1736 16.2439C19.1736 16.2439 19.1368 16.2255 19.1184 16.2133C19.0448 16.1703 18.965 16.1335 18.8791 16.0905L18.83 16.066L18.7686 16.0353C18.6459 15.9739 18.517 15.9064 18.382 15.8389C18.2164 15.7592 18.0139 15.6733 17.7868 15.5812C17.6702 15.5382 17.5536 15.4892 17.4186 15.4462C17.2897 15.4032 17.1425 15.3542 17.0013 15.3051C16.805 15.2437 16.5963 15.1762 16.3693 15.1087C16.2527 15.0719 16.1484 15.0412 16.0256 15.0105C15.9274 14.9798 15.8354 14.9614 15.7372 14.943C15.6758 14.9307 15.6206 14.9123 15.5593 14.9001C15.4672 14.8816 15.3813 14.8632 15.2954 14.851C15.142 14.8264 14.9947 14.8019 14.8536 14.7896C14.7861 14.7896 14.7247 14.7835 14.6572 14.7773C14.516 14.7773 14.381 14.7773 14.2522 14.7835C14.2276 14.7835 14.2092 14.7835 14.1847 14.7835C14.5222 14.3907 14.872 14.0103 15.2279 13.6359L15.2586 13.6053C16.1913 12.6357 17.1977 11.7336 18.2777 10.9052C18.3023 10.8868 18.3207 10.8684 18.3452 10.8561C18.3698 10.8377 18.3943 10.8254 18.4127 10.807C19.4621 10.0154 20.5544 9.32197 21.6712 8.72673C21.6896 8.71446 21.7142 8.70219 21.7326 8.69605C22.874 8.08854 24.0522 7.58534 25.2611 7.18647C25.2856 7.18033 25.3163 7.16806 25.3408 7.16193C26.5374 6.76919 27.7647 6.47464 29.0227 6.29054C29.0657 6.29054 29.1025 6.27213 29.1455 6.27213C29.1884 6.266 29.2314 6.266 29.2805 6.25986C30.4771 6.10031 31.6492 6.05122 32.7967 6.08804C32.8458 6.08804 32.8887 6.08804 32.9378 6.08804C34.0792 6.13713 35.1961 6.28441 36.2822 6.536C36.3681 6.55441 36.454 6.58509 36.5461 6.6035C37.1536 6.75692 37.7488 6.93487 38.3318 7.14965C38.4054 7.1742 38.4791 7.19874 38.5527 7.22943C38.6754 7.31534 38.792 7.40125 38.9086 7.4933C38.9823 7.54852 39.0498 7.60375 39.1173 7.65898C39.1909 7.72035 39.2707 7.77558 39.3443 7.83694C39.5346 7.99035 39.7187 8.1499 39.8966 8.30945C40.0316 8.43218 40.1727 8.55491 40.3078 8.68378C40.4857 8.8556 40.6637 9.03356 40.8355 9.21152C40.9582 9.34038 41.0871 9.46925 41.2098 9.59812C41.3878 9.78835 41.5535 9.99085 41.7253 10.1934C41.8357 10.3222 41.9462 10.4511 42.0505 10.5861C42.2285 10.8131 42.4003 11.0525 42.5721 11.2918C42.658 11.4084 42.7439 11.525 42.8299 11.6416C43.0815 12.0036 43.3208 12.3779 43.5478 12.7645C43.5724 12.8075 43.5908 12.8505 43.6153 12.8873C44.2228 13.9243 44.7199 15.0228 45.131 16.1642C45.1433 16.1949 45.1556 16.2255 45.1617 16.2501C45.5729 17.4037 45.8736 18.6126 46.0822 19.8645C46.0822 19.889 46.0883 19.9136 46.0945 19.9381C46.2908 21.1654 46.4013 22.4418 46.4013 23.755C46.4013 23.7857 46.4013 23.8164 46.4013 23.8409C46.4013 23.8716 46.4013 23.8962 46.4013 23.9268C46.3952 25.5653 46.2233 27.1792 45.9165 28.7624V28.7931C45.5974 30.3824 45.1433 31.9411 44.5358 33.4568V33.4752H44.5297C43.9283 34.9787 43.1796 36.4453 42.2837 37.8751C41.3878 39.3049 40.3937 40.6059 39.3198 41.8025L39.3075 41.8147C38.2213 43.0236 37.0493 44.1098 35.7913 45.0732C35.779 45.0855 35.7667 45.0916 35.7545 45.1039C35.3433 45.4169 34.9322 45.7176 34.5026 45.9998V42.7782C34.5088 42.1584 34.4535 41.6 34.3554 41.0906C34.3492 41.0538 34.3431 41.017 34.3369 40.9802L34.3063 40.9986ZM35.8527 49.8536L34.4719 49.1049V46.2637C34.6254 46.1655 34.7788 46.0735 34.926 45.9753C35.0426 45.8955 35.1531 45.8035 35.2636 45.7237C35.4292 45.601 35.5949 45.4782 35.7606 45.3494L39.6818 47.4787C38.4791 48.3808 37.2027 49.1785 35.8465 49.8474L35.8527 49.8536ZM39.8843 47.3315L35.9631 45.2021C36.092 45.1039 36.227 45.0119 36.3558 44.9075C36.4847 44.8032 36.6074 44.6866 36.7302 44.5823C37.0615 44.3062 37.3929 44.03 37.712 43.7355C37.847 43.6127 37.9759 43.4716 38.1047 43.3489C38.4054 43.0605 38.7061 42.772 38.9945 42.4652C39.1111 42.3425 39.2216 42.2075 39.3382 42.0786L43.2778 44.2203C42.2285 45.3739 41.0932 46.411 39.8782 47.3315H39.8843ZM43.419 44.0668L39.4793 41.9252C39.7248 41.6491 39.9764 41.3791 40.2157 41.0906C40.363 40.9065 40.5041 40.7102 40.6514 40.5261C40.8846 40.2254 41.1239 39.9308 41.351 39.6179C41.5044 39.4031 41.6516 39.1699 41.7989 38.949C41.9953 38.6606 42.1978 38.3783 42.388 38.0776L46.3338 40.2254C45.4501 41.6245 44.4683 42.9009 43.4128 44.073L43.419 44.0668ZM48.3282 36.4637C48.2852 36.568 48.2484 36.6724 48.1993 36.7767C47.9722 37.2737 47.7268 37.7647 47.469 38.2494C47.4384 38.3108 47.4077 38.3783 47.377 38.4397C47.0824 38.992 46.7634 39.532 46.432 40.072L42.4862 37.9242C42.7071 37.5683 42.9035 37.2124 43.106 36.8564C43.2042 36.6785 43.3208 36.5067 43.4128 36.3226C43.6276 35.9237 43.8178 35.5187 44.0142 35.1137C44.0878 34.9541 44.1799 34.7946 44.2535 34.635C44.4131 34.2914 44.5481 33.9355 44.6892 33.5857L48.635 35.7335C48.5368 35.9728 48.4448 36.2183 48.3404 36.4576L48.3282 36.4637ZM49.9175 31.5975C49.8316 31.9902 49.7211 32.3829 49.6168 32.7695C49.5677 32.9659 49.5248 33.1623 49.4696 33.3525C49.3468 33.7821 49.1934 34.2055 49.0461 34.6289C48.9909 34.7762 48.9541 34.9296 48.8927 35.083C48.8314 35.2487 48.7516 35.4144 48.6902 35.5801L44.7444 33.4323C44.8058 33.285 44.8733 33.1377 44.9285 32.9905C44.9347 32.9659 44.9469 32.9475 44.9531 32.9291C45.1679 32.3523 45.3642 31.7693 45.5361 31.1802C45.5974 30.9715 45.6404 30.7629 45.6956 30.5543C45.7999 30.1738 45.9042 29.7933 45.9902 29.4067C46.027 29.2472 46.0454 29.0876 46.0761 28.9281L50.0096 31.0636C49.9727 31.2416 49.9482 31.4195 49.9114 31.5975H49.9175ZM50.4637 27.2221C50.4514 27.4799 50.4514 27.7437 50.433 28.0015C50.4084 28.3574 50.3593 28.7133 50.3164 29.0692C50.2857 29.3147 50.2734 29.5663 50.2366 29.8117C50.1875 30.1615 50.1139 30.499 50.0525 30.8427L46.119 28.7072C46.119 28.7072 46.1252 28.6704 46.1313 28.652C46.1988 28.3022 46.2724 27.9463 46.3215 27.5965C46.3583 27.3326 46.3829 27.0626 46.4074 26.7987C46.4443 26.4551 46.4933 26.1114 46.5179 25.7678C46.5363 25.4917 46.5424 25.2094 46.5547 24.9332C46.567 24.6448 46.5854 24.3564 46.5915 24.068L50.5005 26.1912C50.5005 26.5349 50.4759 26.8785 50.4637 27.2221Z"/></svg>