<svg xmlns="http://www.w3.org/2000/svg" width="54" height="55" fill="none" viewBox="0 0 54 55"><path fill="#000" d="M48.2828 10.4285V10.4126C48.3093 10.3755 48.3305 10.3331 48.3517 10.2961C48.6962 9.63369 48.9823 8.93953 49.1943 8.21888L49.2472 8.04932L45.6228 6.07812L45.485 6.1841C44.9339 6.61331 44.3617 7.00543 43.7735 7.37106C43.7523 7.38165 43.7364 7.39755 43.7152 7.40815C43.127 7.77377 42.5229 8.1076 41.9083 8.40434C41.8871 8.41494 41.8606 8.42554 41.8394 8.43614C41.3148 8.68518 40.7849 8.91304 40.2444 9.1144L39.8735 8.91304C39.5662 8.74347 39.2535 8.57921 38.9568 8.41494L38.872 8.36725L38.1672 7.98573C38.1037 7.94864 38.0348 7.92214 37.9712 7.89035C37.9182 7.86385 37.8652 7.83736 37.8069 7.81087C37.7645 7.78967 37.7168 7.76847 37.6744 7.74728C37.4413 7.6413 37.2028 7.55122 36.9644 7.47174C36.9061 7.45054 36.8478 7.43464 36.7895 7.41875C36.5882 7.36046 36.3868 7.30747 36.1855 7.26508C36.1219 7.24918 36.0583 7.23858 35.9947 7.22269H35.9841C35.9152 7.20679 35.841 7.19619 35.7721 7.1856C35.592 7.1591 35.4065 7.13261 35.2211 7.11671C35.1734 7.11671 35.131 7.11671 35.0833 7.11141C34.8607 7.09551 34.6329 7.09021 34.405 7.09551C34.3308 7.09551 34.2567 7.09551 34.1878 7.10081C33.9546 7.11141 33.7162 7.13261 33.483 7.1591C33.4459 7.1591 33.4035 7.1644 33.3664 7.1697C33.3346 7.1697 33.2976 7.1856 33.2658 7.19089C31.6814 7.43464 30.1977 8.1023 28.9101 9.0773C28.8836 9.0985 28.8571 9.11969 28.8359 9.13559C27.5323 10.1424 26.4355 11.4512 25.6618 12.9508C25.6406 12.9879 25.6194 13.0303 25.5982 13.0674C24.8458 14.5617 24.406 16.2202 24.3901 17.9318C24.3901 17.9583 24.3901 17.9795 24.3901 18.0059C24.3901 18.0324 24.3901 18.0589 24.3901 18.0854C24.3901 18.2762 24.406 18.467 24.4219 18.663C24.4219 18.6948 24.4219 18.7319 24.4219 18.7637C24.4378 18.9545 24.459 19.1558 24.4855 19.3519C24.4855 19.3837 24.4961 19.4208 24.5014 19.4578C24.5279 19.6645 24.5544 19.8659 24.5915 20.0831C24.0881 20.1255 23.5847 20.1467 23.0866 20.1573C22.9276 20.1573 22.7739 20.1573 22.615 20.1573C22.2652 20.1573 21.9208 20.152 21.5764 20.1361C21.4015 20.1255 21.232 20.1202 21.0571 20.1043C20.718 20.0778 20.3735 20.046 20.0397 20.0089C19.886 19.993 19.7324 19.9771 19.5787 19.9559C19.1124 19.8924 18.6461 19.8129 18.1904 19.7228C18.1745 19.7228 18.1586 19.7228 18.1427 19.7122C18.0738 19.6963 18.0049 19.6751 17.9307 19.6592C17.8619 19.6433 17.793 19.6221 17.7241 19.6062C17.3903 19.532 17.0617 19.4525 16.7332 19.3625C16.5901 19.3201 16.447 19.2777 16.304 19.2353C15.9807 19.1399 15.6575 19.0339 15.3449 18.9227C15.1859 18.8644 15.0269 18.8061 14.8733 18.7478C14.6136 18.6471 14.354 18.5411 14.0996 18.4299C14.0307 18.3822 13.9619 18.3398 13.893 18.2921C13.8029 18.2285 13.7075 18.1649 13.6174 18.1013C13.3101 17.8788 13.0028 17.6509 12.706 17.4125C12.6954 17.4072 12.6848 17.3966 12.6795 17.3913C12.3881 17.1581 12.1072 16.9144 11.8317 16.6653C11.7469 16.5911 11.6621 16.5117 11.5774 16.4322C11.3654 16.2361 11.1587 16.0401 10.9574 15.8387C10.8779 15.7592 10.7931 15.6797 10.7136 15.5949C10.4434 15.3141 10.1731 15.0333 9.9135 14.7365L6.28906 12.7653C6.02941 13.2793 5.81215 13.8092 5.63199 14.355C5.62139 14.3868 5.6108 14.4133 5.6002 14.4398C5.43063 14.9644 5.30346 15.4996 5.21338 16.0401C5.21338 16.0666 5.20278 16.093 5.20278 16.1195C5.1233 16.6388 5.07561 17.1581 5.07031 17.6721C5.07031 17.6986 5.07031 17.7198 5.07031 17.7463C5.07031 17.7728 5.07031 17.7993 5.07031 17.8205C5.07561 18.8326 5.23457 19.8023 5.52071 20.6978C5.53131 20.7296 5.54191 20.7614 5.55251 20.7985C5.84925 21.6781 6.27316 22.4888 6.81895 23.1989C6.85074 23.2413 6.88253 23.289 6.91962 23.3313C7.46541 24.0096 8.11718 24.5925 8.86432 25.0482C8.4722 25.08 8.08538 25.08 7.69856 25.0482C7.64557 25.0482 7.59788 25.0429 7.54489 25.0376C7.18987 25.0058 6.84014 24.9528 6.49041 24.8733C6.41093 24.8574 6.33145 24.8362 6.24666 24.815C5.81745 24.7038 5.39354 24.5607 4.98023 24.3752V24.6137C4.98023 24.8627 4.99082 25.1118 5.00672 25.3555C5.01202 25.4297 5.01732 25.4986 5.02792 25.5728C5.04381 25.7529 5.06501 25.9278 5.0915 26.1027C5.1021 26.1716 5.1127 26.2404 5.1233 26.3093C5.16569 26.5425 5.20808 26.7756 5.26637 26.9982C5.32466 27.2313 5.38824 27.4486 5.46243 27.6605C5.48362 27.7241 5.51012 27.7877 5.53131 27.8513C5.5896 28.0103 5.65319 28.1692 5.71677 28.3176C5.74327 28.3759 5.76976 28.4395 5.79626 28.4978C5.82275 28.5508 5.84395 28.6038 5.87044 28.6567C5.88634 28.6938 5.90753 28.7309 5.92873 28.768C5.98172 28.8793 6.04001 28.9906 6.09829 29.0965L6.10889 29.1124C6.21487 29.2979 6.32615 29.4781 6.44802 29.6582C6.48511 29.7112 6.52221 29.7642 6.5593 29.8172C6.65468 29.9497 6.75006 30.0768 6.85074 30.204C6.88783 30.2517 6.93022 30.3047 6.96731 30.3524C7.10509 30.5167 7.24816 30.6756 7.40182 30.8293C7.40712 30.8346 7.41242 30.8399 7.41772 30.8452C7.56609 30.9883 7.71976 31.126 7.87343 31.2585C7.92112 31.3009 7.97411 31.338 8.0218 31.3804C8.11718 31.4546 8.20726 31.5287 8.30794 31.5976C8.33973 31.6188 8.37152 31.6453 8.40332 31.6665C8.45631 31.7036 8.504 31.7407 8.55698 31.7725C8.73185 31.8891 8.91201 32.0003 9.09747 32.101C9.26704 32.1911 9.4472 32.2918 9.62736 32.3872L9.89761 32.5355L10.2738 32.7422L11.1587 33.2244C10.9786 33.2774 10.7984 33.3304 10.613 33.3728C10.5812 33.3781 10.5547 33.3887 10.5229 33.394C10.3215 33.4416 10.1149 33.4787 9.9135 33.5105C9.87641 33.5158 9.84462 33.5211 9.80753 33.5264C9.77043 33.5317 9.72804 33.5317 9.69095 33.537C9.57967 33.5529 9.4631 33.5635 9.35182 33.5741C9.31473 33.5741 9.28293 33.5794 9.24584 33.5847C9.09747 33.6006 8.9438 33.6165 8.79543 33.6271C8.75304 33.6271 8.71595 33.6324 8.67356 33.6377C8.4775 33.6536 8.28674 33.6642 8.08538 33.6854C8.15957 33.9291 8.24965 34.1676 8.34503 34.4007C8.37682 34.4749 8.41391 34.5491 8.44571 34.6233C8.51459 34.777 8.58348 34.9306 8.65766 35.079C8.70005 35.1638 8.74775 35.2433 8.79543 35.3281C8.86962 35.4605 8.9438 35.5877 9.02329 35.7149C9.07628 35.7997 9.12927 35.8791 9.18755 35.9586C9.26704 36.0752 9.35182 36.1918 9.4366 36.3031C9.49489 36.3825 9.55848 36.4567 9.62206 36.5309C9.71215 36.6422 9.80753 36.7429 9.90291 36.8488C9.9453 36.8965 9.98769 36.9442 10.0301 36.9919C10.0513 37.0131 10.0778 37.0343 10.099 37.0555C10.2049 37.1562 10.3109 37.2569 10.4222 37.3522C10.4858 37.4105 10.5494 37.4688 10.6183 37.5271C10.7454 37.6331 10.8779 37.7285 11.0157 37.8238C11.0687 37.8609 11.1217 37.9033 11.1746 37.9404C11.3654 38.0676 11.5615 38.1895 11.7628 38.3007H11.7734L12.4782 38.6876L12.5841 38.7458C13.1829 39.0744 13.8294 39.4241 14.4335 39.7526L14.6295 39.8586L14.6931 39.8904C14.8627 39.9805 15.0269 40.0706 15.1859 40.1554C14.4812 40.7488 13.7499 41.2893 13.0028 41.7715C12.9816 41.7821 12.9657 41.798 12.9445 41.8086C11.7946 42.5452 10.5918 43.1545 9.35712 43.6261C9.33062 43.6367 9.30943 43.6473 9.28293 43.6526C8.05359 44.1136 6.78185 44.4475 5.49422 44.6382C5.45713 44.6382 5.42533 44.6488 5.38824 44.6541C5.35115 44.6594 5.31406 44.6647 5.27697 44.67C5.1021 44.6965 4.92724 44.7177 4.75767 44.7389C4.72058 44.7389 4.68349 44.7495 4.6464 44.7548C4.44504 44.7813 4.24368 44.8025 4.04762 44.829C4.01053 44.829 3.97344 44.8396 3.93634 44.8449C3.70319 44.8767 3.47534 44.9085 3.24219 44.9509L6.86664 46.9221C8.13837 47.6056 9.4684 48.1567 10.8461 48.57C10.9468 48.6018 11.0475 48.623 11.1481 48.6548C12.5788 49.0628 14.0572 49.3172 15.5674 49.4284C15.6257 49.4284 15.6787 49.439 15.737 49.439C17.2684 49.5344 18.8316 49.4814 20.4053 49.2695C20.4424 49.2695 20.4795 49.2589 20.5166 49.2536C20.5537 49.2536 20.5855 49.243 20.6226 49.2377C23.7277 48.7873 26.4514 47.8812 28.8306 46.7101C28.8624 46.6942 28.8889 46.6783 28.9207 46.6624C31.3158 45.4754 33.3558 44.0183 35.0727 42.4869C35.0939 42.4657 35.1151 42.4498 35.1416 42.4286C36.8478 40.8972 38.2414 39.2969 39.3436 37.8185C39.3542 37.8026 39.3701 37.7814 39.386 37.7656C39.3966 37.7497 39.4125 37.7285 39.4231 37.7126C40.7849 35.8738 41.9507 33.8815 42.9045 31.8149C42.9257 31.7725 42.9416 31.7354 42.9575 31.693C43.9113 29.6052 44.6531 27.438 45.1618 25.2442C45.1671 25.2125 45.1777 25.186 45.183 25.1542C45.6758 22.9816 45.946 20.7932 45.9566 18.6524C45.9566 18.6259 45.9566 18.6047 45.9566 18.5782C45.9566 18.5517 45.9566 18.5252 45.9566 18.504C45.9566 18.4034 45.9566 18.2974 45.9566 18.1967C45.9566 18.1702 45.9566 18.1384 45.9566 18.1119C45.9566 18.0112 45.9566 17.9053 45.9566 17.8046C45.9566 17.7728 45.9566 17.7463 45.9566 17.7145C45.9566 17.6085 45.9566 17.5026 45.9566 17.3966C46.513 16.8879 47.0429 16.3368 47.5516 15.7698C47.5834 15.738 47.6099 15.7009 47.6417 15.6691C48.1345 15.1128 48.6008 14.5299 49.0406 13.9205C49.0671 13.8834 49.0936 13.8516 49.1201 13.8145C49.5705 13.184 50.0103 12.5322 50.4024 11.8486L50.519 11.6473L48.3093 10.4444L48.2828 10.4285ZM48.1981 10.2113L47.133 9.63369C47.133 9.63369 47.1754 9.60719 47.1966 9.5966C47.2284 9.5754 47.2602 9.5595 47.292 9.54361C47.8536 9.19918 48.41 8.83355 48.9399 8.43084C48.7439 9.04551 48.4948 9.63899 48.1981 10.2166V10.2113ZM42.4064 10.561L42.3269 10.5186L41.0604 9.82975C41.532 10.0258 41.9772 10.2696 42.4064 10.561ZM42.7508 10.8206C42.7826 10.8418 42.8091 10.863 42.8409 10.8895C42.8303 10.9001 42.825 10.9107 42.8144 10.916L42.7296 10.8683L40.3239 9.5595C40.4352 9.5913 40.5464 9.63899 40.6577 9.67608L42.7508 10.8153V10.8206ZM42.8833 11.0326L43.4714 11.3558C42.9945 11.5413 42.507 11.7109 42.0142 11.8592C42.3163 11.6049 42.6024 11.324 42.878 11.0379L42.8833 11.0326ZM45.1406 10.4815C44.918 10.5822 44.6902 10.6776 44.4623 10.773L43.5456 10.2749C43.6675 10.1212 43.7841 9.96752 43.9007 9.80855L45.1459 10.4868L45.1406 10.4815ZM47.0111 9.49062C47.0111 9.49062 46.9687 9.51711 46.9475 9.52771L44.7909 8.35135C44.7909 8.35135 44.8121 8.31426 44.8227 8.29307L47.0164 9.48532L47.0111 9.49062ZM44.8756 8.18179C44.8756 8.18179 44.8915 8.15 44.8968 8.1341L47.1913 9.37934C47.1913 9.37934 47.1595 9.40054 47.1383 9.41113L44.8756 8.17649V8.18179ZM46.815 9.60719C46.7833 9.62309 46.7568 9.64429 46.725 9.66018L44.6849 8.55271C44.7008 8.52622 44.7114 8.49972 44.7273 8.47323L46.815 9.60719ZM43.4555 11.5625C43.5191 11.536 43.588 11.5095 43.6516 11.483L45.0293 12.2301C44.9975 12.2725 44.9657 12.3202 44.9286 12.3626L43.4502 11.5572L43.4555 11.5625ZM44.8545 12.4739C44.6743 12.707 44.4888 12.9402 44.2981 13.1681L42.1679 12.0076C42.5494 11.891 42.9257 11.7638 43.2966 11.6261L44.8545 12.4739ZM43.8159 11.4247C44.0119 11.3452 44.208 11.2657 44.404 11.181L45.4161 11.7321C45.3208 11.8698 45.2148 11.997 45.1194 12.1348L43.8212 11.43L43.8159 11.4247ZM44.1603 10.9001L43.3867 10.4762C43.4132 10.4444 43.4396 10.4126 43.4661 10.3808L44.3087 10.8365C44.261 10.8577 44.2133 10.8736 44.1656 10.8948L44.1603 10.9001ZM45.8507 11.0909C45.8242 11.1333 45.7977 11.1757 45.7712 11.2181L45.1035 10.8524C45.1565 10.8259 45.2148 10.7994 45.2678 10.773L45.8507 11.0909ZM45.4161 10.7041C45.7765 10.5186 46.1262 10.3225 46.4706 10.1212C46.2958 10.4126 46.105 10.6988 45.9195 10.9796L45.4161 10.7041ZM45.697 11.3293C45.6758 11.3611 45.6599 11.3876 45.6387 11.4194L44.8333 10.9796C44.8757 10.9584 44.9127 10.9425 44.9551 10.9213L45.7023 11.324L45.697 11.3293ZM45.5645 11.5307C45.5433 11.5625 45.5168 11.5943 45.4903 11.6261L44.5471 11.1121C44.5895 11.0909 44.6372 11.0697 44.6796 11.0485L45.5592 11.5254L45.5645 11.5307ZM45.1936 12.3255L46.3117 12.9349C46.2746 12.9773 46.2322 13.0144 46.1951 13.0568L45.0982 12.458C45.13 12.4156 45.1618 12.3679 45.1936 12.3255ZM45.2731 12.2196C45.3049 12.1772 45.3367 12.1295 45.3737 12.0871L46.5183 12.707C46.4812 12.7494 46.4441 12.7918 46.407 12.8342L45.2731 12.2196ZM45.538 11.8592C45.538 11.8592 45.5592 11.8327 45.5698 11.8168L46.7303 12.4474L46.6932 12.4898L45.5327 11.8592H45.538ZM45.6493 11.7109C45.6705 11.6791 45.697 11.6473 45.7235 11.6155L46.8945 12.2513C46.868 12.2831 46.8415 12.3149 46.815 12.3467L45.6493 11.7109ZM45.803 11.5042C45.8242 11.4724 45.8453 11.4459 45.8665 11.4141L47.0482 12.0553C47.027 12.0818 47.0058 12.1136 46.9846 12.1401L45.803 11.4989V11.5042ZM45.9354 11.3028C45.9619 11.2604 45.9884 11.2181 46.0149 11.1757L47.2125 11.8274C47.1807 11.8698 47.1542 11.9069 47.1277 11.9493L45.9354 11.3028ZM46.0838 11.0644C46.2852 10.7624 46.4812 10.455 46.6667 10.1371L47.8854 10.7994C47.7 11.1121 47.4986 11.4194 47.2867 11.7162L46.0838 11.0591V11.0644ZM47.7265 10.6352C47.5039 10.5133 47.292 10.3967 47.08 10.2855C46.9528 10.2166 46.8256 10.1477 46.7038 10.0788C46.7303 10.0311 46.7621 9.98871 46.7886 9.94632L47.9967 10.6034C47.9702 10.6511 47.949 10.6935 47.9225 10.7412L47.7265 10.6352ZM46.5978 9.73967C46.2216 9.95162 45.8401 10.1424 45.4585 10.3278L44.0702 9.5701C44.2716 9.27866 44.4623 8.97662 44.6372 8.66399L46.6031 9.73437L46.5978 9.73967ZM44.0066 10.9584C43.8424 11.022 43.6781 11.0962 43.5085 11.1598L43.3072 11.0485C43.233 10.9796 43.1588 10.9054 43.0793 10.8418C43.1588 10.7571 43.233 10.667 43.3072 10.5822L44.0066 10.9637V10.9584ZM42.0884 12.0341L44.2663 13.2157C44.2133 13.2793 44.1603 13.3376 44.1073 13.4012L41.7758 12.1348C41.8818 12.103 41.9825 12.0659 42.0884 12.0341ZM44.4199 13.3005L45.4002 13.8357C45.3367 13.894 45.2784 13.9523 45.2148 14.0053L44.261 13.486C44.314 13.4224 44.367 13.3641 44.4199 13.3005ZM44.4623 13.2475C44.6531 13.0197 44.8386 12.7918 45.024 12.5587L46.1103 13.1469C45.8983 13.3641 45.6811 13.5814 45.4532 13.7827L44.4676 13.2475H44.4623ZM46.2216 13.2104L46.6349 13.433C46.2958 13.5549 45.9566 13.6662 45.6069 13.7668C45.8189 13.5867 46.0255 13.4012 46.2216 13.2051V13.2104ZM46.317 13.1098C46.354 13.0674 46.3964 13.0303 46.4335 12.9879L46.9952 13.2952C46.9316 13.3217 46.868 13.3482 46.7992 13.3747L46.317 13.1098ZM46.5289 12.8872C46.566 12.8448 46.6084 12.8077 46.6455 12.7653L47.3502 13.1469C47.2867 13.1734 47.2178 13.1998 47.1542 13.2263L46.5289 12.8872ZM46.8309 12.5534C46.8998 12.4739 46.9634 12.3944 47.027 12.3149C47.0482 12.2884 47.0694 12.2619 47.0959 12.2354C47.1224 12.1984 47.1542 12.1666 47.186 12.1295L48.3093 12.7388C48.1027 12.8342 47.896 12.9296 47.6841 13.0197L46.8309 12.5534ZM47.2708 12.0235C47.3025 11.9864 47.329 11.944 47.3555 11.9016L48.6167 12.5905C48.5637 12.617 48.5054 12.6435 48.4524 12.67L47.2655 12.0235H47.2708ZM47.435 11.7956C47.6523 11.4989 47.8483 11.1969 48.0391 10.8789L49.9149 11.9016C49.5387 12.1189 49.1572 12.3255 48.7703 12.5216L47.435 11.7956ZM45.6069 6.34307L48.9717 8.17649C48.9293 8.20828 48.8869 8.23478 48.8445 8.26657C48.3411 7.99633 47.7794 7.68899 47.2178 7.38165C46.9104 7.21209 46.6031 7.04782 46.3064 6.88356C46.0467 6.74049 45.7977 6.60802 45.5645 6.48084C45.5804 6.43315 45.5963 6.39076 45.6122 6.34837L45.6069 6.34307ZM45.538 6.53913L48.6485 8.22948L48.7809 8.30366C48.304 8.65869 47.8165 8.99252 47.3131 9.29986L44.9498 8.01222C45.1777 7.53532 45.3737 7.04252 45.5327 6.53383L45.538 6.53913ZM45.3632 6.50204C45.2042 6.98954 45.0187 7.47174 44.7962 7.93274L43.9536 7.47174C44.4358 7.1697 44.9074 6.84647 45.3632 6.50204ZM43.8212 7.55122L44.7432 8.05461C44.7432 8.05461 44.7273 8.08641 44.722 8.09701L43.7735 7.58301C43.7735 7.58301 43.8053 7.56182 43.8265 7.55122H43.8212ZM43.6357 7.6625L44.6531 8.21888C44.4305 8.65869 44.1815 9.0879 43.906 9.50121L42.0884 8.51032C42.613 8.25067 43.1323 7.96983 43.6357 7.6625ZM41.7811 8.66399L43.7417 9.72907C43.5827 9.95692 43.4132 10.1848 43.2383 10.402C43.233 10.4126 43.2224 10.4179 43.2171 10.4285C43.127 10.5398 43.0422 10.6458 42.9468 10.7518C42.9257 10.7359 42.9045 10.72 42.8833 10.7041C42.8462 10.6723 42.8038 10.6405 42.7667 10.6087C42.5653 10.455 42.3587 10.3066 42.1414 10.1742C42.099 10.1477 42.0566 10.1265 42.0195 10.1C41.9401 10.0523 41.8659 10.0046 41.7864 9.96222L41.5956 9.85624L41.0816 9.5754C41.0286 9.5489 40.981 9.52241 40.928 9.49062L40.822 9.43233C40.7001 9.36344 40.5729 9.29986 40.4458 9.23097C40.8962 9.05611 41.3413 8.86535 41.7811 8.65869V8.66399ZM40.149 9.15149C40.149 9.15149 40.1013 9.16738 40.0748 9.17798C39.9 9.0826 39.7251 8.98722 39.545 8.89184C39.4814 8.83885 39.4231 8.78056 39.3595 8.72758L40.1437 9.15149H40.149ZM37.4572 7.73668C37.5261 7.76847 37.6003 7.79497 37.6691 7.82676C37.5844 7.78967 37.4996 7.75788 37.4148 7.72608C37.4254 7.72608 37.436 7.73668 37.4466 7.73668H37.4572ZM36.7259 7.47703L36.7577 7.48763C36.8266 7.50883 36.8955 7.53002 36.9644 7.55122C36.9803 7.55122 36.9909 7.56182 37.0068 7.56712C36.9008 7.53002 36.7948 7.49823 36.6888 7.46644C36.6994 7.46644 36.71 7.47174 36.7259 7.47703ZM36.7365 7.62011C36.7789 7.6307 36.8213 7.6413 36.8584 7.6572C37.0863 7.73138 37.3088 7.81616 37.5314 7.91154L37.5473 7.92214C38.2043 8.21358 38.8243 8.6057 39.3913 9.0879L36.6571 7.59891C36.6571 7.59891 36.71 7.60951 36.7312 7.62011H36.7365ZM36.2014 7.34456C36.2014 7.34456 36.249 7.35516 36.2755 7.36046C36.249 7.35516 36.2172 7.34986 36.1908 7.33926H36.2014V7.34456ZM34.2567 7.30217C34.3361 7.30217 34.4156 7.29687 34.4898 7.29687C34.7336 7.29687 34.9773 7.30217 35.2211 7.32337C35.2316 7.32337 35.2422 7.32337 35.2475 7.32337C35.4171 7.33926 35.5814 7.37106 35.7509 7.39755L38.7395 9.02431C38.7395 9.02431 38.6865 9.02431 38.6653 9.02431C38.5011 9.01372 38.3368 9.00312 38.1672 9.00312C38.1037 9.00312 38.0348 9.00842 37.9659 9.00842C37.9129 9.00842 37.8546 9.00842 37.8016 9.01372C37.5314 9.02431 37.2611 9.04551 36.9856 9.0826L33.7745 7.33396C33.9387 7.31807 34.0977 7.30747 34.262 7.30217H34.2567ZM29.069 9.17268C29.3499 8.96603 29.636 8.76997 29.9327 8.5951C29.9645 8.57391 29.9963 8.56331 30.0281 8.54211C30.2613 8.40964 30.4944 8.27717 30.7382 8.16589C30.8124 8.1288 30.8866 8.1023 30.966 8.07051C31.1674 7.98043 31.3741 7.89035 31.5807 7.81616C31.6814 7.77907 31.7874 7.75258 31.8933 7.72078C32.0788 7.6625 32.2643 7.59891 32.4497 7.55122C32.5769 7.51943 32.7094 7.49823 32.8418 7.47703C33.0061 7.44524 33.1704 7.40285 33.3399 7.38165L36.5988 9.15679C36.5299 9.16738 36.4663 9.18858 36.3974 9.19918C36.249 9.23097 36.0954 9.25747 35.9523 9.29456C35.7986 9.33695 35.6503 9.38464 35.5019 9.43233C35.3588 9.48002 35.2158 9.51711 35.0727 9.5701C34.9243 9.62309 34.7759 9.69198 34.6329 9.75556C34.4951 9.81385 34.3573 9.86684 34.2196 9.93572C34.0765 10.0046 33.9334 10.0841 33.7956 10.1636C33.6632 10.2325 33.5307 10.3013 33.4035 10.3808C33.2658 10.4656 33.128 10.561 32.9902 10.6511C32.8683 10.7306 32.7412 10.81 32.6246 10.9001C32.5663 10.9425 32.508 10.9902 32.4497 11.0326L29.0637 9.19388H29.0743L29.069 9.17268ZM25.8791 12.8713C25.9427 12.76 25.9957 12.6435 26.0593 12.5322C26.1599 12.3573 26.2765 12.1931 26.3825 12.0235C26.4461 11.9281 26.4991 11.8327 26.5626 11.7426C26.6951 11.5519 26.8382 11.3717 26.9813 11.1916C27.0343 11.128 27.0766 11.0591 27.1296 10.9955C27.3151 10.773 27.5112 10.561 27.7072 10.3543C27.7231 10.3384 27.7337 10.3225 27.7496 10.3066C28.1046 9.94632 28.4861 9.61779 28.8836 9.31045L32.2696 11.1545C32.2696 11.1545 32.2325 11.1863 32.2166 11.1969C32.1 11.2869 31.9834 11.377 31.8721 11.4724C31.745 11.5837 31.6231 11.7056 31.5012 11.8221C31.3952 11.9228 31.284 12.0182 31.1833 12.1242C31.0614 12.2513 30.9501 12.3838 30.8336 12.5163C30.7382 12.6223 30.6428 12.7229 30.5527 12.8342C30.4361 12.9773 30.3249 13.1257 30.2136 13.274C30.1341 13.38 30.0493 13.4807 29.9751 13.592C29.8533 13.7668 29.742 13.947 29.6307 14.1272C29.5724 14.2172 29.5141 14.302 29.4611 14.3974C29.3658 14.5617 29.281 14.7312 29.1962 14.9008L25.789 13.0462C25.8155 12.9932 25.8473 12.9349 25.8791 12.8819V12.8713ZM24.5703 17.4284C24.5756 17.2906 24.5809 17.1528 24.5915 17.0151C24.6074 16.8349 24.6391 16.66 24.6656 16.4852C24.6868 16.3474 24.7027 16.2043 24.7239 16.0666C24.7557 15.897 24.8034 15.7274 24.8458 15.5579C24.8776 15.4201 24.9041 15.277 24.9465 15.1392C24.9942 14.9697 25.0525 14.8054 25.1108 14.6411C25.1531 14.5087 25.1955 14.3709 25.2432 14.2384C25.3068 14.0689 25.381 13.9099 25.4552 13.7456C25.5082 13.6185 25.5559 13.4913 25.6194 13.3694C25.6512 13.3005 25.6936 13.2316 25.7307 13.1628L29.1379 15.0174C29.1008 15.0916 29.0584 15.1657 29.0213 15.2399C28.9736 15.3406 28.9313 15.4466 28.8889 15.5526C28.8041 15.7433 28.7193 15.9341 28.6451 16.1301C28.5974 16.2573 28.5603 16.3898 28.5126 16.5223C28.4544 16.6971 28.3908 16.872 28.3378 17.0468C28.2954 17.1846 28.2689 17.333 28.2371 17.4708C28.1947 17.6456 28.147 17.8152 28.1152 17.9901C28.0887 18.1384 28.0728 18.2868 28.0463 18.4352C28.0198 18.61 27.9881 18.7796 27.9722 18.9545C27.9563 19.1081 27.9563 19.2618 27.9457 19.4155C27.9404 19.5426 27.9245 19.6698 27.9245 19.8023L26.7004 19.1346L24.5491 17.9636C24.5491 17.7887 24.565 17.6085 24.5756 17.4337L24.5703 17.4284ZM28.0251 21.3919C28.0463 21.5562 28.0622 21.7152 28.094 21.8847L24.7557 20.0778C24.7186 19.903 24.7027 19.7387 24.6762 19.5744L28.0198 21.3919H28.0251ZM24.6497 19.3519C24.6338 19.2512 24.6127 19.1452 24.6021 19.0445C24.5968 18.9862 24.6021 18.9333 24.5915 18.875L27.951 20.7031C27.9563 20.7826 27.951 20.8621 27.9616 20.9468C27.9669 21.021 27.9828 21.1005 27.9934 21.18L24.6444 19.3572L24.6497 19.3519ZM24.5544 18.1914L27.9192 20.0195C27.9192 20.1679 27.9351 20.3216 27.9404 20.4752L24.5809 18.6471C24.5703 18.4934 24.5597 18.3398 24.5597 18.1914H24.5544ZM20.1616 20.1732C20.3523 20.1944 20.5378 20.2156 20.7286 20.2315C20.9829 20.2527 21.2373 20.258 21.4916 20.2686C21.6718 20.2739 21.8519 20.2898 22.0374 20.2951C22.3182 20.2951 22.5991 20.2951 22.8799 20.2845C23.0389 20.2845 23.1978 20.2845 23.3568 20.2792C23.7807 20.2633 24.1993 20.2315 24.6286 20.1891L27.9669 22.0013C27.4794 22.0384 26.9972 22.0543 26.515 22.0596C26.4408 22.0596 26.3719 22.0596 26.2977 22.0596C25.8473 22.0596 25.4022 22.0437 24.9624 22.0172C24.8564 22.0119 24.7504 22.0066 24.6444 21.996C24.2205 21.9642 23.8019 21.9218 23.3833 21.8688C23.2561 21.853 23.1343 21.8318 23.0124 21.8159C22.6097 21.7576 22.2123 21.6887 21.8148 21.6092C21.6771 21.5827 21.5446 21.5509 21.4121 21.5191C21.375 21.5138 21.3432 21.5032 21.3061 21.4926L18.4076 19.9189C18.556 19.9453 18.7044 19.9665 18.8527 19.993C19.0488 20.0248 19.2449 20.0619 19.4409 20.0884C19.6794 20.1202 19.9231 20.1414 20.1616 20.1679V20.1732ZM16.304 19.4208C16.5106 19.4843 16.7226 19.5426 16.9292 19.6009C17.1412 19.6539 17.3532 19.7016 17.5651 19.7493C17.6181 19.7599 17.6711 19.7758 17.7294 19.7864L20.5113 21.3072H20.4954C20.2835 21.2436 20.0768 21.1853 19.8701 21.1217C19.5946 21.0369 19.3244 20.9521 19.0541 20.8568C18.8686 20.7932 18.6885 20.7296 18.503 20.6607C18.1904 20.5441 17.883 20.417 17.581 20.2845C17.3956 20.205 17.2101 20.1202 17.0299 20.0354C16.7226 19.8924 16.4153 19.7387 16.1185 19.5797C15.8059 19.4155 15.4985 19.2406 15.1965 19.0604C15.3714 19.124 15.5409 19.1823 15.7158 19.2406C15.9119 19.3042 16.1079 19.3625 16.3093 19.4208H16.304ZM9.9082 14.9326C10.189 15.2558 10.4752 15.5685 10.7666 15.8705C10.8673 15.9712 10.968 16.0666 11.0687 16.1672C11.27 16.3686 11.4714 16.5646 11.6833 16.7554C11.8158 16.8773 11.9536 16.9886 12.0861 17.1051C12.2715 17.2641 12.4517 17.4231 12.6424 17.5767C12.7696 17.6774 12.8968 17.7781 13.024 17.8735C12.9233 17.8205 12.8173 17.7728 12.7166 17.7198L11.7893 17.2164C11.0157 16.7713 10.2685 16.2732 9.55318 15.7327C9.65916 15.4625 9.77573 15.1922 9.9082 14.9273V14.9326ZM9.52138 15.3406C9.48959 15.4201 9.4578 15.4996 9.426 15.5791L9.41011 15.6214C9.26704 15.5102 9.12397 15.4042 8.9862 15.2929C8.9491 15.2611 8.90671 15.2293 8.86962 15.1975C8.64707 15.0121 8.42981 14.8266 8.21256 14.6358C8.15427 14.5829 8.09598 14.5352 8.03769 14.4822C7.83633 14.2967 7.64028 14.1113 7.44422 13.9205C7.38593 13.8622 7.32764 13.8092 7.27465 13.7509C7.09979 13.5761 6.93022 13.3959 6.76066 13.2104L9.75454 14.8372C9.67505 15.0015 9.59557 15.171 9.52138 15.3406ZM5.86514 14.1272C5.89164 14.0477 5.92343 13.9735 5.95522 13.894C5.99762 13.7774 6.04001 13.6662 6.0877 13.5496C6.16718 13.3588 6.25196 13.1734 6.34204 12.9879L6.44802 13.0462C6.65998 13.2899 6.87723 13.5284 7.10509 13.7615C7.18457 13.8463 7.26405 13.9258 7.34884 14.0053C7.55019 14.2066 7.75685 14.408 7.96351 14.6041C8.04829 14.6835 8.12777 14.7577 8.21256 14.8372C8.4987 15.0916 8.78484 15.3459 9.08158 15.5844C9.08687 15.5897 9.09747 15.5949 9.10277 15.6002C9.18225 15.6638 9.26704 15.7221 9.34652 15.7857C9.32533 15.8387 9.30413 15.8917 9.28293 15.9447C9.25114 16.0348 9.22465 16.1195 9.19285 16.2096L9.17696 16.2573L5.77506 14.408C5.80686 14.3179 5.83335 14.2278 5.86514 14.1378V14.1272ZM5.38824 15.9076C5.40944 15.7963 5.43593 15.685 5.45713 15.5791C5.47832 15.489 5.49422 15.3989 5.51542 15.3088C5.54191 15.2081 5.5684 15.1075 5.5949 15.0068C5.62139 14.9114 5.64259 14.8107 5.67438 14.7153C5.69028 14.6623 5.71148 14.6094 5.72737 14.5617L9.12927 16.411C9.11337 16.4587 9.09747 16.5011 9.08687 16.5488C9.06038 16.6388 9.03389 16.7342 9.01269 16.8243C8.9809 16.9356 8.9491 17.0521 8.92261 17.1634C8.90141 17.2535 8.88022 17.3489 8.86432 17.4443C8.83783 17.5555 8.81133 17.6721 8.79014 17.7887C8.78484 17.8258 8.77954 17.8629 8.76894 17.9L5.37235 16.056C5.37764 16.0083 5.38294 15.9606 5.39354 15.9129L5.38824 15.9076ZM5.23457 17.3489C5.23457 17.2694 5.23457 17.1899 5.24517 17.1104C5.25047 16.9886 5.26637 16.8667 5.27697 16.7501C5.28226 16.6706 5.28756 16.5911 5.29816 16.5117C5.30876 16.411 5.32995 16.3156 5.34055 16.2149L8.73715 18.0589V18.0748C8.71595 18.1861 8.70005 18.2974 8.68416 18.414C8.67356 18.5146 8.66296 18.61 8.65236 18.7107C8.64177 18.822 8.63117 18.928 8.62057 19.0392C8.61527 19.1452 8.60997 19.2459 8.60997 19.3519C8.60997 19.4155 8.60467 19.4737 8.60467 19.5373L5.22398 17.6986C5.22398 17.5873 5.22928 17.4708 5.23457 17.3595V17.3489ZM5.64259 20.5441C5.6161 20.4646 5.5949 20.3799 5.5737 20.2951C5.54721 20.205 5.52071 20.1096 5.49952 20.0195C5.47832 19.9347 5.46243 19.85 5.44123 19.7599C5.42004 19.6645 5.39884 19.5744 5.38294 19.479C5.36705 19.389 5.35645 19.2989 5.34055 19.2141C5.32466 19.1187 5.30876 19.0233 5.29816 18.928C5.28756 18.8379 5.28226 18.7425 5.27167 18.6524C5.26107 18.557 5.25047 18.4617 5.24517 18.3663C5.23987 18.2709 5.23987 18.1755 5.23457 18.0801C5.23457 18.0271 5.23457 17.9795 5.23457 17.9265L8.60467 19.7599C8.60467 19.9295 8.62057 20.0937 8.63117 20.2633C8.64177 20.4222 8.64177 20.5865 8.65766 20.7455C8.67356 20.9097 8.70535 21.074 8.73185 21.233C8.75834 21.3919 8.77424 21.5562 8.80603 21.7152C8.83783 21.8741 8.88552 22.0278 8.92791 22.1815C8.9544 22.2769 8.9756 22.3722 9.00209 22.4623L5.69028 20.6607C5.67438 20.6183 5.66378 20.5812 5.64789 20.5388L5.64259 20.5441ZM7.0203 23.1618L6.99911 23.1353C6.93552 23.0558 6.87193 22.9763 6.81365 22.8968C6.77126 22.8385 6.72886 22.775 6.68647 22.7114C6.62819 22.6266 6.5752 22.5471 6.52221 22.4623C6.47982 22.3987 6.44272 22.3299 6.40563 22.2663C6.35794 22.1815 6.30495 22.0967 6.25726 22.0119C6.22017 21.943 6.18838 21.8688 6.15128 21.8C6.10889 21.7152 6.0612 21.6304 6.02411 21.5403C5.99232 21.4661 5.96052 21.3919 5.92873 21.3178C5.89164 21.2277 5.85455 21.1429 5.81745 21.0528C5.80156 21.0104 5.79096 20.968 5.77506 20.9309L9.07098 22.722C9.11337 22.8544 9.16636 22.9816 9.21935 23.1088C9.27234 23.2519 9.32003 23.3949 9.37831 23.5327C9.4472 23.6917 9.53198 23.84 9.61147 23.9884C9.67505 24.1103 9.73334 24.2428 9.80223 24.3593C9.89231 24.5183 9.99829 24.6614 10.099 24.8097C10.1096 24.8203 10.1149 24.8362 10.1255 24.8521L7.0203 23.1618ZM8.66826 24.6985C8.63117 24.672 8.59408 24.6455 8.55698 24.619C8.45101 24.5448 8.35033 24.4706 8.24965 24.3911C8.20196 24.354 8.15957 24.3169 8.11718 24.2798C8.02709 24.2057 7.94231 24.1368 7.85753 24.0573C7.80984 24.0149 7.76745 23.9672 7.71976 23.9248C7.64028 23.8506 7.56079 23.7765 7.48661 23.697C7.45481 23.6652 7.42832 23.6281 7.39653 23.5963L10.3904 25.2231C10.4858 25.3449 10.5918 25.4668 10.6977 25.5834C10.7666 25.6629 10.8249 25.7476 10.8991 25.8218C10.9945 25.9225 11.1058 26.0126 11.2064 26.1133L9.11867 24.9793C8.965 24.8892 8.81663 24.7991 8.67356 24.6985H8.66826ZM9.02859 25.2231L12.2344 26.9664C11.8688 26.9823 11.5085 26.9664 11.1481 26.9399L8.05889 25.2601C8.38212 25.2601 8.70005 25.2601 9.02859 25.2231ZM7.64027 25.2389L10.6395 26.871C10.3639 26.8286 10.0937 26.7703 9.82342 26.6961L7.015 25.1701C7.22166 25.2019 7.42832 25.2231 7.64027 25.2389ZM6.0559 28.6091C5.69028 27.8672 5.42533 27.0512 5.27697 26.1822C5.27167 26.1398 5.26107 26.0974 5.25577 26.0497C5.22928 25.8748 5.20808 25.7 5.19218 25.5198C5.19218 25.4668 5.18159 25.4138 5.17629 25.3555C5.16039 25.1701 5.15509 24.9793 5.14979 24.7832L8.51459 26.6167C8.51459 26.9346 8.53049 27.2472 8.56228 27.5546C8.57818 27.7347 8.60997 27.9043 8.63647 28.0792C8.65236 28.1957 8.66826 28.3123 8.68946 28.4289C8.73185 28.6673 8.79014 28.8952 8.85372 29.1283C8.86432 29.1654 8.87492 29.2025 8.88022 29.2396C8.99149 29.6264 9.11337 30.0027 9.27234 30.363L6.0506 28.6091H6.0559ZM9.83402 32.2282L8.55698 31.534C7.60318 30.877 6.81365 29.9921 6.23077 28.9429L9.4313 30.6862C9.75983 31.3592 10.1731 31.9739 10.6606 32.5196C10.3745 32.4402 10.099 32.3448 9.82872 32.2282H9.83402ZM10.8726 33.4787C10.9521 33.4522 11.0369 33.431 11.1164 33.4046C11.1799 33.3834 11.2435 33.3569 11.3071 33.3304L14.6454 35.1479C14.5659 35.1691 14.4918 35.2009 14.407 35.2221C14.3169 35.2486 14.2162 35.2592 14.1261 35.2804L10.8355 33.4893L10.8726 33.4787ZM15.1753 34.7505C15.3131 34.7717 15.4562 34.7876 15.5992 34.8035C15.4562 34.7929 15.3184 34.7717 15.1806 34.7505H15.1753ZM15.3502 34.92C15.2018 34.9783 15.0481 35.0154 14.8998 35.0684L14.1473 34.6604C14.2586 34.6922 14.3752 34.7187 14.4918 34.7505C14.5818 34.7717 14.6719 34.8035 14.7673 34.8194C14.9475 34.8565 15.1329 34.8777 15.3184 34.9041L15.3555 34.9253L15.3502 34.92ZM14.9951 34.6498L11.9907 33.0124C12.0437 32.9806 12.1019 32.9594 12.1549 32.9277L15.4615 34.724C15.3025 34.7081 15.1541 34.6763 15.0004 34.6498H14.9951ZM14.6931 34.5597L14.7938 34.6127C14.7196 34.5968 14.6454 34.5756 14.5712 34.5597C14.4441 34.5279 14.3222 34.4961 14.195 34.459C14.0996 34.4325 14.0096 34.4007 13.9142 34.369C13.8029 34.3319 13.6969 34.2948 13.5909 34.2524C13.4956 34.2153 13.4002 34.1782 13.3101 34.1358C13.2094 34.0881 13.1087 34.0404 13.0081 33.9874C12.5471 33.7543 12.1178 33.4787 11.7204 33.1555C11.7893 33.1237 11.8529 33.0866 11.9218 33.0495L14.6984 34.5597H14.6931ZM11.6039 33.0601C11.5668 33.0283 11.535 33.0018 11.4979 32.97C11.5827 32.9806 11.6621 32.9965 11.7469 33.0071C11.6992 33.0283 11.6515 33.0442 11.5986 33.0601H11.6039ZM10.2473 33.6271C10.3427 33.6059 10.4381 33.59 10.5282 33.5688C10.5494 33.5688 10.5706 33.5635 10.5918 33.5582L13.8506 35.3334C13.7075 35.3598 13.5697 35.3969 13.4214 35.4181L10.1626 33.6483C10.189 33.6483 10.2155 33.6377 10.242 33.6324L10.2473 33.6271ZM9.78103 33.7119L13.0028 35.4658C12.9551 35.4658 12.9074 35.4764 12.8597 35.4764L9.63796 33.7225C9.68565 33.7172 9.73334 33.7172 9.78103 33.7066V33.7119ZM9.13456 33.7755C9.17166 33.7755 9.20345 33.7702 9.24054 33.7649L12.4517 35.5135C12.404 35.5135 12.3616 35.5241 12.3139 35.5241H12.2927L9.07628 33.7755C9.07628 33.7755 9.11337 33.7755 9.12927 33.7755H9.13456ZM8.70535 33.7861L11.9589 35.5559C11.8953 35.5612 11.8317 35.5665 11.7628 35.5718L8.4934 33.7914C8.56228 33.7914 8.63647 33.7914 8.70535 33.7861ZM10.4858 37.2304H10.4911C10.4911 37.2304 10.507 37.2463 10.5176 37.2569C10.507 37.2463 10.4964 37.241 10.4858 37.2304ZM11.6621 37.9934C11.482 37.8874 11.3071 37.7814 11.1375 37.6596C11.0899 37.6278 11.0475 37.5907 10.9998 37.5589C10.9415 37.5165 10.8832 37.4635 10.8249 37.4158L13.0028 38.6028C12.5312 38.4438 12.0861 38.2425 11.6568 37.9934H11.6621ZM10.1202 36.7747C10.0142 36.6687 9.9082 36.5627 9.80753 36.4461C9.78103 36.4143 9.75454 36.3878 9.72804 36.3613C9.55318 36.1494 9.39421 35.9268 9.24054 35.6937C9.18755 35.6142 9.14516 35.5347 9.09217 35.4552C8.9862 35.2804 8.88552 35.1055 8.79543 34.9253C8.75304 34.8406 8.71065 34.7611 8.66826 34.6763C8.55169 34.4272 8.44571 34.1729 8.35033 33.908L11.6409 35.699C11.731 35.9798 11.8317 36.2501 11.9483 36.5097C11.9695 36.5627 11.996 36.621 12.0172 36.674C12.1337 36.9283 12.2556 37.1774 12.3934 37.4105C12.4146 37.4423 12.4358 37.4741 12.4517 37.5059C12.5894 37.7338 12.7378 37.9563 12.8915 38.1683C12.9074 38.1842 12.918 38.2054 12.9339 38.2266C12.971 38.2742 13.0081 38.3219 13.0452 38.3696L10.1202 36.7747ZM13.7817 38.8942C13.734 38.8465 13.6863 38.7988 13.6386 38.7511C13.6015 38.7141 13.5697 38.6717 13.5327 38.6346C13.4797 38.5763 13.4214 38.518 13.3684 38.4544C13.3048 38.3802 13.2412 38.306 13.1829 38.2266C13.0981 38.1206 13.0187 38.0093 12.9392 37.898C12.8809 37.8185 12.8279 37.7391 12.7749 37.6596C12.6954 37.5377 12.6265 37.4158 12.5524 37.2887C12.5047 37.2092 12.457 37.1297 12.4146 37.0449C12.3404 36.9018 12.2715 36.7535 12.2026 36.6051C12.1708 36.5309 12.1337 36.462 12.1019 36.3878C12.0066 36.16 11.9218 35.9321 11.8423 35.6884C11.9589 35.6937 12.0861 35.6884 12.2079 35.6884C12.2609 35.6884 12.3139 35.6884 12.3669 35.6884C12.4994 35.6884 12.6265 35.6884 12.759 35.6778C12.8014 35.6778 12.8491 35.6672 12.8915 35.6672C13.0293 35.6566 13.167 35.646 13.3048 35.6301C13.3419 35.6301 13.3843 35.6248 13.4214 35.6195C13.4585 35.6195 13.4903 35.6036 13.5274 35.5983C13.7287 35.5665 13.9301 35.5294 14.1314 35.4817C14.1685 35.4711 14.2003 35.4605 14.2374 35.4552C14.4706 35.3969 14.7037 35.3228 14.9316 35.2327C14.9634 35.2221 14.9951 35.2062 15.0269 35.1956C15.2813 35.0896 15.5356 34.973 15.7794 34.8247L15.2495 34.5385L14.603 34.1888C13.9619 33.8391 13.2942 33.4734 12.6848 33.1449C12.4994 33.0442 12.3245 32.9489 12.1549 32.8588C11.89 32.8376 11.6303 32.8058 11.376 32.7581C11.2912 32.7422 11.2117 32.721 11.127 32.6998H11.1058C10.9733 32.562 10.8355 32.4243 10.7136 32.2759C10.6871 32.2494 10.6659 32.2176 10.6448 32.1858C10.5282 32.048 10.4169 31.905 10.3109 31.7566C10.2738 31.7036 10.2367 31.6506 10.1996 31.5976C10.099 31.4546 10.0089 31.3062 9.9188 31.1525C9.89231 31.1101 9.86581 31.0677 9.84462 31.0254C9.73334 30.8346 9.63266 30.6385 9.54258 30.4319C9.52138 30.3842 9.50019 30.3365 9.47899 30.2835C9.41011 30.1192 9.34122 29.955 9.27764 29.7907C9.25644 29.7271 9.22994 29.6635 9.20875 29.5999C9.14516 29.4145 9.08687 29.2237 9.03389 29.0277C9.02329 28.9959 9.01269 28.9641 9.00739 28.927C8.9491 28.6991 8.90141 28.4713 8.85902 28.2381C8.84842 28.1745 8.83783 28.111 8.82723 28.0474C8.80073 27.8672 8.77424 27.6817 8.75834 27.4963C8.75304 27.4274 8.74245 27.3532 8.73715 27.2843C8.72125 27.0406 8.70535 26.7915 8.70535 26.5372C9.02859 26.675 9.35712 26.7915 9.69625 26.8869C9.78633 26.9134 9.87641 26.9346 9.96649 26.9558C10.348 27.0459 10.7401 27.1095 11.1375 27.1413C11.1905 27.1413 11.2435 27.1413 11.2965 27.1519C11.7469 27.1783 12.2079 27.173 12.6689 27.1254L12.8756 27.1042L12.7007 27.0035C11.8794 26.5266 11.1746 25.9066 10.5918 25.1754C10.56 25.133 10.5282 25.0959 10.4964 25.0535C9.96119 24.3487 9.53728 23.5486 9.25114 22.6743C9.24054 22.6478 9.22995 22.616 9.21935 22.5895C8.93851 21.7099 8.78484 20.7667 8.77954 19.7758C8.77954 19.7493 8.77954 19.7228 8.77954 19.7016C8.77954 19.6804 8.77954 19.6539 8.77954 19.6274C8.77954 19.0975 8.83253 18.5729 8.91731 18.043C8.91731 18.0218 8.92261 18.0059 8.92791 17.9848C9.01799 17.4549 9.14516 16.925 9.31473 16.4057L9.33062 16.3633C9.38361 16.2043 9.4366 16.0454 9.49489 15.8917C9.65916 16.0189 9.82342 16.1407 9.99299 16.2626C10.0831 16.3315 10.1784 16.3951 10.2685 16.4587C10.5017 16.6176 10.7348 16.7766 10.9733 16.925C11.0687 16.9833 11.1587 17.0468 11.2541 17.1051C11.3389 17.1581 11.4237 17.2111 11.5085 17.2588C11.7469 17.4019 11.9801 17.5396 12.2238 17.6668H12.2397V17.6774L12.7537 17.9583L13.5644 18.3981L13.9566 18.61C14.1579 18.7213 14.3593 18.8326 14.5606 18.9386L14.6666 18.9968L15.117 19.2406L15.3131 19.3466C15.4985 19.4473 15.6734 19.5426 15.843 19.6327H15.8536C15.8536 19.6327 15.8748 19.6486 15.8854 19.6539C16.2086 19.8288 16.5318 19.993 16.8657 20.1467C16.9398 20.1785 17.0087 20.2156 17.0829 20.2474C17.4167 20.4011 17.7506 20.5441 18.0897 20.6819C18.148 20.7031 18.2116 20.7296 18.2699 20.7508C18.5825 20.8727 18.9004 20.9892 19.2184 21.0952C19.2767 21.1164 19.3296 21.1323 19.3879 21.1535C19.7377 21.2648 20.0927 21.3708 20.4477 21.4661C20.5272 21.4873 20.6067 21.5085 20.6862 21.5297C20.8345 21.5668 20.9882 21.6039 21.1366 21.641C21.2161 21.6622 21.3008 21.6781 21.3803 21.694C21.5181 21.7258 21.6559 21.7576 21.7936 21.7841H21.8095C22.1805 21.8583 22.5514 21.9218 22.9276 21.9748C23.0071 21.9854 23.0866 21.996 23.1714 22.0066C23.5423 22.0543 23.9185 22.0967 24.2947 22.1285C24.3583 22.1285 24.4219 22.1391 24.4855 22.1391C24.8299 22.1656 25.1796 22.1815 25.5294 22.1868C25.593 22.1868 25.6565 22.1868 25.7201 22.1921C26.1016 22.1974 26.4885 22.1921 26.8753 22.1762C26.9601 22.1762 27.0448 22.1709 27.1296 22.1656C27.527 22.1444 27.9245 22.1232 28.3272 22.0808C28.2742 21.8318 28.2371 21.5827 28.2053 21.3443C28.2053 21.3178 28.2 21.2966 28.1947 21.2701C28.1682 21.0581 28.147 20.8462 28.1311 20.6395C28.1311 20.6183 28.1311 20.5918 28.1258 20.5653C28.1152 20.3852 28.1099 20.205 28.1099 20.0301C28.1099 20.0036 28.1099 19.9771 28.1099 19.9559C28.1099 19.9348 28.1099 19.9083 28.1099 19.8818C28.1417 16.4587 29.8851 13.2316 32.4603 11.234C32.4709 11.2234 32.4868 11.2128 32.4974 11.2075C33.785 10.2166 35.2793 9.53301 36.8743 9.28926C36.9061 9.28926 36.9432 9.27336 36.975 9.26806C37.2505 9.23097 37.5208 9.20978 37.791 9.19918C37.8652 9.19918 37.9341 9.19918 38.0083 9.19388C38.2361 9.19388 38.4587 9.19388 38.6812 9.20978C38.7289 9.20978 38.7713 9.20978 38.819 9.21507C39.0787 9.23627 39.333 9.27336 39.5873 9.32105C39.6509 9.33165 39.7145 9.34755 39.7728 9.36344C39.794 9.36344 39.8152 9.37404 39.8311 9.37934C39.8311 9.37934 39.8417 9.38994 39.847 9.38994L42.7455 10.969C42.3799 11.3717 41.9878 11.7585 41.5744 12.1136L44.0331 13.4542C43.9642 13.5337 43.8954 13.6132 43.8265 13.6926C43.3019 14.2861 42.7614 14.8637 42.1785 15.4042C42.1838 15.542 42.1785 15.6797 42.1785 15.8175C42.1785 15.8387 42.1785 15.8599 42.1785 15.8811C42.1785 15.9977 42.1785 16.1089 42.1785 16.2255C42.1785 16.2467 42.1785 16.2679 42.1785 16.2891C42.1785 16.3739 42.1785 16.4587 42.1785 16.5435C42.1785 16.5699 42.1785 16.5964 42.1785 16.6176C42.1785 16.6388 42.1785 16.6653 42.1785 16.6918C42.1679 18.8591 41.8977 21.0687 41.389 23.2572L41.3784 23.2996C40.361 27.6711 38.4057 31.9686 35.6715 35.6672C35.6609 35.6831 35.645 35.7043 35.6344 35.7202C35.6238 35.7361 35.6079 35.7573 35.592 35.7732C34.5057 37.2357 33.128 38.8147 31.4482 40.3302L31.4111 40.362C29.6996 41.8987 27.6648 43.3559 25.275 44.5481C25.2591 44.5587 25.2379 44.564 25.222 44.5746C22.8322 45.7616 20.0927 46.6836 16.961 47.134C16.9239 47.134 16.8922 47.1446 16.8551 47.1499C16.818 47.1552 16.7809 47.1605 16.7438 47.1658C15.2548 47.3672 13.7764 47.4307 12.3298 47.3513C12.2821 47.3513 12.2291 47.346 12.1814 47.3407C10.9309 47.2665 9.70155 47.0863 8.504 46.8055C8.62587 46.7896 8.74245 46.779 8.86432 46.7631C8.90141 46.7631 8.93851 46.7578 8.9756 46.7525C9.01269 46.7525 9.04448 46.7419 9.08158 46.7366C10.3692 46.5458 11.6356 46.2173 12.865 45.7563C12.8915 45.7457 12.9233 45.7351 12.9498 45.7245C14.2162 45.2423 15.4403 44.6223 16.6113 43.8699C16.6325 43.854 16.659 43.8381 16.6802 43.8222C17.8725 43.0486 19.0117 42.1424 20.0768 41.1039L20.2146 40.9767L16.5901 39.0055L16.4206 39.0267C16.198 39.0532 15.9754 39.0691 15.7582 39.0797C15.684 39.0797 15.6151 39.0797 15.5409 39.0797C15.3926 39.0797 15.2495 39.0797 15.1064 39.0797C15.0216 39.0797 14.9369 39.0691 14.8574 39.0638C14.7249 39.0532 14.5977 39.0426 14.4706 39.0267C14.3858 39.0161 14.2957 39.0002 14.2109 38.9896C14.089 38.9684 13.9672 38.9472 13.8453 38.926C13.8241 38.926 13.7976 38.9154 13.7764 38.9101L13.7817 38.8942ZM42.3852 15.7645C42.3852 15.7009 42.3852 15.6373 42.3852 15.5791L45.7553 17.4125C45.7553 17.4761 45.7553 17.5396 45.7553 17.6032L42.3852 15.7698V15.7645ZM45.7606 17.8099C45.7606 17.847 45.7606 17.8841 45.7606 17.9159C45.7606 17.9371 45.7606 17.9583 45.7606 17.9795V17.9954L42.3852 16.1619C42.3852 16.0983 42.3852 16.0401 42.3852 15.9765L45.7606 17.8099ZM15.5886 40.0388L15.631 40.0017C15.7158 39.9275 15.8059 39.8533 15.8907 39.7738C16.0602 39.6202 16.2245 39.4612 16.3941 39.3022L19.4462 40.9661C19.3349 40.9714 19.2184 40.982 19.1071 40.982C19.0382 40.982 18.9746 40.982 18.9057 40.982C18.6991 40.982 18.4924 40.9661 18.2858 40.9449C18.2487 40.9449 18.2116 40.9449 18.1692 40.9343C17.9307 40.9078 17.6976 40.8654 17.4644 40.8177C17.4114 40.8071 17.3585 40.7912 17.3055 40.7806C17.1147 40.7329 16.9239 40.6852 16.7332 40.6217C16.6908 40.6058 16.6431 40.5952 16.6007 40.5793C16.5689 40.5687 16.5424 40.5528 16.5106 40.5422L15.5833 40.0388H15.5886ZM16.4417 39.2545C16.4417 39.2545 16.4735 39.2227 16.4894 39.2069L19.6953 40.9502C19.6529 40.9502 19.6105 40.9502 19.5734 40.9555L16.4417 39.2545ZM14.5447 39.4665C14.4229 39.3711 14.3063 39.2704 14.1897 39.1698C14.3116 39.191 14.4335 39.2069 14.5553 39.2227C14.6189 39.228 14.6825 39.2333 14.7514 39.2386C14.9369 39.2545 15.1223 39.2651 15.3131 39.2651C15.382 39.2651 15.4562 39.2651 15.525 39.2651C15.7476 39.2651 15.9754 39.2545 16.2033 39.2333C15.949 39.4771 15.684 39.7102 15.4191 39.9434L14.5447 39.4665ZM13.3419 41.7609C13.4532 41.6867 13.5644 41.6073 13.681 41.5278C13.787 41.4536 13.893 41.3794 13.999 41.3052C14.1102 41.2257 14.2162 41.1409 14.3275 41.0615C14.4335 40.982 14.5394 40.9025 14.6454 40.823C14.7567 40.7382 14.868 40.6429 14.9793 40.5528C15.0799 40.4733 15.1806 40.3938 15.276 40.309C15.3025 40.2878 15.329 40.2613 15.3555 40.2401L15.3979 40.2613C15.4668 40.2984 15.5409 40.3302 15.6151 40.3673C15.7211 40.4203 15.8271 40.4733 15.9331 40.521C15.986 40.5422 16.039 40.5634 16.092 40.5846C16.1821 40.6217 16.2669 40.6587 16.357 40.6905C16.4047 40.7064 16.4523 40.7276 16.5 40.7435C16.5742 40.77 16.6431 40.7912 16.7173 40.8124C16.8392 40.8495 16.9663 40.8866 17.0935 40.9237C17.173 40.9449 17.2525 40.9608 17.3373 40.982C17.4591 41.0085 17.5863 41.035 17.7135 41.0562C17.7983 41.0721 17.8778 41.0827 17.9625 41.0933C18.0897 41.1092 18.2222 41.1251 18.3547 41.1357C18.4341 41.141 18.5189 41.1515 18.5984 41.1568C18.7415 41.1674 18.8898 41.1674 19.0329 41.1674C19.1018 41.1674 19.176 41.1674 19.2449 41.1674C19.4197 41.1674 19.5999 41.1516 19.7801 41.1357H19.7907C19.4038 41.5119 19.0064 41.8616 18.6037 42.1954L18.5931 42.206C18.4288 42.3385 18.2646 42.471 18.1003 42.5981C18.0579 42.6299 18.0155 42.667 17.9731 42.6988C17.8195 42.8154 17.6658 42.9267 17.5068 43.0433C17.4538 43.0856 17.3956 43.128 17.3426 43.1651C17.2101 43.2605 17.0723 43.3506 16.9345 43.4407C16.8551 43.4937 16.7756 43.5519 16.6961 43.6049C16.659 43.6314 16.6219 43.6526 16.5848 43.6738L13.2147 41.8404C13.2571 41.8139 13.3048 41.7821 13.3472 41.7556L13.3419 41.7609ZM9.89761 43.6049C10.0248 43.5519 10.1467 43.499 10.2738 43.4407C10.3851 43.393 10.4964 43.3453 10.6077 43.2923C10.7295 43.234 10.8514 43.1757 10.9733 43.1121C11.0846 43.0592 11.1958 43.0062 11.3071 42.9479C11.429 42.8843 11.5456 42.8207 11.6621 42.7571C11.7734 42.6988 11.8847 42.6405 11.996 42.577C12.1125 42.5134 12.2291 42.4392 12.3457 42.3756C12.457 42.312 12.5683 42.2484 12.6742 42.1795C12.7908 42.1106 12.9021 42.0365 13.0187 41.9623L13.0505 41.9411L16.4206 43.7745C16.3835 43.7957 16.3464 43.8222 16.3093 43.8434C16.2192 43.9017 16.1291 43.96 16.039 44.013C15.9172 44.0871 15.79 44.156 15.6681 44.2249C15.5674 44.2832 15.472 44.3415 15.3714 44.3945C15.2601 44.4528 15.1488 44.5111 15.0375 44.5693C14.921 44.6276 14.8097 44.6912 14.6931 44.7495C14.5977 44.7972 14.4971 44.8449 14.4017 44.8873C14.2692 44.9509 14.142 45.0144 14.0096 45.0727C13.9142 45.1151 13.8188 45.1522 13.7234 45.1946C13.5856 45.2529 13.4532 45.3112 13.3154 45.3695C13.22 45.4066 13.1193 45.4437 13.024 45.4808C12.9816 45.4966 12.9339 45.5125 12.8915 45.5284L9.56378 43.7162C9.67505 43.6738 9.78633 43.6314 9.89761 43.5837V43.6049ZM5.85984 44.7654C5.98702 44.7442 6.11419 44.723 6.24137 44.7018C6.36854 44.6806 6.49041 44.6488 6.61759 44.6223C6.73946 44.5958 6.86134 44.5693 6.98321 44.5428C7.11038 44.511 7.23756 44.4793 7.36473 44.4475C7.48661 44.4157 7.60318 44.3892 7.72506 44.3521C7.85223 44.315 7.9794 44.2779 8.10658 44.2408C8.22315 44.2037 8.33973 44.1719 8.45631 44.1348C8.58348 44.0924 8.71065 44.05 8.83783 44.0077C8.9544 43.9653 9.06568 43.9282 9.18225 43.8858C9.23524 43.8646 9.29353 43.8434 9.34652 43.8222L12.6742 45.6291C12.6742 45.6291 12.6371 45.645 12.6212 45.6503C12.5259 45.6821 12.4305 45.7139 12.3404 45.7457C12.1973 45.7934 12.0543 45.8464 11.9165 45.8888C11.8158 45.9206 11.7204 45.9471 11.6197 45.9735C11.482 46.0159 11.3389 46.0583 11.2011 46.0954C11.0952 46.1219 10.9892 46.1484 10.8832 46.1749C10.7454 46.2067 10.613 46.2438 10.4752 46.2756C10.3639 46.3021 10.2526 46.3233 10.1414 46.3445C10.0089 46.371 9.87641 46.4028 9.74394 46.424C9.62206 46.4451 9.50019 46.461 9.37831 46.4822C9.25644 46.5034 9.13986 46.5246 9.01799 46.5405L5.76976 44.7707C5.80156 44.7654 5.83335 44.7601 5.86514 44.7548L5.85984 44.7654ZM5.36175 44.8449L8.59408 46.6041C8.4828 46.62 8.37152 46.6306 8.26554 46.6465L5.02792 44.8873C5.13919 44.8714 5.24517 44.8661 5.36175 44.8502V44.8449ZM4.54572 44.9403C4.54572 44.9403 4.58281 44.9403 4.59871 44.935C4.6358 44.935 4.67289 44.9244 4.70468 44.9244L7.84693 46.6306C7.80454 46.62 7.75685 46.6094 7.71446 46.5935C7.43892 46.5193 7.15808 46.4346 6.88783 46.3445L4.33376 44.9562C4.40795 44.9509 4.47683 44.9456 4.55102 44.9403H4.54572ZM3.75618 44.9985C3.85156 44.9985 3.95224 44.9827 4.05292 44.9774L6.04001 46.0583C5.5896 45.8941 5.14449 45.7139 4.70468 45.5178L3.75088 44.9985H3.75618ZM6.86134 46.8426L5.27697 45.9788C5.42004 46.0371 5.5737 46.0848 5.71677 46.1431L6.96731 46.8267C6.93022 46.832 6.89313 46.8373 6.85604 46.8426H6.86134ZM6.554 46.5193L6.14599 46.2968C6.43742 46.3975 6.72357 46.4981 7.0203 46.5882L7.34354 46.7631C7.25875 46.7737 7.16867 46.7896 7.08389 46.8055L6.5593 46.5193H6.554ZM9.84992 48.0242C9.72274 47.9765 9.59027 47.9341 9.4631 47.8865C9.34122 47.8388 9.22465 47.7911 9.10807 47.7434C8.965 47.6851 8.82193 47.6321 8.68416 47.5738C8.60467 47.542 8.53049 47.5049 8.45631 47.4678C8.05889 47.293 7.66147 47.1022 7.27465 46.9062C7.38063 46.9062 7.49191 46.8956 7.60318 46.885C7.65087 46.885 7.69326 46.885 7.74095 46.8744H7.74625L9.86051 48.0242H9.84992ZM14.7461 49.1476C14.6189 49.1317 14.4865 49.1211 14.3593 49.1052C14.2056 49.084 14.0519 49.0628 13.9036 49.0363C13.7764 49.0151 13.6492 48.9992 13.5221 48.978C13.3684 48.9515 13.22 48.925 13.0663 48.8932C12.9392 48.872 12.8173 48.8456 12.6901 48.8244C12.5418 48.7926 12.3934 48.7555 12.245 48.7237C12.1178 48.6972 11.996 48.6707 11.8688 48.6389C11.7204 48.6018 11.5721 48.5594 11.4237 48.517C11.3972 48.5117 11.3654 48.5011 11.3389 48.4958L8.61527 47.0121C9.74394 47.2665 10.8938 47.436 12.0649 47.5155L15.1382 49.19C15.0057 49.1794 14.8786 49.1635 14.7461 49.1476ZM19.9231 49.1211C19.7907 49.137 19.6582 49.1529 19.5257 49.1688C19.3667 49.1847 19.2131 49.1953 19.0541 49.2112C18.9216 49.2218 18.7839 49.2324 18.6514 49.243C18.4977 49.2536 18.3441 49.2589 18.1904 49.2642C18.0526 49.2695 17.9201 49.2748 17.7824 49.2801C17.6287 49.2801 17.475 49.2801 17.3214 49.2801C17.1889 49.2801 17.0511 49.2801 16.9186 49.2801C16.765 49.2801 16.6113 49.2695 16.4576 49.2695C16.3252 49.2695 16.1927 49.2642 16.0602 49.2536C15.986 49.2536 15.9119 49.243 15.8377 49.2377L12.7272 47.5473C13.0611 47.5579 13.4002 47.5685 13.734 47.5685C13.7764 47.5685 13.8135 47.5685 13.8559 47.5685C14.2162 47.5685 14.5818 47.542 14.9475 47.5208C15.0852 47.5102 15.223 47.5102 15.3608 47.4996C15.631 47.4784 15.9013 47.4413 16.1715 47.4148C16.4047 47.3884 16.6378 47.3725 16.871 47.3407L20.1086 49.0999C20.0503 49.1052 19.9867 49.1158 19.9284 49.1211H19.9231ZM28.3696 46.7207C28.0092 46.8903 27.633 47.0492 27.2568 47.2082C27.1561 47.2506 27.0554 47.2983 26.9548 47.3407C26.4938 47.5261 26.0222 47.701 25.54 47.8653C25.5135 47.8759 25.4923 47.8865 25.4658 47.8918C24.4431 48.2362 23.3674 48.5276 22.2387 48.7555C22.0427 48.7926 21.8413 48.8244 21.6453 48.8562C21.2743 48.925 20.9034 48.9939 20.5166 49.0522L17.2578 47.2824C17.4803 47.2506 17.6976 47.2029 17.9148 47.1658C18.1851 47.1181 18.4606 47.0757 18.7256 47.0227C19.0329 46.9591 19.3244 46.885 19.6211 46.8108C19.8754 46.7472 20.1351 46.6942 20.3841 46.6253C20.6809 46.5458 20.9617 46.4504 21.2479 46.3657C21.4863 46.2915 21.7301 46.2226 21.9632 46.1484C22.2493 46.053 22.5196 45.9471 22.7951 45.8411C23.0177 45.7563 23.2455 45.6821 23.4628 45.592C23.7383 45.4808 23.998 45.3589 24.2682 45.2423C24.4749 45.1522 24.6868 45.0621 24.8882 44.9721C25.0207 44.9085 25.1425 44.8449 25.2697 44.7813L28.6239 46.6094C28.5391 46.6518 28.4597 46.6942 28.3696 46.7366V46.7207ZM34.8289 42.4445C34.6647 42.5928 34.5004 42.7412 34.3308 42.8843C34.156 43.0327 33.9652 43.1757 33.7798 43.3241C33.6155 43.4566 33.4512 43.5943 33.2817 43.7215C33.0803 43.8752 32.8683 44.0236 32.6564 44.1772C32.4921 44.2938 32.3332 44.4157 32.1636 44.5322C31.9357 44.6912 31.692 44.8396 31.4535 44.9933C31.2946 45.0992 31.1409 45.2052 30.9713 45.3059C30.7064 45.4701 30.4255 45.6238 30.1447 45.7828C29.9963 45.8676 29.8586 45.9524 29.7049 46.0371C29.4294 46.1855 29.1379 46.3286 28.8465 46.4716L25.4923 44.6435C25.5453 44.617 25.5982 44.5905 25.6512 44.564C25.842 44.4634 26.0434 44.3733 26.2288 44.2673C26.4832 44.1295 26.7216 43.9865 26.9654 43.8381C27.1402 43.7321 27.3257 43.6367 27.5006 43.5255C27.7443 43.3771 27.9775 43.2181 28.2106 43.0592C28.3696 42.9532 28.5391 42.8472 28.6981 42.7412C28.926 42.5823 29.1432 42.418 29.3658 42.2537C29.5194 42.1424 29.6784 42.0312 29.8215 41.9199C30.0546 41.7397 30.2719 41.5596 30.4944 41.3794C30.6216 41.2787 30.7541 41.178 30.876 41.0721C31.0932 40.8919 31.2946 40.7064 31.4959 40.521L34.8872 42.365C34.8872 42.365 34.8448 42.4021 34.8236 42.4233L34.8289 42.4445ZM38.925 38.0464C38.8031 38.2054 38.6812 38.3643 38.5541 38.5286C38.4587 38.6505 38.3527 38.7723 38.252 38.8995C38.1143 39.0638 37.9818 39.228 37.8387 39.3976C37.7327 39.5248 37.6162 39.6467 37.5049 39.7738C37.3565 39.9381 37.2134 40.1077 37.0598 40.2719C36.9379 40.4044 36.8107 40.5316 36.6835 40.664C36.5299 40.8283 36.3762 40.9873 36.2172 41.1516C36.0795 41.2893 35.9364 41.4218 35.7933 41.5596C35.6344 41.7132 35.4754 41.8722 35.3058 42.0259C35.2211 42.1053 35.1257 42.1848 35.0409 42.2643L31.6496 40.4203C31.6973 40.3779 31.745 40.3355 31.7927 40.2931C31.9569 40.1395 32.1159 39.9858 32.2749 39.8321C32.4444 39.6679 32.6193 39.5089 32.7783 39.3446C32.9213 39.2016 33.0538 39.0585 33.1916 38.9101C33.3346 38.7564 33.4883 38.6081 33.6261 38.4544C33.7639 38.306 33.8857 38.1577 34.0182 38.0146C34.1507 37.8662 34.2831 37.7179 34.4103 37.5748C34.5375 37.4211 34.6594 37.2728 34.7812 37.1244C34.8978 36.9813 35.0197 36.8435 35.1257 36.7005C35.2422 36.5521 35.3535 36.409 35.4648 36.2607C35.5655 36.1282 35.6715 35.9957 35.7668 35.8685L39.1687 37.7232C39.0893 37.8291 39.0045 37.9404 38.9197 38.0464H38.925ZM42.5865 32.0533C42.507 32.2176 42.4223 32.3766 42.3428 32.5408C42.2315 32.7687 42.1202 32.9912 42.0036 33.2138C41.9083 33.394 41.8129 33.5635 41.7122 33.7437C41.6009 33.945 41.495 34.1517 41.3784 34.3531C41.2671 34.5438 41.1505 34.7346 41.0392 34.9253C40.9333 35.1055 40.8273 35.291 40.716 35.4658C40.5888 35.6672 40.4564 35.8685 40.3239 36.0646C40.2179 36.2289 40.1119 36.3931 40.006 36.5521C39.8629 36.7588 39.7198 36.9601 39.5715 37.1668C39.4708 37.3098 39.3701 37.4529 39.2694 37.596L35.8622 35.7414C35.9788 35.5877 36.0848 35.4234 36.2014 35.2645C36.3338 35.079 36.4663 34.8988 36.5882 34.7134C36.7047 34.5438 36.816 34.369 36.9273 34.1941C37.0545 34.0033 37.1816 33.8126 37.3035 33.6165C37.4095 33.4469 37.5102 33.2721 37.6162 33.0972C37.738 32.8959 37.8599 32.6945 37.9765 32.4931C38.0772 32.3236 38.1672 32.1434 38.2626 31.9739C38.3792 31.7672 38.4958 31.5605 38.6071 31.3486C38.7024 31.1684 38.7872 30.983 38.8773 30.8028C38.9833 30.5961 39.0893 30.3895 39.1899 30.1828C39.2376 30.0768 39.2853 29.9709 39.333 29.8702L42.7402 31.7248C42.6872 31.8361 42.6448 31.9421 42.5918 32.0533H42.5865ZM44.049 28.466C44.049 28.466 44.0384 28.4925 44.0331 28.5031C43.9007 28.8952 43.7576 29.2873 43.6039 29.6741C43.5668 29.7748 43.5191 29.8755 43.482 29.9762C43.3655 30.2729 43.2436 30.5749 43.1164 30.8717C43.0581 31.0148 42.9892 31.1525 42.9257 31.2903C42.8833 31.391 42.8356 31.4917 42.7879 31.587L39.3807 29.7324C39.3966 29.7006 39.4125 29.6635 39.4284 29.6317C39.635 29.176 39.8311 28.7203 40.0166 28.2593C40.0801 28.1057 40.1437 27.952 40.2073 27.793C40.2868 27.5917 40.3557 27.385 40.4299 27.1836C40.5041 26.9823 40.5835 26.7756 40.6524 26.5743C40.7213 26.3729 40.7796 26.1716 40.8485 25.9702C40.9174 25.7635 40.9863 25.5516 41.0498 25.3449C41.1081 25.1436 41.1611 24.9422 41.2194 24.7409C41.2777 24.5289 41.3413 24.3169 41.3943 24.105C41.4473 23.9036 41.4897 23.7076 41.5373 23.5062C41.5479 23.4638 41.5585 23.4161 41.5691 23.3737L44.9657 25.2231C44.7114 26.3093 44.4093 27.3903 44.0437 28.4607L44.049 28.466ZM45.75 19.3519C45.75 19.5108 45.75 19.6645 45.7394 19.8235C45.7288 20.0884 45.7023 20.3587 45.6864 20.6289C45.6758 20.772 45.6705 20.915 45.6546 21.0581C45.6281 21.3496 45.591 21.6357 45.5592 21.9271C45.5433 22.049 45.5327 22.1709 45.5168 22.2928C45.4744 22.6213 45.4214 22.9445 45.3684 23.2731C45.3526 23.3578 45.342 23.4426 45.3261 23.5327C45.2572 23.9142 45.183 24.2957 45.1035 24.6826C45.0982 24.7144 45.0929 24.7462 45.0876 24.7726C45.0664 24.868 45.0399 24.9581 45.024 25.0535L41.6274 23.2042C41.6539 23.0929 41.6804 22.9816 41.7069 22.8703C41.7493 22.669 41.7864 22.4729 41.8235 22.2716C41.8659 22.0543 41.9136 21.8371 41.9507 21.6251C41.9878 21.4237 42.0142 21.2224 42.046 21.0263C42.0778 20.8091 42.1149 20.5971 42.1467 20.3799C42.1732 20.1785 42.1944 19.9771 42.2156 19.7758C42.2421 19.5638 42.2686 19.3466 42.2898 19.1346C42.3057 18.9333 42.3163 18.7319 42.3322 18.5305C42.3481 18.3186 42.364 18.1066 42.3746 17.8947C42.3852 17.6933 42.3852 17.492 42.3905 17.2906C42.3905 17.1263 42.4011 16.9568 42.4064 16.7925L45.7818 18.6259C45.7818 18.8697 45.7712 19.1134 45.7659 19.3625L45.75 19.3519ZM44.1444 17.5026L42.4011 16.5541C42.4011 16.5117 42.4011 16.4693 42.4011 16.4269C42.4011 16.411 42.4011 16.4004 42.4011 16.3845L45.7765 18.2179C45.7765 18.2762 45.7765 18.3345 45.7765 18.3875L44.1497 17.5026H44.1444ZM45.8453 17.2482L42.4276 15.3883C42.9469 14.9114 43.4396 14.3974 43.9165 13.8675L47.3237 15.7221C46.8521 16.2467 46.3646 16.7607 45.8453 17.2482ZM47.4615 15.5579L44.0543 13.7032C44.1073 13.645 44.155 13.5867 44.208 13.5284L45.2148 14.0742C45.7659 13.9205 46.3064 13.7403 46.8415 13.5443C46.8733 13.5337 46.9104 13.5178 46.9422 13.5072C47.1489 13.4277 47.3608 13.3535 47.5675 13.2634L48.7809 13.9205C48.3676 14.4822 47.9278 15.028 47.4668 15.5526L47.4615 15.5579ZM48.9452 13.7032L47.8907 13.131C48.0974 13.0409 48.2987 12.9402 48.5001 12.8448C48.5319 12.8289 48.5637 12.8183 48.5955 12.8024C49.0883 12.564 49.5758 12.3096 50.0527 12.0288C49.7082 12.6064 49.3373 13.1575 48.9452 13.7032ZM49.9785 11.8592C49.6924 11.7056 49.385 11.536 49.0671 11.3664C48.7385 11.1863 48.3994 11.0061 48.0656 10.8206C48.0921 10.773 48.1239 10.7306 48.1451 10.6882L50.1375 11.7744C50.0845 11.8062 50.0262 11.8327 49.9732 11.8645L49.9785 11.8592ZM50.307 11.6685L48.2299 10.5398C48.2299 10.5398 48.2458 10.5027 48.2564 10.4868L50.3653 11.6314L50.307 11.6685Z"/></svg>